G04 DipTrace 3.1.0.1*
G04 Нижняямаркировка.gbr*
%MOIN*%
G04 #@! TF.FileFunction,Legend,Bot*
G04 #@! TF.Part,Single*
%ADD10C,0.009843*%
%ADD15C,0.001312*%
%ADD20C,0.023627*%
%ADD89C,0.00772*%
%FSLAX26Y26*%
G04*
G70*
G90*
G75*
G01*
G04 BotSilk*
%LPD*%
X171256Y3813301D2*
D10*
Y3762159D1*
X171358Y3313248D2*
Y3262106D1*
X141539Y3061264D2*
Y3014019D1*
X208479Y3061264D2*
Y3014019D1*
D20*
X175009Y3157735D3*
X244467Y2710113D2*
D10*
X193325D1*
X688139Y885197D2*
X636997D1*
X466301Y149446D2*
Y200588D1*
X-9Y3900241D2*
D15*
X1325130D1*
Y2875134D1*
X-9D1*
Y3900241D1*
Y2793875D2*
X1325130D1*
Y1768768D1*
X-9D1*
Y2793875D1*
X-8Y1687604D2*
X1325131D1*
Y-73D1*
X-8D1*
Y1687604D1*
X248664Y3878542D2*
D89*
X251040Y3883295D1*
X255849Y3888104D1*
X260602Y3890480D1*
X270164D1*
X274972Y3888104D1*
X279725Y3883295D1*
X282157Y3878542D1*
X284534Y3871357D1*
Y3859364D1*
X282157Y3852234D1*
X279725Y3847425D1*
X274972Y3842672D1*
X270164Y3840240D1*
X260602D1*
X255849Y3842672D1*
X251040Y3847425D1*
X248664Y3852234D1*
X230793Y3878487D2*
Y3880863D1*
X228416Y3885672D1*
X226040Y3888048D1*
X221231Y3890425D1*
X211670D1*
X206916Y3888048D1*
X204540Y3885672D1*
X202108Y3880863D1*
Y3876110D1*
X204540Y3871302D1*
X209293Y3864172D1*
X233225Y3840240D1*
X199731D1*
X249955Y3378490D2*
X252331Y3383243D1*
X257140Y3388051D1*
X261893Y3390428D1*
X271454D1*
X276263Y3388051D1*
X281016Y3383243D1*
X283448Y3378490D1*
X285824Y3371305D1*
Y3359311D1*
X283448Y3352181D1*
X281016Y3347373D1*
X276263Y3342620D1*
X271454Y3340188D1*
X261893D1*
X257140Y3342620D1*
X252331Y3347373D1*
X249955Y3352181D1*
X210584Y3340188D2*
Y3390373D1*
X234515Y3356934D1*
X198645D1*
X66353Y3086815D2*
X116593D1*
Y3070068D1*
X114161Y3062883D1*
X109408Y3058075D1*
X104600Y3055698D1*
X97470Y3053321D1*
X85476Y3053322D1*
X78291Y3055698D1*
X73538Y3058075D1*
X68730Y3062883D1*
X66353Y3070068D1*
Y3086815D1*
X75970Y3037882D2*
X73538Y3033074D1*
X66408Y3025889D1*
X116593D1*
X224212Y2539463D2*
X226588Y2544216D1*
X231397Y2549024D1*
X236150Y2551401D1*
X245712D1*
X250520Y2549024D1*
X255273Y2544216D1*
X257705Y2539463D1*
X260082Y2532278D1*
Y2520284D1*
X257705Y2513154D1*
X255273Y2508346D1*
X250520Y2503593D1*
X245712Y2501161D1*
X236150D1*
X231397Y2503593D1*
X226588Y2508346D1*
X224212Y2513154D1*
X180088Y2544216D2*
X182464Y2548969D1*
X189649Y2551346D1*
X194402D1*
X201587Y2548969D1*
X206396Y2541784D1*
X208772Y2529846D1*
Y2517908D1*
X206396Y2508346D1*
X201587Y2503537D1*
X194402Y2501161D1*
X192026D1*
X184896Y2503537D1*
X180088Y2508346D1*
X177711Y2515531D1*
Y2517908D1*
X180088Y2525093D1*
X184896Y2529846D1*
X192026Y2532222D1*
X194402D1*
X201587Y2529846D1*
X206396Y2525093D1*
X208772Y2517908D1*
X720993Y823818D2*
X716240Y826195D1*
X711431Y831003D1*
X709055Y835756D1*
Y845318D1*
X711431Y850126D1*
X716240Y854880D1*
X720993Y857311D1*
X728178Y859688D1*
X740171D1*
X747301Y857311D1*
X752109Y854879D1*
X756863Y850126D1*
X759295Y845318D1*
Y835756D1*
X756863Y831003D1*
X752110Y826195D1*
X747301Y823818D1*
X718671Y808379D2*
X716240Y803570D1*
X709110Y796385D1*
X759295D1*
X718671Y780946D2*
X716240Y776138D1*
X709110Y768953D1*
X759294D1*
X415672Y265829D2*
X418048Y270583D1*
X422857Y275391D1*
X427610Y277768D1*
X437171D1*
X441980Y275391D1*
X446733Y270583D1*
X449165Y265829D1*
X451542Y258644D1*
Y246651D1*
X449165Y239521D1*
X446733Y234713D1*
X441980Y229960D1*
X437171Y227528D1*
X427610D1*
X422857Y229960D1*
X418048Y234713D1*
X415672Y239521D1*
X400232Y268151D2*
X395424Y270583D1*
X388239Y277712D1*
Y227528D1*
X370368Y265774D2*
Y268151D1*
X367991Y272959D1*
X365615Y275336D1*
X360806Y277712D1*
X351244D1*
X346491Y275336D1*
X344115Y272959D1*
X341683Y268151D1*
Y263398D1*
X344115Y258589D1*
X348868Y251459D1*
X372800Y227528D1*
X339306D1*
M02*
