G04 DipTrace 3.1.0.1*
G04 Нижняямаска.gbr*
%MOIN*%
G04 #@! TF.FileFunction,Soldermask,Bot*
G04 #@! TF.Part,Single*
%ADD44C,0.098425*%
%ADD45C,0.035433*%
%ADD63O,0.086614X0.074803*%
%ADD65R,0.086614X0.074803*%
%ADD71R,0.066929X0.059055*%
%ADD75C,0.086614*%
%ADD77R,0.086614X0.086614*%
%ADD79C,0.106299*%
%ADD81R,0.106299X0.106299*%
%ADD83R,0.07874X0.062992*%
%ADD85R,0.059055X0.066929*%
%FSLAX26Y26*%
G04*
G70*
G90*
G75*
G01*
G04 BotMask*
%LPD*%
D85*
X212615Y3787730D3*
X287419D3*
X212718Y3287677D3*
X287521D3*
D83*
X175009Y3104580D3*
Y2970722D3*
D81*
X367285Y3006398D3*
D79*
X564135D3*
X760986D3*
X957836D3*
D77*
X62497Y3837688D3*
D75*
Y3737688D3*
Y3637688D3*
Y3537688D3*
Y3437688D3*
Y3337688D3*
Y3237688D3*
Y3137688D3*
Y3037688D3*
Y2937688D3*
D77*
X1262623Y3837688D3*
D75*
Y3737688D3*
Y3637688D3*
Y3537688D3*
Y3437688D3*
Y3337688D3*
Y3237688D3*
Y3137688D3*
Y3037688D3*
Y2937688D3*
D71*
X218896Y2668753D3*
Y2593950D3*
D81*
X367348Y1900114D3*
D79*
X564198D3*
X761049D3*
X957899D3*
D65*
X662693Y2506328D3*
D63*
Y2406328D3*
D75*
Y2306328D3*
D77*
X1143871Y2031369D3*
D75*
Y1931369D3*
Y1831369D3*
D77*
X181375Y2031369D3*
D75*
Y1931369D3*
Y1831369D3*
D77*
X62623Y2731369D3*
D75*
Y2631369D3*
Y2531369D3*
Y2431369D3*
Y2331369D3*
Y2231369D3*
Y2131369D3*
Y2031369D3*
Y1931369D3*
Y1831369D3*
D77*
X1262623Y2731369D3*
D75*
Y2631369D3*
Y2531369D3*
Y2431369D3*
Y2331369D3*
Y2231369D3*
Y2131369D3*
Y2031369D3*
Y1931369D3*
Y1831369D3*
D71*
X662568Y843837D3*
Y769034D3*
D85*
X424941Y175017D3*
X350138D3*
D44*
X1237500Y1600000D3*
X87500D3*
X87499Y87499D3*
X1237629Y87508D3*
D45*
X749094Y1477656D3*
X575866D3*
D77*
X1262499Y1137499D3*
D75*
Y1037499D3*
Y937499D3*
Y837499D3*
Y737499D3*
Y637499D3*
Y537499D3*
Y437499D3*
Y337499D3*
Y237499D3*
D77*
X62499Y1137499D3*
D75*
Y1037499D3*
Y937499D3*
Y837499D3*
Y737499D3*
Y637499D3*
Y537499D3*
Y437499D3*
Y337499D3*
Y237499D3*
D77*
X512568Y175017D3*
D75*
X612568D3*
X712568D3*
X812568D3*
M02*
