M48
INCH
T01C0.0118
T02C0.0354
T03C0.0433
T04C0.0512
T05C0.0984
%
T01
X+004500Y+035940
X+005625Y+034252
X+007626Y+034252
X+008063Y+036752
X+004375Y+038377
X+001625Y+037190
X+001625Y+033564
X+001626Y+027314
X+003939Y+026314
X+001814Y+022063
X+006627Y+022063
X+006627Y+020313
X+009815Y+024063
X+009815Y+025751
X+011440Y+022063
X+009062Y+012875
X+009563Y+012376
X+008562Y+011625
X+008001Y+011626
X+008937Y+010813
X+006626Y+010376
X+006626Y+009126
X+004063Y+010376
X+002438Y+010376
X+002438Y+012376
X+000625Y+012376
X+001813Y+007376
X+003125Y+007376
X+005188Y+006376
X+005188Y+005376
X+008063Y+005376
X+008063Y+006376
X+009814Y+007688
X+010251Y+007313
X+010251Y+008063
X+010251Y+008626
X+011376Y+007313
X+012626Y+012376
X+003813Y+002688
X+002438Y+002688
T02
X+007491Y+014777
X+005759Y+014777
T03
X+000625Y+038377
X+000625Y+037377
X+000625Y+036377
X+000625Y+035377
X+000625Y+034377
X+000625Y+033377
X+000625Y+032377
X+000625Y+031377
X+000625Y+030377
X+000625Y+029377
X+000626Y+027314
X+000626Y+026314
X+000626Y+025314
X+000626Y+024314
X+000626Y+023314
X+000626Y+022314
X+000626Y+021314
X+000626Y+020314
X+000626Y+019314
X+000626Y+018314
X+001814Y+018314
X+001814Y+019314
X+001814Y+020314
X+006627Y+023063
X+006627Y+024063
X+006627Y+025063
X+012626Y+025314
X+012626Y+026314
X+012626Y+027314
X+012626Y+029377
X+012626Y+030377
X+012626Y+031377
X+012626Y+032377
X+012626Y+033377
X+012626Y+034377
X+012626Y+035377
X+012626Y+036377
X+012626Y+037377
X+012626Y+038377
X+012626Y+024314
X+012626Y+023314
X+012626Y+022314
X+012626Y+021314
X+012626Y+020314
X+012626Y+019314
X+012626Y+018314
X+011439Y+018314
X+011439Y+019314
X+011439Y+020314
X+012625Y+011375
X+012625Y+010375
X+012625Y+009375
X+012625Y+008375
X+012625Y+007375
X+012625Y+006375
X+012625Y+005375
X+012625Y+004375
X+012625Y+003375
X+012625Y+002375
X+008126Y+001750
X+007126Y+001750
X+006126Y+001750
X+005126Y+001750
X+000625Y+002375
X+000625Y+003375
X+000625Y+004375
X+000625Y+005375
X+000625Y+006375
X+000625Y+007375
X+000625Y+008375
X+000625Y+009375
X+000625Y+010375
X+000625Y+011375
T04
X+003673Y+030064
X+005641Y+030064
X+007610Y+030064
X+009578Y+030064
X+009579Y+019001
X+007610Y+019001
X+005642Y+019001
X+003673Y+019001
T05
X+012375Y+016000
X+000875Y+016000
X+000875Y+000875
X+012376Y+000875
T00
M30
