G04 DipTrace 3.1.0.1*
G04 Верхняямаска.gbr*
%MOIN*%
G04 #@! TF.FileFunction,Soldermask,Top*
G04 #@! TF.Part,Single*
%ADD44C,0.098425*%
%ADD45C,0.035433*%
%ADD51R,0.07874X0.023622*%
%ADD53R,0.135827X0.09252*%
%ADD55R,0.045276X0.09252*%
%ADD57R,0.086614X0.106299*%
%ADD59R,0.027559X0.098425*%
%ADD61R,0.070866X0.13189*%
%ADD63O,0.086614X0.074803*%
%ADD65R,0.086614X0.074803*%
%ADD67R,0.070866X0.108268*%
%ADD69R,0.031496X0.086614*%
%ADD71R,0.066929X0.059055*%
%ADD73R,0.033465X0.049213*%
%ADD75C,0.086614*%
%ADD77R,0.086614X0.086614*%
%ADD79C,0.106299*%
%ADD81R,0.106299X0.106299*%
%ADD85R,0.059055X0.066929*%
%ADD87R,0.108268X0.070866*%
%FSLAX26Y26*%
G04*
G70*
G90*
G75*
G01*
G04 TopMask*
%LPD*%
D87*
X181119Y3787730D3*
X318915D3*
X181119Y3287672D3*
X318915D3*
D85*
X237413Y3575207D3*
X162610D3*
X237413Y3500199D3*
X162610D3*
D81*
X367285Y3006398D3*
D79*
X564135D3*
X760986D3*
X957836D3*
D77*
X62497Y3837688D3*
D75*
Y3737688D3*
Y3637688D3*
Y3537688D3*
Y3437688D3*
Y3337688D3*
Y3237688D3*
Y3137688D3*
Y3037688D3*
Y2937688D3*
D77*
X1262623Y3837688D3*
D75*
Y3737688D3*
Y3637688D3*
Y3537688D3*
Y3437688D3*
Y3337688D3*
Y3237688D3*
Y3137688D3*
Y3037688D3*
Y2937688D3*
D73*
X431286Y3681469D3*
X356483D3*
X393885Y3590917D3*
X431286Y3518951D3*
X356483D3*
X393885Y3428400D3*
D71*
X806325Y3519054D3*
Y3593857D3*
D85*
X625056Y3425192D3*
X699860D3*
D71*
X518795Y3519054D3*
Y3593857D3*
Y3756374D3*
Y3681571D3*
D85*
X162610Y3425192D3*
X237413D3*
Y3650215D3*
X162610D3*
D69*
X737560Y3744013D3*
X687560D3*
X637560D3*
X587560D3*
Y3531415D3*
X637560D3*
X687560D3*
X737560D3*
D67*
X218896Y2700249D3*
Y2562454D3*
D71*
X181392Y2443730D3*
Y2368927D3*
D81*
X367348Y1900114D3*
D79*
X564198D3*
X761049D3*
X957899D3*
D65*
X662693Y2506328D3*
D63*
Y2406328D3*
D75*
Y2306328D3*
D77*
X1143871Y2031369D3*
D75*
Y1931369D3*
Y1831369D3*
D77*
X181375Y2031369D3*
D75*
Y1931369D3*
Y1831369D3*
D77*
X62623Y2731369D3*
D75*
Y2631369D3*
Y2531369D3*
Y2431369D3*
Y2331369D3*
Y2231369D3*
Y2131369D3*
Y2031369D3*
Y1931369D3*
Y1831369D3*
D77*
X1262623Y2731369D3*
D75*
Y2631369D3*
Y2531369D3*
Y2431369D3*
Y2331369D3*
Y2231369D3*
Y2131369D3*
Y2031369D3*
Y1931369D3*
Y1831369D3*
D85*
X725222Y2118869D3*
X800025D3*
X1031274D3*
X956471D3*
X1031274Y2206369D3*
X956471D3*
X293971D3*
X368774D3*
Y2118869D3*
X293971D3*
X600025D3*
X525222D3*
D71*
X256400Y2443730D3*
Y2368927D3*
D69*
X543873Y2512618D3*
X493873D3*
X443873D3*
X393873D3*
Y2300020D3*
X443873D3*
X493873D3*
X543873D3*
X931373Y2512618D3*
X881373D3*
X831373D3*
X781373D3*
Y2300020D3*
X831373D3*
X881373D3*
X931373D3*
D87*
X243774Y1137618D3*
X381570D3*
X243774Y937597D3*
X381570D3*
D85*
X762597Y1287499D3*
X837400D3*
X1025097D3*
X1099900D3*
D61*
X312531Y78560D3*
Y271474D3*
D71*
X1100001Y124896D3*
Y50093D3*
X1012501Y124896D3*
Y50093D3*
X925096Y124909D3*
Y50106D3*
D44*
X1237500Y1600000D3*
X87500D3*
X87499Y87499D3*
X1237629Y87508D3*
D59*
X725491Y1375294D3*
X693995D3*
X662499D3*
X631003D3*
X599507D3*
D57*
X837696Y1379231D3*
X487302D3*
X837696Y1595766D3*
X487302D3*
D45*
X749094Y1477656D3*
X575866D3*
D77*
X1262499Y1137499D3*
D75*
Y1037499D3*
Y937499D3*
Y837499D3*
Y737499D3*
Y637499D3*
Y537499D3*
Y437499D3*
Y337499D3*
Y237499D3*
D77*
X62499Y1137499D3*
D75*
Y1037499D3*
Y937499D3*
Y837499D3*
Y737499D3*
Y637499D3*
Y537499D3*
Y437499D3*
Y337499D3*
Y237499D3*
D77*
X512568Y175017D3*
D75*
X612568D3*
X712568D3*
X812568D3*
D71*
X1100001Y412598D3*
Y487402D3*
X1012501Y412598D3*
Y487402D3*
X925096Y487448D3*
Y412644D3*
D55*
X1115550Y1601672D3*
X1024999D3*
X934448D3*
D53*
X1024999Y1373325D3*
D51*
X804235Y777411D3*
Y803001D3*
Y828592D3*
Y854182D3*
Y879773D3*
Y905364D3*
Y930954D3*
Y956545D3*
Y982135D3*
Y1007726D3*
Y1033316D3*
Y1058907D3*
Y1084497D3*
Y1110088D3*
X520762D3*
X520770Y1084497D3*
Y1058907D3*
Y1033316D3*
Y1007726D3*
Y982135D3*
Y956545D3*
Y930954D3*
Y905364D3*
Y879773D3*
Y854182D3*
Y828592D3*
Y803001D3*
Y777411D3*
M02*
