G04 DipTrace 3.1.0.1*
G04 Верхняямаркировка.gbr*
%MOIN*%
G04 #@! TF.FileFunction,Legend,Top*
G04 #@! TF.Part,Single*
%ADD10C,0.009843*%
%ADD15C,0.001312*%
%ADD16C,0.012992*%
%ADD17C,0.023676*%
%ADD26C,0.015404*%
%ADD30C,0.023616*%
%ADD34C,0.02362*%
%ADD36C,0.019654*%
%ADD39C,0.015403*%
%ADD89C,0.00772*%
%ADD90C,0.010936*%
%ADD91C,0.008749*%
%ADD92C,0.013123*%
%ADD93C,0.004374*%
%ADD94C,0.006562*%
%FSLAX26Y26*%
G04*
G70*
G90*
G75*
G01*
G04 TopSilk*
%LPD*%
X334646Y3872375D2*
D10*
X334669Y3836943D1*
X334646Y3872375D2*
X194948D1*
X165389Y3842851D2*
X194948Y3872375D1*
X165389Y3842851D2*
X165365Y3836943D1*
X334669Y3738517D2*
X334646Y3703084D1*
X194948D1*
X165389Y3732608D2*
X194948Y3703084D1*
X165365Y3738517D2*
X165389Y3732608D1*
D17*
X143737Y3842859D3*
X334646Y3372318D2*
D10*
X334669Y3336885D1*
X334646Y3372318D2*
X194948D1*
X165389Y3342793D2*
X194948Y3372318D1*
X165389Y3342793D2*
X165365Y3336885D1*
X334669Y3238459D2*
X334646Y3203026D1*
X194948D1*
X165389Y3232551D2*
X194948Y3203026D1*
X165365Y3238459D2*
X165389Y3232551D1*
D17*
X143737Y3342802D3*
X274794Y3600778D2*
D10*
Y3549636D1*
Y3525770D2*
Y3474629D1*
X245238Y2876476D2*
X1079883D1*
Y3171752D1*
X245238D1*
Y2876476D1*
G36*
X351571Y2911230D2*
X383038D1*
Y2879724D1*
X351571D1*
Y2911230D1*
G37*
G36*
X548381D2*
X579847D1*
Y2879724D1*
X548381D1*
Y2911230D1*
G37*
G36*
X745190D2*
X776656D1*
Y2879724D1*
X745190D1*
Y2911230D1*
G37*
G36*
X942167D2*
X973633D1*
Y2879724D1*
X942167D1*
Y2911230D1*
G37*
X111710Y3897530D2*
D10*
X13285D1*
Y2877845D1*
X111710D1*
Y3897530D1*
X1311836D2*
X1213411D1*
Y2877845D1*
X1311836D1*
Y3897530D1*
D26*
X462135Y3696177D3*
X452934Y3646036D2*
D10*
X334829D1*
Y3626350D1*
X452934D1*
Y3646036D1*
D26*
X462135Y3533660D3*
X452934Y3483518D2*
D10*
X334829D1*
Y3463833D1*
X452934D1*
Y3483518D1*
X760988Y3688902D2*
X564133D1*
X760988Y3586526D2*
X564133D1*
Y3688902D2*
Y3586526D1*
X760988Y3657408D2*
Y3688902D1*
Y3618019D2*
Y3586526D1*
Y3657408D2*
G03X760988Y3618019I9J-19694D01*
G01*
X303542Y2546723D2*
X268109Y2546699D1*
X303542Y2546723D2*
Y2686421D1*
X274018Y2715980D2*
X303542Y2686421D1*
X274018Y2715980D2*
X268109Y2716004D1*
X169683Y2546699D2*
X134251Y2546723D1*
Y2686421D1*
X163775Y2715980D2*
X134251Y2686421D1*
X169683Y2716004D2*
X163775Y2715980D1*
D30*
X274026Y2737632D3*
X155822Y2481110D2*
D10*
X206963D1*
X245301Y1770193D2*
X1079946D1*
Y2065469D1*
X245301D1*
Y1770193D1*
G36*
X351634Y1804947D2*
X383101D1*
Y1773441D1*
X351634D1*
Y1804947D1*
G37*
G36*
X548444D2*
X579910D1*
Y1773441D1*
X548444D1*
Y1804947D1*
G37*
G36*
X745253D2*
X776719D1*
Y1773441D1*
X745253D1*
Y1804947D1*
G37*
G36*
X942230D2*
X973696D1*
Y1773441D1*
X942230D1*
Y1804947D1*
G37*
X712698Y2556309D2*
D10*
X612693D1*
Y2256347D1*
X712698D1*
Y2556309D1*
X1193877Y2081350D2*
X1093871D1*
Y1781388D1*
X1193877D1*
Y2081350D1*
X231381D2*
X131375D1*
Y1781388D1*
X231381D1*
Y2081350D1*
X111836Y2791211D2*
X13411D1*
Y1771526D1*
X111836D1*
Y2791211D1*
X1311836D2*
X1213411D1*
Y1771526D1*
X1311836D1*
Y2791211D1*
X567300Y2457507D2*
X370446D1*
X567300Y2355131D2*
X370446D1*
Y2457507D2*
Y2355131D1*
X567300Y2426013D2*
Y2457507D1*
Y2386624D2*
Y2355131D1*
Y2426013D2*
G03X567300Y2386624I9J-19694D01*
G01*
X954800Y2457507D2*
X757946D1*
X954800Y2355131D2*
X757946D1*
Y2457507D2*
Y2355131D1*
X954800Y2426013D2*
Y2457507D1*
Y2386624D2*
Y2355131D1*
Y2426013D2*
G03X954800Y2386624I9J-19694D01*
G01*
X397300Y1222264D2*
X397324Y1186831D1*
X397300Y1222264D2*
X257603D1*
X228043Y1192739D2*
X257603Y1222264D1*
X228043Y1192739D2*
X228020Y1186831D1*
X397324Y1088405D2*
X397300Y1052972D1*
X257603D1*
X228043Y1082497D2*
X257603Y1052972D1*
X228020Y1088405D2*
X228043Y1082497D1*
D17*
X206392Y1192748D3*
X397300Y1022243D2*
D10*
X397324Y986810D1*
X397300Y1022243D2*
X257603D1*
X228043Y992718D2*
X257603Y1022243D1*
X228043Y992718D2*
X228020Y986810D1*
X397324Y888384D2*
X397300Y852951D1*
X257603D1*
X228043Y882476D2*
X257603Y852951D1*
X228020Y888384D2*
X228043Y882476D1*
D17*
X206392Y992727D3*
X721238Y1261928D2*
D10*
Y1313070D1*
X983738Y1261928D2*
Y1313070D1*
X182610Y304921D2*
X263317Y304953D1*
X182610Y304921D2*
Y88415D1*
X225926Y45121D2*
X182610Y88415D1*
X225926Y45121D2*
X263317D1*
X361746Y304953D2*
X442453Y304921D1*
Y88415D1*
X399137Y45121D2*
X442453Y88415D1*
X361746Y45121D2*
X399137D1*
D34*
X255457Y21466D3*
X1074430Y162277D2*
D10*
X1125572D1*
X986930D2*
X1038072D1*
X899525Y162290D2*
X950667D1*
X816043Y1711908D2*
X508955D1*
X816043D2*
Y1662715D1*
Y1529605D2*
Y1445357D1*
X780596Y1341845D2*
X753046D1*
X571951D2*
X544401D1*
X508955Y1445357D2*
Y1529605D1*
Y1662715D2*
Y1711908D1*
D36*
X725496Y1308361D3*
X1312501Y1187519D2*
D10*
X1212499D1*
Y187478D1*
X1312501D1*
Y1187519D1*
X112501D2*
X12499D1*
Y187478D1*
X112501D1*
Y1187519D1*
X462568Y125007D2*
X862581D1*
Y26D1*
X462568D1*
Y125007D1*
X493809Y26D2*
Y-274940D1*
X531330Y26D2*
Y-274940D1*
X493809D2*
X512530Y-294904D1*
X531330Y-274940D2*
X512530Y-294904D1*
X593813Y26D2*
Y-274940D1*
X631334Y26D2*
Y-274940D1*
X593813D2*
X612533Y-294904D1*
X631334Y-274940D2*
X612533Y-294904D1*
X693816Y26D2*
Y-274940D1*
X731337Y26D2*
Y-274940D1*
X693816D2*
X712536Y-294904D1*
X731337Y-274940D2*
X712536Y-294904D1*
X793819Y26D2*
Y-274940D1*
X831340Y26D2*
Y-274940D1*
X793819D2*
X812540Y-294904D1*
X831340Y-274940D2*
X812540Y-294904D1*
D39*
X1153879Y1631866D3*
X1154918Y1542617D2*
D10*
X895089D1*
X1154918Y1432381D2*
X895089D1*
Y1542617D2*
Y1432381D1*
X1154918Y1542617D2*
Y1432381D1*
X757001Y739025D2*
Y1148474D1*
X567997Y739025D2*
Y1148474D1*
X757001D2*
X567997D1*
X757001Y739025D2*
X690066D1*
X634931D2*
X567997D1*
X690066D2*
G03X634931Y739025I-27568J3711D01*
G01*
X-9Y2793875D2*
D15*
X1325130D1*
Y1768768D1*
X-9D1*
Y2793875D1*
Y3900241D2*
X1325130D1*
Y2875134D1*
X-9D1*
Y3900241D1*
X511528Y707776D2*
D16*
X813220D1*
Y356319D1*
X511528D1*
Y707776D1*
X-8Y1687604D2*
D15*
X1325131D1*
Y-73D1*
X-8D1*
Y1687604D1*
X650060Y3244975D2*
D89*
Y3206729D1*
X647683Y3199543D1*
X645251Y3197167D1*
X640498Y3194735D1*
X635690D1*
X630937Y3197167D1*
X628560Y3199543D1*
X626128Y3206729D1*
Y3211482D1*
X670308Y3244920D2*
X696561D1*
X682246Y3225797D1*
X689431D1*
X694184Y3223420D1*
X696561Y3221043D1*
X698993Y3213858D1*
Y3209105D1*
X696561Y3201920D1*
X691807Y3197112D1*
X684622Y3194735D1*
X677437D1*
X670308Y3197112D1*
X667931Y3199543D1*
X665499Y3204297D1*
X383836Y3777112D2*
X379083Y3774790D1*
X374275Y3769982D1*
X371898Y3765173D1*
X369466Y3757988D1*
Y3746050D1*
X371898Y3738865D1*
X374275Y3734112D1*
X379083Y3729303D1*
X383836Y3726927D1*
X393398D1*
X398206Y3729303D1*
X402959Y3734112D1*
X405336Y3738865D1*
X407768Y3746050D1*
Y3757988D1*
X405336Y3765173D1*
X402959Y3769982D1*
X398206Y3774790D1*
X393398Y3777112D1*
X383836D1*
X391021Y3736488D2*
X405336Y3722118D1*
X423207Y3767495D2*
X428016Y3769926D1*
X435201Y3777056D1*
Y3726872D1*
X373086Y3390772D2*
X368333Y3388451D1*
X363525Y3383643D1*
X361148Y3378834D1*
X358716Y3371649D1*
Y3359711D1*
X361148Y3352526D1*
X363525Y3347773D1*
X368333Y3342964D1*
X373086Y3340588D1*
X382648D1*
X387456Y3342964D1*
X392209Y3347773D1*
X394586Y3352526D1*
X397018Y3359711D1*
Y3371649D1*
X394586Y3378834D1*
X392209Y3383643D1*
X387456Y3388451D1*
X382648Y3390772D1*
X373086D1*
X380271Y3350149D2*
X394586Y3335779D1*
X414889Y3378779D2*
Y3381155D1*
X417266Y3385964D1*
X419642Y3388340D1*
X424451Y3390717D1*
X434012D1*
X438765Y3388340D1*
X441142Y3385964D1*
X443574Y3381155D1*
Y3376402D1*
X441142Y3371594D1*
X436389Y3364464D1*
X412457Y3340532D1*
X445951D1*
X775862Y3452573D2*
X797362D1*
X804547Y3455005D1*
X806979Y3457381D1*
X809356Y3462134D1*
Y3466943D1*
X806979Y3471696D1*
X804547Y3474128D1*
X797362Y3476505D1*
X775862D1*
Y3426265D1*
X792609Y3452573D2*
X809356Y3426265D1*
X824795Y3466888D2*
X829603Y3469320D1*
X836788Y3476449D1*
Y3426265D1*
X621245Y3354774D2*
X642745D1*
X649930Y3357206D1*
X652362Y3359582D1*
X654738Y3364335D1*
Y3369144D1*
X652362Y3373897D1*
X649930Y3376329D1*
X642745Y3378705D1*
X621245D1*
Y3328465D1*
X637992Y3354774D2*
X654738Y3328465D1*
X672609Y3366712D2*
Y3369088D1*
X674986Y3373897D1*
X677363Y3376273D1*
X682171Y3378650D1*
X691733D1*
X696486Y3376273D1*
X698863Y3373897D1*
X701294Y3369088D1*
Y3364335D1*
X698863Y3359527D1*
X694109Y3352397D1*
X670178Y3328465D1*
X703671D1*
X477582Y3452573D2*
X499082D1*
X506267Y3455005D1*
X508699Y3457381D1*
X511076Y3462134D1*
Y3466943D1*
X508699Y3471696D1*
X506267Y3474128D1*
X499082Y3476505D1*
X477582D1*
Y3426265D1*
X494329Y3452573D2*
X511076Y3426265D1*
X531323Y3476449D2*
X557576D1*
X543262Y3457326D1*
X550447D1*
X555200Y3454949D1*
X557576Y3452573D1*
X560008Y3445388D1*
Y3440635D1*
X557576Y3433450D1*
X552823Y3428641D1*
X545638Y3426265D1*
X538453D1*
X531323Y3428641D1*
X528947Y3431073D1*
X526515Y3435826D1*
X476394Y3831256D2*
X497894D1*
X505079Y3833688D1*
X507511Y3836064D1*
X509887Y3840818D1*
Y3845626D1*
X507511Y3850379D1*
X505079Y3852811D1*
X497894Y3855188D1*
X476394D1*
Y3804948D1*
X493141Y3831256D2*
X509887Y3804948D1*
X549258D2*
Y3855132D1*
X525327Y3821694D1*
X561197D1*
X632097Y3856606D2*
Y3820736D1*
X634474Y3813551D1*
X639282Y3808798D1*
X646467Y3806366D1*
X651221D1*
X658406Y3808798D1*
X663214Y3813551D1*
X665591Y3820736D1*
Y3856606D1*
X681030Y3846989D2*
X685838Y3849421D1*
X693023Y3856551D1*
Y3806366D1*
X318626Y2524201D2*
X316250Y2528954D1*
X311441Y2533762D1*
X306688Y2536139D1*
X297126D1*
X292318Y2533762D1*
X287565Y2528954D1*
X285133Y2524201D1*
X282756Y2517016D1*
Y2505022D1*
X285133Y2497893D1*
X287565Y2493084D1*
X292318Y2488331D1*
X297126Y2485899D1*
X306688D1*
X311441Y2488331D1*
X316250Y2493084D1*
X318626Y2497893D1*
X362750Y2536084D2*
X338874D1*
X336497Y2514584D1*
X338874Y2516961D1*
X346059Y2519392D1*
X353189D1*
X360374Y2516961D1*
X365182Y2512207D1*
X367559Y2505022D1*
Y2500269D1*
X365182Y2493084D1*
X360374Y2488276D1*
X353189Y2485899D1*
X346059D1*
X338874Y2488276D1*
X336497Y2490708D1*
X334065Y2495461D1*
X153650Y2251060D2*
X203890D1*
Y2267806D1*
X201458Y2274991D1*
X196705Y2279800D1*
X191896Y2282176D1*
X184766Y2284553D1*
X172773D1*
X165588Y2282176D1*
X160835Y2279800D1*
X156026Y2274991D1*
X153650Y2267806D1*
Y2251060D1*
X203890Y2323924D2*
X153705D1*
X187143Y2299992D1*
Y2335862D1*
X660873Y2044932D2*
Y2006685D1*
X658496Y1999500D1*
X656064Y1997124D1*
X651311Y1994692D1*
X646503D1*
X641750Y1997124D1*
X639373Y1999500D1*
X636941Y2006685D1*
Y2011438D1*
X676312Y2035315D2*
X681121Y2037747D1*
X688306Y2044876D1*
Y1994692D1*
X649007Y2629532D2*
Y2591286D1*
X646630Y2584101D1*
X644198Y2581724D1*
X639445Y2579292D1*
X634637D1*
X629884Y2581724D1*
X627507Y2584101D1*
X625075Y2591286D1*
Y2596039D1*
X688378Y2579292D2*
Y2629477D1*
X664446Y2596039D1*
X700316D1*
X1131374Y2154573D2*
Y2116326D1*
X1128997Y2109141D1*
X1126565Y2106765D1*
X1121812Y2104333D1*
X1117003D1*
X1112250Y2106765D1*
X1109874Y2109141D1*
X1107442Y2116326D1*
Y2121079D1*
X1175498Y2154518D2*
X1151621D1*
X1149245Y2133018D1*
X1151621Y2135394D1*
X1158806Y2137826D1*
X1165936D1*
X1173121Y2135394D1*
X1177930Y2130641D1*
X1180306Y2123456D1*
Y2118703D1*
X1177930Y2111518D1*
X1173121Y2106709D1*
X1165936Y2104333D1*
X1158806D1*
X1151621Y2106709D1*
X1149245Y2109141D1*
X1146813Y2113894D1*
X170093Y2154573D2*
Y2116326D1*
X167717Y2109141D1*
X165285Y2106765D1*
X160532Y2104333D1*
X155723D1*
X150970Y2106765D1*
X148594Y2109141D1*
X146162Y2116326D1*
Y2121079D1*
X214218Y2147388D2*
X211841Y2152141D1*
X204656Y2154518D1*
X199903D1*
X192718Y2152141D1*
X187909Y2144956D1*
X185533Y2133018D1*
Y2121079D1*
X187909Y2111518D1*
X192718Y2106709D1*
X199903Y2104333D1*
X202279D1*
X209409Y2106709D1*
X214218Y2111518D1*
X216594Y2118703D1*
Y2121079D1*
X214218Y2128265D1*
X209409Y2133018D1*
X202279Y2135394D1*
X199903D1*
X192718Y2133018D1*
X187909Y2128265D1*
X185533Y2121079D1*
X722626Y2210189D2*
X744126D1*
X751311Y2212621D1*
X753743Y2214997D1*
X756120Y2219751D1*
Y2224559D1*
X753743Y2229312D1*
X751311Y2231744D1*
X744126Y2234121D1*
X722626D1*
Y2183881D1*
X739373Y2210189D2*
X756120Y2183881D1*
X800244Y2226936D2*
X797867Y2231689D1*
X790682Y2234065D1*
X785929D1*
X778744Y2231689D1*
X773936Y2224504D1*
X771559Y2212566D1*
Y2200627D1*
X773936Y2191066D1*
X778744Y2186257D1*
X785929Y2183881D1*
X788306D1*
X795435Y2186257D1*
X800244Y2191066D1*
X802620Y2198251D1*
Y2200627D1*
X800244Y2207812D1*
X795435Y2212566D1*
X788306Y2214942D1*
X785929D1*
X778744Y2212566D1*
X773936Y2207812D1*
X771559Y2200627D1*
X840176Y2122680D2*
X861675D1*
X868860Y2125112D1*
X871292Y2127488D1*
X873669Y2132241D1*
Y2137050D1*
X871292Y2141803D1*
X868860Y2144235D1*
X861675Y2146612D1*
X840176D1*
Y2096372D1*
X856922Y2122680D2*
X873669Y2096372D1*
X901046Y2146556D2*
X893917Y2144180D1*
X891485Y2139426D1*
Y2134618D1*
X893917Y2129865D1*
X898670Y2127433D1*
X908231Y2125056D1*
X915416Y2122680D1*
X920170Y2117871D1*
X922546Y2113118D1*
Y2105933D1*
X920170Y2101180D1*
X917793Y2098748D1*
X910608Y2096372D1*
X901046D1*
X893917Y2098748D1*
X891485Y2101180D1*
X889108Y2105933D1*
Y2113118D1*
X891485Y2117871D1*
X896293Y2122680D1*
X903423Y2125056D1*
X912985Y2127433D1*
X917793Y2129865D1*
X920170Y2134618D1*
Y2139426D1*
X917793Y2144180D1*
X910608Y2146556D1*
X901046D1*
X841336Y2210180D2*
X862836D1*
X870021Y2212612D1*
X872453Y2214988D1*
X874830Y2219741D1*
Y2224550D1*
X872453Y2229303D1*
X870021Y2231735D1*
X862836Y2234112D1*
X841336D1*
Y2183872D1*
X858083Y2210180D2*
X874830Y2183872D1*
X921386Y2217365D2*
X918954Y2210180D1*
X914201Y2205371D1*
X907015Y2202995D1*
X904639D1*
X897454Y2205371D1*
X892701Y2210180D1*
X890269Y2217365D1*
Y2219741D1*
X892701Y2226926D1*
X897454Y2231680D1*
X904639Y2234056D1*
X907015D1*
X914201Y2231680D1*
X918954Y2226926D1*
X921386Y2217365D1*
Y2205371D1*
X918954Y2193433D1*
X914201Y2186248D1*
X907015Y2183872D1*
X902262D1*
X895077Y2186248D1*
X892701Y2191057D1*
X395206Y2210180D2*
X416706D1*
X423891Y2212612D1*
X426323Y2214988D1*
X428699Y2219741D1*
Y2224550D1*
X426323Y2229303D1*
X423891Y2231735D1*
X416706Y2234112D1*
X395206D1*
Y2183872D1*
X411953Y2210180D2*
X428699Y2183872D1*
X444138Y2224495D2*
X448947Y2226926D1*
X456132Y2234056D1*
Y2183872D1*
X485941Y2234056D2*
X478756Y2231680D1*
X473948Y2224495D1*
X471571Y2212556D1*
Y2205371D1*
X473948Y2193433D1*
X478756Y2186248D1*
X485941Y2183872D1*
X490694D1*
X497879Y2186248D1*
X502633Y2193433D1*
X505064Y2205371D1*
Y2212556D1*
X502633Y2224495D1*
X497879Y2231680D1*
X490694Y2234056D1*
X485941D1*
X502633Y2224495D2*
X473948Y2193433D1*
X405956Y2122680D2*
X427456D1*
X434641Y2125112D1*
X437073Y2127488D1*
X439449Y2132241D1*
Y2137050D1*
X437073Y2141803D1*
X434641Y2144235D1*
X427456Y2146612D1*
X405956D1*
Y2096372D1*
X422702Y2122680D2*
X439449Y2096372D1*
X454888Y2136995D2*
X459697Y2139426D1*
X466882Y2146556D1*
Y2096372D1*
X482321Y2136995D2*
X487130Y2139426D1*
X494315Y2146556D1*
Y2096372D1*
X507694Y2210189D2*
X529194D1*
X536379Y2212621D1*
X538811Y2214997D1*
X541187Y2219751D1*
Y2224559D1*
X538811Y2229312D1*
X536379Y2231744D1*
X529194Y2234121D1*
X507694D1*
Y2183881D1*
X524441Y2210189D2*
X541187Y2183881D1*
X556627Y2224504D2*
X561435Y2226936D1*
X568620Y2234065D1*
Y2183881D1*
X586491Y2222127D2*
Y2224504D1*
X588868Y2229312D1*
X591244Y2231689D1*
X596053Y2234065D1*
X605614D1*
X610368Y2231689D1*
X612744Y2229312D1*
X615176Y2224504D1*
Y2219751D1*
X612744Y2214942D1*
X607991Y2207812D1*
X584059Y2183881D1*
X617553D1*
X258840Y2238887D2*
Y2260387D1*
X256408Y2267572D1*
X254031Y2270004D1*
X249278Y2272380D1*
X244470D1*
X239717Y2270004D1*
X237285Y2267572D1*
X234908Y2260387D1*
Y2238887D1*
X285148D1*
X258840Y2255634D2*
X285148Y2272380D1*
X244525Y2287820D2*
X242093Y2292628D1*
X234963Y2299813D1*
X285148D1*
X234963Y2320061D2*
Y2346314D1*
X254087Y2331999D1*
Y2339184D1*
X256463Y2343937D1*
X258840Y2346314D1*
X266025Y2348746D1*
X270778D1*
X277963Y2346314D1*
X282772Y2341561D1*
X285148Y2334376D1*
Y2327190D1*
X282772Y2320061D1*
X280340Y2317684D1*
X275587Y2315252D1*
X427660Y2625211D2*
Y2589341D1*
X430036Y2582156D1*
X434845Y2577403D1*
X442030Y2574971D1*
X446783D1*
X453968Y2577403D1*
X458776Y2582156D1*
X461153Y2589341D1*
Y2625211D1*
X479024Y2613218D2*
Y2615594D1*
X481401Y2620403D1*
X483777Y2622779D1*
X488586Y2625156D1*
X498147D1*
X502901Y2622779D1*
X505277Y2620403D1*
X507709Y2615594D1*
Y2610841D1*
X505277Y2606033D1*
X500524Y2598903D1*
X476592Y2574971D1*
X510086D1*
X815160Y2625211D2*
Y2589341D1*
X817536Y2582156D1*
X822345Y2577403D1*
X829530Y2574971D1*
X834283D1*
X841468Y2577403D1*
X846276Y2582156D1*
X848653Y2589341D1*
Y2625211D1*
X868901Y2625156D2*
X895154D1*
X880839Y2606033D1*
X888024D1*
X892777Y2603656D1*
X895154Y2601280D1*
X897586Y2594095D1*
Y2589341D1*
X895154Y2582156D1*
X890401Y2577348D1*
X883216Y2574971D1*
X876031D1*
X868901Y2577348D1*
X866524Y2579780D1*
X864092Y2584533D1*
X306141Y1283549D2*
X303764Y1288302D1*
X298956Y1293110D1*
X294202Y1295487D1*
X284641D1*
X279832Y1293110D1*
X275079Y1288302D1*
X272647Y1283549D1*
X270271Y1276364D1*
Y1264370D1*
X272647Y1257240D1*
X275079Y1252432D1*
X279832Y1247679D1*
X284641Y1245247D1*
X294202D1*
X298956Y1247679D1*
X303764Y1252432D1*
X306141Y1257240D1*
X331141Y1245247D2*
X355073Y1295432D1*
X321580D1*
X306168Y824055D2*
X303792Y828808D1*
X298983Y833616D1*
X294230Y835993D1*
X284668D1*
X279860Y833616D1*
X275107Y828808D1*
X272675Y824055D1*
X270298Y816869D1*
Y804876D1*
X272675Y797746D1*
X275107Y792938D1*
X279860Y788185D1*
X284668Y785753D1*
X294230D1*
X298983Y788185D1*
X303792Y792938D1*
X306168Y797746D1*
X333546Y835937D2*
X326416Y833561D1*
X323984Y828808D1*
Y823999D1*
X326416Y819246D1*
X331169Y816814D1*
X340731Y814438D1*
X347916Y812061D1*
X352669Y807253D1*
X355046Y802499D1*
Y795314D1*
X352669Y790561D1*
X350292Y788129D1*
X343107Y785753D1*
X333546D1*
X326416Y788129D1*
X323984Y790561D1*
X321607Y795314D1*
Y802499D1*
X323984Y807253D1*
X328793Y812061D1*
X335922Y814438D1*
X345484Y816814D1*
X350292Y819246D1*
X352669Y823999D1*
Y828808D1*
X350292Y833561D1*
X343107Y835937D1*
X333546D1*
X786771Y1229074D2*
X784395Y1233827D1*
X779586Y1238636D1*
X774833Y1241012D1*
X765271D1*
X760463Y1238636D1*
X755710Y1233827D1*
X753278Y1229074D1*
X750901Y1221889D1*
Y1209896D1*
X753278Y1202766D1*
X755710Y1197957D1*
X760463Y1193204D1*
X765271Y1190772D1*
X774833D1*
X779586Y1193204D1*
X784395Y1197957D1*
X786771Y1202766D1*
X833327Y1224266D2*
X830895Y1217081D1*
X826142Y1212272D1*
X818957Y1209896D1*
X816580D1*
X809395Y1212272D1*
X804642Y1217081D1*
X802210Y1224266D1*
Y1226642D1*
X804642Y1233827D1*
X809395Y1238581D1*
X816580Y1240957D1*
X818957D1*
X826142Y1238581D1*
X830895Y1233827D1*
X833327Y1224266D1*
Y1212272D1*
X830895Y1200334D1*
X826142Y1193149D1*
X818957Y1190772D1*
X814204D1*
X807019Y1193149D1*
X804642Y1197957D1*
X1034366Y1229074D2*
X1031990Y1233827D1*
X1027181Y1238636D1*
X1022428Y1241012D1*
X1012867D1*
X1008058Y1238636D1*
X1003305Y1233827D1*
X1000873Y1229074D1*
X998497Y1221889D1*
Y1209896D1*
X1000873Y1202766D1*
X1003305Y1197957D1*
X1008058Y1193204D1*
X1012867Y1190772D1*
X1022428D1*
X1027181Y1193204D1*
X1031990Y1197957D1*
X1034366Y1202766D1*
X1049806Y1231396D2*
X1054614Y1233827D1*
X1061799Y1240957D1*
Y1190772D1*
X1091609Y1240957D2*
X1084423Y1238581D1*
X1079615Y1231396D1*
X1077238Y1219457D1*
Y1212272D1*
X1079615Y1200334D1*
X1084423Y1193149D1*
X1091609Y1190772D1*
X1096362D1*
X1103547Y1193149D1*
X1108300Y1200334D1*
X1110732Y1212272D1*
Y1219457D1*
X1108300Y1231396D1*
X1103547Y1238581D1*
X1096362Y1240957D1*
X1091609D1*
X1108300Y1231396D2*
X1079615Y1200334D1*
X292284Y394766D2*
X289907Y399520D1*
X285099Y404328D1*
X280346Y406705D1*
X270784D1*
X265976Y404328D1*
X261222Y399520D1*
X258790Y394766D1*
X256414Y387581D1*
Y375588D1*
X258790Y368458D1*
X261222Y363650D1*
X265976Y358897D1*
X270784Y356465D1*
X280346D1*
X285099Y358897D1*
X289907Y363650D1*
X292284Y368458D1*
X307723Y397088D2*
X312531Y399520D1*
X319717Y406649D1*
Y356465D1*
X339964Y406649D2*
X366217D1*
X351902Y387526D1*
X359087D1*
X363841Y385150D1*
X366217Y382773D1*
X368649Y375588D1*
Y370835D1*
X366217Y363650D1*
X361464Y358841D1*
X354279Y356465D1*
X347094D1*
X339964Y358841D1*
X337588Y361273D1*
X335156Y366026D1*
X374709Y1566508D2*
X412955D1*
X420140Y1564131D1*
X422517Y1561699D1*
X424949Y1556946D1*
Y1552138D1*
X422517Y1547384D1*
X420140Y1545008D1*
X412955Y1542576D1*
X408202D1*
X384326Y1581947D2*
X381894Y1586755D1*
X374764Y1593940D1*
X424949D1*
X374764Y1623750D2*
X377141Y1616565D1*
X384326Y1611756D1*
X396264Y1609380D1*
X403449D1*
X415387Y1611756D1*
X422572Y1616565D1*
X424949Y1623750D1*
Y1628503D1*
X422572Y1635688D1*
X415387Y1640441D1*
X403449Y1642873D1*
X396264D1*
X384326Y1640441D1*
X377141Y1635688D1*
X374764Y1628503D1*
Y1623750D1*
X384326Y1640441D2*
X415387Y1611756D1*
X1139276Y672032D2*
X1177523D1*
X1184708Y669655D1*
X1187084Y667223D1*
X1189516Y662470D1*
Y657662D1*
X1187084Y652909D1*
X1184708Y650532D1*
X1177523Y648100D1*
X1172770D1*
X1148893Y687471D2*
X1146461Y692280D1*
X1139332Y699465D1*
X1189516D1*
X1148893Y714904D2*
X1146461Y719712D1*
X1139332Y726897D1*
X1189516D1*
X129459Y661282D2*
X167706D1*
X174891Y658905D1*
X177268Y656474D1*
X179699Y651720D1*
Y646912D1*
X177268Y642159D1*
X174891Y639782D1*
X167706Y637350D1*
X162953D1*
X139076Y676721D2*
X136644Y681530D1*
X129515Y688715D1*
X179699D1*
X141453Y706586D2*
X139076D1*
X134268Y708962D1*
X131891Y711339D1*
X129515Y716147D1*
Y725709D1*
X131891Y730462D1*
X134268Y732839D1*
X139076Y735271D1*
X143829D1*
X148638Y732839D1*
X155768Y728086D1*
X179699Y704154D1*
Y737647D1*
X636358Y87589D2*
Y49343D1*
X633981Y42158D1*
X631550Y39781D1*
X626796Y37349D1*
X621988D1*
X617235Y39781D1*
X614858Y42158D1*
X612426Y49343D1*
Y54096D1*
X651797Y77972D2*
X656606Y80404D1*
X663791Y87534D1*
Y37349D1*
X684038Y87534D2*
X710291D1*
X695977Y68411D1*
X703162D1*
X707915Y66034D1*
X710291Y63658D1*
X712723Y56472D1*
Y51719D1*
X710291Y44534D1*
X705538Y39726D1*
X698353Y37349D1*
X691168D1*
X684038Y39726D1*
X681662Y42158D1*
X679230Y46911D1*
X1095411Y518896D2*
Y540395D1*
X1092980Y547580D1*
X1090603Y550012D1*
X1085850Y552389D1*
X1081041D1*
X1076288Y550012D1*
X1073856Y547580D1*
X1071480Y540395D1*
Y518896D1*
X1121720D1*
X1095411Y535642D2*
X1121720Y552389D1*
X1081097Y567828D2*
X1078665Y572637D1*
X1071535Y579822D1*
X1121720D1*
Y619193D2*
X1071535D1*
X1104973Y595261D1*
Y631131D1*
X1008690Y520084D2*
Y541584D1*
X1006258Y548769D1*
X1003882Y551201D1*
X999129Y553577D1*
X994320D1*
X989567Y551201D1*
X987135Y548769D1*
X984759Y541584D1*
Y520084D1*
X1034999D1*
X1008690Y536831D2*
X1034999Y553577D1*
X994376Y569016D2*
X991944Y573825D1*
X984814Y581010D1*
X1034999D1*
X984814Y625134D2*
Y601258D1*
X1006314Y598881D1*
X1003937Y601258D1*
X1001505Y608443D1*
Y615572D1*
X1003937Y622757D1*
X1008690Y627566D1*
X1015875Y629942D1*
X1020629D1*
X1027814Y627566D1*
X1032622Y622757D1*
X1034999Y615572D1*
Y608443D1*
X1032622Y601258D1*
X1030190Y598881D1*
X1025437Y596449D1*
X921285Y521346D2*
Y542846D1*
X918853Y550031D1*
X916476Y552462D1*
X911723Y554839D1*
X906915D1*
X902162Y552463D1*
X899730Y550031D1*
X897353Y542846D1*
Y521346D1*
X947593D1*
X921285Y538092D2*
X947593Y554839D1*
X906970Y570278D2*
X904538Y575087D1*
X897408Y582272D1*
X947593D1*
X904538Y626396D2*
X899785Y624019D1*
X897408Y616834D1*
Y612081D1*
X899785Y604896D1*
X906970Y600088D1*
X918908Y597711D1*
X930846D1*
X940408Y600088D1*
X945216Y604896D1*
X947593Y612081D1*
Y614458D1*
X945216Y621587D1*
X940408Y626396D1*
X933223Y628772D1*
X930846D1*
X923661Y626396D1*
X918908Y621587D1*
X916532Y614458D1*
Y612081D1*
X918908Y604896D1*
X923661Y600088D1*
X930846Y597711D1*
X1178539Y1445098D2*
X1214409D1*
X1221594Y1447474D1*
X1226348Y1452283D1*
X1228779Y1459468D1*
Y1464221D1*
X1226348Y1471406D1*
X1221594Y1476214D1*
X1214409Y1478591D1*
X1178539D1*
X1228779Y1517962D2*
X1178595D1*
X1212033Y1494030D1*
Y1529900D1*
X621286Y1221697D2*
Y1185827D1*
X623662Y1178642D1*
X628471Y1173889D1*
X635656Y1171457D1*
X640409D1*
X647594Y1173889D1*
X652402Y1178642D1*
X654779Y1185827D1*
Y1221697D1*
X698903Y1221642D2*
X675027D1*
X672650Y1200142D1*
X675027Y1202518D1*
X682212Y1204950D1*
X689342D1*
X696527Y1202518D1*
X701335Y1197765D1*
X703712Y1190580D1*
Y1185827D1*
X701335Y1178642D1*
X696527Y1173833D1*
X689342Y1171457D1*
X682212D1*
X675027Y1173833D1*
X672650Y1176265D1*
X670218Y1181018D1*
X902273Y3509916D2*
D90*
Y3459676D1*
X935766Y3509916D2*
X902273Y3476423D1*
X914211Y3488416D2*
X935766Y3459676D1*
X957638Y3484768D2*
X985273D1*
X1007145Y3509916D2*
Y3459676D1*
X1035830D1*
X1057702Y3509916D2*
X1060079Y3507539D1*
X1062511Y3509916D1*
X1060079Y3512348D1*
X1057702Y3509916D1*
X1060079Y3493169D2*
Y3459676D1*
X1084383Y3493169D2*
Y3459676D1*
Y3483608D2*
X1091568Y3490793D1*
X1096377Y3493169D1*
X1103506D1*
X1108315Y3490793D1*
X1110691Y3483608D1*
Y3459676D1*
X1132564Y3478799D2*
X1161248D1*
Y3483608D1*
X1158872Y3488416D1*
X1156495Y3490793D1*
X1151687Y3493169D1*
X1144502D1*
X1139749Y3490793D1*
X1134940Y3485984D1*
X1132564Y3478799D1*
Y3474046D1*
X1134940Y3466861D1*
X1139749Y3462108D1*
X1144502Y3459676D1*
X1151687D1*
X1156495Y3462108D1*
X1161248Y3466861D1*
X542751Y3189478D2*
D91*
X582943D1*
X542751Y3205555D2*
X569546Y3189478D1*
X559951Y3195209D2*
X582943Y3205555D1*
X562869Y3216054D2*
Y3229318D1*
X542751Y3239817D2*
X582943D1*
Y3253586D1*
X542751Y3264084D2*
X544653Y3265225D1*
X542751Y3266393D1*
X540806Y3265225D1*
X542751Y3264084D1*
X556149Y3265225D2*
X582943D1*
X556149Y3276891D2*
X582943D1*
X563798D2*
X558050Y3280340D1*
X556149Y3282648D1*
Y3286070D1*
X558050Y3288378D1*
X563798Y3289519D1*
X582943D1*
X567645Y3300018D2*
Y3313787D1*
X563798D1*
X559951Y3312646D1*
X558050Y3311505D1*
X556149Y3309197D1*
Y3305748D1*
X558050Y3303467D1*
X561897Y3301159D1*
X567645Y3300018D1*
X571447D1*
X577195Y3301159D1*
X580998Y3303467D1*
X582943Y3305748D1*
Y3309197D1*
X580998Y3311505D1*
X577195Y3313787D1*
X737318Y3188683D2*
X777510D1*
Y3202452D1*
X757436Y3212950D2*
Y3226215D1*
X737318Y3236714D2*
X777510D1*
Y3250482D1*
X737318Y3260981D2*
X739219Y3262122D1*
X737318Y3263289D1*
X735373Y3262122D1*
X737318Y3260981D1*
X750716Y3262122D2*
X777510D1*
X750716Y3273788D2*
X777510D1*
X758365D2*
X752617Y3277237D1*
X750716Y3279545D1*
Y3282967D1*
X752617Y3285275D1*
X758365Y3286416D1*
X777510D1*
X762212Y3296915D2*
Y3310683D1*
X758365D1*
X754518Y3309543D1*
X752617Y3308402D1*
X750716Y3306094D1*
Y3302645D1*
X752617Y3300363D1*
X756464Y3298055D1*
X762212Y3296915D1*
X766014D1*
X771762Y3298055D1*
X775565Y3300363D1*
X777510Y3302645D1*
Y3306094D1*
X775565Y3308402D1*
X771762Y3310683D1*
X414805Y3201025D2*
X449249D1*
X432049Y3188985D2*
Y3213096D1*
X419602Y3225344D2*
X417657Y3228037D1*
X411953Y3232060D1*
X452101D1*
X421504Y3245671D2*
X419602D1*
X415755Y3247002D1*
X413854Y3248332D1*
X411953Y3251025D1*
Y3256380D1*
X413854Y3259041D1*
X415755Y3260372D1*
X419602Y3261734D1*
X423405D1*
X427252Y3260372D1*
X432955Y3257711D1*
X452101Y3244309D1*
Y3263065D1*
X411909Y3275314D2*
X452101D1*
Y3287384D1*
X450155Y3291408D1*
X448254Y3292739D1*
X444451Y3294070D1*
X438703D1*
X434857Y3292739D1*
X432955Y3291408D1*
X431054Y3287384D1*
X429109Y3291408D1*
X427207Y3292739D1*
X423405Y3294070D1*
X419558D1*
X415755Y3292739D1*
X413810Y3291408D1*
X411909Y3287384D1*
Y3275314D1*
X431054D2*
Y3287384D1*
X879654Y3204378D2*
X875851Y3203237D1*
X872004Y3200929D1*
X870103Y3198648D1*
Y3194058D1*
X872004Y3191750D1*
X875851Y3189469D1*
X879653Y3188301D1*
X885402Y3187161D1*
X894996D1*
X900700Y3188301D1*
X904547Y3189469D1*
X908349Y3191750D1*
X910295Y3194058D1*
Y3198648D1*
X908349Y3200929D1*
X904547Y3203237D1*
X900700Y3204378D1*
X894996D1*
Y3198648D1*
X870103Y3230954D2*
X910295D1*
X870103Y3214877D1*
X910295D1*
X870103Y3241452D2*
X910295D1*
Y3249491D1*
X908349Y3252940D1*
X904547Y3255248D1*
X900700Y3256388D1*
X894996Y3257529D1*
X885402D1*
X879654Y3256388D1*
X875851Y3255248D1*
X872004Y3252940D1*
X870103Y3249491D1*
Y3241452D1*
X894000Y3653446D2*
D90*
X882493Y3703686D1*
X871019Y3653446D1*
X875330Y3670193D2*
X889689D1*
X907124Y3703686D2*
X918598Y3653446D1*
X930072Y3703686D1*
X943195Y3679755D2*
X956095D1*
X960406Y3682186D1*
X961865Y3684563D1*
X963291Y3689316D1*
Y3694125D1*
X961865Y3698878D1*
X960406Y3701310D1*
X956095Y3703686D1*
X943195D1*
Y3653446D1*
X953243Y3679755D2*
X963291Y3653446D1*
X999395D2*
X987888Y3703686D1*
X976414Y3653446D1*
X980725Y3670193D2*
X995084D1*
X1032615Y3696501D2*
X1029763Y3701310D1*
X1025452Y3703686D1*
X1019715D1*
X1015404Y3701310D1*
X1012519Y3696501D1*
Y3691748D1*
X1013978Y3686940D1*
X1015404Y3684563D1*
X1018256Y3682186D1*
X1026878Y3677378D1*
X1029763Y3675001D1*
X1031189Y3672570D1*
X1032615Y3667816D1*
Y3660631D1*
X1029763Y3655878D1*
X1025452Y3653446D1*
X1019715D1*
X1015404Y3655878D1*
X1012519Y3660631D1*
X1068686Y3653446D2*
Y3703686D1*
X1057212Y3653446D1*
X1045738Y3703686D1*
Y3653446D1*
X1081809Y3694069D2*
X1084694Y3696501D1*
X1089005Y3703631D1*
Y3653446D1*
X1103588Y3691693D2*
Y3694069D1*
X1105014Y3698878D1*
X1106440Y3701254D1*
X1109325Y3703631D1*
X1115062D1*
X1117914Y3701254D1*
X1119340Y3698878D1*
X1120799Y3694069D1*
Y3689316D1*
X1119340Y3684508D1*
X1116488Y3677378D1*
X1102129Y3653446D1*
X1122225D1*
X1138233Y3703631D2*
X1153985D1*
X1145396Y3684508D1*
X1149707D1*
X1152559Y3682131D1*
X1153985Y3679755D1*
X1155444Y3672570D1*
Y3667816D1*
X1153985Y3660631D1*
X1151133Y3655823D1*
X1146822Y3653446D1*
X1142511D1*
X1138233Y3655823D1*
X1136807Y3658255D1*
X1135348Y3663008D1*
X1182927Y3653446D2*
Y3703631D1*
X1168568Y3670193D1*
X1190090D1*
X902273Y3612811D2*
X905638Y3615243D1*
X910668Y3622373D1*
Y3572188D1*
X929344Y3622373D2*
X947722D1*
X937701Y3603249D1*
X942731D1*
X946058Y3600873D1*
X947722Y3598496D1*
X949424Y3591311D1*
Y3586558D1*
X947722Y3579373D1*
X944394Y3574564D1*
X939365Y3572188D1*
X934335D1*
X929344Y3574564D1*
X927681Y3576996D1*
X925979Y3581749D1*
X966398Y3576996D2*
X964734Y3574564D1*
X966398Y3572188D1*
X968100Y3574564D1*
X966398Y3576996D1*
X983411Y3612811D2*
X986777Y3615243D1*
X991806Y3622373D1*
Y3572188D1*
X1008819Y3610434D2*
Y3612811D1*
X1010483Y3617619D1*
X1012147Y3619996D1*
X1015512Y3622373D1*
X1022206D1*
X1025533Y3619996D1*
X1027196Y3617619D1*
X1028899Y3612811D1*
Y3608058D1*
X1027196Y3603249D1*
X1023869Y3596120D1*
X1007117Y3572188D1*
X1030562D1*
X1047537Y3576996D2*
X1045873Y3574564D1*
X1047537Y3572188D1*
X1049239Y3574564D1*
X1047537Y3576996D1*
X1066252Y3610434D2*
Y3612811D1*
X1067915Y3617619D1*
X1069579Y3619996D1*
X1072945Y3622373D1*
X1079638D1*
X1082965Y3619996D1*
X1084629Y3617619D1*
X1086331Y3612811D1*
Y3608058D1*
X1084629Y3603249D1*
X1081302Y3596120D1*
X1064549Y3572188D1*
X1087995D1*
X1113364Y3622373D2*
X1108335Y3619996D1*
X1104969Y3612811D1*
X1103305Y3600873D1*
Y3593688D1*
X1104969Y3581749D1*
X1108335Y3574564D1*
X1113364Y3572188D1*
X1116692D1*
X1121721Y3574564D1*
X1125048Y3581749D1*
X1126751Y3593688D1*
Y3600873D1*
X1125048Y3612811D1*
X1121721Y3619996D1*
X1116692Y3622373D1*
X1113364D1*
X1125048Y3612811D2*
X1104969Y3581749D1*
X1142061Y3612811D2*
X1145427Y3615243D1*
X1150457Y3622373D1*
Y3572188D1*
X1172460D2*
X1189213Y3622373D1*
X1165767D1*
X909321Y3365916D2*
X890143Y3416156D1*
X871019Y3365916D1*
X878204Y3382663D2*
X902136D1*
X959878Y3416156D2*
Y3365916D1*
Y3392224D2*
X955125Y3397033D1*
X950317Y3399409D1*
X943132D1*
X938378Y3397033D1*
X933570Y3392224D1*
X931193Y3385039D1*
Y3380286D1*
X933570Y3373101D1*
X938378Y3368348D1*
X943132Y3365916D1*
X950317D1*
X955125Y3368348D1*
X959878Y3373101D1*
X1010435Y3399409D2*
Y3365916D1*
Y3392224D2*
X1005682Y3397033D1*
X1000874Y3399409D1*
X993744D1*
X988935Y3397033D1*
X984182Y3392224D1*
X981750Y3385039D1*
Y3380286D1*
X984182Y3373101D1*
X988935Y3368348D1*
X993744Y3365916D1*
X1000874D1*
X1005682Y3368348D1*
X1010435Y3373101D1*
X1032308Y3399409D2*
Y3349169D1*
Y3392224D2*
X1037116Y3396978D1*
X1041869Y3399409D1*
X1049054D1*
X1053863Y3396978D1*
X1058616Y3392224D1*
X1061048Y3385039D1*
Y3380231D1*
X1058616Y3373101D1*
X1053863Y3368293D1*
X1049054Y3365916D1*
X1041869D1*
X1037116Y3368293D1*
X1032308Y3373101D1*
X1090105Y3416156D2*
Y3375478D1*
X1092482Y3368348D1*
X1097290Y3365916D1*
X1102043D1*
X1082920Y3399409D2*
X1099667D1*
X1123916Y3385039D2*
X1152600D1*
Y3389848D1*
X1150224Y3394656D1*
X1147847Y3397033D1*
X1143039Y3399409D1*
X1135854D1*
X1131101Y3397033D1*
X1126292Y3392224D1*
X1123916Y3385039D1*
Y3380286D1*
X1126292Y3373101D1*
X1131101Y3368348D1*
X1135854Y3365916D1*
X1143039D1*
X1147847Y3368348D1*
X1152600Y3373101D1*
X1174473Y3399409D2*
Y3365916D1*
Y3385039D2*
X1176905Y3392224D1*
X1181658Y3397033D1*
X1186466Y3399409D1*
X1193651D1*
X835105Y3776157D2*
D91*
Y3735965D1*
Y3776157D2*
X813670Y3735965D1*
Y3776157D2*
Y3735965D1*
X849104Y3762760D2*
Y3735965D1*
X859432D1*
X862899Y3737247D1*
X864031Y3738529D1*
X865163Y3741050D1*
Y3744896D1*
X864031Y3747461D1*
X862899Y3748743D1*
X859432Y3749981D1*
X862899Y3751308D1*
X864031Y3752546D1*
X865163Y3755110D1*
Y3757675D1*
X864031Y3760195D1*
X862899Y3761477D1*
X859432Y3762760D1*
X849104D1*
Y3749981D2*
X859432D1*
X897519Y3762760D2*
Y3735965D1*
Y3757012D2*
X894477Y3760858D1*
X891400Y3762760D1*
X886837D1*
X883760Y3760858D1*
X880717Y3757012D1*
X879161Y3751264D1*
Y3747461D1*
X880717Y3741713D1*
X883760Y3737910D1*
X886837Y3735965D1*
X891400D1*
X894477Y3737910D1*
X897519Y3741713D1*
X911518Y3762760D2*
Y3735965D1*
X927577Y3762760D2*
Y3735965D1*
X911518Y3749981D2*
X927577D1*
X957634Y3762760D2*
Y3735965D1*
Y3762760D2*
X941575Y3735965D1*
Y3762760D2*
Y3735965D1*
X971632D2*
Y3762760D1*
X994589D2*
Y3735965D1*
X983093Y3762760D2*
Y3735965D1*
X971632D2*
X994589D1*
X1024647Y3762760D2*
Y3735965D1*
Y3762760D2*
X1008587Y3735965D1*
Y3762760D2*
Y3735965D1*
X1038645Y3762760D2*
Y3735965D1*
X1054704Y3762760D2*
Y3735965D1*
X1038645Y3749981D2*
X1054704D1*
X1103924Y3776157D2*
Y3735965D1*
X1117719D1*
X1122318Y3737910D1*
X1123839Y3739812D1*
X1125360Y3743614D1*
Y3749362D1*
X1123839Y3753209D1*
X1122318Y3755110D1*
X1117719Y3757012D1*
X1122318Y3758957D1*
X1123839Y3760858D1*
X1125360Y3764661D1*
Y3768508D1*
X1123839Y3772310D1*
X1122318Y3774256D1*
X1117719Y3776157D1*
X1103924D1*
Y3757012D2*
X1117719D1*
X1140879Y3739812D2*
X1139358Y3737866D1*
X1140879Y3735965D1*
X1142435Y3737866D1*
X1140879Y3739812D1*
X1156434Y3776157D2*
Y3735965D1*
X1170229D1*
X1174827Y3737910D1*
X1176348Y3739812D1*
X1177869Y3743614D1*
Y3749362D1*
X1176348Y3753209D1*
X1174827Y3755110D1*
X1170229Y3757012D1*
X1174827Y3758957D1*
X1176348Y3760858D1*
X1177869Y3764661D1*
Y3768508D1*
X1176348Y3772310D1*
X1174827Y3774256D1*
X1170229Y3776157D1*
X1156434D1*
Y3757012D2*
X1170229D1*
X1193389Y3739812D2*
X1191868Y3737866D1*
X1193389Y3735965D1*
X1194945Y3737866D1*
X1193389Y3739812D1*
X1153543Y2311884D2*
D90*
X1151112Y2315250D1*
X1143982Y2320280D1*
X1194167D1*
X1143982Y2338956D2*
Y2357333D1*
X1163105Y2347313D1*
Y2352342D1*
X1165482Y2355670D1*
X1167858Y2357333D1*
X1175043Y2359035D1*
X1179797D1*
X1186982Y2357333D1*
X1191790Y2354006D1*
X1194167Y2348976D1*
Y2343947D1*
X1191790Y2338956D1*
X1189358Y2337292D1*
X1184605Y2335590D1*
X1189358Y2376010D2*
X1191790Y2374346D1*
X1194167Y2376010D1*
X1191790Y2377712D1*
X1189358Y2376010D1*
X1153543Y2393023D2*
X1151112Y2396388D1*
X1143982Y2401418D1*
X1194167D1*
X1155920Y2418431D2*
X1153543D1*
X1148735Y2420095D1*
X1146358Y2421758D1*
X1143982Y2425124D1*
Y2431817D1*
X1146358Y2435144D1*
X1148735Y2436808D1*
X1153543Y2438510D1*
X1158297D1*
X1163105Y2436808D1*
X1170235Y2433481D1*
X1194167Y2416729D1*
Y2440174D1*
X1189358Y2457148D2*
X1191790Y2455484D1*
X1194167Y2457148D1*
X1191790Y2458850D1*
X1189358Y2457148D1*
X1155920Y2475863D2*
X1153543D1*
X1148735Y2477527D1*
X1146358Y2479191D1*
X1143982Y2482556D1*
Y2489250D1*
X1146358Y2492577D1*
X1148735Y2494240D1*
X1153543Y2495943D1*
X1158297D1*
X1163105Y2494240D1*
X1170235Y2490913D1*
X1194167Y2474161D1*
Y2497606D1*
X1143982Y2522976D2*
X1146358Y2517946D1*
X1153543Y2514581D1*
X1165482Y2512917D1*
X1172667D1*
X1184605Y2514581D1*
X1191790Y2517946D1*
X1194167Y2522976D1*
Y2526303D1*
X1191790Y2531333D1*
X1184605Y2534660D1*
X1172667Y2536362D1*
X1165482D1*
X1153543Y2534660D1*
X1146358Y2531333D1*
X1143982Y2526303D1*
Y2522976D1*
X1153543Y2534660D2*
X1184605Y2514581D1*
X1153543Y2551673D2*
X1151112Y2555039D1*
X1143982Y2560068D1*
X1194167D1*
Y2582072D2*
X1143982Y2598824D1*
Y2575379D1*
X315937Y2733650D2*
D92*
X341737D1*
X350359Y2736568D1*
X353277Y2739420D1*
X356129Y2745124D1*
Y2750894D1*
X353277Y2756598D1*
X350359Y2759516D1*
X341737Y2762368D1*
X315937D1*
Y2702080D1*
X336033Y2733650D2*
X356129Y2702080D1*
X422568Y2753746D2*
X416864Y2759516D1*
X408242Y2762368D1*
X396768D1*
X388146Y2759516D1*
X382376Y2753746D1*
Y2748042D1*
X385294Y2742272D1*
X388146Y2739420D1*
X393850Y2736568D1*
X411094Y2730798D1*
X416864Y2727946D1*
X419716Y2725028D1*
X422568Y2719324D1*
Y2710702D1*
X416864Y2704998D1*
X408242Y2702080D1*
X396768D1*
X388146Y2704998D1*
X382376Y2710702D1*
X477533Y2702080D2*
Y2762302D1*
X448814Y2722176D1*
X491858D1*
X532431Y2762302D2*
X523875Y2759450D1*
X520957Y2753746D1*
Y2747976D1*
X523875Y2742272D1*
X529579Y2739354D1*
X541053Y2736502D1*
X549675Y2733650D1*
X555379Y2727880D1*
X558231Y2722176D1*
Y2713554D1*
X555379Y2707850D1*
X552527Y2704932D1*
X543905Y2702080D1*
X532431D1*
X523875Y2704932D1*
X520957Y2707850D1*
X518105Y2713554D1*
Y2722176D1*
X520957Y2727880D1*
X526727Y2733650D1*
X535283Y2736502D1*
X546757Y2739354D1*
X552527Y2742272D1*
X555379Y2747976D1*
Y2753746D1*
X552527Y2759450D1*
X543905Y2762302D1*
X532431D1*
X618899D2*
X590248D1*
X587396Y2736502D1*
X590248Y2739354D1*
X598870Y2742272D1*
X607425D1*
X616047Y2739354D1*
X621818Y2733650D1*
X624669Y2725028D1*
Y2719324D1*
X621818Y2710702D1*
X616047Y2704932D1*
X607425Y2702080D1*
X598870D1*
X590248Y2704932D1*
X587396Y2707850D1*
X584477Y2713554D1*
X650916Y2702080D2*
X691108Y2762302D1*
X717355Y2733650D2*
X743155D1*
X751777Y2736568D1*
X754695Y2739420D1*
X757547Y2745124D1*
Y2750894D1*
X754695Y2756598D1*
X751777Y2759516D1*
X743155Y2762368D1*
X717355D1*
Y2702080D1*
X737451Y2733650D2*
X757547Y2702080D1*
X823986Y2753746D2*
X818282Y2759516D1*
X809660Y2762368D1*
X798186D1*
X789564Y2759516D1*
X783794Y2753746D1*
Y2748042D1*
X786712Y2742272D1*
X789564Y2739420D1*
X795268Y2736568D1*
X812512Y2730798D1*
X818282Y2727946D1*
X821134Y2725028D1*
X823986Y2719324D1*
Y2710702D1*
X818282Y2704998D1*
X809660Y2702080D1*
X798186D1*
X789564Y2704998D1*
X783794Y2710702D1*
X878950Y2702080D2*
Y2762302D1*
X850232Y2722176D1*
X893276D1*
X922441Y2747976D2*
Y2750828D1*
X925293Y2756598D1*
X928145Y2759450D1*
X933915Y2762302D1*
X945389D1*
X951093Y2759450D1*
X953945Y2756598D1*
X956863Y2750828D1*
Y2745124D1*
X953945Y2739354D1*
X948241Y2730798D1*
X919523Y2702080D1*
X959715D1*
X988880Y2747976D2*
Y2750828D1*
X991732Y2756598D1*
X994584Y2759450D1*
X1000354Y2762302D1*
X1011828D1*
X1017532Y2759450D1*
X1020384Y2756598D1*
X1023302Y2750828D1*
Y2745124D1*
X1020384Y2739354D1*
X1014680Y2730798D1*
X985962Y2702080D1*
X1026154D1*
X1112912Y2322432D2*
D90*
X1062672Y2310925D1*
X1112912Y2299451D1*
X1096165Y2303762D2*
Y2318121D1*
X1062672Y2335556D2*
X1112912Y2347029D1*
X1062672Y2358503D1*
X1086604Y2371627D2*
Y2384527D1*
X1084172Y2388838D1*
X1081795Y2390297D1*
X1077042Y2391723D1*
X1072234D1*
X1067480Y2390297D1*
X1065049Y2388838D1*
X1062672Y2384527D1*
Y2371627D1*
X1112912D1*
X1086604Y2381675D2*
X1112912Y2391723D1*
Y2427827D2*
X1062672Y2416320D1*
X1112912Y2404846D1*
X1096165Y2409157D2*
Y2423516D1*
X1069857Y2461047D2*
X1065049Y2458195D1*
X1062672Y2453884D1*
Y2448147D1*
X1065049Y2443836D1*
X1069857Y2440951D1*
X1074610D1*
X1079419Y2442410D1*
X1081795Y2443836D1*
X1084172Y2446687D1*
X1088980Y2455310D1*
X1091357Y2458195D1*
X1093789Y2459621D1*
X1098542Y2461047D1*
X1105727D1*
X1110480Y2458195D1*
X1112912Y2453884D1*
Y2448147D1*
X1110480Y2443836D1*
X1105727Y2440951D1*
X1112912Y2497118D2*
X1062672D1*
X1112912Y2485644D1*
X1062672Y2474170D1*
X1112912D1*
X1072289Y2510241D2*
X1069857Y2513126D1*
X1062727Y2517437D1*
X1112912D1*
X1074665Y2532020D2*
X1072289D1*
X1067480Y2533446D1*
X1065104Y2534872D1*
X1062727Y2537757D1*
Y2543494D1*
X1065104Y2546346D1*
X1067480Y2547772D1*
X1072289Y2549231D1*
X1077042D1*
X1081850Y2547772D1*
X1088980Y2544920D1*
X1112912Y2530561D1*
Y2550657D1*
X1062727Y2566665D2*
Y2582417D1*
X1081850Y2573828D1*
Y2578139D1*
X1084227Y2580991D1*
X1086604Y2582417D1*
X1093789Y2583876D1*
X1098542D1*
X1105727Y2582417D1*
X1110535Y2579565D1*
X1112912Y2575254D1*
Y2570943D1*
X1110535Y2566665D1*
X1108104Y2565239D1*
X1103350Y2563780D1*
X1112912Y2611358D2*
X1062727D1*
X1096165Y2596999D1*
Y2618521D1*
X990201Y2288540D2*
D91*
X1030393D1*
X990201D2*
X1030393Y2267104D1*
X990201D2*
X1030393D1*
X1003599Y2302538D2*
X1030393D1*
Y2312867D1*
X1029111Y2316333D1*
X1027829Y2317465D1*
X1025309Y2318597D1*
X1021462D1*
X1018897Y2317465D1*
X1017615Y2316333D1*
X1016377Y2312867D1*
X1015051Y2316333D1*
X1013813Y2317465D1*
X1011248Y2318597D1*
X1008684D1*
X1006163Y2317465D1*
X1004881Y2316333D1*
X1003599Y2312867D1*
Y2302538D1*
X1016377D2*
Y2312867D1*
X1003599Y2350954D2*
X1030393D1*
X1009347D2*
X1005500Y2347912D1*
X1003599Y2344834D1*
Y2340271D1*
X1005500Y2337194D1*
X1009347Y2334152D1*
X1015095Y2332595D1*
X1018897D1*
X1024645Y2334152D1*
X1028448Y2337194D1*
X1030393Y2340271D1*
Y2344834D1*
X1028448Y2347912D1*
X1024645Y2350954D1*
X1003599Y2364952D2*
X1030393D1*
X1003599Y2381011D2*
X1030393D1*
X1016377Y2364952D2*
Y2381011D1*
X1003599Y2411069D2*
X1030393D1*
X1003599D2*
X1030393Y2395009D1*
X1003599D2*
X1030393D1*
Y2425067D2*
X1003599D1*
Y2448024D2*
X1030393D1*
X1003599Y2436527D2*
X1030393D1*
Y2425067D2*
Y2448024D1*
X1003599Y2478081D2*
X1030393D1*
X1003599D2*
X1030393Y2462022D1*
X1003599D2*
X1030393D1*
X1003599Y2492079D2*
X1030393D1*
X1003599Y2508138D2*
X1030393D1*
X1016377Y2492079D2*
Y2508138D1*
X990201Y2557358D2*
X1030393D1*
Y2571154D1*
X1028448Y2575752D1*
X1026547Y2577273D1*
X1022744Y2578794D1*
X1016996D1*
X1013149Y2577273D1*
X1011248Y2575752D1*
X1009347Y2571154D1*
X1007401Y2575752D1*
X1005500Y2577273D1*
X1001697Y2578794D1*
X997851D1*
X994048Y2577273D1*
X992103Y2575752D1*
X990201Y2571154D1*
Y2557358D1*
X1009347D2*
Y2571154D1*
X1026547Y2594313D2*
X1028492Y2592792D1*
X1030393Y2594313D1*
X1028492Y2595870D1*
X1026547Y2594313D1*
X990201Y2609868D2*
X1030393D1*
Y2623663D1*
X1028448Y2628262D1*
X1026547Y2629783D1*
X1022744Y2631304D1*
X1016996D1*
X1013149Y2629783D1*
X1011248Y2628262D1*
X1009347Y2623663D1*
X1007401Y2628262D1*
X1005500Y2629783D1*
X1001697Y2631304D1*
X997851D1*
X994048Y2629783D1*
X992103Y2628262D1*
X990201Y2623663D1*
Y2609868D1*
X1009347D2*
Y2623663D1*
X1026547Y2646823D2*
X1028492Y2645302D1*
X1030393Y2646823D1*
X1028492Y2648379D1*
X1026547Y2646823D1*
X531170Y651099D2*
D93*
X538819Y631003D1*
X546469Y651099D1*
X569566Y646324D2*
X568615Y648225D1*
X566692Y650149D1*
X564790Y651099D1*
X560966D1*
X559042Y650149D1*
X557141Y648225D1*
X556168Y646324D1*
X555218Y643450D1*
Y638653D1*
X556168Y635801D1*
X557141Y633877D1*
X559042Y631976D1*
X560966Y631003D1*
X564790D1*
X566692Y631976D1*
X568615Y633877D1*
X569566Y635801D1*
X592663Y646324D2*
X591712Y648225D1*
X589789Y650149D1*
X587887Y651099D1*
X584063D1*
X582139Y650149D1*
X580238Y648225D1*
X579265Y646324D1*
X578315Y643450D1*
Y638653D1*
X579265Y635801D1*
X580238Y633877D1*
X582139Y631976D1*
X584063Y631003D1*
X587887D1*
X589789Y631976D1*
X591712Y633877D1*
X592663Y635801D1*
X542644Y682331D2*
X533094D1*
X532143Y673731D1*
X533094Y674681D1*
X535968Y675654D1*
X538819D1*
X541693Y674681D1*
X543617Y672780D1*
X544568Y669906D1*
Y668005D1*
X543617Y665131D1*
X541693Y663207D1*
X538819Y662257D1*
X535968D1*
X533094Y663207D1*
X532143Y664180D1*
X531170Y666081D1*
X553316Y682353D2*
X560966Y662257D1*
X568615Y682353D1*
X533094Y619824D2*
X543595D1*
X537869Y612175D1*
X540743D1*
X542644Y611224D1*
X543595Y610274D1*
X544568Y607399D1*
Y605498D1*
X543595Y602624D1*
X541693Y600701D1*
X538819Y599750D1*
X535945D1*
X533094Y600701D1*
X532143Y601674D1*
X531170Y603575D1*
X554267Y601674D2*
X553316Y600701D1*
X554267Y599750D1*
X555240Y600701D1*
X554267Y601674D1*
X565912Y619824D2*
X576413D1*
X570687Y612175D1*
X573561D1*
X575463Y611224D1*
X576413Y610274D1*
X577386Y607399D1*
Y605498D1*
X576413Y602624D1*
X574512Y600701D1*
X571638Y599750D1*
X568764D1*
X565912Y600701D1*
X564961Y601674D1*
X563989Y603575D1*
X586135Y619846D2*
X593784Y599750D1*
X601434Y619846D1*
X544568Y588593D2*
Y568497D1*
X531170Y588593D1*
Y568497D1*
X567664Y583818D2*
X566714Y585719D1*
X564790Y587642D1*
X562889Y588593D1*
X559064D1*
X557141Y587642D1*
X555240Y585719D1*
X554267Y583818D1*
X553316Y580944D1*
Y576146D1*
X554267Y573294D1*
X555240Y571371D1*
X557141Y569470D1*
X559064Y568497D1*
X562889D1*
X564790Y569470D1*
X566714Y571371D1*
X567664Y573294D1*
X544568Y557340D2*
Y537244D1*
X531170Y557340D1*
Y537244D1*
X567664Y552564D2*
X566714Y554466D1*
X564790Y556389D1*
X562889Y557340D1*
X559064D1*
X557141Y556389D1*
X555240Y554466D1*
X554267Y552564D1*
X553316Y549690D1*
Y544893D1*
X554267Y542041D1*
X555240Y540118D1*
X557141Y538216D1*
X559064Y537244D1*
X562889D1*
X564790Y538216D1*
X566714Y540118D1*
X567664Y542041D1*
X545518Y521311D2*
X544568Y523212D1*
X542644Y525136D1*
X540743Y526086D1*
X536918D1*
X534995Y525136D1*
X533094Y523212D1*
X532121Y521311D1*
X531170Y518437D1*
Y513640D1*
X532121Y510788D1*
X533094Y508864D1*
X534995Y506963D1*
X536918Y505990D1*
X540743D1*
X542644Y506963D1*
X544568Y508864D1*
X545518Y510788D1*
X554267Y526086D2*
Y505990D1*
X562889D1*
X565763Y506963D1*
X566714Y507914D1*
X567664Y509815D1*
Y512689D1*
X566714Y514612D1*
X565763Y515563D1*
X562889Y516514D1*
X565763Y517486D1*
X566714Y518437D1*
X567664Y520338D1*
Y522262D1*
X566714Y524163D1*
X565763Y525136D1*
X562889Y526086D1*
X554267D1*
Y516514D2*
X562889D1*
X576413Y526086D2*
Y511738D1*
X577364Y508864D1*
X579287Y506963D1*
X582161Y505990D1*
X584063D1*
X586937Y506963D1*
X588860Y508864D1*
X589811Y511738D1*
Y526086D1*
X611957Y523212D2*
X610056Y525136D1*
X607182Y526086D1*
X603357D1*
X600483Y525136D1*
X598560Y523212D1*
Y521311D1*
X599532Y519388D1*
X600483Y518437D1*
X602384Y517486D1*
X608132Y515563D1*
X610056Y514612D1*
X611006Y513640D1*
X611957Y511738D1*
Y508864D1*
X610056Y506963D1*
X607182Y505990D1*
X603357D1*
X600483Y506963D1*
X598560Y508864D1*
X626454Y526064D2*
X623580Y525114D1*
X621656Y522240D1*
X620706Y517464D1*
Y514590D1*
X621656Y509815D1*
X623580Y506941D1*
X626454Y505990D1*
X628355D1*
X631229Y506941D1*
X633130Y509815D1*
X634103Y514590D1*
Y517464D1*
X633130Y522240D1*
X631229Y525114D1*
X628355Y526064D1*
X626454D1*
X633130Y522240D2*
X621656Y509815D1*
X545518Y490058D2*
X544568Y491959D1*
X542644Y493882D1*
X540743Y494833D1*
X536918D1*
X534995Y493882D1*
X533094Y491959D1*
X532121Y490058D1*
X531170Y487184D1*
Y482386D1*
X532121Y479534D1*
X533094Y477611D1*
X534995Y475710D1*
X536918Y474737D1*
X540743D1*
X542644Y475710D1*
X544568Y477611D1*
X545518Y479534D1*
X554267Y494833D2*
Y474737D1*
X562889D1*
X565763Y475710D1*
X566714Y476660D1*
X567664Y478562D1*
Y481436D1*
X566714Y483359D1*
X565763Y484310D1*
X562889Y485260D1*
X565763Y486233D1*
X566714Y487184D1*
X567664Y489085D1*
Y491008D1*
X566714Y492910D1*
X565763Y493882D1*
X562889Y494833D1*
X554267D1*
Y485260D2*
X562889D1*
X576413Y494833D2*
Y480485D1*
X577364Y477611D1*
X579287Y475710D1*
X582161Y474737D1*
X584063D1*
X586937Y475710D1*
X588860Y477611D1*
X589811Y480485D1*
Y494833D1*
X611957Y491959D2*
X610056Y493882D1*
X607182Y494833D1*
X603357D1*
X600483Y493882D1*
X598560Y491959D1*
Y490058D1*
X599532Y488134D1*
X600483Y487184D1*
X602384Y486233D1*
X608132Y484310D1*
X610056Y483359D1*
X611006Y482386D1*
X611957Y480485D1*
Y477611D1*
X610056Y475710D1*
X607182Y474737D1*
X603357D1*
X600483Y475710D1*
X598560Y477611D1*
X620706Y490986D2*
X622629Y491959D1*
X625503Y494811D1*
Y474737D1*
X545518Y458804D2*
X544568Y460706D1*
X542644Y462629D1*
X540743Y463580D1*
X536918D1*
X534995Y462629D1*
X533094Y460706D1*
X532121Y458804D1*
X531170Y455930D1*
Y451133D1*
X532121Y448281D1*
X533094Y446358D1*
X534995Y444457D1*
X536918Y443484D1*
X540743D1*
X542644Y444457D1*
X544568Y446358D1*
X545518Y448281D1*
X554267Y463580D2*
Y443484D1*
X562889D1*
X565763Y444457D1*
X566714Y445407D1*
X567664Y447308D1*
Y450182D1*
X566714Y452106D1*
X565763Y453056D1*
X562889Y454007D1*
X565763Y454980D1*
X566714Y455930D1*
X567664Y457832D1*
Y459755D1*
X566714Y461656D1*
X565763Y462629D1*
X562889Y463580D1*
X554267D1*
Y454007D2*
X562889D1*
X576413Y463580D2*
Y449232D1*
X577364Y446358D1*
X579287Y444457D1*
X582161Y443484D1*
X584063D1*
X586937Y444457D1*
X588860Y446358D1*
X589811Y449232D1*
Y463580D1*
X611957Y460706D2*
X610056Y462629D1*
X607182Y463580D1*
X603357D1*
X600483Y462629D1*
X598560Y460706D1*
Y458804D1*
X599532Y456881D1*
X600483Y455930D1*
X602384Y454980D1*
X608132Y453056D1*
X610056Y452106D1*
X611006Y451133D1*
X611957Y449232D1*
Y446358D1*
X610056Y444457D1*
X607182Y443484D1*
X603357D1*
X600483Y444457D1*
X598560Y446358D1*
X621679Y458782D2*
Y459733D1*
X622629Y461656D1*
X623580Y462607D1*
X625503Y463558D1*
X629328D1*
X631229Y462607D1*
X632180Y461656D1*
X633152Y459733D1*
Y457832D1*
X632180Y455908D1*
X630278Y453056D1*
X620706Y443484D1*
X634103D1*
X545518Y427551D2*
X544568Y429452D1*
X542644Y431376D1*
X540743Y432327D1*
X536918D1*
X534995Y431376D1*
X533094Y429452D1*
X532121Y427551D1*
X531170Y424677D1*
Y419880D1*
X532121Y417028D1*
X533094Y415105D1*
X534995Y413203D1*
X536918Y412231D1*
X540743D1*
X542644Y413203D1*
X544568Y415105D1*
X545518Y417028D1*
X554267Y432327D2*
Y412231D1*
X562889D1*
X565763Y413203D1*
X566714Y414154D1*
X567664Y416055D1*
Y418929D1*
X566714Y420853D1*
X565763Y421803D1*
X562889Y422754D1*
X565763Y423727D1*
X566714Y424677D1*
X567664Y426578D1*
Y428502D1*
X566714Y430403D1*
X565763Y431376D1*
X562889Y432327D1*
X554267D1*
Y422754D2*
X562889D1*
X576413Y432327D2*
Y417979D1*
X577364Y415105D1*
X579287Y413203D1*
X582161Y412231D1*
X584063D1*
X586937Y413203D1*
X588860Y415105D1*
X589811Y417979D1*
Y432327D1*
X611957Y429452D2*
X610056Y431376D1*
X607182Y432327D1*
X603357D1*
X600483Y431376D1*
X598560Y429452D1*
Y427551D1*
X599532Y425628D1*
X600483Y424677D1*
X602384Y423727D1*
X608132Y421803D1*
X610056Y420853D1*
X611006Y419880D1*
X611957Y417979D1*
Y415105D1*
X610056Y413203D1*
X607182Y412231D1*
X603357D1*
X600483Y413203D1*
X598560Y415105D1*
X622629Y432304D2*
X633130D1*
X627404Y424655D1*
X630278D1*
X632180Y423704D1*
X633130Y422754D1*
X634103Y419880D1*
Y417979D1*
X633130Y415105D1*
X631229Y413181D1*
X628355Y412231D1*
X625481D1*
X622629Y413181D1*
X621679Y414154D1*
X620706Y416055D1*
X545518Y396298D2*
X544568Y398199D1*
X542644Y400123D1*
X540743Y401073D1*
X536918D1*
X534995Y400123D1*
X533094Y398199D1*
X532121Y396298D1*
X531170Y393424D1*
Y388627D1*
X532121Y385775D1*
X533094Y383851D1*
X534995Y381950D1*
X536918Y380977D1*
X540743D1*
X542644Y381950D1*
X544568Y383851D1*
X545518Y385775D1*
X554267Y401073D2*
Y380977D1*
X562889D1*
X565763Y381950D1*
X566714Y382901D1*
X567664Y384802D1*
Y387676D1*
X566714Y389599D1*
X565763Y390550D1*
X562889Y391501D1*
X565763Y392473D1*
X566714Y393424D1*
X567664Y395325D1*
Y397249D1*
X566714Y399150D1*
X565763Y400123D1*
X562889Y401073D1*
X554267D1*
Y391501D2*
X562889D1*
X576413Y401073D2*
Y386725D1*
X577364Y383851D1*
X579287Y381950D1*
X582161Y380977D1*
X584063D1*
X586937Y381950D1*
X588860Y383851D1*
X589811Y386725D1*
Y401073D1*
X611957Y398199D2*
X610056Y400123D1*
X607182Y401073D1*
X603357D1*
X600483Y400123D1*
X598560Y398199D1*
Y396298D1*
X599532Y394375D1*
X600483Y393424D1*
X602384Y392473D1*
X608132Y390550D1*
X610056Y389599D1*
X611006Y388627D1*
X611957Y386725D1*
Y383851D1*
X610056Y381950D1*
X607182Y380977D1*
X603357D1*
X600483Y381950D1*
X598560Y383851D1*
X630278Y380977D2*
Y401051D1*
X620706Y387676D1*
X635054D1*
X738018Y682224D2*
Y662128D1*
X731320Y682224D2*
X744717D1*
X753466D2*
X766863Y662128D1*
Y682224D2*
X753466Y662128D1*
X775612Y682224D2*
Y662128D1*
X782311D1*
X785185Y663101D1*
X787108Y665002D1*
X788059Y666926D1*
X789010Y669777D1*
Y674575D1*
X788059Y677449D1*
X787108Y679350D1*
X785185Y681274D1*
X782311Y682224D1*
X775612D1*
X731320Y641398D2*
X739920D1*
X742794Y642371D1*
X743766Y643322D1*
X744717Y645223D1*
Y647146D1*
X743766Y649047D1*
X742794Y650020D1*
X739920Y650971D1*
X731320D1*
Y630875D1*
X738018Y641398D2*
X744717Y630875D1*
X753466Y650971D2*
X766863Y630875D1*
Y650971D2*
X753466Y630875D1*
X775612Y650971D2*
Y630875D1*
X782311D1*
X785185Y631848D1*
X787108Y633749D1*
X788059Y635672D1*
X789010Y638524D1*
Y643322D1*
X788059Y646196D1*
X787108Y648097D1*
X785185Y650020D1*
X782311Y650971D1*
X775612D1*
X731320Y610145D2*
X739920D1*
X742794Y611118D1*
X743766Y612068D1*
X744717Y613970D1*
Y615893D1*
X743766Y617794D1*
X742794Y618767D1*
X739920Y619718D1*
X731320D1*
Y599622D1*
X738018Y610145D2*
X744717Y599622D1*
X760165Y619718D2*
Y599622D1*
X753466Y619718D2*
X766863D1*
X789010Y616844D2*
X787108Y618767D1*
X784234Y619718D1*
X780410D1*
X777536Y618767D1*
X775612Y616844D1*
Y614942D1*
X776585Y613019D1*
X777536Y612068D1*
X779437Y611118D1*
X785185Y609194D1*
X787108Y608244D1*
X788059Y607271D1*
X789010Y605370D1*
Y602496D1*
X787108Y600594D1*
X784234Y599622D1*
X780410D1*
X777536Y600594D1*
X775612Y602496D1*
X745668Y583689D2*
X744717Y585590D1*
X742794Y587514D1*
X740892Y588464D1*
X737068D1*
X735144Y587514D1*
X733243Y585590D1*
X732270Y583689D1*
X731320Y580815D1*
Y576018D1*
X732270Y573166D1*
X733243Y571242D1*
X735144Y569341D1*
X737068Y568368D1*
X740892D1*
X742794Y569341D1*
X744717Y571242D1*
X745668Y573166D1*
X761115Y588464D2*
Y568368D1*
X754417Y588464D2*
X767814D1*
X789960Y585590D2*
X788059Y587514D1*
X785185Y588464D1*
X781360D1*
X778486Y587514D1*
X776563Y585590D1*
Y583689D1*
X777536Y581766D1*
X778486Y580815D1*
X780388Y579864D1*
X786136Y577941D1*
X788059Y576990D1*
X789010Y576018D1*
X789960Y574116D1*
Y571242D1*
X788059Y569341D1*
X785185Y568368D1*
X781360D1*
X778486Y569341D1*
X776563Y571242D1*
X731320Y557211D2*
Y537115D1*
X738018D1*
X740892Y538088D1*
X742816Y539989D1*
X743766Y541912D1*
X744717Y544764D1*
Y549562D1*
X743766Y552436D1*
X742816Y554337D1*
X740892Y556260D1*
X738018Y557211D1*
X731320D1*
X760165D2*
Y537115D1*
X753466Y557211D2*
X766863D1*
X775612Y547638D2*
X784212D1*
X787086Y548611D1*
X788059Y549562D1*
X789010Y551463D1*
Y553386D1*
X788059Y555288D1*
X787086Y556260D1*
X784212Y557211D1*
X775612D1*
Y537115D1*
X782311Y547638D2*
X789010Y537115D1*
X731320Y525958D2*
Y505862D1*
X738018D1*
X740892Y506834D1*
X742816Y508736D1*
X743766Y510659D1*
X744717Y513511D1*
Y518308D1*
X743766Y521182D1*
X742816Y523084D1*
X740892Y525007D1*
X738018Y525958D1*
X731320D1*
X766863Y523084D2*
X764962Y525007D1*
X762088Y525958D1*
X758263D1*
X755389Y525007D1*
X753466Y523084D1*
Y521182D1*
X754439Y519259D1*
X755389Y518308D1*
X757291Y517358D1*
X763039Y515434D1*
X764962Y514484D1*
X765913Y513511D1*
X766863Y511610D1*
Y508736D1*
X764962Y506834D1*
X762088Y505862D1*
X758263D1*
X755389Y506834D1*
X753466Y508736D1*
X775612Y516385D2*
X784212D1*
X787086Y517358D1*
X788059Y518308D1*
X789010Y520210D1*
Y522133D1*
X788059Y524034D1*
X787086Y525007D1*
X784212Y525958D1*
X775612D1*
Y505862D1*
X782311Y516385D2*
X789010Y505862D1*
X731320Y494704D2*
Y474608D1*
X738018D1*
X740892Y475581D1*
X742816Y477482D1*
X743766Y479406D1*
X744717Y482258D1*
Y487055D1*
X743766Y489929D1*
X742816Y491830D1*
X740892Y493754D1*
X738018Y494704D1*
X731320D1*
X767814Y489929D2*
X766863Y491830D1*
X764940Y493754D1*
X763039Y494704D1*
X759214D1*
X757291Y493754D1*
X755389Y491830D1*
X754417Y489929D1*
X753466Y487055D1*
Y482258D1*
X754417Y479406D1*
X755389Y477482D1*
X757291Y475581D1*
X759214Y474608D1*
X763039D1*
X764940Y475581D1*
X766863Y477482D1*
X767814Y479406D1*
X776563Y494704D2*
Y474608D1*
X783262D1*
X786136Y475581D1*
X788059Y477482D1*
X789010Y479406D1*
X789960Y482258D1*
Y487055D1*
X789010Y489929D1*
X788059Y491830D1*
X786136Y493754D1*
X783262Y494704D1*
X776563D1*
X762573Y453878D2*
X771173D1*
X774047Y454851D1*
X775020Y455802D1*
X775970Y457703D1*
Y459627D1*
X775020Y461528D1*
X774047Y462501D1*
X771173Y463451D1*
X762573D1*
Y443355D1*
X769272Y453878D2*
X775970Y443355D1*
X784719Y463451D2*
Y443355D1*
X687565Y422625D2*
X696165D1*
X699039Y423598D1*
X700012Y424549D1*
X700963Y426450D1*
Y428373D1*
X700012Y430275D1*
X699039Y431247D1*
X696165Y432198D1*
X687565D1*
Y412102D1*
X694264Y422625D2*
X700963Y412102D1*
X722136Y432198D2*
X709711D1*
Y412102D1*
X722136D1*
X709711Y422625D2*
X717361D1*
X744282Y429324D2*
X742381Y431247D1*
X739507Y432198D1*
X735682D1*
X732808Y431247D1*
X730885Y429324D1*
Y427423D1*
X731858Y425499D1*
X732808Y424549D1*
X734710Y423598D1*
X740458Y421675D1*
X742381Y420724D1*
X743332Y419751D1*
X744282Y417850D1*
Y414976D1*
X742381Y413075D1*
X739507Y412102D1*
X735682D1*
X732808Y413075D1*
X730885Y414976D1*
X765456Y432198D2*
X753031D1*
Y412102D1*
X765456D1*
X753031Y422625D2*
X760680D1*
X780903Y432198D2*
Y412102D1*
X774205Y432198D2*
X787602D1*
X745668Y396169D2*
X744717Y398071D1*
X742794Y399994D1*
X740892Y400945D1*
X737068D1*
X735144Y399994D1*
X733243Y398071D1*
X732270Y396169D1*
X731320Y393295D1*
Y388498D1*
X732270Y385646D1*
X733243Y383723D1*
X735144Y381821D1*
X737068Y380849D1*
X740892D1*
X742794Y381821D1*
X744717Y383723D1*
X745668Y385646D1*
Y388498D1*
X740892D1*
X767814Y400945D2*
Y380849D1*
X754417Y400945D1*
Y380849D1*
X776563Y400945D2*
Y380849D1*
X783262D1*
X786136Y381821D1*
X788059Y383723D1*
X789010Y385646D1*
X789960Y388498D1*
Y393295D1*
X789010Y396169D1*
X788059Y398071D1*
X786136Y399994D1*
X783262Y400945D1*
X776563D1*
X491788Y235247D2*
D94*
X521933Y246721D1*
X491789Y258195D1*
X498951Y292840D2*
X496100Y291414D1*
X493214Y288529D1*
X491789Y285677D1*
Y279940D1*
X493214Y277055D1*
X496100Y274203D1*
X498951Y272744D1*
X503262Y271318D1*
X510459D1*
X514736Y272744D1*
X517621Y274203D1*
X520473Y277055D1*
X521932Y279940D1*
Y285677D1*
X520473Y288529D1*
X517621Y291414D1*
X514736Y292840D1*
X498951Y327485D2*
X496100Y326059D1*
X493214Y323174D1*
X491789Y320322D1*
Y314585D1*
X493214Y311700D1*
X496100Y308848D1*
X498951Y307389D1*
X503262Y305963D1*
X510459D1*
X514736Y307389D1*
X517621Y308848D1*
X520473Y311700D1*
X521932Y314585D1*
Y320322D1*
X520473Y323174D1*
X517621Y326059D1*
X514736Y327485D1*
X595198Y248147D2*
X625342D1*
X595198Y238099D2*
Y258195D1*
Y271318D2*
X625342Y291414D1*
X595198D2*
X625342Y271318D1*
X595198Y304537D2*
X625342D1*
Y314585D1*
X623883Y318896D1*
X621031Y321781D1*
X618146Y323207D1*
X613868Y324633D1*
X606672D1*
X602361Y323207D1*
X599509Y321781D1*
X596624Y318896D1*
X595198Y314585D1*
Y304537D1*
X709567Y238099D2*
Y250998D1*
X708108Y255309D1*
X706682Y256769D1*
X703831Y258195D1*
X700945D1*
X698094Y256769D1*
X696634Y255309D1*
X695208Y250998D1*
Y238099D1*
X725352D1*
X709567Y248147D2*
X725352Y258194D1*
X695208Y271318D2*
X725352Y291414D1*
X695208D2*
X725352Y271318D1*
X695208Y304537D2*
X725352D1*
Y314585D1*
X723893Y318896D1*
X721041Y321781D1*
X718156Y323207D1*
X713878Y324633D1*
X706682D1*
X702371Y323207D1*
X699519Y321781D1*
X696634Y318896D1*
X695208Y314585D1*
Y304537D1*
X803094Y258908D2*
X800243Y257482D1*
X797358Y254597D1*
X795932Y251745D1*
Y246008D1*
X797357Y243123D1*
X800243Y240271D1*
X803094Y238812D1*
X807405Y237386D1*
X814602D1*
X818879Y238812D1*
X821765Y240271D1*
X824616Y243123D1*
X826076Y246008D1*
Y251745D1*
X824616Y254597D1*
X821765Y257482D1*
X818879Y258908D1*
X814602D1*
Y251745D1*
X795932Y292127D2*
X826076D1*
X795932Y272031D1*
X826076D1*
X795932Y305251D2*
X826076D1*
Y315299D1*
X824616Y319610D1*
X821765Y322495D1*
X818879Y323921D1*
X814602Y325347D1*
X807406D1*
X803094Y323921D1*
X800243Y322495D1*
X797358Y319610D1*
X795932Y315299D1*
Y305251D1*
X924239Y187372D2*
Y200305D1*
X922813Y204582D1*
X921354Y206042D1*
X918502Y207467D1*
X914191D1*
X911339Y206042D1*
X909880Y204582D1*
X908454Y200305D1*
Y187372D1*
X938598D1*
X908454Y229213D2*
X909880Y226328D1*
X912765Y223476D1*
X915617Y222017D1*
X919928Y220591D1*
X927124D1*
X931402Y222017D1*
X934287Y223476D1*
X937139Y226328D1*
X938598Y229213D1*
Y234950D1*
X937139Y237802D1*
X934287Y240687D1*
X931402Y242113D1*
X927124Y243539D1*
X919928D1*
X915617Y242113D1*
X912765Y240687D1*
X909880Y237802D1*
X908454Y234950D1*
Y229213D1*
Y256662D2*
X938598Y263858D1*
X908454Y271021D1*
X938598Y278184D1*
X908454Y285380D1*
Y317140D2*
Y298503D1*
X938598D1*
Y317140D1*
X922813Y298503D2*
Y309977D1*
Y330264D2*
Y343164D1*
X921354Y347475D1*
X919928Y348934D1*
X917076Y350360D1*
X914191D1*
X911339Y348934D1*
X909880Y347475D1*
X908454Y343164D1*
Y330264D1*
X938598D1*
X922813Y340312D2*
X938598Y350360D1*
X1009599Y194314D2*
Y207214D1*
X1008140Y211525D1*
X1006714Y212984D1*
X1003862Y214410D1*
X1000977D1*
X998125Y212984D1*
X996666Y211525D1*
X995240Y207214D1*
Y194314D1*
X1025384D1*
X1009599Y204362D2*
X1025384Y214410D1*
X995240Y227533D2*
X1025384Y247629D1*
X995240D2*
X1025384Y227533D1*
X995240Y260752D2*
X1025384D1*
Y277963D1*
X995240Y309724D2*
Y291087D1*
X1025384D1*
Y309724D1*
X1009599Y291087D2*
Y302561D1*
X995240Y322847D2*
X1025384D1*
Y332895D1*
X1023925Y337206D1*
X1021073Y340091D1*
X1018188Y341517D1*
X1013910Y342943D1*
X1006714D1*
X1002403Y341517D1*
X999551Y340091D1*
X996666Y337206D1*
X995240Y332895D1*
Y322847D1*
X1082749Y204362D2*
X1112893D1*
X1082749Y194314D2*
Y214410D1*
Y227533D2*
X1112893Y247629D1*
X1082749D2*
X1112893Y227533D1*
X1082749Y260752D2*
X1112893D1*
Y277963D1*
X1082749Y309724D2*
Y291087D1*
X1112893D1*
Y309724D1*
X1097108Y291087D2*
Y302561D1*
X1082749Y322847D2*
X1112893D1*
Y332895D1*
X1111434Y337206D1*
X1108582Y340091D1*
X1105697Y341517D1*
X1101419Y342943D1*
X1094223D1*
X1089912Y341517D1*
X1087060Y340091D1*
X1084175Y337206D1*
X1082749Y332895D1*
Y322847D1*
X73565Y1388368D2*
D91*
X61291Y1428560D1*
X49052Y1388368D1*
X53650Y1401765D2*
X68966D1*
X87563Y1428560D2*
X99802Y1388368D1*
X112041Y1428560D1*
X126039Y1409414D2*
X139799D1*
X144397Y1411360D1*
X145954Y1413261D1*
X147475Y1417064D1*
Y1420911D1*
X145954Y1424713D1*
X144397Y1426659D1*
X139799Y1428560D1*
X126039D1*
Y1388368D1*
X136757Y1409414D2*
X147475Y1388368D1*
X185986D2*
X173712Y1428560D1*
X161473Y1388368D1*
X166071Y1401765D2*
X181388D1*
X221420Y1422812D2*
X218378Y1426659D1*
X213780Y1428560D1*
X207660D1*
X203062Y1426659D1*
X199984Y1422812D1*
Y1419009D1*
X201541Y1415162D1*
X203062Y1413261D1*
X206104Y1411360D1*
X215301Y1407513D1*
X218378Y1405612D1*
X219899Y1403666D1*
X221420Y1399864D1*
Y1394116D1*
X218378Y1390313D1*
X213780Y1388368D1*
X207660D1*
X203062Y1390313D1*
X199984Y1394116D1*
X259896Y1388368D2*
Y1428560D1*
X247657Y1388368D1*
X235418Y1428560D1*
Y1388368D1*
X273894Y1420866D2*
X276972Y1422812D1*
X281570Y1428516D1*
Y1388368D1*
X297125Y1418965D2*
Y1420866D1*
X298646Y1424713D1*
X300167Y1426614D1*
X303244Y1428516D1*
X309364D1*
X312406Y1426614D1*
X313927Y1424713D1*
X315483Y1420866D1*
Y1417064D1*
X313927Y1413217D1*
X310885Y1407513D1*
X295569Y1388368D1*
X317004D1*
X334080Y1428516D2*
X350882D1*
X341720Y1413217D1*
X346319D1*
X349361Y1411316D1*
X350882Y1409414D1*
X352438Y1403666D1*
Y1399864D1*
X350882Y1394116D1*
X347840Y1390269D1*
X343241Y1388368D1*
X338643D1*
X334080Y1390269D1*
X332559Y1392215D1*
X331002Y1396017D1*
X381753Y1388368D2*
Y1428516D1*
X366436Y1401765D1*
X389393D1*
X97352Y1357134D2*
D94*
X100237Y1358593D1*
X104548Y1362871D1*
Y1332760D1*
X120556Y1362871D2*
X136308D1*
X127719Y1351397D1*
X132030D1*
X134882Y1349971D1*
X136308Y1348545D1*
X137767Y1344234D1*
Y1341382D1*
X136308Y1337071D1*
X133456Y1334186D1*
X129145Y1332760D1*
X124834D1*
X120556Y1334186D1*
X119130Y1335646D1*
X117671Y1338497D1*
X152316Y1335646D2*
X150891Y1334186D1*
X152316Y1332760D1*
X153776Y1334186D1*
X152316Y1335646D1*
X166899Y1357134D2*
X169784Y1358593D1*
X174095Y1362871D1*
Y1332760D1*
X188678Y1355708D2*
Y1357134D1*
X190103Y1360019D1*
X191529Y1361445D1*
X194414Y1362871D1*
X200151D1*
X203003Y1361445D1*
X204429Y1360019D1*
X205888Y1357134D1*
Y1354282D1*
X204429Y1351397D1*
X201577Y1347119D1*
X187218Y1332760D1*
X207314D1*
X221864Y1335646D2*
X220438Y1334186D1*
X221864Y1332760D1*
X223323Y1334186D1*
X221864Y1335646D1*
X237905Y1355708D2*
Y1357134D1*
X239331Y1360019D1*
X240757Y1361445D1*
X243642Y1362871D1*
X249379D1*
X252231Y1361445D1*
X253657Y1360019D1*
X255116Y1357134D1*
Y1354282D1*
X253657Y1351397D1*
X250805Y1347119D1*
X236446Y1332760D1*
X256542D1*
X278288Y1362871D2*
X273977Y1361445D1*
X271092Y1357134D1*
X269666Y1349971D1*
Y1345660D1*
X271092Y1338497D1*
X273977Y1334186D1*
X278288Y1332760D1*
X281140D1*
X285451Y1334186D1*
X288302Y1338497D1*
X289762Y1345660D1*
Y1349971D1*
X288302Y1357134D1*
X285451Y1361445D1*
X281140Y1362871D1*
X278288D1*
X288302Y1357134D2*
X271092Y1338497D1*
X302885Y1357134D2*
X305770Y1358593D1*
X310081Y1362871D1*
Y1332760D1*
X328941D2*
X343300Y1362871D1*
X323204D1*
X51735Y1491066D2*
D91*
Y1450874D1*
Y1491066D2*
X30300Y1450874D1*
Y1491066D2*
Y1450874D1*
X65734Y1477669D2*
Y1450874D1*
X76062D1*
X79529Y1452157D1*
X80661Y1453439D1*
X81793Y1455959D1*
Y1459806D1*
X80661Y1462370D1*
X79529Y1463653D1*
X76062Y1464891D1*
X79529Y1466217D1*
X80661Y1467455D1*
X81793Y1470020D1*
Y1472584D1*
X80661Y1475105D1*
X79529Y1476387D1*
X76062Y1477669D1*
X65734D1*
Y1464891D2*
X76062D1*
X114149Y1477669D2*
Y1450874D1*
Y1471921D2*
X111107Y1475768D1*
X108030Y1477669D1*
X103467D1*
X100389Y1475768D1*
X97347Y1471921D1*
X95791Y1466173D1*
Y1462370D1*
X97347Y1456622D1*
X100389Y1452820D1*
X103467Y1450874D1*
X108030D1*
X111107Y1452820D1*
X114149Y1456622D1*
X128148Y1477669D2*
Y1450874D1*
X144207Y1477669D2*
Y1450874D1*
X128148Y1464891D2*
X144207D1*
X174264Y1477669D2*
Y1450874D1*
Y1477669D2*
X158205Y1450874D1*
Y1477669D2*
Y1450874D1*
X188262D2*
Y1477669D1*
X211219D2*
Y1450874D1*
X199723Y1477669D2*
Y1450874D1*
X188262D2*
X211219D1*
X241276Y1477669D2*
Y1450874D1*
Y1477669D2*
X225217Y1450874D1*
Y1477669D2*
Y1450874D1*
X255275Y1477669D2*
Y1450874D1*
X271334Y1477669D2*
Y1450874D1*
X255275Y1464891D2*
X271334D1*
X320554Y1491066D2*
Y1450874D1*
X334349D1*
X338947Y1452820D1*
X340469Y1454721D1*
X341990Y1458524D1*
Y1464272D1*
X340469Y1468118D1*
X338947Y1470020D1*
X334349Y1471921D1*
X338947Y1473867D1*
X340469Y1475768D1*
X341990Y1479570D1*
Y1483417D1*
X340469Y1487220D1*
X338947Y1489165D1*
X334349Y1491066D1*
X320554D1*
Y1471921D2*
X334349D1*
X357509Y1454721D2*
X355988Y1452776D1*
X357509Y1450874D1*
X359065Y1452776D1*
X357509Y1454721D1*
X373063Y1491066D2*
Y1450874D1*
X386859D1*
X391457Y1452820D1*
X392978Y1454721D1*
X394499Y1458524D1*
Y1464272D1*
X392978Y1468118D1*
X391457Y1470020D1*
X386859Y1471921D1*
X391457Y1473867D1*
X392978Y1475768D1*
X394499Y1479570D1*
Y1483417D1*
X392978Y1487220D1*
X391457Y1489165D1*
X386859Y1491066D1*
X373063D1*
Y1471921D2*
X386859D1*
X410018Y1454721D2*
X408497Y1452776D1*
X410018Y1450874D1*
X411575Y1452776D1*
X410018Y1454721D1*
M02*
