G04 DipTrace 3.1.0.1*
G04 Верхний.gbr*
%MOIN*%
G04 #@! TF.FileFunction,Copper,L1,Top*
G04 #@! TF.Part,Single*
G04 #@! TA.AperFunction,CopperBalancing*
%ADD13C,0.011811*%
G04 #@! TA.AperFunction,Conductor*
%ADD14C,0.019685*%
%ADD18R,0.100394X0.062992*%
%ADD19R,0.051181X0.059055*%
G04 #@! TA.AperFunction,ComponentPad*
%ADD22R,0.098425X0.098425*%
%ADD23C,0.098425*%
%ADD24R,0.07874X0.07874*%
%ADD25C,0.07874*%
%ADD27R,0.025591X0.041339*%
%ADD28R,0.059055X0.051181*%
%ADD29R,0.023622X0.07874*%
%ADD31R,0.062992X0.100394*%
G04 #@! TA.AperFunction,ComponentPad*
%ADD32R,0.07874X0.066929*%
%ADD33O,0.07874X0.066929*%
%ADD35R,0.062992X0.124016*%
%ADD37R,0.019685X0.090551*%
%ADD38R,0.07874X0.098425*%
%ADD40R,0.037402X0.084646*%
%ADD41R,0.127953X0.084646*%
%ADD42R,0.070866X0.015748*%
G04 #@! TA.AperFunction,ViaPad*
%ADD43C,0.047244*%
%FSLAX26Y26*%
G04*
G70*
G90*
G75*
G01*
G04 Top*
%LPD*%
X518795Y3593857D2*
D13*
X687560D1*
Y3531415D1*
X806325Y3593857D2*
X687560D1*
Y3531415D2*
Y3481450D1*
X700064Y3468946D1*
Y3425396D1*
X699860Y3425192D1*
X237413D2*
Y3368833D1*
X225014Y3356434D1*
X162508D1*
X806325Y3675218D2*
Y3593857D1*
X162508Y3356434D2*
Y3306283D1*
X181119Y3287672D1*
X368774Y2206369D2*
Y2118869D1*
X443873Y2300020D2*
Y2237618D1*
X412623Y2206369D1*
X368774D1*
X367348Y1900114D2*
Y2117442D1*
X368774Y2118869D1*
X493873Y2300020D2*
Y2237619D1*
X525123Y2206369D1*
Y2118967D1*
X525222Y2118869D1*
Y2043833D1*
X468923Y1987534D1*
Y1850020D1*
X450272Y1831369D1*
X181375D1*
X806333Y637566D2*
X1087613D1*
X1100001Y625177D1*
Y487402D1*
X520770Y905364D2*
X588541D1*
X600062Y893843D1*
Y650067D1*
X587560Y637566D1*
X518803D1*
X1012501Y487402D2*
Y525157D1*
X1000104Y537555D1*
X806333D1*
X520770Y930954D2*
X612955D1*
X625064Y918845D1*
Y550056D1*
X612563Y537555D1*
X518803D1*
X804235Y1110088D2*
X847738D1*
X856249Y1118600D1*
Y1162499D1*
X856248D1*
X804235Y1058907D2*
X871406D1*
X893749Y1081251D1*
X804235Y1033316D2*
X1173163D1*
X1187623Y1018856D1*
Y850088D1*
X1200213Y837499D1*
X1262499D1*
X520762Y1110088D2*
X651131D1*
X662499Y1121455D1*
Y1375294D1*
X520770Y1084497D2*
X681525D1*
X693749Y1096722D1*
Y1375049D1*
X693995Y1375294D1*
X804235Y1007726D2*
X1148748D1*
X1162621Y993853D1*
Y837587D1*
X1187623Y812584D1*
Y556307D1*
X1206432Y537499D1*
X1262499D1*
X804235Y982135D2*
X1124333D1*
X1137618Y968850D1*
Y731325D1*
X981352Y768751D2*
X947101Y803001D1*
X804235D1*
X637560Y3531415D2*
Y3481450D1*
X625056Y3468946D1*
Y3425192D1*
X562550D2*
X625056D1*
X737560Y3531415D2*
X756358D1*
X768719Y3519054D1*
X806325D1*
Y3437693D1*
X793824Y3425192D1*
X762571D1*
X393885Y3428400D2*
X490584D1*
X550049Y3368936D1*
X750070D1*
X762571Y3381437D1*
Y3425192D1*
X443873Y2512618D2*
X493873D1*
X443873D2*
X468923D1*
Y2425080D1*
X487675Y2406328D1*
X662693D1*
X520770Y1007726D2*
X632686D1*
X662568Y1037608D1*
X804235Y905364D2*
X1082343D1*
X1093864Y893843D1*
Y700072D1*
X1106365Y687571D1*
X1150119D1*
X1162621Y675070D1*
Y543806D1*
X1187623Y518803D1*
Y450046D1*
X1200171Y437499D1*
X1262499D1*
X804235Y828592D2*
X959093D1*
X981352Y806333D1*
X1025106D1*
X1262623Y3737688D2*
X781360D1*
X775072Y3743975D1*
X687598D1*
X687560Y3744013D1*
X737560D2*
X687560D1*
X518795Y3756374D2*
X556402D1*
X568801Y3743975D1*
X587522D1*
X587560Y3744013D1*
X1262623Y3837688D2*
X600007D1*
X587552Y3825234D1*
Y3744021D1*
X162508Y3718972D2*
Y3787730D1*
X181119D1*
X237413Y3650215D2*
X300022D1*
X312524Y3637714D1*
X450038D1*
Y3593959D1*
Y3637714D2*
X625056D1*
X637558Y3650215D1*
Y3744010D1*
X637560Y3744013D1*
X800025Y2118869D2*
Y2206270D1*
X831373Y2237618D1*
Y2300020D1*
X800025Y2118869D2*
Y2043972D1*
X856463Y1987534D1*
Y1850020D1*
X875215Y1831268D1*
X1143770D1*
X1143871Y1831369D1*
X881373Y2300020D2*
Y2237619D1*
X912623Y2206369D1*
X956471D1*
Y2118869D2*
Y2206369D1*
X957899Y1900114D2*
Y2117441D1*
X956471Y2118869D1*
X981476Y2406328D2*
X750202D1*
X737701Y2418829D1*
Y2443832D1*
X725199Y2456333D1*
X556432D1*
X543873Y2468892D1*
Y2512618D1*
X781373D2*
Y2575096D1*
X406416D1*
X393873Y2562552D1*
Y2512618D1*
X981476Y2575096D2*
X781373D1*
X293971Y2206369D2*
Y2262630D1*
X331408Y2300067D1*
Y2443730D1*
Y2618850D1*
X343909Y2631352D1*
X393915D1*
X881373Y2512618D2*
X856463D1*
X831373D1*
X725222Y2118869D2*
Y2193783D1*
X712698Y2206307D1*
X662693D1*
X543873Y2300020D2*
Y2243869D1*
X581434Y2206307D1*
X662693D1*
X393915Y2631352D2*
X1018980D1*
X1031482Y2618850D1*
Y2450083D1*
Y2312568D1*
X1018980Y2300067D1*
X931420D1*
X931373Y2300020D1*
X856463Y2512618D2*
Y2462584D1*
X868965Y2450083D1*
X1031482D1*
X162640Y2731362D2*
X206395D1*
X218896Y2718861D1*
Y2700249D1*
X256400Y2443730D2*
X331408D1*
X181392Y2368927D2*
X256400D1*
X804235Y1084497D2*
X759269D1*
X750000Y1093766D1*
Y1152972D1*
X759648Y1162621D1*
X800083D1*
X804235Y879773D2*
X963976D1*
X981160Y862589D1*
X1025106D1*
X712568Y175017D2*
X675070Y212516D1*
Y675070D1*
X687500Y687500D1*
X1056466D1*
X1068749Y699783D1*
Y850025D1*
X1056185Y862589D1*
X1025106D1*
X162610Y3425192D2*
Y3500199D1*
X804235Y777411D2*
X658648D1*
X650068Y768831D1*
Y212517D1*
X612568Y175017D1*
X804235Y777411D2*
X904013D1*
X918845Y762579D1*
Y743827D1*
X931346Y731325D1*
X1025106D1*
X1031274Y2118869D2*
X1131421D1*
X1143993Y2106297D1*
Y2031491D1*
X1143871Y2031369D1*
X181375D2*
Y2106280D1*
X193965Y2118869D1*
X293971D1*
X162610Y3650215D2*
Y3575207D1*
X393885Y3590917D2*
Y3531350D1*
X406283Y3518951D1*
X431286D1*
X518693D1*
X518795Y3519054D1*
X431286Y3681469D2*
X518693D1*
X518795Y3681571D1*
X1100001Y50093D2*
X1012501D1*
X312531Y78560D2*
D14*
X409845D1*
X425043Y93759D1*
Y162516D1*
X437545Y175017D1*
X512568D1*
X62499Y1037499D2*
X131371D1*
X143764Y1025106D1*
Y737576D1*
Y206270D1*
X156265Y193769D1*
X187518D1*
X200020Y181268D1*
Y93759D1*
X215218Y78560D1*
X312531D1*
X804235Y854182D2*
D13*
X677226D1*
X662568Y868840D1*
Y912594D1*
X181268Y737576D2*
X143764D1*
X1012501Y50093D2*
X925109D1*
X925096Y50106D1*
X524951D1*
X512552Y62505D1*
Y175001D1*
X512568Y175017D1*
X934448Y1601672D2*
D14*
Y1315698D1*
X906248Y1287499D1*
X725491Y1375294D2*
Y1324605D1*
X762597Y1287499D1*
Y1243748D1*
X775075Y1231270D1*
X893769D1*
X906248Y1243749D1*
Y1287499D1*
X520770Y982135D2*
D13*
X713357D1*
X724685Y993463D1*
Y1248957D1*
X762597Y1286869D1*
Y1287499D1*
X243774Y1137618D2*
D14*
Y1237629D1*
X837400Y1287499D2*
Y1378936D1*
X837696Y1379231D1*
X804235Y930954D2*
D13*
X737969D1*
X712378Y956545D1*
X520770D1*
X243774Y268777D2*
X309835D1*
X312531Y271474D1*
X381289Y268777D2*
X315228D1*
X312531Y271474D1*
X1024999Y1373325D2*
D14*
Y1287499D1*
X1025097D1*
X968715D1*
X956349Y1275133D1*
Y1237629D1*
X1024999Y1373325D2*
Y1601672D1*
X243774Y937597D2*
Y1037608D1*
X1100001Y412598D2*
D13*
Y124896D1*
X1012501D2*
Y412598D1*
X925096Y412644D2*
Y124909D1*
D43*
X162508Y3718972D3*
X450038Y3593959D3*
X162508Y3356434D3*
X762571Y3425192D3*
X562550D3*
X806325Y3675218D3*
X437537Y3837735D3*
X181392Y2206307D3*
X393915Y2631352D3*
X662693Y2206307D3*
X981476Y2406328D3*
Y2575096D3*
X162640Y2731362D3*
X662693Y2031289D3*
X1143993Y2206307D3*
X1137618Y731325D3*
X1025106Y862589D3*
Y806333D3*
Y731325D3*
X243774Y1237629D3*
X893749Y1081251D3*
X800083Y1162621D3*
X856248Y1162499D3*
X662568Y1037608D3*
X906248Y1287499D3*
X956349Y1237629D3*
X806333Y537555D3*
Y637566D3*
X981352Y768751D3*
X243774Y268777D3*
Y1037608D3*
X518803Y637566D3*
Y537555D3*
X381289Y268777D3*
X662568Y912594D3*
X181268Y737576D3*
X406291Y1037608D3*
X62505Y1237629D3*
X1262631D3*
X312531Y737576D3*
X121238Y3882618D2*
D13*
X1203875D1*
X121238Y3870938D2*
X410945D1*
X464127D2*
X1203875D1*
X121238Y3859259D2*
X400518D1*
X474554D2*
X588088D1*
X121238Y3847579D2*
X395720D1*
X479352D2*
X574638D1*
X388486Y3835899D2*
X394584D1*
X480483D2*
X564765D1*
X388486Y3824219D2*
X396781D1*
X478291D2*
X562274D1*
X388486Y3812539D2*
X402987D1*
X472085D2*
X562274D1*
X612825D2*
X1203875D1*
X388486Y3800860D2*
X416643D1*
X458429D2*
X556369D1*
X768745D2*
X1203875D1*
X388486Y3789180D2*
X469908D1*
X768745D2*
X1203875D1*
X388486Y3777500D2*
X469908D1*
X768745D2*
X1219862D1*
X388486Y3765820D2*
X469908D1*
X786416D2*
X1211234D1*
X388486Y3754140D2*
X469908D1*
X388486Y3742461D2*
X469908D1*
X203801Y3730781D2*
X469908D1*
X205507Y3719101D2*
X324323D1*
X388647D2*
X399112D1*
X463458D2*
X469907D1*
X7211Y3707421D2*
X12339D1*
X112634D2*
X121136D1*
X203869D2*
X324323D1*
X388647D2*
X399112D1*
X463458D2*
X469907D1*
X768745D2*
X778471D1*
X834167D2*
X1212480D1*
X1312768D2*
X1318150D1*
X7211Y3695741D2*
X21896D1*
X103083D2*
X117654D1*
X282371D2*
X324323D1*
X388647D2*
X399112D1*
X843925D2*
X1222030D1*
X1303217D2*
X1318156D1*
X7211Y3684062D2*
X27226D1*
X97778D2*
X117654D1*
X282371D2*
X324323D1*
X388647D2*
X399112D1*
X567703D2*
X612286D1*
X662839D2*
X764283D1*
X848378D2*
X1227336D1*
X1297911D2*
X1318156D1*
X7211Y3672382D2*
X15381D1*
X109612D2*
X117654D1*
X310652D2*
X324323D1*
X388647D2*
X399112D1*
X567703D2*
X612286D1*
X662839D2*
X763430D1*
X849231D2*
X1215525D1*
X1309722D2*
X1318156D1*
X662839Y3660702D2*
X765945D1*
X846717D2*
X1208673D1*
X662815Y3649022D2*
X772566D1*
X840096D2*
X1205005D1*
X659101Y3637343D2*
X757433D1*
X855228D2*
X1203875D1*
X282371Y3625663D2*
X289328D1*
X648259D2*
X757433D1*
X855228D2*
X1205144D1*
X282371Y3613983D2*
X307184D1*
X855228D2*
X1208996D1*
X7211Y3602303D2*
X15934D1*
X109081D2*
X117654D1*
X282371D2*
X361717D1*
X855228D2*
X1216055D1*
X1309192D2*
X1318156D1*
X7211Y3590623D2*
X28171D1*
X96808D2*
X117654D1*
X282371D2*
X361717D1*
X855228D2*
X1228304D1*
X1296942D2*
X1318156D1*
X7211Y3578944D2*
X21181D1*
X103822D2*
X117654D1*
X282371D2*
X361717D1*
X855228D2*
X1221315D1*
X1303932D2*
X1318156D1*
X7211Y3567264D2*
X11924D1*
X113049D2*
X117654D1*
X282371D2*
X361717D1*
X855228D2*
X1212064D1*
X1313182D2*
X1318154D1*
X282371Y3555584D2*
X324323D1*
X855228D2*
X1206736D1*
X282371Y3543904D2*
X324323D1*
X855228D2*
X1204222D1*
X282371Y3532224D2*
X324323D1*
X855228D2*
X1204152D1*
X282371Y3520545D2*
X324323D1*
X855228D2*
X1206505D1*
X7211Y3508865D2*
X11509D1*
X113510D2*
X117671D1*
X282371D2*
X324323D1*
X855228D2*
X1211626D1*
X1313621D2*
X1318175D1*
X7211Y3497185D2*
X20420D1*
X104583D2*
X117654D1*
X282371D2*
X324323D1*
X388647D2*
X394774D1*
X855228D2*
X1220554D1*
X1304693D2*
X1318156D1*
X7211Y3485505D2*
X29278D1*
X95724D2*
X117654D1*
X282371D2*
X324323D1*
X388647D2*
X399112D1*
X463458D2*
X469907D1*
X855228D2*
X1229412D1*
X1295835D2*
X1318156D1*
X7211Y3473825D2*
X16533D1*
X108482D2*
X117654D1*
X282371D2*
X600290D1*
X831606D2*
X1216633D1*
X1308615D2*
X1318156D1*
X282371Y3462146D2*
X361717D1*
X426041D2*
X541812D1*
X831606D2*
X1209343D1*
X282371Y3450466D2*
X361717D1*
X501451D2*
X528063D1*
X831606D2*
X1205328D1*
X282371Y3438786D2*
X361717D1*
X515454D2*
X521822D1*
X831606D2*
X1203899D1*
X282371Y3427106D2*
X361717D1*
X829161D2*
X1204867D1*
X282371Y3415427D2*
X361717D1*
X819311D2*
X1208374D1*
X7211Y3403747D2*
X14828D1*
X110165D2*
X117654D1*
X282371D2*
X361717D1*
X426041D2*
X479988D1*
X806001D2*
X1214948D1*
X1310299D2*
X1318156D1*
X7211Y3392067D2*
X26210D1*
X98769D2*
X117654D1*
X282371D2*
X361717D1*
X426041D2*
X491661D1*
X789276D2*
X1226344D1*
X1298903D2*
X1318156D1*
X7211Y3380387D2*
X22727D1*
X102276D2*
X117654D1*
X282371D2*
X503333D1*
X787823D2*
X1222837D1*
X1302409D2*
X1318156D1*
X7211Y3368707D2*
X12845D1*
X112172D2*
X121367D1*
X262694D2*
X515030D1*
X784201D2*
X1212965D1*
X1312283D2*
X1318156D1*
X259602Y3357028D2*
X526702D1*
X773428D2*
X1207220D1*
X249176Y3345348D2*
X543958D1*
X756173D2*
X1204406D1*
X388486Y3333668D2*
X1204013D1*
X388486Y3321988D2*
X1206067D1*
X388486Y3310308D2*
X1210819D1*
X1314428D2*
X1318148D1*
X7211Y3298629D2*
X19035D1*
X388486D2*
X1219169D1*
X1306077D2*
X1318156D1*
X7211Y3286949D2*
X31539D1*
X388486D2*
X1231673D1*
X1293575D2*
X1318156D1*
X7211Y3275269D2*
X17720D1*
X388486D2*
X1217854D1*
X1307392D2*
X1318156D1*
X388486Y3263589D2*
X1210034D1*
X388486Y3251909D2*
X1205675D1*
X388486Y3240230D2*
X1203945D1*
X120500Y3228550D2*
X1204613D1*
X117340Y3216870D2*
X1207774D1*
X7211Y3205190D2*
X13814D1*
X111180D2*
X1213933D1*
X1311314D2*
X1318156D1*
X7211Y3193510D2*
X24411D1*
X100568D2*
X1224545D1*
X1300702D2*
X1318156D1*
X7211Y3181831D2*
X24387D1*
X100615D2*
X1224499D1*
X1300749D2*
X1318156D1*
X7211Y3170151D2*
X13768D1*
X111203D2*
X1213909D1*
X1311337D2*
X1318156D1*
X117362Y3158471D2*
X1207774D1*
X120524Y3146791D2*
X1204613D1*
X121169Y3135112D2*
X1203945D1*
X119438Y3123432D2*
X1205675D1*
X115056Y3111752D2*
X1210058D1*
X7211Y3100072D2*
X17744D1*
X107236D2*
X1217878D1*
X1307369D2*
X1318156D1*
X7211Y3088392D2*
X31608D1*
X93395D2*
X1231719D1*
X1293529D2*
X1318156D1*
X7211Y3076713D2*
X19013D1*
X105990D2*
X1219123D1*
X1306123D2*
X1318156D1*
X114318Y3065033D2*
X298694D1*
X435869D2*
X529724D1*
X598546D2*
X726567D1*
X795412D2*
X923409D1*
X992255D2*
X1210795D1*
X1314451D2*
X1318156D1*
X119070Y3053353D2*
X298694D1*
X435869D2*
X514592D1*
X613680D2*
X711457D1*
X810522D2*
X908299D1*
X1007365D2*
X1206067D1*
X121100Y3041673D2*
X298694D1*
X435869D2*
X505525D1*
X622745D2*
X702369D1*
X819612D2*
X899211D1*
X1016454D2*
X1204013D1*
X120731Y3029993D2*
X298694D1*
X435869D2*
X499828D1*
X628444D2*
X696671D1*
X825308D2*
X893513D1*
X1022152D2*
X1204406D1*
X117870Y3018314D2*
X298694D1*
X435869D2*
X496621D1*
X631650D2*
X693463D1*
X828516D2*
X890307D1*
X1025358D2*
X1207243D1*
X7211Y3006634D2*
X12845D1*
X112150D2*
X298694D1*
X435869D2*
X495560D1*
X632711D2*
X692403D1*
X829576D2*
X889245D1*
X1026420D2*
X1212987D1*
X1312260D2*
X1318156D1*
X7211Y2994954D2*
X22749D1*
X102230D2*
X298694D1*
X435869D2*
X496529D1*
X631741D2*
X693371D1*
X828585D2*
X890238D1*
X1025450D2*
X1222883D1*
X1302364D2*
X1318156D1*
X7211Y2983274D2*
X26164D1*
X98816D2*
X298694D1*
X435869D2*
X499643D1*
X628627D2*
X696486D1*
X825470D2*
X893352D1*
X1022336D2*
X1226298D1*
X1298949D2*
X1318156D1*
X7211Y2971594D2*
X14782D1*
X110189D2*
X298694D1*
X435869D2*
X505226D1*
X623045D2*
X702092D1*
X819888D2*
X898934D1*
X1016731D2*
X1214925D1*
X1310322D2*
X1318156D1*
X116762Y2959915D2*
X298694D1*
X435869D2*
X514154D1*
X614118D2*
X710996D1*
X810983D2*
X907839D1*
X1007827D2*
X1208350D1*
X120269Y2948235D2*
X298694D1*
X435869D2*
X528894D1*
X599377D2*
X725736D1*
X796219D2*
X922602D1*
X993085D2*
X1204867D1*
X121215Y2936555D2*
X1203899D1*
X119785Y2924875D2*
X1205328D1*
X115770Y2913196D2*
X1209343D1*
X7211Y2901516D2*
X16533D1*
X108458D2*
X1216678D1*
X1308570D2*
X1318156D1*
X7211Y2889836D2*
X29324D1*
X95678D2*
X1229458D1*
X1295789D2*
X1318156D1*
X120046Y3837415D2*
X249505D1*
Y3738045D1*
X199761Y3737954D1*
X202273Y3731892D1*
X203804Y3725513D1*
X204319Y3718972D1*
X203804Y3712432D1*
X202273Y3706052D1*
X199761Y3699991D1*
X198602Y3697921D1*
X281193Y3697932D1*
Y3674332D1*
X301913Y3674235D1*
X305647Y3673644D1*
X309243Y3672476D1*
X312612Y3670760D1*
X315671Y3668537D1*
X322492Y3661820D1*
X325510Y3661808D1*
X325499Y3720327D1*
X387467D1*
Y3661811D1*
X400299Y3661808D1*
X400302Y3720327D1*
X462270D1*
Y3705585D1*
X471079Y3705563D1*
Y3800154D1*
X557562D1*
X557560Y3801572D1*
X563444D1*
X563533Y3827125D1*
X564123Y3830858D1*
X565293Y3834454D1*
X567008Y3837823D1*
X569231Y3840882D1*
X582969Y3854726D1*
X585844Y3857181D1*
X589068Y3859156D1*
X592560Y3860602D1*
X596238Y3861486D1*
X600014Y3861782D1*
X1205068D1*
X1205064Y3894302D1*
X120043Y3894298D1*
X120056Y3837415D1*
X251710D2*
X387301D1*
Y3738045D1*
X250529D1*
Y3837415D1*
X251710D1*
X120046Y3337357D2*
X125255Y3337453D1*
X122743Y3343514D1*
X121211Y3349894D1*
X120697Y3356434D1*
X121211Y3362975D1*
X122743Y3369354D1*
X125255Y3375416D1*
X126413Y3377486D1*
X118831Y3377475D1*
Y3425895D1*
X117239Y3419902D1*
X115675Y3415661D1*
X113783Y3411556D1*
X111575Y3407613D1*
X109063Y3403856D1*
X106265Y3400306D1*
X103198Y3396987D1*
X99879Y3393920D1*
X96329Y3391122D1*
X90954Y3387705D1*
X96329Y3384253D1*
X99879Y3381455D1*
X103198Y3378388D1*
X106265Y3375070D1*
X109063Y3371520D1*
X111575Y3367762D1*
X113783Y3363819D1*
X115675Y3359714D1*
X117239Y3355474D1*
X118466Y3351125D1*
X119348Y3346692D1*
X119879Y3342203D1*
X120043Y3337353D1*
X239726Y3337357D2*
X249505D1*
Y3237987D1*
X120068D1*
X119879Y3233172D1*
X119348Y3228684D1*
X118466Y3224251D1*
X117239Y3219902D1*
X115675Y3215661D1*
X113783Y3211556D1*
X111575Y3207613D1*
X109063Y3203856D1*
X106265Y3200306D1*
X103198Y3196987D1*
X99879Y3193920D1*
X96329Y3191122D1*
X90954Y3187705D1*
X96329Y3184253D1*
X99879Y3181455D1*
X103198Y3178388D1*
X106265Y3175070D1*
X109063Y3171520D1*
X111575Y3167762D1*
X113783Y3163819D1*
X115675Y3159714D1*
X117239Y3155474D1*
X118466Y3151125D1*
X119348Y3146692D1*
X119879Y3142203D1*
X120056Y3137688D1*
X119879Y3133172D1*
X119348Y3128684D1*
X118466Y3124251D1*
X117239Y3119902D1*
X115675Y3115661D1*
X113783Y3111556D1*
X111575Y3107613D1*
X109063Y3103856D1*
X106265Y3100306D1*
X103198Y3096987D1*
X99879Y3093920D1*
X96329Y3091122D1*
X90954Y3087705D1*
X96329Y3084253D1*
X99879Y3081455D1*
X103198Y3078388D1*
X106265Y3075070D1*
X109063Y3071520D1*
X111575Y3067762D1*
X113783Y3063819D1*
X115675Y3059714D1*
X117239Y3055474D1*
X118466Y3051125D1*
X119348Y3046692D1*
X119879Y3042203D1*
X120056Y3037688D1*
X119879Y3033172D1*
X119348Y3028684D1*
X118466Y3024251D1*
X117239Y3019902D1*
X115675Y3015661D1*
X113783Y3011556D1*
X111575Y3007613D1*
X109063Y3003856D1*
X106265Y3000306D1*
X103198Y2996987D1*
X99879Y2993920D1*
X96329Y2991122D1*
X90954Y2987705D1*
X96329Y2984253D1*
X99879Y2981455D1*
X103198Y2978388D1*
X106265Y2975070D1*
X109063Y2971520D1*
X111575Y2967762D1*
X113783Y2963819D1*
X115675Y2959714D1*
X117239Y2955474D1*
X118466Y2951125D1*
X119348Y2946692D1*
X119879Y2942203D1*
X120056Y2937688D1*
X119879Y2933172D1*
X119348Y2928684D1*
X118466Y2924251D1*
X117239Y2919902D1*
X115675Y2915661D1*
X113783Y2911556D1*
X111575Y2907613D1*
X109063Y2903856D1*
X106265Y2900306D1*
X103198Y2896987D1*
X99879Y2893920D1*
X96329Y2891122D1*
X92572Y2888610D1*
X88629Y2886402D1*
X84524Y2884510D1*
X80283Y2882946D1*
X75934Y2881719D1*
X72315Y2880999D1*
X1252657Y2881001D1*
X1246938Y2882307D1*
X1241349Y2884205D1*
X1235983Y2886664D1*
X1230898Y2889661D1*
X1226146Y2893163D1*
X1221777Y2897134D1*
X1217839Y2901530D1*
X1214371Y2906307D1*
X1211411Y2911415D1*
X1208990Y2916798D1*
X1207131Y2922400D1*
X1205857Y2928164D1*
X1205181Y2934029D1*
X1205108Y2939930D1*
X1205640Y2945810D1*
X1206772Y2951604D1*
X1208491Y2957251D1*
X1210780Y2962692D1*
X1213613Y2967870D1*
X1216962Y2972731D1*
X1220790Y2977223D1*
X1225060Y2981301D1*
X1229724Y2984917D1*
X1234113Y2987686D1*
X1228791Y2991122D1*
X1225241Y2993920D1*
X1221923Y2996987D1*
X1218856Y3000306D1*
X1216058Y3003856D1*
X1213546Y3007613D1*
X1211337Y3011556D1*
X1209446Y3015661D1*
X1207882Y3019902D1*
X1206655Y3024251D1*
X1205773Y3028684D1*
X1205241Y3033172D1*
X1205064Y3037688D1*
X1205241Y3042203D1*
X1205773Y3046692D1*
X1206655Y3051125D1*
X1207882Y3055474D1*
X1209446Y3059714D1*
X1211337Y3063819D1*
X1213546Y3067762D1*
X1216058Y3071520D1*
X1218856Y3075070D1*
X1221923Y3078388D1*
X1225241Y3081455D1*
X1228791Y3084253D1*
X1234167Y3087671D1*
X1228791Y3091122D1*
X1225241Y3093920D1*
X1221923Y3096987D1*
X1218856Y3100306D1*
X1216058Y3103856D1*
X1213546Y3107613D1*
X1211337Y3111556D1*
X1209446Y3115661D1*
X1207882Y3119902D1*
X1206655Y3124251D1*
X1205773Y3128684D1*
X1205241Y3133172D1*
X1205064Y3137688D1*
X1205241Y3142203D1*
X1205773Y3146692D1*
X1206655Y3151125D1*
X1207882Y3155474D1*
X1209446Y3159714D1*
X1211337Y3163819D1*
X1213546Y3167762D1*
X1216058Y3171520D1*
X1218856Y3175070D1*
X1221923Y3178388D1*
X1225241Y3181455D1*
X1228791Y3184253D1*
X1234167Y3187671D1*
X1228791Y3191122D1*
X1225241Y3193920D1*
X1221923Y3196987D1*
X1218856Y3200306D1*
X1216058Y3203856D1*
X1213546Y3207613D1*
X1211337Y3211556D1*
X1209446Y3215661D1*
X1207882Y3219902D1*
X1206655Y3224251D1*
X1205773Y3228684D1*
X1205241Y3233172D1*
X1205064Y3237688D1*
X1205241Y3242203D1*
X1205773Y3246692D1*
X1206655Y3251125D1*
X1207882Y3255474D1*
X1209446Y3259714D1*
X1211337Y3263819D1*
X1213546Y3267762D1*
X1216058Y3271520D1*
X1218856Y3275070D1*
X1221923Y3278388D1*
X1225241Y3281455D1*
X1228791Y3284253D1*
X1234167Y3287671D1*
X1228791Y3291122D1*
X1225241Y3293920D1*
X1221923Y3296987D1*
X1218856Y3300306D1*
X1216058Y3303856D1*
X1213546Y3307613D1*
X1211337Y3311556D1*
X1209446Y3315661D1*
X1207882Y3319902D1*
X1206655Y3324251D1*
X1205773Y3328684D1*
X1205241Y3333172D1*
X1205064Y3337688D1*
X1205241Y3342203D1*
X1205773Y3346692D1*
X1206655Y3351125D1*
X1207882Y3355474D1*
X1209446Y3359714D1*
X1211337Y3363819D1*
X1213546Y3367762D1*
X1216058Y3371520D1*
X1218856Y3375070D1*
X1221923Y3378388D1*
X1225241Y3381455D1*
X1228791Y3384253D1*
X1234167Y3387671D1*
X1228791Y3391122D1*
X1225241Y3393920D1*
X1221923Y3396987D1*
X1218856Y3400306D1*
X1216058Y3403856D1*
X1213546Y3407613D1*
X1211337Y3411556D1*
X1209446Y3415661D1*
X1207882Y3419902D1*
X1206655Y3424251D1*
X1205773Y3428684D1*
X1205241Y3433172D1*
X1205064Y3437688D1*
X1205241Y3442203D1*
X1205773Y3446692D1*
X1206655Y3451125D1*
X1207882Y3455474D1*
X1209446Y3459714D1*
X1211337Y3463819D1*
X1213546Y3467762D1*
X1216058Y3471520D1*
X1218856Y3475070D1*
X1221923Y3478388D1*
X1225241Y3481455D1*
X1228791Y3484253D1*
X1234167Y3487671D1*
X1228791Y3491122D1*
X1225241Y3493920D1*
X1221923Y3496987D1*
X1218856Y3500306D1*
X1216058Y3503856D1*
X1213546Y3507613D1*
X1211337Y3511556D1*
X1209446Y3515661D1*
X1207882Y3519902D1*
X1206655Y3524251D1*
X1205773Y3528684D1*
X1205241Y3533172D1*
X1205064Y3537688D1*
X1205241Y3542203D1*
X1205773Y3546692D1*
X1206655Y3551125D1*
X1207882Y3555474D1*
X1209446Y3559714D1*
X1211337Y3563819D1*
X1213546Y3567762D1*
X1216058Y3571520D1*
X1218856Y3575070D1*
X1221923Y3578388D1*
X1225241Y3581455D1*
X1228791Y3584253D1*
X1234167Y3587671D1*
X1228791Y3591122D1*
X1225241Y3593920D1*
X1221923Y3596987D1*
X1218856Y3600306D1*
X1216058Y3603856D1*
X1213546Y3607613D1*
X1211337Y3611556D1*
X1209446Y3615661D1*
X1207882Y3619902D1*
X1206655Y3624251D1*
X1205773Y3628684D1*
X1205241Y3633172D1*
X1205064Y3637688D1*
X1205241Y3642203D1*
X1205773Y3646692D1*
X1206655Y3651125D1*
X1207882Y3655474D1*
X1209446Y3659714D1*
X1211337Y3663819D1*
X1213546Y3667762D1*
X1216058Y3671520D1*
X1218856Y3675070D1*
X1221923Y3678388D1*
X1225241Y3681455D1*
X1228791Y3684253D1*
X1234167Y3687671D1*
X1228791Y3691122D1*
X1225241Y3693920D1*
X1221923Y3696987D1*
X1218856Y3700306D1*
X1216058Y3703856D1*
X1213546Y3707613D1*
X1210399Y3713593D1*
X822916D1*
X828172Y3710867D1*
X833479Y3707012D1*
X838119Y3702371D1*
X841975Y3697064D1*
X844954Y3691218D1*
X846982Y3684979D1*
X848008Y3678499D1*
Y3671937D1*
X846982Y3665457D1*
X844954Y3659218D1*
X841975Y3653371D1*
X838119Y3648064D1*
X833479Y3643424D1*
X830421Y3641071D1*
X830420Y3637639D1*
X854042Y3637636D1*
Y3475274D1*
X830398D1*
X830346Y3435802D1*
X829755Y3432068D1*
X828587Y3428472D1*
X826870Y3425104D1*
X824647Y3422045D1*
X810862Y3408154D1*
X807987Y3405698D1*
X804762Y3403723D1*
X801270Y3402276D1*
X797587Y3401392D1*
X796396Y3400615D1*
X792135Y3395627D1*
X787147Y3391366D1*
X786667Y3391045D1*
X786591Y3379546D1*
X786000Y3375812D1*
X784831Y3372217D1*
X783114Y3368848D1*
X780892Y3365789D1*
X767106Y3351899D1*
X764232Y3349442D1*
X761008Y3347467D1*
X757516Y3346021D1*
X753839Y3345138D1*
X750062Y3344841D1*
X548157Y3344915D1*
X544424Y3345507D1*
X540828Y3346675D1*
X537459Y3348391D1*
X534400Y3350614D1*
X512133Y3372777D1*
X480601Y3404308D1*
X424862Y3404306D1*
X424869Y3389542D1*
X362900D1*
Y3467259D1*
X424869D1*
Y3452517D1*
X492475Y3452421D1*
X496209Y3451829D1*
X499804Y3450661D1*
X503173Y3448945D1*
X506232Y3446722D1*
X521274Y3431785D1*
X522785Y3438112D1*
X525297Y3444173D1*
X528724Y3449768D1*
X532986Y3454756D1*
X537974Y3459017D1*
X543568Y3462445D1*
X549630Y3464957D1*
X556009Y3466488D1*
X562550Y3467003D1*
X569091Y3466488D1*
X575470Y3464957D1*
X581287Y3462558D1*
X581277Y3472908D1*
X601277D1*
X601025Y3473856D1*
X557560D1*
Y3475272D1*
X471079Y3475274D1*
Y3494860D1*
X462290Y3494857D1*
X462270Y3480093D1*
X400302D1*
Y3495618D1*
X397063Y3496692D1*
X393694Y3498407D1*
X390635Y3500630D1*
X389241Y3501920D1*
X387467Y3502298D1*
Y3480093D1*
X325499D1*
Y3557810D1*
X362902D1*
X362900Y3613629D1*
X310633Y3613693D1*
X306899Y3614285D1*
X303303Y3615453D1*
X299934Y3617169D1*
X296875Y3619392D1*
X290054Y3626109D1*
X281176Y3626121D1*
X281193Y3377475D1*
X261516D1*
X261433Y3366942D1*
X260843Y3363209D1*
X259673Y3359613D1*
X257957Y3356244D1*
X255735Y3353185D1*
X242052Y3339396D1*
X240656Y3338108D1*
X251710Y3337357D2*
X387301D1*
Y3237987D1*
X250529D1*
Y3337357D1*
X251710D1*
X118831Y3549521D2*
X118854Y3622924D1*
X118466Y3624251D1*
X117239Y3619902D1*
X115675Y3615661D1*
X113783Y3611556D1*
X111575Y3607613D1*
X109063Y3603856D1*
X106265Y3600306D1*
X103198Y3596987D1*
X99879Y3593920D1*
X96329Y3591122D1*
X90954Y3587705D1*
X96329Y3584253D1*
X99879Y3581455D1*
X103198Y3578388D1*
X106265Y3575070D1*
X109063Y3571520D1*
X111575Y3567762D1*
X113783Y3563819D1*
X115675Y3559714D1*
X117239Y3555474D1*
X118828Y3549307D1*
X118831Y3472899D2*
Y3525864D1*
X117239Y3519902D1*
X115675Y3515661D1*
X113783Y3511556D1*
X111575Y3507613D1*
X109063Y3503856D1*
X106265Y3500306D1*
X103198Y3496987D1*
X99879Y3493920D1*
X96329Y3491122D1*
X90954Y3487705D1*
X96329Y3484253D1*
X99879Y3481455D1*
X103198Y3478388D1*
X106265Y3475070D1*
X109063Y3471520D1*
X111575Y3467762D1*
X113783Y3463819D1*
X115675Y3459714D1*
X117239Y3455474D1*
X118828Y3449307D1*
X118854Y3472908D1*
X305789Y3073799D2*
X434686D1*
Y2938996D1*
X299883D1*
Y3073799D1*
X305789D1*
X631329Y3001109D2*
X630707Y2995854D1*
X629675Y2990663D1*
X628238Y2985570D1*
X626406Y2980604D1*
X624190Y2975798D1*
X621605Y2971180D1*
X618664Y2966780D1*
X615387Y2962623D1*
X611795Y2958738D1*
X607909Y2955146D1*
X603753Y2951869D1*
X599353Y2948928D1*
X594735Y2946343D1*
X589929Y2944127D1*
X584963Y2942295D1*
X579870Y2940858D1*
X574678Y2939825D1*
X569424Y2939203D1*
X564135Y2938996D1*
X558846Y2939203D1*
X553592Y2939825D1*
X548400Y2940858D1*
X543307Y2942295D1*
X538341Y2944127D1*
X533535Y2946343D1*
X528917Y2948928D1*
X524517Y2951869D1*
X520361Y2955146D1*
X516475Y2958738D1*
X512883Y2962623D1*
X509606Y2966780D1*
X506665Y2971180D1*
X504080Y2975798D1*
X501865Y2980604D1*
X500033Y2985570D1*
X498596Y2990663D1*
X497563Y2995854D1*
X496941Y3001109D1*
X496734Y3006398D1*
X496941Y3011686D1*
X497563Y3016941D1*
X498596Y3022133D1*
X500033Y3027226D1*
X501865Y3032192D1*
X504080Y3036997D1*
X506665Y3041615D1*
X509606Y3046016D1*
X512883Y3050172D1*
X516475Y3054058D1*
X520361Y3057650D1*
X524517Y3060927D1*
X528917Y3063867D1*
X533535Y3066453D1*
X538341Y3068668D1*
X543307Y3070500D1*
X548400Y3071937D1*
X553592Y3072970D1*
X558846Y3073592D1*
X564135Y3073799D1*
X569424Y3073592D1*
X574678Y3072970D1*
X579870Y3071937D1*
X584963Y3070500D1*
X589929Y3068668D1*
X594735Y3066453D1*
X599353Y3063867D1*
X603753Y3060927D1*
X607909Y3057650D1*
X611795Y3054058D1*
X615387Y3050172D1*
X618664Y3046016D1*
X621605Y3041615D1*
X624190Y3036997D1*
X626406Y3032192D1*
X628238Y3027226D1*
X629675Y3022133D1*
X630707Y3016941D1*
X631329Y3011686D1*
X631537Y3006398D1*
X631329Y3001109D1*
X828180D2*
X827558Y2995854D1*
X826525Y2990663D1*
X825088Y2985570D1*
X823256Y2980604D1*
X821041Y2975798D1*
X818455Y2971180D1*
X815514Y2966780D1*
X812238Y2962623D1*
X808646Y2958738D1*
X804760Y2955146D1*
X800604Y2951869D1*
X796203Y2948928D1*
X791585Y2946343D1*
X786780Y2944127D1*
X781814Y2942295D1*
X776720Y2940858D1*
X771529Y2939825D1*
X766274Y2939203D1*
X760986Y2938996D1*
X755697Y2939203D1*
X750442Y2939825D1*
X745251Y2940858D1*
X740157Y2942295D1*
X735192Y2944127D1*
X730386Y2946343D1*
X725768Y2948928D1*
X721367Y2951869D1*
X717211Y2955146D1*
X713325Y2958738D1*
X709734Y2962623D1*
X706457Y2966780D1*
X703516Y2971180D1*
X700930Y2975798D1*
X698715Y2980604D1*
X696883Y2985570D1*
X695446Y2990663D1*
X694413Y2995854D1*
X693791Y3001109D1*
X693584Y3006398D1*
X693791Y3011686D1*
X694413Y3016941D1*
X695446Y3022133D1*
X696883Y3027226D1*
X698715Y3032192D1*
X700930Y3036997D1*
X703516Y3041615D1*
X706457Y3046016D1*
X709734Y3050172D1*
X713325Y3054058D1*
X717211Y3057650D1*
X721367Y3060927D1*
X725768Y3063867D1*
X730386Y3066453D1*
X735192Y3068668D1*
X740157Y3070500D1*
X745251Y3071937D1*
X750442Y3072970D1*
X755697Y3073592D1*
X760986Y3073799D1*
X766274Y3073592D1*
X771529Y3072970D1*
X776720Y3071937D1*
X781814Y3070500D1*
X786780Y3068668D1*
X791585Y3066453D1*
X796203Y3063867D1*
X800604Y3060927D1*
X804760Y3057650D1*
X808646Y3054058D1*
X812238Y3050172D1*
X815514Y3046016D1*
X818455Y3041615D1*
X821041Y3036997D1*
X823256Y3032192D1*
X825088Y3027226D1*
X826525Y3022133D1*
X827558Y3016941D1*
X828180Y3011686D1*
X828387Y3006398D1*
X828180Y3001109D1*
X1025227Y3005217D2*
X1024865Y2999324D1*
X1023990Y2993486D1*
X1022605Y2987747D1*
X1020726Y2982151D1*
X1018362Y2976740D1*
X1015535Y2971558D1*
X1012265Y2966643D1*
X1008577Y2962033D1*
X1004500Y2957762D1*
X1000066Y2953866D1*
X995307Y2950371D1*
X990261Y2947308D1*
X984966Y2944697D1*
X979462Y2942560D1*
X973794Y2940912D1*
X968001Y2939768D1*
X962133Y2939133D1*
X956230Y2939016D1*
X950340Y2939415D1*
X944507Y2940327D1*
X938777Y2941747D1*
X933193Y2943663D1*
X927798Y2946059D1*
X922633Y2948920D1*
X917739Y2952220D1*
X913151Y2955937D1*
X908907Y2960041D1*
X905038Y2964500D1*
X901575Y2969281D1*
X898543Y2974346D1*
X895966Y2979657D1*
X893864Y2985175D1*
X892251Y2990853D1*
X891143Y2996652D1*
X890546Y3002525D1*
X890465Y3008429D1*
X890902Y3014316D1*
X891850Y3020143D1*
X893307Y3025864D1*
X895257Y3031436D1*
X897689Y3036816D1*
X900581Y3041962D1*
X903913Y3046836D1*
X907659Y3051399D1*
X911789Y3055618D1*
X916272Y3059458D1*
X921075Y3062891D1*
X926159Y3065892D1*
X931487Y3068436D1*
X937016Y3070503D1*
X942706Y3072079D1*
X948512Y3073151D1*
X954388Y3073711D1*
X960291Y3073755D1*
X966176Y3073281D1*
X971997Y3072295D1*
X977709Y3070803D1*
X983269Y3068816D1*
X988633Y3066352D1*
X993761Y3063427D1*
X998614Y3060064D1*
X1003154Y3056290D1*
X1007345Y3052134D1*
X1011157Y3047626D1*
X1014560Y3042802D1*
X1017529Y3037698D1*
X1020038Y3032356D1*
X1022071Y3026812D1*
X1023612Y3021113D1*
X1024647Y3015302D1*
X1025169Y3009421D1*
X1025227Y3005217D1*
X119879Y3733172D2*
X119348Y3728684D1*
X118466Y3724251D1*
X117239Y3719902D1*
X115675Y3715661D1*
X113783Y3711556D1*
X111575Y3707613D1*
X109063Y3703856D1*
X106265Y3700306D1*
X103198Y3696987D1*
X99879Y3693920D1*
X96329Y3691122D1*
X90954Y3687705D1*
X96329Y3684253D1*
X99879Y3681455D1*
X103198Y3678388D1*
X106265Y3675070D1*
X109063Y3671520D1*
X111575Y3667762D1*
X113783Y3663819D1*
X115675Y3659714D1*
X117239Y3655474D1*
X118828Y3649307D1*
X118831Y3697932D1*
X126374D1*
X123879Y3702972D1*
X121852Y3709211D1*
X120825Y3715692D1*
Y3722253D1*
X121852Y3728734D1*
X123879Y3734972D1*
X125311Y3738055D1*
X120056Y3737688D1*
X119879Y3733172D1*
X34041Y3687705D2*
X28665Y3691122D1*
X25115Y3693920D1*
X21797Y3696987D1*
X18730Y3700306D1*
X15932Y3703856D1*
X13420Y3707613D1*
X11211Y3711556D1*
X9320Y3715661D1*
X7756Y3719902D1*
X6016Y3726831D1*
X6018Y3648781D1*
X7756Y3655474D1*
X9320Y3659714D1*
X11211Y3663819D1*
X13420Y3667762D1*
X15932Y3671520D1*
X18730Y3675070D1*
X21797Y3678388D1*
X25115Y3681455D1*
X28665Y3684253D1*
X34041Y3687671D1*
Y3587705D2*
X28665Y3591122D1*
X25115Y3593920D1*
X21797Y3596987D1*
X18730Y3600306D1*
X15932Y3603856D1*
X13420Y3607613D1*
X11211Y3611556D1*
X9320Y3615661D1*
X7756Y3619902D1*
X6016Y3626831D1*
X6018Y3548802D1*
X7756Y3555474D1*
X9320Y3559714D1*
X11211Y3563819D1*
X13420Y3567762D1*
X15932Y3571520D1*
X18730Y3575070D1*
X21797Y3578388D1*
X25115Y3581455D1*
X28665Y3584253D1*
X34041Y3587671D1*
Y3487705D2*
X28665Y3491122D1*
X25115Y3493920D1*
X21797Y3496987D1*
X18730Y3500306D1*
X15932Y3503856D1*
X13420Y3507613D1*
X11211Y3511556D1*
X9320Y3515661D1*
X7756Y3519902D1*
X6016Y3526831D1*
X6018Y3448778D1*
X7756Y3455474D1*
X9320Y3459714D1*
X11211Y3463819D1*
X13420Y3467762D1*
X15932Y3471520D1*
X18730Y3475070D1*
X21797Y3478388D1*
X25115Y3481455D1*
X28665Y3484253D1*
X34041Y3487671D1*
Y3387705D2*
X28665Y3391122D1*
X25115Y3393920D1*
X21797Y3396987D1*
X18730Y3400306D1*
X15932Y3403856D1*
X13420Y3407613D1*
X11211Y3411556D1*
X9320Y3415661D1*
X7756Y3419902D1*
X6016Y3426831D1*
X6018Y3348799D1*
X7756Y3355474D1*
X9320Y3359714D1*
X11211Y3363819D1*
X13420Y3367762D1*
X15932Y3371520D1*
X18730Y3375070D1*
X21797Y3378388D1*
X25115Y3381455D1*
X28665Y3384253D1*
X34041Y3387671D1*
Y3287705D2*
X28665Y3291122D1*
X25115Y3293920D1*
X21797Y3296987D1*
X18730Y3300306D1*
X15932Y3303856D1*
X13420Y3307613D1*
X11211Y3311556D1*
X9320Y3315661D1*
X7756Y3319902D1*
X6016Y3326831D1*
X6018Y3248774D1*
X7756Y3255474D1*
X9320Y3259714D1*
X11211Y3263819D1*
X13420Y3267762D1*
X15932Y3271520D1*
X18730Y3275070D1*
X21797Y3278388D1*
X25115Y3281455D1*
X28665Y3284253D1*
X34041Y3287671D1*
Y3187705D2*
X28665Y3191122D1*
X25115Y3193920D1*
X21797Y3196987D1*
X18730Y3200306D1*
X15932Y3203856D1*
X13420Y3207613D1*
X11211Y3211556D1*
X9320Y3215661D1*
X7756Y3219902D1*
X6016Y3226831D1*
X6018Y3148797D1*
X7756Y3155474D1*
X9320Y3159714D1*
X11211Y3163819D1*
X13420Y3167762D1*
X15932Y3171520D1*
X18730Y3175070D1*
X21797Y3178388D1*
X25115Y3181455D1*
X28665Y3184253D1*
X34041Y3187671D1*
Y3087705D2*
X28665Y3091122D1*
X25115Y3093920D1*
X21797Y3096987D1*
X18730Y3100306D1*
X15932Y3103856D1*
X13420Y3107613D1*
X11211Y3111556D1*
X9320Y3115661D1*
X7756Y3119902D1*
X6016Y3126831D1*
X6018Y3048772D1*
X7756Y3055474D1*
X9320Y3059714D1*
X11211Y3063819D1*
X13420Y3067762D1*
X15932Y3071520D1*
X18730Y3075070D1*
X21797Y3078388D1*
X25115Y3081455D1*
X28665Y3084253D1*
X34041Y3087671D1*
Y2987705D2*
X28665Y2991122D1*
X25115Y2993920D1*
X21797Y2996987D1*
X18730Y3000306D1*
X15932Y3003856D1*
X13420Y3007613D1*
X11211Y3011556D1*
X9320Y3015661D1*
X7756Y3019902D1*
X6016Y3026831D1*
X6018Y2948793D1*
X7756Y2955474D1*
X9320Y2959714D1*
X11211Y2963819D1*
X13420Y2967762D1*
X15932Y2971520D1*
X18730Y2975070D1*
X21797Y2978388D1*
X25115Y2981455D1*
X28665Y2984253D1*
X34041Y2987671D1*
X52680Y2880999D2*
X49060Y2881719D1*
X44711Y2882946D1*
X40471Y2884510D1*
X36366Y2886402D1*
X32423Y2888610D1*
X28665Y2891122D1*
X25115Y2893920D1*
X21797Y2896987D1*
X18730Y2900306D1*
X15932Y2903856D1*
X13420Y2907613D1*
X11211Y2911556D1*
X9320Y2915661D1*
X7756Y2919902D1*
X6016Y2926831D1*
X6018Y2881018D1*
X52501Y2881001D1*
X1223734Y3780129D2*
X1205064D1*
Y3813601D1*
X611656Y3813593D1*
X611647Y3801588D1*
X767560Y3801572D1*
Y3768054D1*
X776963Y3767995D1*
X780697Y3767404D1*
X784293Y3766235D1*
X787661Y3764518D1*
X790726Y3762291D1*
X793171Y3761782D1*
X1210362D1*
X1213546Y3767762D1*
X1216058Y3771520D1*
X1218856Y3775070D1*
X1223803Y3780126D1*
X1319346Y3728043D2*
X1318592Y3724251D1*
X1317365Y3719902D1*
X1315801Y3715661D1*
X1313909Y3711556D1*
X1311701Y3707613D1*
X1309189Y3703856D1*
X1306391Y3700306D1*
X1303324Y3696987D1*
X1300005Y3693920D1*
X1296455Y3691122D1*
X1291080Y3687705D1*
X1296455Y3684253D1*
X1300005Y3681455D1*
X1303324Y3678388D1*
X1306391Y3675070D1*
X1309189Y3671520D1*
X1311701Y3667762D1*
X1313909Y3663819D1*
X1315801Y3659714D1*
X1317365Y3655474D1*
X1318592Y3651125D1*
X1319346Y3647332D1*
Y3727912D1*
Y3628043D2*
X1318592Y3624251D1*
X1317365Y3619902D1*
X1315801Y3615661D1*
X1313909Y3611556D1*
X1311701Y3607613D1*
X1309189Y3603856D1*
X1306391Y3600306D1*
X1303324Y3596987D1*
X1300005Y3593920D1*
X1296455Y3591122D1*
X1291080Y3587705D1*
X1296455Y3584253D1*
X1300005Y3581455D1*
X1303324Y3578388D1*
X1306391Y3575070D1*
X1309189Y3571520D1*
X1311701Y3567762D1*
X1313909Y3563819D1*
X1315801Y3559714D1*
X1317365Y3555474D1*
X1318592Y3551125D1*
X1319346Y3547332D1*
Y3627933D1*
Y3528043D2*
X1318592Y3524251D1*
X1317365Y3519902D1*
X1315801Y3515661D1*
X1313909Y3511556D1*
X1311701Y3507613D1*
X1309189Y3503856D1*
X1306391Y3500306D1*
X1303324Y3496987D1*
X1300005Y3493920D1*
X1296455Y3491122D1*
X1291080Y3487705D1*
X1296455Y3484253D1*
X1300005Y3481455D1*
X1303324Y3478388D1*
X1306391Y3475070D1*
X1309189Y3471520D1*
X1311701Y3467762D1*
X1313909Y3463819D1*
X1315801Y3459714D1*
X1317365Y3455474D1*
X1318592Y3451125D1*
X1319346Y3447930D1*
Y3527908D1*
Y3428043D2*
X1318592Y3424251D1*
X1317365Y3419902D1*
X1315801Y3415661D1*
X1313909Y3411556D1*
X1311701Y3407613D1*
X1309189Y3403856D1*
X1306391Y3400306D1*
X1303324Y3396987D1*
X1300005Y3393920D1*
X1296455Y3391122D1*
X1291080Y3387705D1*
X1296455Y3384253D1*
X1300005Y3381455D1*
X1303324Y3378388D1*
X1306391Y3375070D1*
X1309189Y3371520D1*
X1311701Y3367762D1*
X1313909Y3363819D1*
X1315801Y3359714D1*
X1317365Y3355474D1*
X1318592Y3351125D1*
X1319346Y3347537D1*
Y3427930D1*
Y3328043D2*
X1318592Y3324251D1*
X1317365Y3319902D1*
X1315801Y3315661D1*
X1313909Y3311556D1*
X1311701Y3307613D1*
X1309189Y3303856D1*
X1306391Y3300306D1*
X1303324Y3296987D1*
X1300005Y3293920D1*
X1296455Y3291122D1*
X1291080Y3287705D1*
X1296455Y3284253D1*
X1300005Y3281455D1*
X1303324Y3278388D1*
X1306391Y3275070D1*
X1309189Y3271520D1*
X1311701Y3267762D1*
X1313909Y3263819D1*
X1315801Y3259714D1*
X1317365Y3255474D1*
X1318592Y3251125D1*
X1319346Y3247332D1*
Y3327906D1*
Y3228043D2*
X1318592Y3224251D1*
X1317365Y3219902D1*
X1315801Y3215661D1*
X1313909Y3211556D1*
X1311701Y3207613D1*
X1309189Y3203856D1*
X1306391Y3200306D1*
X1303324Y3196987D1*
X1300005Y3193920D1*
X1296455Y3191122D1*
X1291080Y3187705D1*
X1296455Y3184253D1*
X1300005Y3181455D1*
X1303324Y3178388D1*
X1306391Y3175070D1*
X1309189Y3171520D1*
X1311701Y3167762D1*
X1313909Y3163819D1*
X1315801Y3159714D1*
X1317365Y3155474D1*
X1318592Y3151125D1*
X1319346Y3147332D1*
Y3227927D1*
Y3128043D2*
X1318592Y3124251D1*
X1317365Y3119902D1*
X1315801Y3115661D1*
X1313909Y3111556D1*
X1311701Y3107613D1*
X1309189Y3103856D1*
X1306391Y3100306D1*
X1303324Y3096987D1*
X1300005Y3093920D1*
X1296455Y3091122D1*
X1291080Y3087705D1*
X1296455Y3084253D1*
X1300005Y3081455D1*
X1303324Y3078388D1*
X1306391Y3075070D1*
X1309189Y3071520D1*
X1311701Y3067762D1*
X1313909Y3063819D1*
X1315801Y3059714D1*
X1317365Y3055474D1*
X1318592Y3051125D1*
X1319346Y3047332D1*
Y3127903D1*
Y3028043D2*
X1318592Y3024251D1*
X1317365Y3019902D1*
X1315801Y3015661D1*
X1313909Y3011556D1*
X1311701Y3007613D1*
X1309189Y3003856D1*
X1306391Y3000306D1*
X1303324Y2996987D1*
X1300005Y2993920D1*
X1296455Y2991122D1*
X1291080Y2987705D1*
X1295231Y2985119D1*
X1299917Y2981531D1*
X1304211Y2977480D1*
X1308068Y2973012D1*
X1311448Y2968172D1*
X1314312Y2963012D1*
X1316634Y2957584D1*
X1318388Y2951948D1*
X1319345Y2947459D1*
X1319346Y3027924D1*
Y2927932D2*
X1318147Y2922514D1*
X1316301Y2916908D1*
X1313890Y2911520D1*
X1310941Y2906407D1*
X1307483Y2901622D1*
X1303552Y2897218D1*
X1299193Y2893239D1*
X1294448Y2889727D1*
X1289369Y2886719D1*
X1284008Y2884248D1*
X1278423Y2882340D1*
X1272602Y2881001D1*
X1319325D1*
X1319346Y2927899D1*
X764514Y3637636D2*
X782209D1*
X781749Y3641392D1*
X776761Y3645654D1*
X772500Y3650642D1*
X769072Y3656236D1*
X766560Y3662298D1*
X765029Y3668677D1*
X764514Y3675218D1*
X765029Y3681759D1*
X766084Y3686448D1*
X661633Y3686454D1*
X661577Y3648324D1*
X660987Y3644591D1*
X659818Y3640995D1*
X658101Y3637626D1*
X655879Y3634567D1*
X642094Y3620676D1*
X639213Y3618217D1*
X642811Y3617951D1*
X758588D1*
X758609Y3637636D1*
X764514D1*
X566512Y3686434D2*
Y3661797D1*
X613478Y3661808D1*
X613463Y3686455D1*
X566510Y3686454D1*
X767559Y3690845D2*
X769072Y3694199D1*
X772500Y3699794D1*
X776761Y3704782D1*
X781749Y3709043D1*
X787344Y3712471D1*
X789778Y3713594D1*
X779469Y3713668D1*
X775735Y3714259D1*
X772139Y3715428D1*
X768764Y3717148D1*
X767560Y3712990D1*
Y3690866D1*
X479331Y3836554D2*
X478932Y3831849D1*
X478004Y3827219D1*
X476560Y3822723D1*
X474618Y3818419D1*
X472205Y3814361D1*
X469348Y3810601D1*
X466085Y3807188D1*
X462459Y3804163D1*
X458514Y3801567D1*
X454303Y3799433D1*
X449877Y3797786D1*
X445294Y3796650D1*
X440612Y3796037D1*
X435891Y3795957D1*
X431190Y3796408D1*
X426571Y3797387D1*
X422092Y3798881D1*
X417810Y3800870D1*
X413778Y3803329D1*
X410051Y3806228D1*
X406673Y3809528D1*
X403690Y3813188D1*
X401138Y3817160D1*
X399050Y3821396D1*
X397454Y3825840D1*
X396367Y3830436D1*
X395807Y3835123D1*
X395780Y3839845D1*
X396283Y3844541D1*
X397314Y3849148D1*
X398857Y3853612D1*
X400894Y3857871D1*
X403398Y3861874D1*
X406337Y3865570D1*
X409675Y3868909D1*
X413367Y3871853D1*
X417369Y3874360D1*
X421627Y3876400D1*
X426088Y3877948D1*
X430696Y3878983D1*
X435390Y3879491D1*
X440112Y3879467D1*
X444801Y3878911D1*
X449396Y3877828D1*
X453843Y3876235D1*
X458079Y3874151D1*
X462054Y3871604D1*
X465717Y3868622D1*
X469020Y3865248D1*
X471921Y3861524D1*
X474385Y3857495D1*
X476377Y3853214D1*
X477875Y3848735D1*
X478858Y3844117D1*
X479314Y3839417D1*
X479331Y3836554D1*
X318915Y3837391D2*
Y3738068D1*
X250552Y3787730D2*
X387277D1*
X318915Y3337333D2*
Y3238010D1*
X250552Y3287672D2*
X387277D1*
X237413Y3575207D2*
X281169D1*
X237413Y3500199D2*
X281171D1*
X957836Y3073776D2*
Y2939020D1*
X890458Y3006398D2*
X1025214D1*
X1205088Y2937688D2*
X1262623D1*
X356483Y3720303D2*
Y3681469D1*
X325522D2*
X387445D1*
X356483Y3557786D2*
Y3480115D1*
X325522Y3518951D2*
X356483D1*
X437537Y3879522D2*
Y3795948D1*
X395749Y3837735D2*
X479324D1*
X587560Y3531415D2*
Y3473878D1*
X121364Y2776283D2*
X1203886D1*
X121364Y2764604D2*
X136096D1*
X269762D2*
X1203886D1*
X121364Y2752924D2*
X125647D1*
X269762D2*
X1203886D1*
X269762Y2741244D2*
X1203886D1*
X269762Y2729564D2*
X1203886D1*
X269762Y2717885D2*
X1203886D1*
X121364Y2706205D2*
X128073D1*
X269762D2*
X1203886D1*
X121364Y2694525D2*
X141678D1*
X269762D2*
X1203886D1*
X121364Y2682845D2*
X168022D1*
X269762D2*
X1203886D1*
X105378Y2671165D2*
X168022D1*
X269762D2*
X379975D1*
X407874D2*
X1219849D1*
X114029Y2659486D2*
X168022D1*
X269762D2*
X361797D1*
X426029D2*
X1211222D1*
X118965Y2647806D2*
X168022D1*
X269762D2*
X325118D1*
X1037780D2*
X1206285D1*
X121156Y2636126D2*
X168022D1*
X269762D2*
X313423D1*
X1049451D2*
X1204071D1*
X120949Y2624446D2*
X168022D1*
X269762D2*
X306802D1*
X1056096D2*
X1204301D1*
X118273Y2612766D2*
X168022D1*
X269762D2*
X306133D1*
X1056765D2*
X1206976D1*
X7222Y2601087D2*
X12487D1*
X112760D2*
X168022D1*
X269762D2*
X306133D1*
X356685D2*
X363886D1*
X423953D2*
X947550D1*
X1056765D2*
X1212491D1*
X1312755D2*
X1318197D1*
X7222Y2589407D2*
X22045D1*
X103209D2*
X168022D1*
X269762D2*
X306133D1*
X356685D2*
X385465D1*
X1056765D2*
X1222041D1*
X1303205D2*
X1318167D1*
X7222Y2577727D2*
X27328D1*
X97927D2*
X168022D1*
X269762D2*
X306133D1*
X356685D2*
X373976D1*
X1056765D2*
X1227323D1*
X1297921D2*
X1318167D1*
X7222Y2566047D2*
X15483D1*
X109738D2*
X168022D1*
X269762D2*
X306133D1*
X356685D2*
X362709D1*
X1056765D2*
X1215512D1*
X1309732D2*
X1318167D1*
X116566Y2554367D2*
X168022D1*
X269762D2*
X306133D1*
X356685D2*
X362709D1*
X1056765D2*
X1208684D1*
X120234Y2542688D2*
X168022D1*
X269762D2*
X306133D1*
X356685D2*
X362709D1*
X575050D2*
X603946D1*
X721442D2*
X750199D1*
X1056765D2*
X1205016D1*
X121364Y2531008D2*
X168022D1*
X269762D2*
X306133D1*
X356685D2*
X362709D1*
X575050D2*
X603946D1*
X721442D2*
X750199D1*
X962554D2*
X1006213D1*
X1056765D2*
X1203886D1*
X120096Y2519328D2*
X168022D1*
X269762D2*
X306133D1*
X356685D2*
X362709D1*
X575050D2*
X603946D1*
X721442D2*
X750199D1*
X962554D2*
X1006213D1*
X1056765D2*
X1205155D1*
X116243Y2507648D2*
X168022D1*
X269762D2*
X306133D1*
X356685D2*
X362709D1*
X575050D2*
X603946D1*
X721442D2*
X750199D1*
X962554D2*
X1006213D1*
X1056765D2*
X1209007D1*
X7222Y2495969D2*
X16037D1*
X109184D2*
X168022D1*
X269762D2*
X306133D1*
X356685D2*
X362709D1*
X575050D2*
X603946D1*
X721442D2*
X750199D1*
X962554D2*
X1006213D1*
X1056765D2*
X1216066D1*
X1309180D2*
X1318167D1*
X7222Y2484289D2*
X28320D1*
X96912D2*
X132497D1*
X356685D2*
X362709D1*
X575050D2*
X603946D1*
X721442D2*
X750199D1*
X962554D2*
X1006213D1*
X1056765D2*
X1228339D1*
X1296907D2*
X1318167D1*
X7222Y2472609D2*
X21283D1*
X103948D2*
X132497D1*
X356685D2*
X362709D1*
X744188D2*
X750199D1*
X1056765D2*
X1221280D1*
X1303966D2*
X1318167D1*
X7222Y2460929D2*
X12072D1*
X113198D2*
X132497D1*
X356685D2*
X362709D1*
X1056765D2*
X1212052D1*
X1313193D2*
X1318164D1*
X118526Y2449249D2*
X132497D1*
X356685D2*
X443643D1*
X494196D2*
X528259D1*
X762366D2*
X835206D1*
X1056765D2*
X1206723D1*
X121018Y2437570D2*
X132497D1*
X356685D2*
X443643D1*
X494196D2*
X540139D1*
X762966D2*
X846210D1*
X1056765D2*
X1204209D1*
X121110Y2425890D2*
X132497D1*
X356685D2*
X443643D1*
X1056765D2*
X1204139D1*
X118757Y2414210D2*
X132497D1*
X356685D2*
X446227D1*
X1056765D2*
X1206492D1*
X7222Y2402530D2*
X11612D1*
X113613D2*
X132497D1*
X356685D2*
X456215D1*
X1056765D2*
X1211636D1*
X1313609D2*
X1318177D1*
X7222Y2390850D2*
X20568D1*
X104685D2*
X132497D1*
X356685D2*
X467888D1*
X719067D2*
X730430D1*
X1056765D2*
X1220564D1*
X1304681D2*
X1318167D1*
X7222Y2379171D2*
X29381D1*
X95874D2*
X132497D1*
X356685D2*
X611673D1*
X713714D2*
X948496D1*
X1056765D2*
X1229377D1*
X1295869D2*
X1318167D1*
X7222Y2367491D2*
X16635D1*
X108608D2*
X132497D1*
X356685D2*
X621547D1*
X703841D2*
X964804D1*
X998148D2*
X1006213D1*
X1056765D2*
X1216619D1*
X1308626D2*
X1318167D1*
X115920Y2355811D2*
X132497D1*
X356685D2*
X362709D1*
X575050D2*
X632113D1*
X693276D2*
X750199D1*
X962554D2*
X1006213D1*
X1056765D2*
X1209329D1*
X119934Y2344131D2*
X132497D1*
X356685D2*
X362709D1*
X575050D2*
X618110D1*
X707278D2*
X750199D1*
X962554D2*
X1006213D1*
X1056765D2*
X1205316D1*
X121364Y2332451D2*
X132497D1*
X356685D2*
X362709D1*
X575050D2*
X610220D1*
X715168D2*
X750199D1*
X962554D2*
X1006213D1*
X1056765D2*
X1203886D1*
X120371Y2320772D2*
X306133D1*
X356685D2*
X362709D1*
X575050D2*
X605791D1*
X719597D2*
X750199D1*
X1056765D2*
X1204878D1*
X116888Y2309092D2*
X305186D1*
X356685D2*
X362709D1*
X575050D2*
X604014D1*
X721373D2*
X750199D1*
X1056510D2*
X1208361D1*
X7222Y2297412D2*
X14976D1*
X110291D2*
X293491D1*
X356546D2*
X362678D1*
X575050D2*
X604638D1*
X720727D2*
X750199D1*
X1051390D2*
X1214958D1*
X1310286D2*
X1318167D1*
X7222Y2285732D2*
X26360D1*
X98873D2*
X281819D1*
X351955D2*
X362697D1*
X575050D2*
X607776D1*
X717613D2*
X750199D1*
X1039902D2*
X1226354D1*
X1298891D2*
X1318167D1*
X7222Y2274052D2*
X22829D1*
X102425D2*
X271576D1*
X340652D2*
X362697D1*
X575050D2*
X613843D1*
X711524D2*
X750199D1*
X962554D2*
X1222825D1*
X1302420D2*
X1318167D1*
X7222Y2262373D2*
X12949D1*
X112298D2*
X268693D1*
X328979D2*
X362697D1*
X575050D2*
X624361D1*
X701026D2*
X750199D1*
X962554D2*
X1212951D1*
X1312294D2*
X1318167D1*
X118020Y2250693D2*
X249016D1*
X575050D2*
X646761D1*
X678627D2*
X750199D1*
X1076235D2*
X1207231D1*
X120857Y2239013D2*
X154157D1*
X208631D2*
X249016D1*
X583978D2*
X635457D1*
X689930D2*
X797513D1*
X1076235D2*
X1116756D1*
X1171230D2*
X1204394D1*
X121226Y2227333D2*
X144077D1*
X218713D2*
X249016D1*
X466836D2*
X470911D1*
X725640D2*
X785840D1*
X854340D2*
X858407D1*
X1076235D2*
X1106676D1*
X1181311D2*
X1204024D1*
X119172Y2215654D2*
X139463D1*
X223327D2*
X249016D1*
X457171D2*
X480576D1*
X738605D2*
X776659D1*
X844673D2*
X868079D1*
X1076235D2*
X1102062D1*
X1185925D2*
X1206077D1*
X7222Y2203974D2*
X10828D1*
X114420D2*
X138471D1*
X224319D2*
X249016D1*
X445475D2*
X492272D1*
X748248D2*
X774744D1*
X832978D2*
X879752D1*
X1076235D2*
X1101070D1*
X1186917D2*
X1210829D1*
X1314416D2*
X1318188D1*
X7222Y2192294D2*
X19185D1*
X106070D2*
X140824D1*
X221966D2*
X249016D1*
X433802D2*
X499839D1*
X550390D2*
X560185D1*
X750509D2*
X774744D1*
X825297D2*
X891448D1*
X1076235D2*
X1103423D1*
X1184564D2*
X1219180D1*
X1306066D2*
X1318167D1*
X7222Y2180614D2*
X31642D1*
X93613D2*
X147214D1*
X215552D2*
X249016D1*
X413734D2*
X499839D1*
X550390D2*
X628537D1*
X750509D2*
X774744D1*
X825297D2*
X911517D1*
X1076235D2*
X1109836D1*
X1178151D2*
X1231636D1*
X1293608D2*
X1318167D1*
X7222Y2168934D2*
X17824D1*
X107408D2*
X161471D1*
X201319D2*
X249016D1*
X413734D2*
X499839D1*
X550390D2*
X642770D1*
X682618D2*
X699957D1*
X750509D2*
X774744D1*
X825297D2*
X911517D1*
X1076235D2*
X1124070D1*
X1163917D2*
X1217843D1*
X1307427D2*
X1318167D1*
X115205Y2157255D2*
X249016D1*
X413734D2*
X480253D1*
X644993D2*
X680256D1*
X844997D2*
X911517D1*
X1076235D2*
X1210022D1*
X119588Y2145575D2*
X249016D1*
X413734D2*
X480253D1*
X644993D2*
X680256D1*
X844997D2*
X911517D1*
X1076235D2*
X1205663D1*
X121318Y2133895D2*
X173743D1*
X413734D2*
X480253D1*
X644993D2*
X680256D1*
X844997D2*
X911517D1*
X1151646D2*
X1203932D1*
X120626Y2122215D2*
X162117D1*
X413734D2*
X480253D1*
X644993D2*
X680256D1*
X844997D2*
X911517D1*
X1163272D2*
X1204623D1*
X117466Y2110535D2*
X156488D1*
X413734D2*
X480253D1*
X644993D2*
X680256D1*
X844997D2*
X911517D1*
X1168900D2*
X1207785D1*
X7222Y2098856D2*
X13962D1*
X111306D2*
X156096D1*
X413734D2*
X480253D1*
X644993D2*
X680256D1*
X844997D2*
X911517D1*
X1169269D2*
X1213944D1*
X1311302D2*
X1318167D1*
X7222Y2087176D2*
X24560D1*
X100672D2*
X122647D1*
X240121D2*
X249016D1*
X413734D2*
X480253D1*
X644993D2*
X680256D1*
X844997D2*
X911517D1*
X1076235D2*
X1085123D1*
X1202604D2*
X1224555D1*
X1300690D2*
X1318167D1*
X7222Y2075496D2*
X24491D1*
X100764D2*
X122647D1*
X240121D2*
X249016D1*
X413734D2*
X480253D1*
X644993D2*
X680256D1*
X844997D2*
X911517D1*
X1076235D2*
X1085123D1*
X1202604D2*
X1224486D1*
X1300760D2*
X1318167D1*
X7222Y2063816D2*
X13916D1*
X111352D2*
X122647D1*
X240121D2*
X342073D1*
X392626D2*
X499954D1*
X550505D2*
X635249D1*
X690139D2*
X774744D1*
X825297D2*
X932625D1*
X983177D2*
X1085130D1*
X1202604D2*
X1213898D1*
X1311348D2*
X1318167D1*
X117488Y2052136D2*
X122636D1*
X240121D2*
X342073D1*
X392626D2*
X498269D1*
X550505D2*
X625261D1*
X700127D2*
X774744D1*
X827119D2*
X932625D1*
X983177D2*
X1085130D1*
X1202604D2*
X1207768D1*
X240121Y2040457D2*
X342073D1*
X392626D2*
X486597D1*
X550252D2*
X620717D1*
X704672D2*
X774997D1*
X838791D2*
X932625D1*
X983177D2*
X1085130D1*
X240121Y2028777D2*
X342073D1*
X392626D2*
X474902D1*
X545223D2*
X619770D1*
X705618D2*
X780142D1*
X850487D2*
X932625D1*
X983177D2*
X1085130D1*
X240121Y2017097D2*
X342073D1*
X392626D2*
X463228D1*
X533735D2*
X622193D1*
X703196D2*
X791654D1*
X862160D2*
X932625D1*
X983177D2*
X1085130D1*
X115181Y2005417D2*
X122621D1*
X240121D2*
X342073D1*
X392626D2*
X451556D1*
X522062D2*
X628675D1*
X696713D2*
X803325D1*
X873832D2*
X932625D1*
X983177D2*
X1085130D1*
X1202604D2*
X1210068D1*
X7222Y1993738D2*
X17892D1*
X107361D2*
X122647D1*
X240121D2*
X342073D1*
X392626D2*
X444451D1*
X510390D2*
X643115D1*
X682249D2*
X814999D1*
X880937D2*
X932625D1*
X983177D2*
X1085130D1*
X1202604D2*
X1217888D1*
X1307357D2*
X1318167D1*
X7222Y1982058D2*
X31757D1*
X93497D2*
X122647D1*
X240121D2*
X342073D1*
X392626D2*
X443643D1*
X498694D2*
X826694D1*
X881745D2*
X932625D1*
X983177D2*
X1085130D1*
X1202604D2*
X1231752D1*
X1293492D2*
X1318167D1*
X7222Y1970378D2*
X19115D1*
X106139D2*
X137871D1*
X224871D2*
X342073D1*
X392626D2*
X443643D1*
X494196D2*
X831193D1*
X881745D2*
X932625D1*
X983177D2*
X1100354D1*
X1187378D2*
X1219112D1*
X1306134D2*
X1318167D1*
X7222Y1958698D2*
X10782D1*
X114466D2*
X129545D1*
X233223D2*
X298774D1*
X435925D2*
X443643D1*
X494196D2*
X529689D1*
X598718D2*
X726531D1*
X795562D2*
X831193D1*
X881745D2*
X923398D1*
X992404D2*
X1092028D1*
X1195706D2*
X1210783D1*
X1314462D2*
X1318167D1*
X119196Y1947018D2*
X124815D1*
X237951D2*
X298774D1*
X435925D2*
X443643D1*
X494196D2*
X514602D1*
X613782D2*
X711467D1*
X810625D2*
X831193D1*
X881745D2*
X908310D1*
X1007491D2*
X1087298D1*
X1200434D2*
X1206046D1*
X239982Y1935339D2*
X298774D1*
X435925D2*
X443643D1*
X494196D2*
X505559D1*
X622848D2*
X702402D1*
X819690D2*
X831193D1*
X881745D2*
X899244D1*
X1016533D2*
X1085268D1*
X239589Y1923659D2*
X298774D1*
X435925D2*
X443643D1*
X494196D2*
X499865D1*
X628546D2*
X696703D1*
X825388D2*
X831199D1*
X881745D2*
X893570D1*
X1022231D2*
X1085660D1*
X117996Y1911979D2*
X125992D1*
X236752D2*
X298774D1*
X435925D2*
X443643D1*
X631730D2*
X693521D1*
X881745D2*
X890388D1*
X1025438D2*
X1088497D1*
X1199259D2*
X1207253D1*
X7222Y1900299D2*
X12995D1*
X112252D2*
X131735D1*
X231008D2*
X298774D1*
X435925D2*
X443643D1*
X632790D2*
X692459D1*
X881745D2*
X889329D1*
X1026476D2*
X1094241D1*
X1193514D2*
X1212997D1*
X1312247D2*
X1318167D1*
X7222Y1888619D2*
X22899D1*
X102356D2*
X141655D1*
X221089D2*
X298774D1*
X435925D2*
X443643D1*
X631799D2*
X693451D1*
X881745D2*
X890299D1*
X1025484D2*
X1104138D1*
X1183594D2*
X1222894D1*
X1302350D2*
X1318167D1*
X7222Y1876940D2*
X26290D1*
X98965D2*
X145022D1*
X217720D2*
X298774D1*
X435925D2*
X443643D1*
X494196D2*
X499723D1*
X628661D2*
X696566D1*
X825528D2*
X831173D1*
X881745D2*
X893432D1*
X1022370D2*
X1107529D1*
X1180203D2*
X1226285D1*
X1298959D2*
X1318167D1*
X7222Y1865260D2*
X14930D1*
X110337D2*
X133673D1*
X229071D2*
X298774D1*
X435925D2*
X443643D1*
X494196D2*
X505328D1*
X623079D2*
X702171D1*
X819921D2*
X831193D1*
X881745D2*
X899037D1*
X1016764D2*
X1096156D1*
X1191576D2*
X1214912D1*
X1310332D2*
X1318167D1*
X116912Y1853580D2*
X127098D1*
X494196D2*
X514256D1*
X614129D2*
X711098D1*
X810993D2*
X831193D1*
X1198151D2*
X1208339D1*
X492789Y1841900D2*
X529043D1*
X599341D2*
X725886D1*
X796207D2*
X832600D1*
X484369Y1830220D2*
X840997D1*
X119911Y1818541D2*
X124068D1*
X472696D2*
X852693D1*
X1201173D2*
X1205348D1*
X115896Y1806861D2*
X128114D1*
X234630D2*
X1090619D1*
X1197136D2*
X1209353D1*
X7222Y1795181D2*
X16671D1*
X108560D2*
X135427D1*
X227318D2*
X1097933D1*
X1189823D2*
X1216689D1*
X1308556D2*
X1318167D1*
X7222Y1783501D2*
X29474D1*
X95759D2*
X148230D1*
X214514D2*
X1110736D1*
X1177021D2*
X1229469D1*
X1295777D2*
X1318167D1*
X181598Y2768635D2*
X268581D1*
Y2631864D1*
X169211D1*
X169181Y2690066D1*
X162640Y2689551D1*
X156100Y2690066D1*
X149720Y2691597D1*
X143659Y2694109D1*
X138064Y2697537D1*
X133076Y2701798D1*
X128815Y2706786D1*
X125387Y2712381D1*
X122875Y2718442D1*
X121344Y2724822D1*
X120829Y2731362D1*
X121344Y2737903D1*
X122875Y2744282D1*
X125387Y2750344D1*
X128815Y2755938D1*
X133076Y2760927D1*
X138064Y2765188D1*
X143659Y2768615D1*
X149720Y2771127D1*
X156100Y2772659D1*
X162640Y2773173D1*
X169181Y2772659D1*
X175560Y2771127D1*
X181588Y2768633D1*
X170392Y2630840D2*
X268581D1*
Y2494068D1*
X169211D1*
Y2630840D1*
X170392D1*
X134857Y2487509D2*
X304117D1*
Y2467832D1*
X307314Y2473257D1*
X307388Y2620741D1*
X307979Y2624475D1*
X309147Y2628071D1*
X310864Y2631440D1*
X313087Y2634499D1*
X326871Y2648390D1*
X329747Y2650845D1*
X332971Y2652820D1*
X336463Y2654266D1*
X340140Y2655150D1*
X343909Y2655446D1*
X359757D1*
X362121Y2658505D1*
X366761Y2663146D1*
X372068Y2667001D1*
X377915Y2669980D1*
X384154Y2672008D1*
X390634Y2673034D1*
X397196D1*
X403676Y2672008D1*
X409915Y2669980D1*
X415761Y2667001D1*
X421068Y2663146D1*
X425709Y2658505D1*
X428062Y2655448D1*
X1020871Y2655371D1*
X1024605Y2654781D1*
X1028201Y2653612D1*
X1031570Y2651895D1*
X1034629Y2649673D1*
X1048520Y2635888D1*
X1050975Y2633013D1*
X1052950Y2629789D1*
X1054396Y2626297D1*
X1055280Y2622619D1*
X1055576Y2618850D1*
X1055501Y2310677D1*
X1054911Y2306944D1*
X1053741Y2303348D1*
X1052026Y2299979D1*
X1049803Y2296920D1*
X1036018Y2283029D1*
X1033143Y2280573D1*
X1029919Y2278598D1*
X1026427Y2277152D1*
X1022749Y2276269D1*
X1018980Y2275972D1*
X961378D1*
X961373Y2254071D1*
X1075054Y2254085D1*
Y2142986D1*
X1133312Y2142888D1*
X1137046Y2142298D1*
X1140642Y2141129D1*
X1144010Y2139413D1*
X1147070Y2137190D1*
X1161031Y2123335D1*
X1163487Y2120459D1*
X1165462Y2117235D1*
X1166908Y2113743D1*
X1167791Y2110066D1*
X1168088Y2106297D1*
Y2088927D1*
X1201430Y2088928D1*
Y1973810D1*
X1182768D1*
X1187639Y1968751D1*
X1190437Y1965201D1*
X1192949Y1961444D1*
X1195157Y1957500D1*
X1197049Y1953395D1*
X1198613Y1949155D1*
X1199840Y1944806D1*
X1200722Y1940373D1*
X1201253Y1935885D1*
X1201430Y1931369D1*
X1201253Y1926853D1*
X1200722Y1922365D1*
X1199840Y1917932D1*
X1198613Y1913583D1*
X1197049Y1909343D1*
X1195157Y1905238D1*
X1192949Y1901294D1*
X1190437Y1897537D1*
X1187639Y1893987D1*
X1184572Y1890668D1*
X1181253Y1887601D1*
X1177703Y1884803D1*
X1172328Y1881386D1*
X1177703Y1877934D1*
X1181253Y1875136D1*
X1184572Y1872070D1*
X1187639Y1868751D1*
X1190437Y1865201D1*
X1192949Y1861444D1*
X1195157Y1857500D1*
X1197049Y1853395D1*
X1198613Y1849155D1*
X1199840Y1844806D1*
X1200722Y1840373D1*
X1201253Y1835885D1*
X1201430Y1831369D1*
X1201253Y1826853D1*
X1200722Y1822365D1*
X1199840Y1817932D1*
X1198613Y1813583D1*
X1197049Y1809343D1*
X1195157Y1805238D1*
X1192949Y1801294D1*
X1190437Y1797537D1*
X1187639Y1793987D1*
X1184572Y1790668D1*
X1181253Y1787601D1*
X1177703Y1784803D1*
X1173946Y1782291D1*
X1170003Y1780083D1*
X1165898Y1778192D1*
X1161657Y1776627D1*
X1157308Y1775400D1*
X1153621Y1774667D1*
X1252693Y1774673D1*
X1246938Y1775988D1*
X1241349Y1777886D1*
X1235983Y1780345D1*
X1230898Y1783343D1*
X1226146Y1786844D1*
X1221777Y1790815D1*
X1217839Y1795211D1*
X1214371Y1799988D1*
X1211411Y1805096D1*
X1208990Y1810479D1*
X1207131Y1816081D1*
X1205857Y1821845D1*
X1205181Y1827710D1*
X1205108Y1833612D1*
X1205640Y1839491D1*
X1206772Y1845285D1*
X1208491Y1850932D1*
X1210780Y1856373D1*
X1213613Y1861551D1*
X1216962Y1866412D1*
X1220790Y1870904D1*
X1225060Y1874982D1*
X1229724Y1878598D1*
X1234113Y1881367D1*
X1228791Y1884803D1*
X1225241Y1887601D1*
X1221923Y1890668D1*
X1218856Y1893987D1*
X1216058Y1897537D1*
X1213546Y1901294D1*
X1211337Y1905238D1*
X1209446Y1909343D1*
X1207882Y1913583D1*
X1206655Y1917932D1*
X1205773Y1922365D1*
X1205241Y1926853D1*
X1205064Y1931369D1*
X1205241Y1935885D1*
X1205773Y1940373D1*
X1206655Y1944806D1*
X1207882Y1949155D1*
X1209446Y1953395D1*
X1211337Y1957500D1*
X1213546Y1961444D1*
X1216058Y1965201D1*
X1218856Y1968751D1*
X1221923Y1972070D1*
X1225241Y1975136D1*
X1228791Y1977934D1*
X1234167Y1981352D1*
X1228791Y1984803D1*
X1225241Y1987601D1*
X1221923Y1990668D1*
X1218856Y1993987D1*
X1216058Y1997537D1*
X1213546Y2001294D1*
X1211337Y2005238D1*
X1209446Y2009343D1*
X1207882Y2013583D1*
X1206655Y2017932D1*
X1205773Y2022365D1*
X1205241Y2026853D1*
X1205064Y2031369D1*
X1205241Y2035885D1*
X1205773Y2040373D1*
X1206655Y2044806D1*
X1207882Y2049155D1*
X1209446Y2053395D1*
X1211337Y2057500D1*
X1213546Y2061444D1*
X1216058Y2065201D1*
X1218856Y2068751D1*
X1221923Y2072070D1*
X1225241Y2075136D1*
X1228791Y2077934D1*
X1234167Y2081352D1*
X1228791Y2084803D1*
X1225241Y2087601D1*
X1221923Y2090668D1*
X1218856Y2093987D1*
X1216058Y2097537D1*
X1213546Y2101294D1*
X1211337Y2105238D1*
X1209446Y2109343D1*
X1207882Y2113583D1*
X1206655Y2117932D1*
X1205773Y2122365D1*
X1205241Y2126853D1*
X1205064Y2131369D1*
X1205241Y2135885D1*
X1205773Y2140373D1*
X1206655Y2144806D1*
X1207882Y2149155D1*
X1209446Y2153395D1*
X1211337Y2157500D1*
X1213546Y2161444D1*
X1216058Y2165201D1*
X1218856Y2168751D1*
X1221923Y2172070D1*
X1225241Y2175136D1*
X1228791Y2177934D1*
X1234167Y2181352D1*
X1228791Y2184803D1*
X1225241Y2187601D1*
X1221923Y2190668D1*
X1218856Y2193987D1*
X1216058Y2197537D1*
X1213546Y2201294D1*
X1211337Y2205238D1*
X1209446Y2209343D1*
X1207882Y2213583D1*
X1206655Y2217932D1*
X1205773Y2222365D1*
X1205241Y2226853D1*
X1205064Y2231369D1*
X1205241Y2235885D1*
X1205773Y2240373D1*
X1206655Y2244806D1*
X1207882Y2249155D1*
X1209446Y2253395D1*
X1211337Y2257500D1*
X1213546Y2261444D1*
X1216058Y2265201D1*
X1218856Y2268751D1*
X1221923Y2272070D1*
X1225241Y2275136D1*
X1228791Y2277934D1*
X1234167Y2281352D1*
X1228791Y2284803D1*
X1225241Y2287601D1*
X1221923Y2290668D1*
X1218856Y2293987D1*
X1216058Y2297537D1*
X1213546Y2301294D1*
X1211337Y2305238D1*
X1209446Y2309343D1*
X1207882Y2313583D1*
X1206655Y2317932D1*
X1205773Y2322365D1*
X1205241Y2326853D1*
X1205064Y2331369D1*
X1205241Y2335885D1*
X1205773Y2340373D1*
X1206655Y2344806D1*
X1207882Y2349155D1*
X1209446Y2353395D1*
X1211337Y2357500D1*
X1213546Y2361444D1*
X1216058Y2365201D1*
X1218856Y2368751D1*
X1221923Y2372070D1*
X1225241Y2375136D1*
X1228791Y2377934D1*
X1234167Y2381352D1*
X1228791Y2384803D1*
X1225241Y2387601D1*
X1221923Y2390668D1*
X1218856Y2393987D1*
X1216058Y2397537D1*
X1213546Y2401294D1*
X1211337Y2405238D1*
X1209446Y2409343D1*
X1207882Y2413583D1*
X1206655Y2417932D1*
X1205773Y2422365D1*
X1205241Y2426853D1*
X1205064Y2431369D1*
X1205241Y2435885D1*
X1205773Y2440373D1*
X1206655Y2444806D1*
X1207882Y2449155D1*
X1209446Y2453395D1*
X1211337Y2457500D1*
X1213546Y2461444D1*
X1216058Y2465201D1*
X1218856Y2468751D1*
X1221923Y2472070D1*
X1225241Y2475136D1*
X1228791Y2477934D1*
X1234167Y2481352D1*
X1228791Y2484803D1*
X1225241Y2487601D1*
X1221923Y2490668D1*
X1218856Y2493987D1*
X1216058Y2497537D1*
X1213546Y2501294D1*
X1211337Y2505238D1*
X1209446Y2509343D1*
X1207882Y2513583D1*
X1206655Y2517932D1*
X1205773Y2522365D1*
X1205241Y2526853D1*
X1205064Y2531369D1*
X1205241Y2535885D1*
X1205773Y2540373D1*
X1206655Y2544806D1*
X1207882Y2549155D1*
X1209446Y2553395D1*
X1211337Y2557500D1*
X1213546Y2561444D1*
X1216058Y2565201D1*
X1218856Y2568751D1*
X1221923Y2572070D1*
X1225241Y2575136D1*
X1228791Y2577934D1*
X1234167Y2581352D1*
X1228791Y2584803D1*
X1225241Y2587601D1*
X1221923Y2590668D1*
X1218856Y2593987D1*
X1216058Y2597537D1*
X1213546Y2601294D1*
X1211337Y2605238D1*
X1209446Y2609343D1*
X1207882Y2613583D1*
X1206655Y2617932D1*
X1205773Y2622365D1*
X1205241Y2626853D1*
X1205064Y2631369D1*
X1205241Y2635885D1*
X1205773Y2640373D1*
X1206655Y2644806D1*
X1207882Y2649155D1*
X1209446Y2653395D1*
X1211337Y2657500D1*
X1213546Y2661444D1*
X1216058Y2665201D1*
X1218856Y2668751D1*
X1223803Y2673807D1*
X1205064Y2673810D1*
Y2787961D1*
X120192Y2787963D1*
X120182Y2673810D1*
X101520D1*
X106391Y2668751D1*
X109189Y2665201D1*
X111701Y2661444D1*
X113909Y2657500D1*
X115801Y2653395D1*
X117365Y2649155D1*
X118592Y2644806D1*
X119474Y2640373D1*
X120005Y2635885D1*
X120182Y2631369D1*
X120005Y2626853D1*
X119474Y2622365D1*
X118592Y2617932D1*
X117365Y2613583D1*
X115801Y2609343D1*
X113909Y2605238D1*
X111701Y2601294D1*
X109189Y2597537D1*
X106391Y2593987D1*
X103324Y2590668D1*
X100005Y2587601D1*
X96455Y2584803D1*
X91080Y2581386D1*
X96455Y2577934D1*
X100005Y2575136D1*
X103324Y2572070D1*
X106391Y2568751D1*
X109189Y2565201D1*
X111701Y2561444D1*
X113909Y2557500D1*
X115801Y2553395D1*
X117365Y2549155D1*
X118592Y2544806D1*
X119474Y2540373D1*
X120005Y2535885D1*
X120182Y2531369D1*
X120005Y2526853D1*
X119474Y2522365D1*
X118592Y2517932D1*
X117365Y2513583D1*
X115801Y2509343D1*
X113909Y2505238D1*
X111701Y2501294D1*
X109189Y2497537D1*
X106391Y2493987D1*
X103324Y2490668D1*
X100005Y2487601D1*
X96455Y2484803D1*
X91080Y2481386D1*
X96455Y2477934D1*
X100005Y2475136D1*
X103324Y2472070D1*
X106391Y2468751D1*
X109189Y2465201D1*
X111701Y2461444D1*
X113909Y2457500D1*
X115801Y2453395D1*
X117365Y2449155D1*
X118592Y2444806D1*
X119474Y2440373D1*
X120005Y2435885D1*
X120182Y2431369D1*
X120005Y2426853D1*
X119474Y2422365D1*
X118592Y2417932D1*
X117365Y2413583D1*
X115801Y2409343D1*
X113909Y2405238D1*
X111701Y2401294D1*
X109189Y2397537D1*
X106391Y2393987D1*
X103324Y2390668D1*
X100005Y2387601D1*
X96455Y2384803D1*
X91080Y2381386D1*
X96455Y2377934D1*
X100005Y2375136D1*
X103324Y2372070D1*
X106391Y2368751D1*
X109189Y2365201D1*
X111701Y2361444D1*
X113909Y2357500D1*
X115801Y2353395D1*
X117365Y2349155D1*
X118592Y2344806D1*
X119474Y2340373D1*
X120005Y2335885D1*
X120182Y2331369D1*
X120005Y2326853D1*
X119474Y2322365D1*
X118592Y2317932D1*
X117365Y2313583D1*
X115801Y2309343D1*
X113909Y2305238D1*
X111701Y2301294D1*
X109189Y2297537D1*
X106391Y2293987D1*
X103324Y2290668D1*
X100005Y2287601D1*
X96455Y2284803D1*
X91080Y2281386D1*
X96455Y2277934D1*
X100005Y2275136D1*
X103324Y2272070D1*
X106391Y2268751D1*
X109189Y2265201D1*
X111701Y2261444D1*
X113909Y2257500D1*
X115801Y2253395D1*
X117365Y2249155D1*
X118592Y2244806D1*
X119474Y2240373D1*
X120005Y2235885D1*
X120182Y2231369D1*
X120005Y2226853D1*
X119474Y2222365D1*
X118592Y2217932D1*
X117365Y2213583D1*
X115801Y2209343D1*
X113909Y2205238D1*
X111701Y2201294D1*
X109189Y2197537D1*
X106391Y2193987D1*
X103324Y2190668D1*
X100005Y2187601D1*
X96455Y2184803D1*
X91080Y2181386D1*
X96455Y2177934D1*
X100005Y2175136D1*
X103324Y2172070D1*
X106391Y2168751D1*
X109189Y2165201D1*
X111701Y2161444D1*
X113909Y2157500D1*
X115801Y2153395D1*
X117365Y2149155D1*
X118592Y2144806D1*
X119474Y2140373D1*
X120005Y2135885D1*
X120182Y2131369D1*
X120005Y2126853D1*
X119474Y2122365D1*
X118592Y2117932D1*
X117365Y2113583D1*
X115801Y2109343D1*
X113909Y2105238D1*
X111701Y2101294D1*
X109189Y2097537D1*
X106391Y2093987D1*
X103324Y2090668D1*
X100005Y2087601D1*
X96455Y2084803D1*
X91080Y2081386D1*
X96455Y2077934D1*
X100005Y2075136D1*
X103324Y2072070D1*
X106391Y2068751D1*
X109189Y2065201D1*
X111701Y2061444D1*
X113909Y2057500D1*
X115801Y2053395D1*
X117365Y2049155D1*
X118592Y2044806D1*
X119474Y2040373D1*
X120005Y2035885D1*
X120182Y2031369D1*
X120005Y2026853D1*
X119474Y2022365D1*
X118592Y2017932D1*
X117365Y2013583D1*
X115801Y2009343D1*
X113909Y2005238D1*
X111701Y2001294D1*
X109189Y1997537D1*
X106391Y1993987D1*
X103324Y1990668D1*
X100005Y1987601D1*
X96455Y1984803D1*
X91080Y1981386D1*
X96455Y1977934D1*
X100005Y1975136D1*
X103324Y1972070D1*
X106391Y1968751D1*
X109189Y1965201D1*
X111701Y1961444D1*
X113909Y1957500D1*
X115801Y1953395D1*
X117365Y1949155D1*
X118592Y1944806D1*
X119474Y1940373D1*
X120005Y1935885D1*
X120182Y1931369D1*
X120005Y1926853D1*
X119474Y1922365D1*
X118592Y1917932D1*
X117365Y1913583D1*
X115801Y1909343D1*
X113909Y1905238D1*
X111701Y1901294D1*
X109189Y1897537D1*
X106391Y1893987D1*
X103324Y1890668D1*
X100005Y1887601D1*
X96455Y1884803D1*
X91080Y1881386D1*
X96455Y1877934D1*
X100005Y1875136D1*
X103324Y1872070D1*
X106391Y1868751D1*
X109189Y1865201D1*
X111701Y1861444D1*
X113909Y1857500D1*
X115801Y1853395D1*
X117365Y1849155D1*
X118592Y1844806D1*
X119474Y1840373D1*
X120005Y1835885D1*
X120182Y1831369D1*
X120005Y1826853D1*
X119474Y1822365D1*
X118592Y1817932D1*
X117365Y1813583D1*
X115801Y1809343D1*
X113909Y1805238D1*
X111701Y1801294D1*
X109189Y1797537D1*
X106391Y1793987D1*
X103324Y1790668D1*
X100005Y1787601D1*
X96455Y1784803D1*
X92698Y1782291D1*
X88755Y1780083D1*
X84650Y1778192D1*
X80409Y1776627D1*
X76060Y1775400D1*
X72373Y1774667D1*
X171499D1*
X163589Y1776627D1*
X159349Y1778192D1*
X155244Y1780083D1*
X151301Y1782291D1*
X147543Y1784803D1*
X143993Y1787601D1*
X140675Y1790668D1*
X137608Y1793987D1*
X134810Y1797537D1*
X132298Y1801294D1*
X130089Y1805238D1*
X128198Y1809343D1*
X126634Y1813583D1*
X125407Y1817932D1*
X124525Y1822365D1*
X123993Y1826853D1*
X123816Y1831369D1*
X123993Y1835885D1*
X124525Y1840373D1*
X125407Y1844806D1*
X126634Y1849155D1*
X128198Y1853395D1*
X130089Y1857500D1*
X132298Y1861444D1*
X134810Y1865201D1*
X137608Y1868751D1*
X140675Y1872070D1*
X143993Y1875136D1*
X147543Y1877934D1*
X152919Y1881352D1*
X147543Y1884803D1*
X143993Y1887601D1*
X140675Y1890668D1*
X137608Y1893987D1*
X134810Y1897537D1*
X132298Y1901294D1*
X130089Y1905238D1*
X128198Y1909343D1*
X126634Y1913583D1*
X125407Y1917932D1*
X124525Y1922365D1*
X123993Y1926853D1*
X123816Y1931369D1*
X123993Y1935885D1*
X124525Y1940373D1*
X125407Y1944806D1*
X126634Y1949155D1*
X128198Y1953395D1*
X130089Y1957500D1*
X132298Y1961444D1*
X134810Y1965201D1*
X137608Y1968751D1*
X142555Y1973807D1*
X123816Y1973810D1*
Y2088928D1*
X157289D1*
X157356Y2108171D1*
X157946Y2111904D1*
X159114Y2115500D1*
X160831Y2118869D1*
X163054Y2121928D1*
X176927Y2135907D1*
X179802Y2138362D1*
X183026Y2140337D1*
X186518Y2141783D1*
X190196Y2142667D1*
X193965Y2142963D1*
X250182D1*
X250192Y2254085D1*
X269869D1*
X269951Y2264521D1*
X270542Y2268255D1*
X271711Y2271850D1*
X273427Y2275219D1*
X275650Y2278278D1*
X297812Y2300546D1*
X307323Y2310056D1*
X307314Y2419630D1*
X304117Y2416643D1*
Y2325147D1*
X133676D1*
Y2487509D1*
X134857D1*
X305852Y1967516D2*
X343245D1*
X343253Y2071167D1*
X250192Y2071152D1*
Y2094751D1*
X205458Y2094774D1*
X205470Y2088909D1*
X238934Y2088928D1*
Y1973810D1*
X220272D1*
X225143Y1968751D1*
X227941Y1965201D1*
X230453Y1961444D1*
X232661Y1957500D1*
X234552Y1953395D1*
X236117Y1949155D1*
X237344Y1944806D1*
X238226Y1940373D1*
X238757Y1935885D1*
X238934Y1931369D1*
X238757Y1926853D1*
X238226Y1922365D1*
X237344Y1917932D1*
X236117Y1913583D1*
X234552Y1909343D1*
X232661Y1905238D1*
X230453Y1901294D1*
X227941Y1897537D1*
X225143Y1893987D1*
X222076Y1890668D1*
X218757Y1887601D1*
X215207Y1884803D1*
X209832Y1881386D1*
X215207Y1877934D1*
X218757Y1875136D1*
X222076Y1872070D1*
X225143Y1868751D1*
X227941Y1865201D1*
X230453Y1861444D1*
X233600Y1855463D1*
X299924D1*
X299946Y1967516D1*
X305852D1*
X391458D2*
X434749D1*
Y1855472D1*
X440272Y1855463D1*
X444832Y1860004D1*
X444903Y1989425D1*
X445493Y1993159D1*
X446663Y1996755D1*
X448378Y2000123D1*
X450601Y2003182D1*
X472764Y2025450D1*
X501130Y2053818D1*
X501127Y2071169D1*
X481442Y2071152D1*
Y2166585D1*
X501028D1*
X501029Y2196408D1*
X475551Y2221971D1*
X473328Y2225030D1*
X471613Y2228399D1*
X470444Y2231995D1*
X469853Y2235728D1*
X469778Y2237627D1*
X467967Y2237618D1*
X467671Y2233849D1*
X466787Y2230172D1*
X465341Y2226680D1*
X463366Y2223455D1*
X460909Y2220581D1*
X428272Y2188047D1*
X425213Y2185825D1*
X421844Y2184109D1*
X418248Y2182940D1*
X414514Y2182349D1*
X412554Y2182274D1*
Y2071152D1*
X391446D1*
X391442Y1967521D1*
X631392Y1894825D2*
X630770Y1889571D1*
X629738Y1884379D1*
X628301Y1879286D1*
X626469Y1874320D1*
X624253Y1869514D1*
X621668Y1864896D1*
X618727Y1860496D1*
X615450Y1856340D1*
X611858Y1852454D1*
X607972Y1848862D1*
X603816Y1845585D1*
X599416Y1842644D1*
X594798Y1840059D1*
X589992Y1837844D1*
X585026Y1836012D1*
X579933Y1834575D1*
X574741Y1833542D1*
X569487Y1832920D1*
X564198Y1832713D1*
X558909Y1832920D1*
X553655Y1833542D1*
X548463Y1834575D1*
X543370Y1836012D1*
X538404Y1837844D1*
X533598Y1840059D1*
X528980Y1842644D1*
X524580Y1845585D1*
X520424Y1848862D1*
X516538Y1852454D1*
X512946Y1856340D1*
X509669Y1860496D1*
X506728Y1864896D1*
X504143Y1869514D1*
X501928Y1874320D1*
X500096Y1879286D1*
X498659Y1884379D1*
X497626Y1889571D1*
X497004Y1894825D1*
X496797Y1900114D1*
X497004Y1905403D1*
X497626Y1910657D1*
X498659Y1915849D1*
X500096Y1920942D1*
X501928Y1925908D1*
X504143Y1930714D1*
X506728Y1935332D1*
X509669Y1939732D1*
X512946Y1943888D1*
X516538Y1947774D1*
X520424Y1951366D1*
X524580Y1954643D1*
X528980Y1957584D1*
X533598Y1960169D1*
X538404Y1962385D1*
X543370Y1964217D1*
X548463Y1965654D1*
X553655Y1966686D1*
X558909Y1967308D1*
X564198Y1967516D1*
X569487Y1967308D1*
X574741Y1966686D1*
X579933Y1965654D1*
X585026Y1964217D1*
X589992Y1962385D1*
X594798Y1960169D1*
X599416Y1957584D1*
X603816Y1954643D1*
X607972Y1951366D1*
X611858Y1947774D1*
X615450Y1943888D1*
X618727Y1939732D1*
X621668Y1935332D1*
X624253Y1930714D1*
X626469Y1925908D1*
X628301Y1920942D1*
X629738Y1915849D1*
X630770Y1910657D1*
X631392Y1905403D1*
X631600Y1900114D1*
X631392Y1894825D1*
X828243D2*
X827621Y1889571D1*
X826588Y1884379D1*
X825151Y1879286D1*
X823319Y1874320D1*
X821104Y1869514D1*
X818518Y1864896D1*
X815577Y1860496D1*
X812301Y1856340D1*
X808709Y1852454D1*
X804823Y1848862D1*
X800667Y1845585D1*
X796266Y1842644D1*
X791648Y1840059D1*
X786843Y1837844D1*
X781877Y1836012D1*
X776783Y1834575D1*
X771592Y1833542D1*
X766337Y1832920D1*
X761049Y1832713D1*
X755760Y1832920D1*
X750505Y1833542D1*
X745314Y1834575D1*
X740220Y1836012D1*
X735255Y1837844D1*
X730449Y1840059D1*
X725831Y1842644D1*
X721430Y1845585D1*
X717274Y1848862D1*
X713388Y1852454D1*
X709797Y1856340D1*
X706520Y1860496D1*
X703579Y1864896D1*
X700993Y1869514D1*
X698778Y1874320D1*
X696946Y1879286D1*
X695509Y1884379D1*
X694476Y1889571D1*
X693854Y1894825D1*
X693647Y1900114D1*
X693854Y1905403D1*
X694476Y1910657D1*
X695509Y1915849D1*
X696946Y1920942D1*
X698778Y1925908D1*
X700993Y1930714D1*
X703579Y1935332D1*
X706520Y1939732D1*
X709797Y1943888D1*
X713388Y1947774D1*
X717274Y1951366D1*
X721430Y1954643D1*
X725831Y1957584D1*
X730449Y1960169D1*
X735255Y1962385D1*
X740220Y1964217D1*
X745314Y1965654D1*
X750505Y1966686D1*
X755760Y1967308D1*
X761049Y1967516D1*
X766337Y1967308D1*
X771592Y1966686D1*
X776783Y1965654D1*
X781877Y1964217D1*
X786843Y1962385D1*
X791648Y1960169D1*
X796266Y1957584D1*
X800667Y1954643D1*
X804823Y1951366D1*
X808709Y1947774D1*
X812301Y1943888D1*
X815577Y1939732D1*
X818518Y1935332D1*
X821104Y1930714D1*
X823319Y1925908D1*
X825151Y1920942D1*
X826588Y1915849D1*
X827621Y1910657D1*
X828243Y1905403D1*
X828450Y1900114D1*
X828243Y1894825D1*
X1025093D2*
X1024471Y1889571D1*
X1023438Y1884379D1*
X1022001Y1879286D1*
X1020169Y1874320D1*
X1017954Y1869514D1*
X1015369Y1864896D1*
X1012428Y1860496D1*
X1008239Y1855353D1*
X1091573Y1855362D1*
X1094794Y1861444D1*
X1097306Y1865201D1*
X1100104Y1868751D1*
X1103171Y1872070D1*
X1106490Y1875136D1*
X1110039Y1877934D1*
X1115415Y1881352D1*
X1110039Y1884803D1*
X1106490Y1887601D1*
X1103171Y1890668D1*
X1100104Y1893987D1*
X1097306Y1897537D1*
X1094794Y1901294D1*
X1092585Y1905238D1*
X1090694Y1909343D1*
X1089130Y1913583D1*
X1087903Y1917932D1*
X1087021Y1922365D1*
X1086490Y1926853D1*
X1086312Y1931369D1*
X1086490Y1935885D1*
X1087021Y1940373D1*
X1087903Y1944806D1*
X1089130Y1949155D1*
X1090694Y1953395D1*
X1092585Y1957500D1*
X1094794Y1961444D1*
X1097306Y1965201D1*
X1100104Y1968751D1*
X1105051Y1973807D1*
X1086312Y1973810D1*
Y2088928D1*
X1119877D1*
X1119899Y2094768D1*
X1075066Y2094774D1*
X1075054Y2071152D1*
X982004D1*
X981993Y1963045D1*
X988499Y1960169D1*
X993117Y1957584D1*
X997517Y1954643D1*
X1001673Y1951366D1*
X1005559Y1947774D1*
X1009151Y1943888D1*
X1012428Y1939732D1*
X1015369Y1935332D1*
X1017954Y1930714D1*
X1020169Y1925908D1*
X1022001Y1920942D1*
X1023438Y1915849D1*
X1024471Y1910657D1*
X1025093Y1905403D1*
X1025301Y1900114D1*
X1025093Y1894825D1*
X907559Y1855353D2*
X903370Y1860496D1*
X900429Y1864896D1*
X897844Y1869514D1*
X895629Y1874320D1*
X893797Y1879286D1*
X892360Y1884379D1*
X891327Y1889571D1*
X890705Y1894825D1*
X890497Y1900114D1*
X890705Y1905403D1*
X891327Y1910657D1*
X892360Y1915849D1*
X893797Y1920942D1*
X895629Y1925908D1*
X897844Y1930714D1*
X900429Y1935332D1*
X903370Y1939732D1*
X906647Y1943888D1*
X910239Y1947774D1*
X914125Y1951366D1*
X918281Y1954643D1*
X922681Y1957584D1*
X927299Y1960169D1*
X933793Y1963008D1*
X933804Y2071167D1*
X912692Y2071152D1*
X912623Y2182274D1*
X908854Y2182571D1*
X905177Y2183454D1*
X901685Y2184900D1*
X898461Y2186875D1*
X895581Y2189337D1*
X863051Y2221971D1*
X860828Y2225030D1*
X859113Y2228399D1*
X857944Y2231995D1*
X857353Y2235728D1*
X857278Y2237627D1*
X855467Y2237618D1*
X855171Y2233849D1*
X854289Y2230172D1*
X852841Y2226680D1*
X850866Y2223455D1*
X848404Y2220576D1*
X824122Y2196293D1*
X824119Y2166570D1*
X843804Y2166585D1*
Y2071152D1*
X824127D1*
X824119Y2053932D1*
X874785Y2003182D1*
X877007Y2000123D1*
X878723Y1996755D1*
X879892Y1993159D1*
X880483Y1989425D1*
X880558Y1958007D1*
Y1859990D1*
X885197Y1855361D1*
X907488Y1855362D1*
X720252Y2550992D2*
Y2480449D1*
X727091Y2480353D1*
X730824Y2479762D1*
X734420Y2478593D1*
X737789Y2476877D1*
X740848Y2474655D1*
X751383Y2464224D1*
X751373Y2551000D1*
X720265Y2551001D1*
X605134Y2480442D2*
Y2550986D1*
X573873Y2551001D1*
Y2480417D1*
X605129Y2480428D1*
X637898Y2358283D2*
X633337Y2360304D1*
X629798Y2362286D1*
X626427Y2364539D1*
X623241Y2367050D1*
X620262Y2369803D1*
X617509Y2372782D1*
X614999Y2375967D1*
X611127Y2382228D1*
X485783Y2382307D1*
X482050Y2382899D1*
X478454Y2384067D1*
X475085Y2385783D1*
X472026Y2388007D1*
X451885Y2408042D1*
X449429Y2410917D1*
X447454Y2414142D1*
X446007Y2417634D1*
X445125Y2421311D1*
X444828Y2425088D1*
Y2455046D1*
X363873Y2455059D1*
Y2570177D1*
X371001D1*
X372404Y2573491D1*
X374379Y2576715D1*
X376841Y2579594D1*
X387324Y2590079D1*
X380995Y2591587D1*
X374933Y2594098D1*
X369339Y2597526D1*
X364350Y2601787D1*
X360089Y2606776D1*
X359768Y2607256D1*
X355505Y2607257D1*
X355428Y2298176D1*
X354837Y2294442D1*
X353669Y2290846D1*
X351953Y2287478D1*
X349730Y2284419D1*
X327567Y2262151D1*
X319492Y2254076D1*
X363865Y2254085D1*
X363873Y2357579D1*
X573873D1*
Y2247934D1*
X591429Y2230387D1*
X628517Y2230402D1*
X630899Y2233461D1*
X635539Y2238101D1*
X640846Y2241957D1*
X646693Y2244936D1*
X652932Y2246963D1*
X659412Y2247990D1*
X665974D1*
X672454Y2246963D1*
X678693Y2244936D1*
X684539Y2241957D1*
X689846Y2238101D1*
X694487Y2233461D1*
X696840Y2230403D1*
X714589Y2230328D1*
X718323Y2229736D1*
X721919Y2228568D1*
X725287Y2226852D1*
X728346Y2224629D1*
X742260Y2210822D1*
X744715Y2207946D1*
X746690Y2204722D1*
X748138Y2201230D1*
X749020Y2197552D1*
X749316Y2193776D1*
Y2166585D1*
X775923D1*
X776004Y2208161D1*
X776596Y2211895D1*
X777764Y2215491D1*
X779480Y2218860D1*
X781703Y2221919D1*
X802154Y2242474D1*
X751373Y2242461D1*
Y2357579D1*
X961373D1*
Y2324152D1*
X1007385Y2324161D1*
X1007387Y2373492D1*
X1003323Y2370678D1*
X997476Y2367699D1*
X991238Y2365672D1*
X984757Y2364646D1*
X978196D1*
X971715Y2365672D1*
X965476Y2367699D1*
X959630Y2370678D1*
X954323Y2374534D1*
X949682Y2379175D1*
X947329Y2382232D1*
X748311Y2382307D1*
X744577Y2382899D1*
X740982Y2384067D1*
X737613Y2385783D1*
X734554Y2388007D1*
X720659Y2401798D1*
X720093Y2402276D1*
X719615Y2398248D1*
X718824Y2394270D1*
X717724Y2390366D1*
X716320Y2386562D1*
X714622Y2382878D1*
X712640Y2379339D1*
X710387Y2375967D1*
X707877Y2372782D1*
X705123Y2369803D1*
X702144Y2367050D1*
X698959Y2364539D1*
X695588Y2362286D1*
X692049Y2360304D1*
X687488Y2358283D1*
X693327Y2355058D1*
X698156Y2351664D1*
X702613Y2347794D1*
X706650Y2343487D1*
X710224Y2338790D1*
X713299Y2333751D1*
X715843Y2328424D1*
X717825Y2322864D1*
X719230Y2317130D1*
X720038Y2311283D1*
X720240Y2305147D1*
X719816Y2299260D1*
X718791Y2293446D1*
X717177Y2287768D1*
X714990Y2282286D1*
X712253Y2277055D1*
X708993Y2272134D1*
X705248Y2267571D1*
X701055Y2263417D1*
X696458Y2259714D1*
X691507Y2256500D1*
X686252Y2253811D1*
X680749Y2251675D1*
X675056Y2250113D1*
X669234Y2249142D1*
X663343Y2248773D1*
X657445Y2249009D1*
X651601Y2249848D1*
X645875Y2251281D1*
X640325Y2253293D1*
X635012Y2255862D1*
X629988Y2258963D1*
X625310Y2262562D1*
X621024Y2266621D1*
X617176Y2271097D1*
X613807Y2275945D1*
X610951Y2281112D1*
X608642Y2286543D1*
X606899Y2292182D1*
X605744Y2297971D1*
X605188Y2303848D1*
X605236Y2309751D1*
X605888Y2315618D1*
X607139Y2321387D1*
X608972Y2326997D1*
X611373Y2332391D1*
X614311Y2337509D1*
X617760Y2342301D1*
X621680Y2346714D1*
X626033Y2350702D1*
X630770Y2354223D1*
X635843Y2357241D1*
X637875Y2358261D1*
X1134122Y1774667D2*
X1130434Y1775400D1*
X1126085Y1776627D1*
X1121845Y1778192D1*
X1117740Y1780083D1*
X1113797Y1782291D1*
X1110039Y1784803D1*
X1106490Y1787601D1*
X1103171Y1790668D1*
X1100104Y1793987D1*
X1097306Y1797537D1*
X1094794Y1801294D1*
X1091692Y1807177D1*
X873324Y1807248D1*
X869591Y1807839D1*
X865995Y1809008D1*
X862626Y1810724D1*
X859567Y1812946D1*
X839427Y1832983D1*
X836970Y1835857D1*
X834995Y1839081D1*
X833549Y1842573D1*
X832665Y1846251D1*
X832369Y1850028D1*
Y1977564D1*
X781703Y2028324D1*
X779480Y2031383D1*
X777764Y2034752D1*
X776596Y2038348D1*
X776004Y2042081D1*
X775930Y2071171D1*
X681442Y2071152D1*
Y2166585D1*
X701119D1*
X701127Y2182192D1*
X696850Y2182213D1*
X694487Y2179154D1*
X689846Y2174513D1*
X684539Y2170657D1*
X678693Y2167678D1*
X672454Y2165651D1*
X665974Y2164625D1*
X659412D1*
X652932Y2165651D1*
X646693Y2167678D1*
X640846Y2170657D1*
X635539Y2174513D1*
X630899Y2179154D1*
X628546Y2182211D1*
X579543Y2182287D1*
X575810Y2182878D1*
X572214Y2184047D1*
X568845Y2185764D1*
X565786Y2187986D1*
X549211Y2204455D1*
X549218Y2166576D1*
X643804Y2166585D1*
Y2071152D1*
X549324D1*
X549241Y2041942D1*
X548651Y2038209D1*
X547482Y2034613D1*
X545766Y2031244D1*
X543543Y2028185D1*
X521381Y2005917D1*
X493014Y1977550D1*
X492942Y1848129D1*
X492352Y1844395D1*
X491184Y1840799D1*
X489467Y1837430D1*
X487244Y1834371D1*
X467310Y1814331D1*
X464434Y1811875D1*
X461210Y1809900D1*
X457718Y1808454D1*
X454041Y1807571D1*
X450272Y1807274D1*
X233636D1*
X230453Y1801294D1*
X227941Y1797537D1*
X225143Y1793987D1*
X222076Y1790668D1*
X218757Y1787601D1*
X215207Y1784803D1*
X211450Y1782291D1*
X207507Y1780083D1*
X203402Y1778192D1*
X199161Y1776627D1*
X194812Y1775400D1*
X191125Y1774667D1*
X1133958D1*
X34167Y2581386D2*
X28791Y2584803D1*
X25241Y2587601D1*
X21923Y2590668D1*
X18856Y2593987D1*
X16058Y2597537D1*
X13546Y2601294D1*
X11337Y2605238D1*
X9446Y2609343D1*
X7882Y2613583D1*
X6031Y2621066D1*
X6029Y2541846D1*
X7882Y2549155D1*
X9446Y2553395D1*
X11337Y2557500D1*
X13546Y2561444D1*
X16058Y2565201D1*
X18856Y2568751D1*
X21923Y2572070D1*
X25241Y2575136D1*
X28791Y2577934D1*
X34167Y2581352D1*
Y2481386D2*
X28791Y2484803D1*
X25241Y2487601D1*
X21923Y2490668D1*
X18856Y2493987D1*
X16058Y2497537D1*
X13546Y2501294D1*
X11337Y2505238D1*
X9446Y2509343D1*
X7882Y2513583D1*
X6031Y2521066D1*
X6029Y2441867D1*
X7882Y2449155D1*
X9446Y2453395D1*
X11337Y2457500D1*
X13546Y2461444D1*
X16058Y2465201D1*
X18856Y2468751D1*
X21923Y2472070D1*
X25241Y2475136D1*
X28791Y2477934D1*
X34167Y2481352D1*
Y2381386D2*
X28791Y2384803D1*
X25241Y2387601D1*
X21923Y2390668D1*
X18856Y2393987D1*
X16058Y2397537D1*
X13546Y2401294D1*
X11337Y2405238D1*
X9446Y2409343D1*
X7882Y2413583D1*
X6031Y2421066D1*
X6029Y2341844D1*
X7882Y2349155D1*
X9446Y2353395D1*
X11337Y2357500D1*
X13546Y2361444D1*
X16058Y2365201D1*
X18856Y2368751D1*
X21923Y2372070D1*
X25241Y2375136D1*
X28791Y2377934D1*
X34167Y2381352D1*
Y2281386D2*
X28791Y2284803D1*
X25241Y2287601D1*
X21923Y2290668D1*
X18856Y2293987D1*
X16058Y2297537D1*
X13546Y2301294D1*
X11337Y2305238D1*
X9446Y2309343D1*
X7882Y2313583D1*
X6031Y2321066D1*
X6029Y2241865D1*
X7882Y2249155D1*
X9446Y2253395D1*
X11337Y2257500D1*
X13546Y2261444D1*
X16058Y2265201D1*
X18856Y2268751D1*
X21923Y2272070D1*
X25241Y2275136D1*
X28791Y2277934D1*
X34167Y2281352D1*
Y2181386D2*
X28791Y2184803D1*
X25241Y2187601D1*
X21923Y2190668D1*
X18856Y2193987D1*
X16058Y2197537D1*
X13546Y2201294D1*
X11337Y2205238D1*
X9446Y2209343D1*
X7882Y2213583D1*
X6031Y2221066D1*
X6029Y2141840D1*
X7882Y2149155D1*
X9446Y2153395D1*
X11337Y2157500D1*
X13546Y2161444D1*
X16058Y2165201D1*
X18856Y2168751D1*
X21923Y2172070D1*
X25241Y2175136D1*
X28791Y2177934D1*
X34167Y2181352D1*
Y2081386D2*
X28791Y2084803D1*
X25241Y2087601D1*
X21923Y2090668D1*
X18856Y2093987D1*
X16058Y2097537D1*
X13546Y2101294D1*
X11337Y2105238D1*
X9446Y2109343D1*
X7882Y2113583D1*
X6031Y2121066D1*
X6029Y2041862D1*
X7882Y2049155D1*
X9446Y2053395D1*
X11337Y2057500D1*
X13546Y2061444D1*
X16058Y2065201D1*
X18856Y2068751D1*
X21923Y2072070D1*
X25241Y2075136D1*
X28791Y2077934D1*
X34167Y2081352D1*
Y1981386D2*
X28791Y1984803D1*
X25241Y1987601D1*
X21923Y1990668D1*
X18856Y1993987D1*
X16058Y1997537D1*
X13546Y2001294D1*
X11337Y2005238D1*
X9446Y2009343D1*
X7882Y2013583D1*
X6031Y2021066D1*
X6029Y1941883D1*
X7882Y1949155D1*
X9446Y1953395D1*
X11337Y1957500D1*
X13546Y1961444D1*
X16058Y1965201D1*
X18856Y1968751D1*
X21923Y1972070D1*
X25241Y1975136D1*
X28791Y1977934D1*
X34167Y1981352D1*
Y1881386D2*
X28791Y1884803D1*
X25241Y1887601D1*
X21923Y1890668D1*
X18856Y1893987D1*
X16058Y1897537D1*
X13546Y1901294D1*
X11337Y1905238D1*
X9446Y1909343D1*
X7882Y1913583D1*
X6031Y1921066D1*
X6029Y1841858D1*
X7882Y1849155D1*
X9446Y1853395D1*
X11337Y1857500D1*
X13546Y1861444D1*
X16058Y1865201D1*
X18856Y1868751D1*
X21923Y1872070D1*
X25241Y1875136D1*
X28791Y1877934D1*
X34167Y1881352D1*
X52874Y1774667D2*
X49186Y1775400D1*
X44837Y1776627D1*
X40597Y1778192D1*
X36492Y1780083D1*
X32549Y1782291D1*
X28791Y1784803D1*
X25241Y1787601D1*
X21923Y1790668D1*
X18856Y1793987D1*
X16058Y1797537D1*
X13546Y1801294D1*
X11337Y1805238D1*
X9446Y1809343D1*
X7882Y1813583D1*
X6031Y1821066D1*
X6029Y1774684D1*
X52743Y1774667D1*
X1319360Y2621793D2*
X1318592Y2617932D1*
X1317365Y2613583D1*
X1315801Y2609343D1*
X1313909Y2605238D1*
X1311701Y2601294D1*
X1309189Y2597537D1*
X1306391Y2593987D1*
X1303324Y2590668D1*
X1300005Y2587601D1*
X1296455Y2584803D1*
X1291080Y2581386D1*
X1296455Y2577934D1*
X1300005Y2575136D1*
X1303324Y2572070D1*
X1306391Y2568751D1*
X1309189Y2565201D1*
X1311701Y2561444D1*
X1313909Y2557500D1*
X1315801Y2553395D1*
X1317365Y2549155D1*
X1318592Y2544806D1*
X1319360Y2540945D1*
X1319357Y2621669D1*
X1319360Y2521793D2*
X1318592Y2517932D1*
X1317365Y2513583D1*
X1315801Y2509343D1*
X1313909Y2505238D1*
X1311701Y2501294D1*
X1309189Y2497537D1*
X1306391Y2493987D1*
X1303324Y2490668D1*
X1300005Y2487601D1*
X1296455Y2484803D1*
X1291080Y2481386D1*
X1296455Y2477934D1*
X1300005Y2475136D1*
X1303324Y2472070D1*
X1306391Y2468751D1*
X1309189Y2465201D1*
X1311701Y2461444D1*
X1313909Y2457500D1*
X1315801Y2453395D1*
X1317365Y2449155D1*
X1318592Y2444806D1*
X1319360Y2440945D1*
X1319357Y2521644D1*
X1319360Y2421793D2*
X1318592Y2417932D1*
X1317365Y2413583D1*
X1315801Y2409343D1*
X1313909Y2405238D1*
X1311701Y2401294D1*
X1309189Y2397537D1*
X1306391Y2393987D1*
X1303324Y2390668D1*
X1300005Y2387601D1*
X1296455Y2384803D1*
X1291080Y2381386D1*
X1296455Y2377934D1*
X1300005Y2375136D1*
X1303324Y2372070D1*
X1306391Y2368751D1*
X1309189Y2365201D1*
X1311701Y2361444D1*
X1313909Y2357500D1*
X1315801Y2353395D1*
X1317365Y2349155D1*
X1318592Y2344806D1*
X1319360Y2340945D1*
X1319357Y2421667D1*
X1319360Y2321793D2*
X1318592Y2317932D1*
X1317365Y2313583D1*
X1315801Y2309343D1*
X1313909Y2305238D1*
X1311701Y2301294D1*
X1309189Y2297537D1*
X1306391Y2293987D1*
X1303324Y2290668D1*
X1300005Y2287601D1*
X1296455Y2284803D1*
X1291080Y2281386D1*
X1296455Y2277934D1*
X1300005Y2275136D1*
X1303324Y2272070D1*
X1306391Y2268751D1*
X1309189Y2265201D1*
X1311701Y2261444D1*
X1313909Y2257500D1*
X1315801Y2253395D1*
X1317365Y2249155D1*
X1318592Y2244806D1*
X1319357Y2241202D1*
Y2321642D1*
X1319360Y2221793D2*
X1318592Y2217932D1*
X1317365Y2213583D1*
X1315801Y2209343D1*
X1313909Y2205238D1*
X1311701Y2201294D1*
X1309189Y2197537D1*
X1306391Y2193987D1*
X1303324Y2190668D1*
X1300005Y2187601D1*
X1296455Y2184803D1*
X1291080Y2181386D1*
X1296455Y2177934D1*
X1300005Y2175136D1*
X1303324Y2172070D1*
X1306391Y2168751D1*
X1309189Y2165201D1*
X1311701Y2161444D1*
X1313909Y2157500D1*
X1315801Y2153395D1*
X1317365Y2149155D1*
X1318592Y2144806D1*
X1319360Y2140945D1*
X1319357Y2221663D1*
X1319360Y2121793D2*
X1318592Y2117932D1*
X1317365Y2113583D1*
X1315801Y2109343D1*
X1313909Y2105238D1*
X1311701Y2101294D1*
X1309189Y2097537D1*
X1306391Y2093987D1*
X1303324Y2090668D1*
X1300005Y2087601D1*
X1296455Y2084803D1*
X1291080Y2081386D1*
X1296455Y2077934D1*
X1300005Y2075136D1*
X1303324Y2072070D1*
X1306391Y2068751D1*
X1309189Y2065201D1*
X1311701Y2061444D1*
X1313909Y2057500D1*
X1315801Y2053395D1*
X1317365Y2049155D1*
X1318592Y2044806D1*
X1319360Y2040945D1*
X1319357Y2121639D1*
X1319360Y2021793D2*
X1318592Y2017932D1*
X1317365Y2013583D1*
X1315801Y2009343D1*
X1313909Y2005238D1*
X1311701Y2001294D1*
X1309189Y1997537D1*
X1306391Y1993987D1*
X1303324Y1990668D1*
X1300005Y1987601D1*
X1296455Y1984803D1*
X1291080Y1981386D1*
X1296455Y1977934D1*
X1300005Y1975136D1*
X1303324Y1972070D1*
X1306391Y1968751D1*
X1309189Y1965201D1*
X1311701Y1961444D1*
X1313909Y1957500D1*
X1315801Y1953395D1*
X1317365Y1949155D1*
X1318592Y1944806D1*
X1319360Y1940945D1*
X1319357Y2021660D1*
X1319360Y1921793D2*
X1318592Y1917932D1*
X1317365Y1913583D1*
X1315801Y1909343D1*
X1313909Y1905238D1*
X1311701Y1901294D1*
X1309189Y1897537D1*
X1306391Y1893987D1*
X1303324Y1890668D1*
X1300005Y1887601D1*
X1296455Y1884803D1*
X1291080Y1881386D1*
X1295231Y1878801D1*
X1299917Y1875213D1*
X1304211Y1871161D1*
X1308068Y1866693D1*
X1311448Y1861853D1*
X1314312Y1856693D1*
X1316634Y1851265D1*
X1318388Y1845629D1*
X1319357Y1841077D1*
Y1921635D1*
Y1821667D2*
X1318147Y1816196D1*
X1316301Y1810589D1*
X1313890Y1805201D1*
X1310941Y1800088D1*
X1307483Y1795303D1*
X1303552Y1790899D1*
X1299193Y1786920D1*
X1294448Y1783408D1*
X1289369Y1780400D1*
X1284008Y1777929D1*
X1278423Y1776021D1*
X1272510Y1774667D1*
X1319336D1*
X1319357Y1821657D1*
X223186Y2205126D2*
X222787Y2200421D1*
X221860Y2195791D1*
X220416Y2191295D1*
X218474Y2186991D1*
X216060Y2182933D1*
X213203Y2179173D1*
X209941Y2175760D1*
X206315Y2172735D1*
X202370Y2170139D1*
X198159Y2168005D1*
X193732Y2166358D1*
X189150Y2165222D1*
X184467Y2164609D1*
X179747Y2164529D1*
X175046Y2164980D1*
X170427Y2165959D1*
X165948Y2167453D1*
X161665Y2169442D1*
X157634Y2171902D1*
X153907Y2174801D1*
X150529Y2178100D1*
X147546Y2181760D1*
X144993Y2185732D1*
X142906Y2189969D1*
X141310Y2194412D1*
X140223Y2199008D1*
X139663Y2203696D1*
X139635Y2208417D1*
X140139Y2213113D1*
X141169Y2217720D1*
X142713Y2222184D1*
X144749Y2226444D1*
X147253Y2230446D1*
X150193Y2234142D1*
X153530Y2237482D1*
X157223Y2240425D1*
X161224Y2242932D1*
X165483Y2244972D1*
X169944Y2246520D1*
X174551Y2247555D1*
X179245Y2248063D1*
X183967Y2248039D1*
X188656Y2247483D1*
X193252Y2246400D1*
X197698Y2244807D1*
X201934Y2242723D1*
X205909Y2240176D1*
X209572Y2237194D1*
X212875Y2233820D1*
X215777Y2230096D1*
X218240Y2226067D1*
X220232Y2221786D1*
X221731Y2217307D1*
X222714Y2212689D1*
X223169Y2207990D1*
X223186Y2205126D1*
X428062Y2607256D2*
X425709Y2604198D1*
X421068Y2599558D1*
X420596Y2599185D1*
X947303Y2599190D1*
X949682Y2602249D1*
X954323Y2606890D1*
X954795Y2607262D1*
X428083Y2607257D1*
X1007391Y2542325D2*
X1003323Y2539446D1*
X997476Y2536467D1*
X991238Y2534440D1*
X984757Y2533413D1*
X978196D1*
X971715Y2534440D1*
X965476Y2536467D1*
X961365Y2538475D1*
X961373Y2474189D1*
X1007398Y2474177D1*
X1007387Y2542287D1*
X704487Y2030108D2*
X704088Y2025403D1*
X703160Y2020773D1*
X701717Y2016277D1*
X699774Y2011972D1*
X697361Y2007915D1*
X694504Y2004155D1*
X691241Y2000741D1*
X687615Y1997717D1*
X683671Y1995121D1*
X679459Y1992987D1*
X675033Y1991340D1*
X670450Y1990203D1*
X665768Y1989591D1*
X661047Y1989510D1*
X656346Y1989962D1*
X651727Y1990941D1*
X647248Y1992434D1*
X642966Y1994424D1*
X638934Y1996883D1*
X635207Y1999782D1*
X631829Y2003081D1*
X628846Y2006741D1*
X626294Y2010714D1*
X624206Y2014950D1*
X622610Y2019394D1*
X621524Y2023990D1*
X620963Y2028677D1*
X620936Y2033399D1*
X621440Y2038094D1*
X622470Y2042702D1*
X624013Y2047165D1*
X626050Y2051425D1*
X628554Y2055428D1*
X631493Y2059123D1*
X634831Y2062463D1*
X638524Y2065407D1*
X642525Y2067913D1*
X646783Y2069954D1*
X651244Y2071501D1*
X655852Y2072537D1*
X660546Y2073045D1*
X665268Y2073021D1*
X669957Y2072465D1*
X674552Y2071382D1*
X678999Y2069789D1*
X683235Y2067705D1*
X687210Y2065157D1*
X690873Y2062176D1*
X694176Y2058802D1*
X697077Y2055077D1*
X699541Y2051049D1*
X701533Y2046768D1*
X703031Y2042289D1*
X704014Y2037671D1*
X704470Y2032971D1*
X704487Y2030108D1*
X1185787Y2205126D2*
X1185388Y2200421D1*
X1184461Y2195791D1*
X1183017Y2191295D1*
X1181075Y2186991D1*
X1178661Y2182933D1*
X1175804Y2179173D1*
X1172542Y2175760D1*
X1168916Y2172735D1*
X1164971Y2170139D1*
X1160760Y2168005D1*
X1156333Y2166358D1*
X1151751Y2165222D1*
X1147068Y2164609D1*
X1142348Y2164529D1*
X1137647Y2164980D1*
X1133028Y2165959D1*
X1128549Y2167453D1*
X1124266Y2169442D1*
X1120235Y2171902D1*
X1116508Y2174801D1*
X1113130Y2178100D1*
X1110147Y2181760D1*
X1107594Y2185732D1*
X1105507Y2189969D1*
X1103911Y2194412D1*
X1102824Y2199008D1*
X1102264Y2203696D1*
X1102236Y2208417D1*
X1102740Y2213113D1*
X1103770Y2217720D1*
X1105314Y2222184D1*
X1107350Y2226444D1*
X1109854Y2230446D1*
X1112794Y2234142D1*
X1116131Y2237482D1*
X1119824Y2240425D1*
X1123825Y2242932D1*
X1128084Y2244972D1*
X1132545Y2246520D1*
X1137152Y2247555D1*
X1141846Y2248063D1*
X1146568Y2248039D1*
X1151257Y2247483D1*
X1155853Y2246400D1*
X1160299Y2244807D1*
X1164535Y2242723D1*
X1168510Y2240176D1*
X1172173Y2237194D1*
X1175476Y2233820D1*
X1178378Y2230096D1*
X1180841Y2226067D1*
X1182833Y2221786D1*
X1184332Y2217307D1*
X1185315Y2212689D1*
X1185770Y2207990D1*
X1185787Y2205126D1*
X523873Y2455071D2*
X493030Y2455059D1*
X493017Y2435039D1*
X497656Y2430423D1*
X611114D1*
X607089Y2432239D1*
X554541Y2432314D1*
X550807Y2432904D1*
X547211Y2434073D1*
X543843Y2435790D1*
X540783Y2438012D1*
X526835Y2451854D1*
X524375Y2454736D1*
X833576Y2455059D2*
X759030D1*
X760615Y2451278D1*
X761499Y2447601D1*
X761795Y2443824D1*
Y2430429D1*
X855049Y2430423D1*
X851923Y2433051D1*
X838142Y2446936D1*
X835919Y2449995D1*
X834201Y2453370D1*
X218896Y2630816D2*
Y2494092D1*
X169235Y2562454D2*
X268558D1*
X181392Y2487486D2*
Y2443730D1*
X133699D2*
X181392D1*
X662693Y2306328D2*
Y2248793D1*
X605157Y2306328D2*
X720228D1*
X1205088Y1831369D2*
X1262623D1*
X1031274Y2254062D2*
Y2206369D1*
X1075031D1*
X600025Y2166562D2*
Y2071176D1*
Y2118869D2*
X643781D1*
X181392Y2248094D2*
Y2164520D1*
X139605Y2206307D2*
X223180D1*
X662693Y2073076D2*
Y1989501D1*
X620906Y2031289D2*
X704480D1*
X1143993Y2248094D2*
Y2164520D1*
X1102206Y2206307D2*
X1185781D1*
X393873Y2357555D2*
Y2300020D1*
X363896D2*
X393873D1*
X781373Y2357555D2*
Y2242483D1*
X751396Y2300020D2*
X781373D1*
X7097Y1669915D2*
X38369D1*
X136626D2*
X1188374D1*
X1286633D2*
X1317904D1*
X7097Y1658235D2*
X24711D1*
X150282D2*
X428571D1*
X546045D2*
X778957D1*
X972509D2*
X986919D1*
X1063076D2*
X1077484D1*
X1153619D2*
X1174718D1*
X1300289D2*
X1317904D1*
X7097Y1646555D2*
X15451D1*
X159533D2*
X428571D1*
X546045D2*
X778957D1*
X972509D2*
X986919D1*
X1063076D2*
X1077484D1*
X1153619D2*
X1165467D1*
X1309539D2*
X1317904D1*
X165946Y1634875D2*
X428571D1*
X546045D2*
X778957D1*
X972509D2*
X986919D1*
X1063076D2*
X1077484D1*
X1153619D2*
X1159060D1*
X170214Y1623196D2*
X428571D1*
X546045D2*
X778957D1*
X972509D2*
X986919D1*
X1063076D2*
X1077484D1*
X172682Y1611516D2*
X428571D1*
X546045D2*
X778957D1*
X972509D2*
X986919D1*
X1063076D2*
X1077484D1*
X173466Y1599836D2*
X428571D1*
X546045D2*
X778957D1*
X972509D2*
X986919D1*
X1063076D2*
X1077484D1*
X172635Y1588156D2*
X428571D1*
X546045D2*
X778957D1*
X972509D2*
X986919D1*
X1063076D2*
X1077484D1*
X170121Y1576476D2*
X428571D1*
X546045D2*
X778957D1*
X972509D2*
X986919D1*
X1063076D2*
X1077484D1*
X165807Y1564797D2*
X428571D1*
X546045D2*
X778957D1*
X972509D2*
X986919D1*
X1063076D2*
X1077484D1*
X1153619D2*
X1159189D1*
X7097Y1553117D2*
X15681D1*
X159325D2*
X428571D1*
X546045D2*
X778957D1*
X972509D2*
X986919D1*
X1063076D2*
X1077484D1*
X1153619D2*
X1165676D1*
X1309308D2*
X1317904D1*
X7097Y1541437D2*
X25012D1*
X149983D2*
X428571D1*
X546045D2*
X778957D1*
X972509D2*
X986919D1*
X1063076D2*
X1077484D1*
X1153619D2*
X1175018D1*
X1299988D2*
X1317904D1*
X7097Y1529757D2*
X38853D1*
X136142D2*
X428571D1*
X546045D2*
X778957D1*
X896430D2*
X905232D1*
X963651D2*
X995777D1*
X1054218D2*
X1188860D1*
X1286148D2*
X1317904D1*
X7097Y1518077D2*
X64505D1*
X110490D2*
X905232D1*
X963651D2*
X995777D1*
X1054218D2*
X1214510D1*
X1260496D2*
X1317904D1*
X7097Y1506398D2*
X550556D1*
X601177D2*
X723777D1*
X774421D2*
X905232D1*
X963651D2*
X995777D1*
X1054218D2*
X1317904D1*
X7097Y1494718D2*
X541260D1*
X610474D2*
X714480D1*
X783718D2*
X905232D1*
X963651D2*
X995777D1*
X1054218D2*
X1317904D1*
X7097Y1483038D2*
X537546D1*
X614188D2*
X710766D1*
X787432D2*
X905232D1*
X963651D2*
X995777D1*
X1054218D2*
X1317904D1*
X7097Y1471358D2*
X537684D1*
X614050D2*
X710904D1*
X787270D2*
X905232D1*
X963651D2*
X995777D1*
X1054218D2*
X1317904D1*
X7097Y1459678D2*
X541744D1*
X609990D2*
X714965D1*
X783234D2*
X905232D1*
X963651D2*
X995777D1*
X1054218D2*
X1317904D1*
X7097Y1447999D2*
X551686D1*
X600047D2*
X724907D1*
X773268D2*
X905232D1*
X963651D2*
X995777D1*
X1054218D2*
X1317904D1*
X7097Y1436319D2*
X428571D1*
X546045D2*
X570303D1*
X754698D2*
X778957D1*
X896430D2*
X905232D1*
X963651D2*
X995777D1*
X1054218D2*
X1317904D1*
X7097Y1424639D2*
X428571D1*
X546045D2*
X570303D1*
X754698D2*
X778957D1*
X896430D2*
X905232D1*
X1108336D2*
X1317904D1*
X7097Y1412959D2*
X428571D1*
X546045D2*
X570303D1*
X754698D2*
X778957D1*
X896430D2*
X905232D1*
X1108336D2*
X1317904D1*
X7097Y1401280D2*
X428571D1*
X546045D2*
X570303D1*
X754698D2*
X778957D1*
X896430D2*
X905232D1*
X1108336D2*
X1317904D1*
X7097Y1389600D2*
X428571D1*
X546045D2*
X570303D1*
X754698D2*
X778957D1*
X896430D2*
X905232D1*
X1108336D2*
X1317904D1*
X7097Y1377920D2*
X428571D1*
X546045D2*
X570303D1*
X754698D2*
X778957D1*
X896430D2*
X905232D1*
X1108336D2*
X1317904D1*
X7097Y1366240D2*
X428571D1*
X546045D2*
X570303D1*
X754698D2*
X778957D1*
X896430D2*
X905232D1*
X1108336D2*
X1317904D1*
X7097Y1354560D2*
X428571D1*
X546045D2*
X570303D1*
X754698D2*
X778957D1*
X896430D2*
X905232D1*
X1108336D2*
X1317904D1*
X7097Y1342881D2*
X428571D1*
X546045D2*
X570303D1*
X754698D2*
X778957D1*
X896430D2*
X905232D1*
X1108336D2*
X1317904D1*
X7097Y1331201D2*
X428571D1*
X546045D2*
X570303D1*
X896430D2*
X905232D1*
X1144853D2*
X1317904D1*
X7097Y1319521D2*
X428571D1*
X546045D2*
X570303D1*
X1144853D2*
X1317904D1*
X7097Y1307841D2*
X637224D1*
X1144853D2*
X1317904D1*
X7097Y1296161D2*
X637224D1*
X1144853D2*
X1317904D1*
X7097Y1284482D2*
X637224D1*
X1144853D2*
X1317904D1*
X7097Y1272802D2*
X38714D1*
X86290D2*
X219986D1*
X267562D2*
X637224D1*
X1144853D2*
X1238848D1*
X1286424D2*
X1317904D1*
X7097Y1261122D2*
X26741D1*
X98264D2*
X208013D1*
X279534D2*
X637224D1*
X1144853D2*
X1226853D1*
X1298396D2*
X1317904D1*
X7097Y1249442D2*
X21206D1*
X103799D2*
X202476D1*
X285071D2*
X637224D1*
X1144853D2*
X1221340D1*
X1303911D2*
X1317904D1*
X7097Y1237762D2*
X19521D1*
X105507D2*
X200793D1*
X286755D2*
X637224D1*
X999339D2*
X1219633D1*
X1305617D2*
X1317904D1*
X7097Y1226083D2*
X21136D1*
X103869D2*
X202408D1*
X285140D2*
X637224D1*
X997723D2*
X1221270D1*
X1304003D2*
X1317904D1*
X7097Y1214403D2*
X26558D1*
X98448D2*
X207829D1*
X279719D2*
X637224D1*
X992302D2*
X1226692D1*
X1298581D2*
X1317904D1*
X7097Y1202723D2*
X38299D1*
X86706D2*
X214564D1*
X272983D2*
X637224D1*
X868840D2*
X932154D1*
X980538D2*
X1238433D1*
X1286840D2*
X1317904D1*
X121239Y1191043D2*
X214564D1*
X272983D2*
X637224D1*
X887987D2*
X1203761D1*
X121239Y1179364D2*
X174218D1*
X451140D2*
X637224D1*
X895692D2*
X1203761D1*
X121239Y1167684D2*
X174218D1*
X451140D2*
X637224D1*
X898921D2*
X1203761D1*
X121239Y1156004D2*
X174218D1*
X451140D2*
X637224D1*
X898736D2*
X1203761D1*
X121239Y1144324D2*
X174218D1*
X451140D2*
X637224D1*
X895092D2*
X1203761D1*
X121239Y1132644D2*
X174218D1*
X451140D2*
X465965D1*
X886696D2*
X1203761D1*
X121239Y1120965D2*
X174218D1*
X451140D2*
X465965D1*
X908010D2*
X1203761D1*
X121239Y1109285D2*
X174218D1*
X451140D2*
X465965D1*
X925958D2*
X1203761D1*
X121239Y1097605D2*
X174218D1*
X451140D2*
X465965D1*
X933408D2*
X1203761D1*
X121239Y1085925D2*
X465965D1*
X936476D2*
X1203761D1*
X107975Y1074245D2*
X222454D1*
X265094D2*
X384971D1*
X427610D2*
X465965D1*
X936154D2*
X1217025D1*
X145092Y1062566D2*
X209051D1*
X278496D2*
X371568D1*
X441013D2*
X465965D1*
X932324D2*
X1209505D1*
X158818Y1050886D2*
X202938D1*
X284610D2*
X365455D1*
X447127D2*
X465965D1*
X575572D2*
X621745D1*
X1190829D2*
X1205329D1*
X169176Y1039206D2*
X200816D1*
X286732D2*
X363333D1*
X449249D2*
X465965D1*
X575572D2*
X619600D1*
X172866Y1027526D2*
X202016D1*
X285533D2*
X364533D1*
X448050D2*
X465965D1*
X172982Y1015846D2*
X206883D1*
X280665D2*
X369400D1*
X443182D2*
X465965D1*
X7097Y1004167D2*
X14391D1*
X172982D2*
X214564D1*
X272983D2*
X380012D1*
X432571D2*
X465965D1*
X1310600D2*
X1317904D1*
X7097Y992487D2*
X25450D1*
X172982D2*
X214564D1*
X272983D2*
X465965D1*
X1299550D2*
X1317904D1*
X7097Y980807D2*
X23396D1*
X451140D2*
X465965D1*
X1301604D2*
X1317904D1*
X7097Y969127D2*
X13239D1*
X451140D2*
X465965D1*
X735597D2*
X749429D1*
X1311777D2*
X1317904D1*
X451140Y957448D2*
X465965D1*
X575572D2*
X749429D1*
X859037D2*
X1112341D1*
X451140Y945768D2*
X465965D1*
X689206D2*
X749429D1*
X859037D2*
X1112341D1*
X451140Y934088D2*
X465965D1*
X699610D2*
X749429D1*
X859037D2*
X1112341D1*
X451140Y922408D2*
X465965D1*
X704386D2*
X749429D1*
X1100562D2*
X1112341D1*
X451140Y910728D2*
X465965D1*
X705516D2*
X749429D1*
X7097Y899049D2*
X18483D1*
X451140D2*
X465965D1*
X703302D2*
X749429D1*
X1306517D2*
X1317904D1*
X7097Y887369D2*
X32579D1*
X172982D2*
X465965D1*
X697096D2*
X749429D1*
X1292423D2*
X1317904D1*
X7097Y875689D2*
X18253D1*
X172982D2*
X465965D1*
X1306748D2*
X1317904D1*
X172982Y864009D2*
X465965D1*
X172982Y852329D2*
X465965D1*
X172982Y840650D2*
X465965D1*
X650336D2*
X655495D1*
X172982Y828970D2*
X465965D1*
X650336D2*
X749429D1*
X172982Y817290D2*
X465965D1*
X650336D2*
X749429D1*
X7097Y805610D2*
X13377D1*
X172982D2*
X465965D1*
X650336D2*
X749429D1*
X1311592D2*
X1317904D1*
X7097Y793930D2*
X23697D1*
X172982D2*
X465965D1*
X1301303D2*
X1317904D1*
X7097Y782251D2*
X25127D1*
X172982D2*
X465965D1*
X1299873D2*
X1317904D1*
X7097Y770571D2*
X14206D1*
X208138D2*
X285661D1*
X339398D2*
X465965D1*
X1310785D2*
X1317904D1*
X218427Y758891D2*
X275373D1*
X349686D2*
X465965D1*
X223133Y747211D2*
X270667D1*
X354391D2*
X574778D1*
X675343D2*
X893560D1*
X224217Y735531D2*
X269583D1*
X355476D2*
X574778D1*
X675343D2*
X895037D1*
X221933Y723852D2*
X271866D1*
X353215D2*
X574778D1*
X675343D2*
X903572D1*
X215659Y712172D2*
X278142D1*
X346917D2*
X574778D1*
X675343D2*
X915545D1*
X7097Y700492D2*
X17238D1*
X201772D2*
X292029D1*
X333030D2*
X574778D1*
X1307762D2*
X1317904D1*
X7097Y688812D2*
X30617D1*
X172982D2*
X574778D1*
X1294383D2*
X1317904D1*
X7097Y677133D2*
X19568D1*
X172982D2*
X504119D1*
X533495D2*
X574778D1*
X1305409D2*
X1317904D1*
X7097Y665453D2*
X10980D1*
X172982D2*
X486472D1*
X551142D2*
X574778D1*
X1067367D2*
X1095617D1*
X1313991D2*
X1317913D1*
X172982Y653773D2*
X479091D1*
X700349D2*
X766615D1*
X1106652D2*
X1137348D1*
X172982Y642093D2*
X476068D1*
X700349D2*
X763593D1*
X1118348D2*
X1137348D1*
X172982Y630413D2*
X476437D1*
X700349D2*
X763962D1*
X1124692D2*
X1137348D1*
X172982Y618734D2*
X480290D1*
X700349D2*
X767815D1*
X1125269D2*
X1137348D1*
X7097Y607054D2*
X12455D1*
X172982D2*
X489033D1*
X548581D2*
X599785D1*
X700349D2*
X776558D1*
X836106D2*
X1074717D1*
X1125269D2*
X1137348D1*
X1312538D2*
X1317909D1*
X7097Y595374D2*
X22083D1*
X172982D2*
X599785D1*
X700349D2*
X1074717D1*
X1125269D2*
X1137348D1*
X1302895D2*
X1317904D1*
X7097Y583694D2*
X26972D1*
X172982D2*
X599785D1*
X700349D2*
X1074717D1*
X1125269D2*
X1137348D1*
X1298028D2*
X1317904D1*
X7097Y572014D2*
X15266D1*
X172982D2*
X493946D1*
X543668D2*
X599785D1*
X700349D2*
X781471D1*
X831193D2*
X1074717D1*
X1125269D2*
X1137348D1*
X1309747D2*
X1317904D1*
X172982Y560335D2*
X482550D1*
X700349D2*
X770098D1*
X1009142D2*
X1074717D1*
X1125269D2*
X1137348D1*
X172982Y548655D2*
X477314D1*
X700349D2*
X764839D1*
X1024252D2*
X1074717D1*
X1125269D2*
X1137348D1*
X172982Y536975D2*
X475815D1*
X700349D2*
X763339D1*
X1034678D2*
X1074717D1*
X1125269D2*
X1138339D1*
X172982Y525295D2*
X477660D1*
X700349D2*
X765185D1*
X172982Y513615D2*
X483335D1*
X616472D2*
X624781D1*
X700349D2*
X770882D1*
X1148891D2*
X1157555D1*
X7097Y501936D2*
X16050D1*
X172982D2*
X495723D1*
X541869D2*
X624790D1*
X700349D2*
X783247D1*
X829416D2*
X876190D1*
X1148891D2*
X1162353D1*
X1308940D2*
X1317904D1*
X7097Y490256D2*
X28427D1*
X172982D2*
X624790D1*
X700349D2*
X876190D1*
X1148891D2*
X1162353D1*
X1296551D2*
X1317904D1*
X7097Y478576D2*
X20997D1*
X172982D2*
X624790D1*
X700349D2*
X876190D1*
X1148891D2*
X1162353D1*
X1304003D2*
X1317904D1*
X7097Y466896D2*
X11810D1*
X172982D2*
X624790D1*
X700349D2*
X876190D1*
X1148891D2*
X1162353D1*
X1313160D2*
X1317900D1*
X172982Y455217D2*
X624790D1*
X700349D2*
X876190D1*
X1148891D2*
X1162353D1*
X172982Y443537D2*
X624790D1*
X700349D2*
X876190D1*
X1148891D2*
X1163253D1*
X172982Y431857D2*
X624790D1*
X700349D2*
X876190D1*
X1148891D2*
X1170566D1*
X172982Y420177D2*
X624790D1*
X700349D2*
X876190D1*
X1148891D2*
X1182239D1*
X7097Y408497D2*
X11579D1*
X172982D2*
X624790D1*
X700349D2*
X876190D1*
X1148891D2*
X1211605D1*
X1313391D2*
X1317896D1*
X7097Y396818D2*
X20606D1*
X172982D2*
X624790D1*
X700349D2*
X876190D1*
X1148891D2*
X1220601D1*
X1304395D2*
X1317904D1*
X7097Y385138D2*
X29003D1*
X172982D2*
X624790D1*
X700349D2*
X876190D1*
X1148891D2*
X1229021D1*
X1295975D2*
X1317904D1*
X7097Y373458D2*
X16373D1*
X172982D2*
X624790D1*
X700349D2*
X876190D1*
X1148891D2*
X1216379D1*
X1308617D2*
X1317904D1*
X172982Y361778D2*
X624790D1*
X700349D2*
X899812D1*
X950364D2*
X987218D1*
X1037770D2*
X1074717D1*
X1125269D2*
X1209136D1*
X172982Y350098D2*
X261671D1*
X363388D2*
X624790D1*
X700349D2*
X899812D1*
X950364D2*
X987218D1*
X1037770D2*
X1074717D1*
X1125269D2*
X1205146D1*
X172982Y338419D2*
X261671D1*
X363388D2*
X624790D1*
X700349D2*
X899812D1*
X950364D2*
X987218D1*
X1037770D2*
X1074717D1*
X1125269D2*
X1203761D1*
X172982Y326739D2*
X261671D1*
X363388D2*
X624790D1*
X700349D2*
X899812D1*
X950364D2*
X987218D1*
X1037770D2*
X1074717D1*
X1125269D2*
X1204776D1*
X172982Y315059D2*
X261671D1*
X363388D2*
X624790D1*
X700349D2*
X899812D1*
X950364D2*
X987218D1*
X1037770D2*
X1074717D1*
X1125269D2*
X1208306D1*
X7097Y303379D2*
X14944D1*
X172982D2*
X219133D1*
X405950D2*
X624790D1*
X700349D2*
X899812D1*
X950364D2*
X987218D1*
X1037770D2*
X1074717D1*
X1125269D2*
X1214972D1*
X1310046D2*
X1317904D1*
X7097Y291699D2*
X26465D1*
X172982D2*
X207621D1*
X417437D2*
X624790D1*
X700349D2*
X899812D1*
X950364D2*
X987218D1*
X1037770D2*
X1074717D1*
X1125269D2*
X1226461D1*
X1298535D2*
X1317904D1*
X7097Y280020D2*
X22521D1*
X172982D2*
X202315D1*
X422743D2*
X624790D1*
X700349D2*
X899812D1*
X950364D2*
X987218D1*
X1037770D2*
X1074717D1*
X1125269D2*
X1222516D1*
X1302480D2*
X1317904D1*
X7097Y268340D2*
X12731D1*
X172982D2*
X200793D1*
X424289D2*
X624790D1*
X700349D2*
X899812D1*
X950364D2*
X987218D1*
X1037770D2*
X1074717D1*
X1125269D2*
X1212711D1*
X1312285D2*
X1317917D1*
X172982Y256660D2*
X202570D1*
X422490D2*
X624790D1*
X700349D2*
X899812D1*
X950364D2*
X987218D1*
X1037770D2*
X1074717D1*
X1125269D2*
X1207037D1*
X172982Y244980D2*
X208220D1*
X416837D2*
X624790D1*
X700349D2*
X899812D1*
X950364D2*
X987218D1*
X1037770D2*
X1074717D1*
X1125269D2*
X1204245D1*
X172982Y233301D2*
X220470D1*
X404588D2*
X624790D1*
X700349D2*
X899812D1*
X950364D2*
X987218D1*
X1037770D2*
X1074717D1*
X1125269D2*
X1203923D1*
X191875Y221621D2*
X261671D1*
X363388D2*
X453831D1*
X571304D2*
X577615D1*
X747524D2*
X777596D1*
X847525D2*
X899812D1*
X950364D2*
X987218D1*
X1037770D2*
X1074717D1*
X1125269D2*
X1205999D1*
X7097Y209941D2*
X10795D1*
X212175D2*
X261671D1*
X363388D2*
X453831D1*
X759496D2*
X765634D1*
X859497D2*
X899812D1*
X950364D2*
X987218D1*
X1037770D2*
X1074717D1*
X1125269D2*
X1210774D1*
X1314222D2*
X1317923D1*
X7097Y198261D2*
X19198D1*
X105783D2*
X115717D1*
X223501D2*
X261671D1*
X363388D2*
X420705D1*
X866395D2*
X899812D1*
X950364D2*
X987218D1*
X1037770D2*
X1074717D1*
X1125269D2*
X1219194D1*
X1305802D2*
X1317904D1*
X7097Y186581D2*
X34470D1*
X90512D2*
X122638D1*
X228715D2*
X408294D1*
X870133D2*
X899812D1*
X950364D2*
X987218D1*
X1037770D2*
X1074717D1*
X1125269D2*
X1234465D1*
X1290530D2*
X1317904D1*
X7097Y174902D2*
X134310D1*
X229223D2*
X398720D1*
X871308D2*
X899812D1*
X950364D2*
X987218D1*
X1037770D2*
X1074717D1*
X1125269D2*
X1317904D1*
X7097Y163222D2*
X48196D1*
X126799D2*
X170804D1*
X229223D2*
X395836D1*
X870085D2*
X876178D1*
X1148891D2*
X1198318D1*
X1276944D2*
X1317904D1*
X7097Y151542D2*
X30778D1*
X144239D2*
X170804D1*
X229223D2*
X261671D1*
X363388D2*
X395836D1*
X866303D2*
X876190D1*
X1148891D2*
X1180900D1*
X1294360D2*
X1317904D1*
X7097Y139862D2*
X19636D1*
X155357D2*
X170804D1*
X229223D2*
X261671D1*
X363388D2*
X395836D1*
X659333D2*
X665801D1*
X759335D2*
X765806D1*
X859336D2*
X876190D1*
X1148891D2*
X1169759D1*
X1305479D2*
X1317904D1*
X7097Y128182D2*
X11948D1*
X163062D2*
X170804D1*
X229223D2*
X261671D1*
X363388D2*
X395836D1*
X571304D2*
X577938D1*
X647199D2*
X677917D1*
X747201D2*
X777919D1*
X847202D2*
X876190D1*
X1148891D2*
X1162076D1*
X1313184D2*
X1317908D1*
X229223Y116503D2*
X261671D1*
X363388D2*
X395836D1*
X454255D2*
X487280D1*
X537832D2*
X876190D1*
X1148891D2*
X1156794D1*
X454255Y104823D2*
X487280D1*
X537832D2*
X876190D1*
X1148891D2*
X1153455D1*
X454255Y93143D2*
X487280D1*
X537832D2*
X876190D1*
X451417Y81463D2*
X487280D1*
X537832D2*
X876190D1*
X171575Y69783D2*
X183169D1*
X441890D2*
X487280D1*
X1148891D2*
X1153531D1*
X168206Y58104D2*
X194865D1*
X430194D2*
X487672D1*
X1148891D2*
X1156932D1*
X7097Y46424D2*
X12178D1*
X162832D2*
X261671D1*
X363388D2*
X493438D1*
X1148891D2*
X1162285D1*
X1312976D2*
X1317923D1*
X7097Y34744D2*
X19959D1*
X155034D2*
X261671D1*
X363388D2*
X505066D1*
X1148891D2*
X1170081D1*
X1305156D2*
X1317904D1*
X7097Y23064D2*
X31217D1*
X143777D2*
X261671D1*
X363388D2*
X876190D1*
X1148891D2*
X1181362D1*
X1293899D2*
X1317904D1*
X7097Y11385D2*
X48980D1*
X126014D2*
X261671D1*
X363388D2*
X876190D1*
X1148891D2*
X1199125D1*
X1276113D2*
X1317904D1*
X181294Y1187303D2*
X215735D1*
X215743Y1206615D1*
X211980Y1210475D1*
X208125Y1215782D1*
X205146Y1221629D1*
X203118Y1227867D1*
X202092Y1234348D1*
Y1240909D1*
X203118Y1247390D1*
X205146Y1253629D1*
X208125Y1259475D1*
X211980Y1264782D1*
X216621Y1269423D1*
X221928Y1273278D1*
X227774Y1276257D1*
X234013Y1278285D1*
X240493Y1279311D1*
X247055D1*
X253535Y1278285D1*
X259774Y1276257D1*
X265621Y1273278D1*
X270928Y1269423D1*
X275568Y1264782D1*
X279424Y1259475D1*
X282403Y1253629D1*
X284430Y1247390D1*
X285457Y1240909D1*
Y1234348D1*
X284430Y1227867D1*
X282403Y1221629D1*
X279424Y1215782D1*
X275568Y1210475D1*
X271804Y1206644D1*
X271806Y1187316D1*
X312160Y1187303D1*
Y1087933D1*
X175388D1*
Y1187303D1*
X181294D1*
X314365D2*
X449955D1*
Y1087933D1*
X313184D1*
Y1187303D1*
X314365D1*
X181294Y987282D2*
X215735D1*
X215743Y1006594D1*
X211980Y1010454D1*
X208125Y1015761D1*
X205146Y1021608D1*
X203118Y1027846D1*
X202092Y1034327D1*
Y1040888D1*
X203118Y1047369D1*
X205146Y1053608D1*
X208125Y1059454D1*
X211980Y1064761D1*
X216621Y1069402D1*
X221928Y1073257D1*
X227774Y1076236D1*
X234013Y1078264D1*
X240493Y1079290D1*
X247055D1*
X253535Y1078264D1*
X259774Y1076236D1*
X265621Y1073257D1*
X270928Y1069402D1*
X275568Y1064761D1*
X279424Y1059454D1*
X282403Y1053608D1*
X284430Y1047369D1*
X285457Y1040888D1*
Y1034327D1*
X284430Y1027846D1*
X282403Y1021608D1*
X279424Y1015761D1*
X275568Y1010454D1*
X271804Y1006623D1*
X271806Y987295D1*
X312160Y987282D1*
Y887912D1*
X175388D1*
Y987282D1*
X181294D1*
X314365D2*
X449955D1*
Y887912D1*
X313184D1*
Y987282D1*
X314365D1*
X754504Y1335215D2*
X780156D1*
X780136Y1446633D1*
X895255D1*
Y1327835D1*
X899707Y1328795D1*
X906248Y1329310D1*
X906415Y1329303D1*
X906377Y1541160D1*
X897558D1*
Y1662184D1*
X971337D1*
Y1541160D1*
X962457D1*
X962479Y1433849D1*
X996975Y1433837D1*
X996928Y1541160D1*
X988109D1*
Y1662184D1*
X1061888D1*
Y1541160D1*
X1053008D1*
X1053030Y1433849D1*
X1107164Y1433837D1*
Y1335219D1*
X1143680Y1335215D1*
Y1239782D1*
X998126D1*
X998031Y1234348D1*
X997005Y1227867D1*
X994978Y1221629D1*
X991999Y1215782D1*
X988143Y1210475D1*
X983503Y1205835D1*
X978196Y1201979D1*
X972349Y1199000D1*
X966110Y1196972D1*
X959630Y1195946D1*
X953068D1*
X946588Y1196972D1*
X940349Y1199000D1*
X934503Y1201979D1*
X929196Y1205835D1*
X924555Y1210475D1*
X920699Y1215782D1*
X919703Y1217562D1*
X911974Y1209955D1*
X908416Y1207370D1*
X904496Y1205373D1*
X900312Y1204013D1*
X895969Y1203325D1*
X870147Y1203239D1*
X866009Y1203155D1*
X872248Y1201127D1*
X878094Y1198148D1*
X883402Y1194293D1*
X888042Y1189652D1*
X891898Y1184345D1*
X894877Y1178499D1*
X896904Y1172260D1*
X897930Y1165780D1*
Y1159218D1*
X896904Y1152738D1*
X894877Y1146499D1*
X891898Y1140652D1*
X888042Y1135345D1*
X883402Y1130705D1*
X880344Y1128352D1*
Y1120850D1*
X883988Y1121907D1*
X890469Y1122933D1*
X897030D1*
X903510Y1121907D1*
X909749Y1119879D1*
X915596Y1116900D1*
X920903Y1113045D1*
X925543Y1108404D1*
X929399Y1103097D1*
X932378Y1097251D1*
X934406Y1091012D1*
X935432Y1084531D1*
Y1077970D1*
X934406Y1071490D1*
X932378Y1065251D1*
X929399Y1059404D1*
X928067Y1057411D1*
X1175054Y1057336D1*
X1178787Y1056745D1*
X1182383Y1055576D1*
X1185752Y1053861D1*
X1188811Y1051638D1*
X1204665Y1035887D1*
X1204940Y1037499D1*
X1205117Y1042014D1*
X1205648Y1046503D1*
X1206530Y1050936D1*
X1207757Y1055285D1*
X1209322Y1059525D1*
X1211213Y1063630D1*
X1213421Y1067573D1*
X1215933Y1071331D1*
X1218731Y1074881D1*
X1223678Y1079937D1*
X1204940Y1079940D1*
Y1195058D1*
X1319091D1*
X1319007Y1576682D1*
X1317186Y1571066D1*
X1314979Y1565589D1*
X1312396Y1560281D1*
X1309450Y1555164D1*
X1306155Y1550264D1*
X1302526Y1545606D1*
X1298583Y1541213D1*
X1294343Y1537104D1*
X1289827Y1533299D1*
X1285058Y1529819D1*
X1280058Y1526678D1*
X1274852Y1523895D1*
X1269463Y1521479D1*
X1263920Y1519445D1*
X1258249Y1517802D1*
X1252478Y1516556D1*
X1246634Y1515717D1*
X1240745Y1515285D1*
X1234841Y1515265D1*
X1228950Y1515655D1*
X1223100Y1516455D1*
X1217320Y1517660D1*
X1211638Y1519264D1*
X1206080Y1521260D1*
X1200676Y1523638D1*
X1195450Y1526386D1*
X1190429Y1529492D1*
X1185635Y1532938D1*
X1181093Y1536711D1*
X1176825Y1540791D1*
X1172852Y1545157D1*
X1169190Y1549790D1*
X1165862Y1554667D1*
X1162881Y1559762D1*
X1160261Y1565054D1*
X1158016Y1570516D1*
X1156156Y1576119D1*
X1154692Y1581839D1*
X1153629Y1587647D1*
X1152971Y1593514D1*
X1152726Y1599413D1*
X1152890Y1605315D1*
X1153465Y1611192D1*
X1154448Y1617013D1*
X1155833Y1622753D1*
X1157615Y1628382D1*
X1159785Y1633874D1*
X1162331Y1639201D1*
X1165241Y1644337D1*
X1168503Y1649260D1*
X1172098Y1653942D1*
X1176012Y1658364D1*
X1180223Y1662503D1*
X1184713Y1666337D1*
X1189458Y1669850D1*
X1194436Y1673025D1*
X1199623Y1675845D1*
X1204995Y1678298D1*
X1210522Y1680370D1*
X1214657Y1681600D1*
X110517Y1681594D1*
X118374Y1678955D1*
X123794Y1676614D1*
X129039Y1673903D1*
X134083Y1670832D1*
X138899Y1667419D1*
X143467Y1663677D1*
X147764Y1659627D1*
X151768Y1655289D1*
X155461Y1650681D1*
X158823Y1645828D1*
X161840Y1640752D1*
X164496Y1635479D1*
X166778Y1630034D1*
X168677Y1624444D1*
X170181Y1618734D1*
X171285Y1612933D1*
X171982Y1607071D1*
X172277Y1600000D1*
X172071Y1594100D1*
X171455Y1588227D1*
X170433Y1582412D1*
X169007Y1576682D1*
X167186Y1571066D1*
X164979Y1565589D1*
X162396Y1560281D1*
X159450Y1555164D1*
X156155Y1550264D1*
X152526Y1545606D1*
X148583Y1541213D1*
X144343Y1537104D1*
X139827Y1533299D1*
X135058Y1529819D1*
X130058Y1526678D1*
X124852Y1523895D1*
X119463Y1521479D1*
X113920Y1519445D1*
X108249Y1517802D1*
X102478Y1516556D1*
X96634Y1515717D1*
X90745Y1515285D1*
X84841Y1515265D1*
X78950Y1515655D1*
X73100Y1516455D1*
X67320Y1517660D1*
X61638Y1519264D1*
X56080Y1521260D1*
X50676Y1523638D1*
X45450Y1526386D1*
X40429Y1529492D1*
X35635Y1532938D1*
X31093Y1536711D1*
X26825Y1540791D1*
X22852Y1545157D1*
X19190Y1549790D1*
X15862Y1554667D1*
X12881Y1559762D1*
X10261Y1565054D1*
X8016Y1570516D1*
X5909Y1577080D1*
X5906Y1195059D1*
X120058Y1195058D1*
Y1079940D1*
X101395D1*
X106266Y1074881D1*
X109064Y1071331D1*
X112723Y1065525D1*
X133571Y1065444D1*
X137915Y1064756D1*
X142098Y1063396D1*
X146018Y1061399D1*
X149576Y1058814D1*
X163585Y1044928D1*
X166442Y1041583D1*
X168740Y1037832D1*
X170424Y1033769D1*
X171450Y1029491D1*
X171795Y1025106D1*
Y778298D1*
X177987Y779259D1*
X184549D1*
X191029Y778232D1*
X197268Y776205D1*
X203114Y773226D1*
X208421Y769370D1*
X213062Y764730D1*
X216917Y759423D1*
X219896Y753576D1*
X221924Y747337D1*
X222950Y740857D1*
Y734295D1*
X221924Y727815D1*
X219896Y721576D1*
X216917Y715730D1*
X213062Y710423D1*
X208421Y705782D1*
X203114Y701927D1*
X197268Y698948D1*
X191029Y696920D1*
X184549Y695894D1*
X177987D1*
X171797Y696862D1*
X171795Y221790D1*
X189718Y221714D1*
X194062Y221026D1*
X198245Y219667D1*
X202165Y217669D1*
X205723Y215084D1*
X219841Y201089D1*
X222698Y197744D1*
X224996Y193993D1*
X226680Y189930D1*
X227706Y185652D1*
X228051Y181268D1*
Y106596D1*
X262854Y106592D1*
X262846Y158757D1*
X362217D1*
Y106600D1*
X397031Y106592D1*
X397098Y164715D1*
X397786Y169059D1*
X399146Y173243D1*
X401143Y177163D1*
X403728Y180720D1*
X417723Y194839D1*
X421068Y197696D1*
X424819Y199993D1*
X428882Y201677D1*
X433160Y202703D1*
X437545Y203049D1*
X455008D1*
X455009Y232576D1*
X570127D1*
Y213913D1*
X575186Y218785D1*
X578736Y221583D1*
X582493Y224094D1*
X586437Y226303D1*
X590542Y228194D1*
X594782Y229759D1*
X599131Y230986D1*
X603564Y231867D1*
X608052Y232399D1*
X612568Y232576D1*
X617084Y232399D1*
X621572Y231867D1*
X625988Y230990D1*
X625974Y517551D1*
X623501Y516087D1*
X620009Y514639D1*
X616332Y513757D1*
X612563Y513461D1*
X552978D1*
X550597Y510402D1*
X545957Y505761D1*
X540650Y501906D1*
X534803Y498927D1*
X528564Y496899D1*
X522084Y495873D1*
X515522D1*
X509042Y496899D1*
X502803Y498927D1*
X496957Y501906D1*
X491650Y505761D1*
X487009Y510402D1*
X483154Y515709D1*
X480175Y521555D1*
X478147Y527794D1*
X477121Y534274D1*
Y540836D1*
X478147Y547316D1*
X480175Y553555D1*
X483154Y559402D1*
X487009Y564709D1*
X491650Y569349D1*
X496957Y573205D1*
X502803Y576184D1*
X509042Y578211D1*
X515522Y579238D1*
X522084D1*
X528564Y578211D1*
X534803Y576184D1*
X540650Y573205D1*
X545957Y569349D1*
X550597Y564709D1*
X552950Y561651D1*
X600950Y561650D1*
X600970Y617531D1*
X596781Y615306D1*
X593185Y614136D1*
X589451Y613546D1*
X558033Y613471D1*
X552980D1*
X550597Y610412D1*
X545957Y605772D1*
X540650Y601916D1*
X534803Y598937D1*
X528564Y596909D1*
X522084Y595883D1*
X515522D1*
X509042Y596909D1*
X502803Y598937D1*
X496957Y601916D1*
X491650Y605772D1*
X487009Y610412D1*
X483154Y615719D1*
X480175Y621566D1*
X478147Y627804D1*
X477121Y634285D1*
Y640846D1*
X478147Y647327D1*
X480175Y653566D1*
X483154Y659412D1*
X487009Y664719D1*
X491650Y669360D1*
X496957Y673215D1*
X502803Y676194D1*
X509042Y678222D1*
X515522Y679248D1*
X522084D1*
X528564Y678222D1*
X534803Y676194D1*
X540650Y673215D1*
X545957Y669360D1*
X550597Y664719D1*
X552950Y661661D1*
X575990Y661660D1*
X575967Y881282D1*
X574392Y876308D1*
Y751348D1*
X467148D1*
X467140Y1136151D1*
X574385D1*
Y1134190D1*
X638388Y1134182D1*
X638404Y1311839D1*
X571475Y1311829D1*
Y1438759D1*
X753522D1*
X753664Y1336075D1*
X754529Y1335210D1*
X362217Y50543D2*
Y5883D1*
X1214665Y5904D1*
X1206209Y8768D1*
X1200804Y11146D1*
X1195579Y13894D1*
X1190558Y17000D1*
X1185764Y20446D1*
X1181222Y24219D1*
X1176954Y28299D1*
X1172980Y32665D1*
X1169319Y37298D1*
X1165991Y42175D1*
X1163009Y47270D1*
X1160390Y52562D1*
X1158144Y58024D1*
X1156285Y63627D1*
X1154820Y69346D1*
X1153757Y75155D1*
X1153100Y81022D1*
X1152854Y86921D1*
X1153018Y92823D1*
X1153593Y98699D1*
X1154576Y104521D1*
X1155962Y110261D1*
X1157744Y115890D1*
X1159913Y121382D1*
X1162459Y126709D1*
X1165370Y131845D1*
X1168631Y136768D1*
X1172227Y141450D1*
X1176140Y145871D1*
X1180352Y150010D1*
X1184841Y153845D1*
X1189587Y157358D1*
X1194564Y160533D1*
X1199752Y163353D1*
X1205123Y165806D1*
X1210651Y167878D1*
X1216311Y169560D1*
X1222073Y170845D1*
X1227912Y171726D1*
X1233798Y172198D1*
X1239702Y172260D1*
X1245596Y171909D1*
X1251450Y171151D1*
X1257239Y169986D1*
X1262932Y168420D1*
X1268503Y166463D1*
X1273923Y164122D1*
X1279168Y161411D1*
X1284211Y158340D1*
X1289028Y154927D1*
X1293596Y151185D1*
X1297892Y147135D1*
X1301896Y142797D1*
X1305589Y138189D1*
X1308951Y133336D1*
X1311969Y128260D1*
X1314625Y122987D1*
X1316907Y117542D1*
X1319093Y110858D1*
X1319079Y226929D1*
X1317699Y221190D1*
X1315739Y215622D1*
X1313218Y210285D1*
X1310164Y205232D1*
X1306609Y200521D1*
X1302589Y196197D1*
X1298148Y192308D1*
X1293332Y188895D1*
X1288193Y185992D1*
X1282782Y183633D1*
X1277159Y181837D1*
X1271381Y180629D1*
X1265509Y180018D1*
X1259606Y180012D1*
X1253734Y180610D1*
X1247954Y181807D1*
X1242327Y183591D1*
X1236911Y185940D1*
X1231765Y188832D1*
X1226942Y192235D1*
X1222493Y196115D1*
X1218465Y200430D1*
X1214900Y205135D1*
X1211836Y210180D1*
X1209304Y215512D1*
X1207332Y221076D1*
X1205940Y226812D1*
X1205143Y232661D1*
X1204949Y238562D1*
X1205361Y244450D1*
X1206373Y250265D1*
X1207976Y255946D1*
X1210152Y261433D1*
X1212879Y266669D1*
X1216127Y271597D1*
X1219864Y276168D1*
X1224049Y280331D1*
X1228638Y284043D1*
X1233583Y287268D1*
X1233988Y287497D1*
X1228667Y290933D1*
X1225117Y293731D1*
X1221798Y296798D1*
X1218731Y300117D1*
X1215933Y303667D1*
X1213421Y307424D1*
X1211213Y311367D1*
X1209322Y315472D1*
X1207757Y319713D1*
X1206530Y324062D1*
X1205648Y328495D1*
X1205117Y332983D1*
X1204940Y337499D1*
X1205117Y342014D1*
X1205648Y346503D1*
X1206530Y350936D1*
X1207757Y355285D1*
X1209322Y359525D1*
X1211213Y363630D1*
X1213421Y367573D1*
X1215933Y371331D1*
X1218731Y374881D1*
X1221798Y378199D1*
X1225117Y381266D1*
X1228667Y384064D1*
X1234042Y387482D1*
X1228667Y390933D1*
X1225117Y393731D1*
X1221798Y396798D1*
X1218731Y400117D1*
X1215933Y403667D1*
X1213421Y407424D1*
X1210274Y413404D1*
X1198280Y413479D1*
X1194546Y414070D1*
X1190950Y415239D1*
X1187581Y416955D1*
X1184522Y419177D1*
X1170587Y433009D1*
X1168130Y435883D1*
X1166155Y439108D1*
X1164709Y442600D1*
X1163825Y446277D1*
X1163529Y450054D1*
Y508801D1*
X1147726Y524626D1*
X1147718Y368819D1*
X1124073D1*
X1124096Y168696D1*
X1147718Y168676D1*
Y6314D1*
X877379Y6327D1*
Y26004D1*
X523060Y26087D1*
X519327Y26677D1*
X515731Y27846D1*
X512362Y29562D1*
X509303Y31785D1*
X495514Y45467D1*
X493059Y48343D1*
X491084Y51567D1*
X489638Y55059D1*
X488755Y58736D1*
X488458Y62505D1*
Y117478D1*
X455009Y117458D1*
Y147008D1*
X453075Y146986D1*
X452988Y91559D1*
X452301Y87215D1*
X450941Y83031D1*
X448944Y79112D1*
X446358Y75554D1*
X429667Y58739D1*
X426322Y55882D1*
X422571Y53584D1*
X418508Y51900D1*
X414230Y50874D1*
X409836Y50529D1*
X362209D1*
X262846Y5907D2*
Y50521D1*
X213018Y50615D1*
X208675Y51303D1*
X204491Y52663D1*
X200571Y54660D1*
X197013Y57245D1*
X180198Y73937D1*
X177341Y77282D1*
X175043Y81033D1*
X173360Y85096D1*
X172332Y89382D1*
X172070Y81598D1*
X171454Y75726D1*
X170432Y69911D1*
X169005Y64181D1*
X167185Y58564D1*
X164978Y53088D1*
X162395Y47780D1*
X159449Y42663D1*
X156154Y37762D1*
X152525Y33105D1*
X148581Y28711D1*
X144341Y24602D1*
X139825Y20798D1*
X135056Y17318D1*
X130056Y14177D1*
X124850Y11394D1*
X119462Y8978D1*
X113919Y6944D1*
X110353Y5911D1*
X262864Y5904D1*
X264028Y351671D2*
X362217D1*
Y305982D1*
X366478Y307877D1*
X370980Y309298D1*
X375615Y310201D1*
X380322Y310576D1*
X385041Y310419D1*
X389713Y309731D1*
X394277Y308520D1*
X398675Y306802D1*
X402852Y304598D1*
X406753Y301940D1*
X410329Y298857D1*
X413537Y295390D1*
X416331Y291584D1*
X418680Y287488D1*
X420551Y283152D1*
X421921Y278634D1*
X422773Y273990D1*
X423100Y268777D1*
X422833Y264063D1*
X422037Y259408D1*
X420720Y254874D1*
X418902Y250516D1*
X416602Y246391D1*
X413853Y242552D1*
X410689Y239049D1*
X407150Y235923D1*
X403280Y233217D1*
X399130Y230963D1*
X394752Y229193D1*
X390203Y227928D1*
X385541Y227182D1*
X380824Y226969D1*
X376113Y227287D1*
X371467Y228135D1*
X366948Y229503D1*
X362213Y231575D1*
X362217Y191277D1*
X262846D1*
Y231568D1*
X258350Y229589D1*
X253839Y228196D1*
X249199Y227319D1*
X244491Y226972D1*
X239772Y227157D1*
X235105Y227874D1*
X230549Y229113D1*
X226160Y230857D1*
X221997Y233085D1*
X218112Y235768D1*
X214554Y238873D1*
X211367Y242358D1*
X208596Y246180D1*
X206272Y250291D1*
X204427Y254638D1*
X203083Y259164D1*
X202259Y263814D1*
X201965Y268526D1*
X202202Y273241D1*
X202971Y277900D1*
X204260Y282444D1*
X206052Y286812D1*
X208327Y290950D1*
X211052Y294806D1*
X214197Y298329D1*
X217718Y301475D1*
X221571Y304205D1*
X225706Y306483D1*
X230073Y308280D1*
X234614Y309572D1*
X239273Y310345D1*
X243988Y310588D1*
X248702Y310297D1*
X253352Y309476D1*
X257879Y308136D1*
X262848Y305979D1*
X262846Y351671D1*
X264028D1*
X1058190Y168676D2*
X1075885D1*
X1075907Y368799D1*
X1036573Y368819D1*
X1036596Y168696D1*
X1058190Y168676D1*
X972790D2*
X988385D1*
X988407Y368799D1*
X949168Y368865D1*
X949190Y168696D1*
X972812Y168665D1*
X883285Y168689D2*
X900979D1*
X901001Y368858D1*
X877379Y368865D1*
Y513459D1*
X840493Y513461D1*
X838127Y510402D1*
X833487Y505761D1*
X828180Y501906D1*
X822333Y498927D1*
X816094Y496899D1*
X809614Y495873D1*
X803052D1*
X796572Y496899D1*
X790333Y498927D1*
X784487Y501906D1*
X779180Y505761D1*
X774539Y510402D1*
X770684Y515709D1*
X767705Y521555D1*
X765677Y527794D1*
X764651Y534274D1*
Y540836D1*
X765677Y547316D1*
X767705Y553555D1*
X770684Y559402D1*
X774539Y564709D1*
X779180Y569349D1*
X784487Y573205D1*
X790333Y576184D1*
X796572Y578211D1*
X803052Y579238D1*
X809614D1*
X816094Y578211D1*
X822333Y576184D1*
X828180Y573205D1*
X833487Y569349D1*
X838127Y564709D1*
X840480Y561651D1*
X1001995Y561575D1*
X1005728Y560984D1*
X1009324Y559816D1*
X1012693Y558100D1*
X1015752Y555877D1*
X1029539Y542196D1*
X1031995Y539320D1*
X1033970Y536096D1*
X1035419Y532596D1*
X1041556Y531181D1*
X1075885D1*
X1075907Y613470D1*
X840482Y613471D1*
X838127Y610412D1*
X833487Y605772D1*
X828180Y601916D1*
X822333Y598937D1*
X816094Y596909D1*
X809614Y595883D1*
X803052D1*
X796572Y596909D1*
X790333Y598937D1*
X784487Y601916D1*
X779180Y605772D1*
X774539Y610412D1*
X770684Y615719D1*
X767705Y621566D1*
X765677Y627804D1*
X764651Y634285D1*
Y640846D1*
X765677Y647327D1*
X767705Y653566D1*
X770684Y659412D1*
X773500Y663400D1*
X699159Y663406D1*
X699164Y230980D1*
X703564Y231867D1*
X708052Y232399D1*
X712568Y232576D1*
X717084Y232399D1*
X721572Y231867D1*
X726005Y230986D1*
X730354Y229759D1*
X734594Y228194D1*
X738699Y226303D1*
X742643Y224094D1*
X746400Y221583D1*
X749950Y218785D1*
X753269Y215718D1*
X756336Y212399D1*
X759134Y208849D1*
X762551Y203474D1*
X765507Y208157D1*
X769148Y212803D1*
X773247Y217051D1*
X777759Y220858D1*
X782636Y224181D1*
X787829Y226988D1*
X793282Y229249D1*
X798938Y230940D1*
X804738Y232041D1*
X810619Y232543D1*
X816521Y232440D1*
X822382Y231734D1*
X828139Y230430D1*
X833732Y228543D1*
X839104Y226094D1*
X844196Y223109D1*
X848954Y219617D1*
X853331Y215655D1*
X857278Y211266D1*
X860756Y206497D1*
X863727Y201396D1*
X866160Y196017D1*
X868029Y190419D1*
X869314Y184657D1*
X870003Y178794D1*
X870079Y172656D1*
X869534Y166778D1*
X868391Y160987D1*
X866660Y155343D1*
X864361Y149907D1*
X861517Y144734D1*
X858157Y139879D1*
X854319Y135395D1*
X850042Y131328D1*
X845370Y127719D1*
X840353Y124609D1*
X835045Y122028D1*
X829499Y120004D1*
X823776Y118559D1*
X817934Y117709D1*
X812037Y117461D1*
X806144Y117818D1*
X800320Y118776D1*
X794625Y120327D1*
X789118Y122451D1*
X783857Y125130D1*
X778899Y128333D1*
X774294Y132026D1*
X770093Y136173D1*
X766337Y140727D1*
X763068Y145643D1*
X762571Y146501D1*
X759134Y141185D1*
X756336Y137635D1*
X753269Y134316D1*
X749950Y131249D1*
X746400Y128451D1*
X742643Y125940D1*
X738699Y123731D1*
X734594Y121840D1*
X730354Y120276D1*
X726005Y119049D1*
X721572Y118167D1*
X717084Y117635D1*
X712568Y117458D1*
X708052Y117635D1*
X703564Y118167D1*
X699131Y119049D1*
X694782Y120276D1*
X690542Y121840D1*
X686437Y123731D1*
X682493Y125940D1*
X678736Y128451D1*
X675186Y131249D1*
X671867Y134316D1*
X668801Y137635D1*
X666003Y141185D1*
X662585Y146560D1*
X659134Y141185D1*
X656336Y137635D1*
X653269Y134316D1*
X649950Y131249D1*
X646400Y128451D1*
X642643Y125940D1*
X638699Y123731D1*
X634594Y121840D1*
X630354Y120276D1*
X626005Y119049D1*
X621572Y118167D1*
X617084Y117635D1*
X612568Y117458D1*
X608052Y117635D1*
X603564Y118167D1*
X599131Y119049D1*
X594782Y120276D1*
X590542Y121840D1*
X586437Y123731D1*
X582493Y125940D1*
X578736Y128451D1*
X575186Y131249D1*
X570130Y136197D1*
X570127Y117458D1*
X536655D1*
X536762Y74201D1*
X877367D1*
X877379Y168689D1*
X883285D1*
X1260335Y1681591D2*
X1268374Y1678955D1*
X1273794Y1676614D1*
X1279039Y1673903D1*
X1284083Y1670832D1*
X1288899Y1667419D1*
X1293467Y1663677D1*
X1297764Y1659627D1*
X1301768Y1655289D1*
X1305461Y1650681D1*
X1308823Y1645828D1*
X1311840Y1640752D1*
X1314496Y1635479D1*
X1316778Y1630034D1*
X1319094Y1622860D1*
Y1681617D1*
X1260524Y1681594D1*
X5909Y1622995D2*
X7615Y1628382D1*
X9785Y1633874D1*
X12331Y1639201D1*
X15241Y1644337D1*
X18503Y1649260D1*
X22098Y1653942D1*
X26012Y1658364D1*
X30223Y1662503D1*
X34713Y1666337D1*
X39458Y1669850D1*
X44436Y1673025D1*
X49623Y1675845D1*
X54995Y1678298D1*
X60522Y1680370D1*
X64657Y1681600D1*
X5925Y1681594D1*
X5906Y1623024D1*
X64677Y5904D2*
X56079Y8759D1*
X50675Y11136D1*
X45449Y13885D1*
X40428Y16991D1*
X35634Y20437D1*
X31092Y24210D1*
X26824Y28290D1*
X22850Y32656D1*
X19189Y37289D1*
X15861Y42165D1*
X12879Y47261D1*
X10260Y52552D1*
X8014Y58014D1*
X5908Y64579D1*
X5904Y5882D1*
X64475Y5904D1*
X1319100Y64080D2*
X1317315Y58573D1*
X1315108Y53097D1*
X1312525Y47789D1*
X1309579Y42672D1*
X1306283Y37772D1*
X1302655Y33114D1*
X1298711Y28720D1*
X1294471Y24612D1*
X1289955Y20807D1*
X1285186Y17327D1*
X1280186Y14186D1*
X1274980Y11403D1*
X1269592Y8987D1*
X1264049Y6953D1*
X1260438Y5907D1*
X1319073Y5904D1*
X1319093Y64059D1*
X430924Y1446633D2*
X544861D1*
Y1311829D1*
X429743D1*
Y1446633D1*
X430924D1*
X781318Y1663168D2*
X895255D1*
Y1528365D1*
X780136D1*
Y1663168D1*
X781318D1*
X430924D2*
X544861D1*
Y1528365D1*
X429743D1*
Y1663168D1*
X430924D1*
X786512Y1474711D2*
X785591Y1468894D1*
X783770Y1463293D1*
X781097Y1458046D1*
X777635Y1453281D1*
X773470Y1449115D1*
X768705Y1445654D1*
X763458Y1442980D1*
X757857Y1441160D1*
X752039Y1440239D1*
X746150D1*
X740332Y1441160D1*
X734731Y1442980D1*
X729484Y1445654D1*
X724719Y1449115D1*
X720554Y1453281D1*
X717092Y1458046D1*
X714419Y1463293D1*
X712598Y1468894D1*
X711677Y1474711D1*
Y1480601D1*
X712598Y1486419D1*
X714419Y1492020D1*
X717092Y1497266D1*
X720554Y1502031D1*
X724719Y1506197D1*
X729484Y1509659D1*
X734731Y1512332D1*
X740332Y1514152D1*
X746150Y1515073D1*
X752039D1*
X757857Y1514152D1*
X763458Y1512332D1*
X768705Y1509659D1*
X773470Y1506197D1*
X777635Y1502031D1*
X781097Y1497266D1*
X783770Y1492020D1*
X785591Y1486419D1*
X786512Y1480601D1*
Y1474711D1*
X613283D2*
X612362Y1468894D1*
X610542Y1463293D1*
X607869Y1458046D1*
X604407Y1453281D1*
X600241Y1449115D1*
X595476Y1445654D1*
X590230Y1442980D1*
X584629Y1441160D1*
X578811Y1440239D1*
X572921D1*
X567104Y1441160D1*
X561503Y1442980D1*
X556256Y1445654D1*
X551491Y1449115D1*
X547325Y1453281D1*
X543864Y1458046D1*
X541190Y1463293D1*
X539370Y1468894D1*
X538449Y1474711D1*
Y1480601D1*
X539370Y1486419D1*
X541190Y1492020D1*
X543864Y1497266D1*
X547325Y1502031D1*
X551491Y1506197D1*
X556256Y1509659D1*
X561503Y1512332D1*
X567104Y1514152D1*
X572921Y1515073D1*
X578811D1*
X584629Y1514152D1*
X590230Y1512332D1*
X595476Y1509659D1*
X600241Y1506197D1*
X604407Y1502031D1*
X607869Y1497266D1*
X610542Y1492020D1*
X612362Y1486419D1*
X613283Y1480601D1*
Y1474711D1*
X1319091Y1027196D2*
X1317240Y1019713D1*
X1315676Y1015472D1*
X1313785Y1011367D1*
X1311576Y1007424D1*
X1309064Y1003667D1*
X1306266Y1000117D1*
X1303199Y996798D1*
X1299881Y993731D1*
X1296331Y990933D1*
X1290955Y987516D1*
X1296331Y984064D1*
X1299881Y981266D1*
X1303199Y978199D1*
X1306266Y974881D1*
X1309064Y971331D1*
X1311576Y967573D1*
X1313785Y963630D1*
X1315676Y959525D1*
X1317240Y955285D1*
X1319091Y947802D1*
X1319094Y1027028D1*
X1319091Y927196D2*
X1317240Y919713D1*
X1315676Y915472D1*
X1313785Y911367D1*
X1311576Y907424D1*
X1309064Y903667D1*
X1306266Y900117D1*
X1303199Y896798D1*
X1299881Y893731D1*
X1296331Y890933D1*
X1290955Y887516D1*
X1296331Y884064D1*
X1299881Y881266D1*
X1303199Y878199D1*
X1306266Y874881D1*
X1309064Y871331D1*
X1311576Y867573D1*
X1313785Y863630D1*
X1315676Y859525D1*
X1317240Y855285D1*
X1319091Y847802D1*
X1319093Y927003D1*
X1319091Y827196D2*
X1317240Y819713D1*
X1315676Y815472D1*
X1313785Y811367D1*
X1311576Y807424D1*
X1309064Y803667D1*
X1306266Y800117D1*
X1303199Y796798D1*
X1299881Y793731D1*
X1296331Y790933D1*
X1290955Y787516D1*
X1296331Y784064D1*
X1299881Y781266D1*
X1303199Y778199D1*
X1306266Y774881D1*
X1309064Y771331D1*
X1311576Y767573D1*
X1313785Y763630D1*
X1315676Y759525D1*
X1317240Y755285D1*
X1319091Y747802D1*
X1319093Y827024D1*
X1319091Y727196D2*
X1317240Y719713D1*
X1315676Y715472D1*
X1313785Y711367D1*
X1311576Y707424D1*
X1309064Y703667D1*
X1306266Y700117D1*
X1303199Y696798D1*
X1299881Y693731D1*
X1296331Y690933D1*
X1290955Y687516D1*
X1296331Y684064D1*
X1299881Y681266D1*
X1303199Y678199D1*
X1306266Y674881D1*
X1309064Y671331D1*
X1311576Y667573D1*
X1313785Y663630D1*
X1315676Y659525D1*
X1317240Y655285D1*
X1319091Y647802D1*
X1319093Y727000D1*
X1319091Y627196D2*
X1317240Y619713D1*
X1315676Y615472D1*
X1313785Y611367D1*
X1311576Y607424D1*
X1309064Y603667D1*
X1306266Y600117D1*
X1303199Y596798D1*
X1299881Y593731D1*
X1296331Y590933D1*
X1290955Y587516D1*
X1296331Y584064D1*
X1299881Y581266D1*
X1303199Y578199D1*
X1306266Y574881D1*
X1309064Y571331D1*
X1311576Y567573D1*
X1313785Y563630D1*
X1315676Y559525D1*
X1317240Y555285D1*
X1319091Y547802D1*
X1319093Y627021D1*
X1319091Y527196D2*
X1317240Y519713D1*
X1315676Y515472D1*
X1313785Y511367D1*
X1311576Y507424D1*
X1309064Y503667D1*
X1306266Y500117D1*
X1303199Y496798D1*
X1299881Y493731D1*
X1296331Y490933D1*
X1290955Y487516D1*
X1296331Y484064D1*
X1299881Y481266D1*
X1303199Y478199D1*
X1306266Y474881D1*
X1309064Y471331D1*
X1311576Y467573D1*
X1313785Y463630D1*
X1315676Y459525D1*
X1317240Y455285D1*
X1319091Y447802D1*
X1319093Y526996D1*
X1319091Y427196D2*
X1317240Y419713D1*
X1315676Y415472D1*
X1313785Y411367D1*
X1311576Y407424D1*
X1309064Y403667D1*
X1306266Y400117D1*
X1303199Y396798D1*
X1299881Y393731D1*
X1296331Y390933D1*
X1290955Y387516D1*
X1296331Y384064D1*
X1299881Y381266D1*
X1303199Y378199D1*
X1306266Y374881D1*
X1309064Y371331D1*
X1311576Y367573D1*
X1313785Y363630D1*
X1315676Y359525D1*
X1317240Y355285D1*
X1319091Y347802D1*
X1319093Y427018D1*
X1319091Y327196D2*
X1317240Y319713D1*
X1315676Y315472D1*
X1313785Y311367D1*
X1311576Y307424D1*
X1309064Y303667D1*
X1306266Y300117D1*
X1303199Y296798D1*
X1299881Y293731D1*
X1296331Y290933D1*
X1290955Y287516D1*
X1295106Y284930D1*
X1299793Y281343D1*
X1304087Y277291D1*
X1307944Y272823D1*
X1311323Y267983D1*
X1314188Y262823D1*
X1316509Y257395D1*
X1318264Y251759D1*
X1319093Y248030D1*
Y326993D1*
X34042Y987516D2*
X28667Y990933D1*
X25117Y993731D1*
X21798Y996798D1*
X18731Y1000117D1*
X15933Y1003667D1*
X13421Y1007424D1*
X11213Y1011367D1*
X9322Y1015472D1*
X7757Y1019713D1*
X5907Y1027196D1*
X5906Y947996D1*
X7757Y955285D1*
X9322Y959525D1*
X11213Y963630D1*
X13421Y967573D1*
X15933Y971331D1*
X18731Y974881D1*
X21798Y978199D1*
X25117Y981266D1*
X28667Y984064D1*
X34042Y987482D1*
Y887516D2*
X28667Y890933D1*
X25117Y893731D1*
X21798Y896798D1*
X18731Y900117D1*
X15933Y903667D1*
X13421Y907424D1*
X11213Y911367D1*
X9322Y915472D1*
X7757Y919713D1*
X5907Y927196D1*
X5906Y848017D1*
X7757Y855285D1*
X9322Y859525D1*
X11213Y863630D1*
X13421Y867573D1*
X15933Y871331D1*
X18731Y874881D1*
X21798Y878199D1*
X25117Y881266D1*
X28667Y884064D1*
X34042Y887482D1*
Y787516D2*
X28667Y790933D1*
X25117Y793731D1*
X21798Y796798D1*
X18731Y800117D1*
X15933Y803667D1*
X13421Y807424D1*
X11213Y811367D1*
X9322Y815472D1*
X7757Y819713D1*
X5907Y827196D1*
X5906Y747993D1*
X7757Y755285D1*
X9322Y759525D1*
X11213Y763630D1*
X13421Y767573D1*
X15933Y771331D1*
X18731Y774881D1*
X21798Y778199D1*
X25117Y781266D1*
X28667Y784064D1*
X34042Y787482D1*
Y687516D2*
X28667Y690933D1*
X25117Y693731D1*
X21798Y696798D1*
X18731Y700117D1*
X15933Y703667D1*
X13421Y707424D1*
X11213Y711367D1*
X9322Y715472D1*
X7757Y719713D1*
X5907Y727196D1*
X5904Y648014D1*
X7757Y655285D1*
X9322Y659525D1*
X11213Y663630D1*
X13421Y667573D1*
X15933Y671331D1*
X18731Y674881D1*
X21798Y678199D1*
X25117Y681266D1*
X28667Y684064D1*
X34042Y687482D1*
Y587516D2*
X28667Y590933D1*
X25117Y593731D1*
X21798Y596798D1*
X18731Y600117D1*
X15933Y603667D1*
X13421Y607424D1*
X11213Y611367D1*
X9322Y615472D1*
X7757Y619713D1*
X5907Y627196D1*
X5904Y547990D1*
X7757Y555285D1*
X9322Y559525D1*
X11213Y563630D1*
X13421Y567573D1*
X15933Y571331D1*
X18731Y574881D1*
X21798Y578199D1*
X25117Y581266D1*
X28667Y584064D1*
X34042Y587482D1*
Y487516D2*
X28667Y490933D1*
X25117Y493731D1*
X21798Y496798D1*
X18731Y500117D1*
X15933Y503667D1*
X13421Y507424D1*
X11213Y511367D1*
X9322Y515472D1*
X7757Y519713D1*
X5907Y527196D1*
X5904Y448012D1*
X7757Y455285D1*
X9322Y459525D1*
X11213Y463630D1*
X13421Y467573D1*
X15933Y471331D1*
X18731Y474881D1*
X21798Y478199D1*
X25117Y481266D1*
X28667Y484064D1*
X34042Y487482D1*
Y387516D2*
X28667Y390933D1*
X25117Y393731D1*
X21798Y396798D1*
X18731Y400117D1*
X15933Y403667D1*
X13421Y407424D1*
X11213Y411367D1*
X9322Y415472D1*
X7757Y419713D1*
X5907Y427196D1*
X5904Y347987D1*
X7757Y355285D1*
X9322Y359525D1*
X11213Y363630D1*
X13421Y367573D1*
X15933Y371331D1*
X18731Y374881D1*
X21798Y378199D1*
X25117Y381266D1*
X28667Y384064D1*
X34042Y387482D1*
Y287516D2*
X28667Y290933D1*
X25117Y293731D1*
X21798Y296798D1*
X18731Y300117D1*
X15933Y303667D1*
X13421Y307424D1*
X11213Y311367D1*
X9322Y315472D1*
X7757Y319713D1*
X5907Y327196D1*
X5904Y248008D1*
X7757Y255285D1*
X9322Y259525D1*
X11213Y263630D1*
X13421Y267573D1*
X15933Y271331D1*
X18731Y274881D1*
X21798Y278199D1*
X25117Y281266D1*
X28667Y284064D1*
X34042Y287482D1*
X1124097Y531181D2*
X1142076Y531217D1*
X1140360Y534585D1*
X1139192Y538181D1*
X1138600Y541915D1*
X1138526Y573333D1*
Y663462D1*
X1104474Y663550D1*
X1100740Y664142D1*
X1097144Y665310D1*
X1093776Y667026D1*
X1090717Y669249D1*
X1081449Y678412D1*
X1072114Y669178D1*
X1069055Y666955D1*
X1065686Y665239D1*
X1062091Y664071D1*
X1058357Y663480D1*
X1026938Y663406D1*
X839185D1*
X840480Y661661D1*
X1089504Y661585D1*
X1093238Y660995D1*
X1096833Y659825D1*
X1100202Y658109D1*
X1103261Y655887D1*
X1117039Y642215D1*
X1119495Y639340D1*
X1121470Y636115D1*
X1122916Y632623D1*
X1123799Y628946D1*
X1124096Y625177D1*
Y531173D1*
X621182Y1031819D2*
X620757Y1037608D1*
X621272Y1044148D1*
X622803Y1050528D1*
X625315Y1056589D1*
X627552Y1060403D1*
X574373D1*
X574392Y1031828D1*
X621140Y1031820D1*
X704251Y909314D2*
X703224Y902833D1*
X701197Y896594D1*
X698218Y890748D1*
X694362Y885441D1*
X689722Y880801D1*
X686878Y878591D1*
X689037Y878277D1*
X750606D1*
X750636Y931427D1*
X750613Y1008198D1*
X750636Y1059379D1*
X748780Y1059980D1*
X748706Y991572D1*
X748114Y987839D1*
X746946Y984243D1*
X745230Y980874D1*
X743007Y977815D1*
X730395Y965097D1*
X727520Y962642D1*
X724295Y960667D1*
X720803Y959219D1*
X717126Y958337D1*
X713349Y958041D1*
X574370D1*
X574392Y955056D1*
X614846Y954974D1*
X618580Y954383D1*
X622176Y953215D1*
X625545Y951499D1*
X628604Y949276D1*
X634446Y943538D1*
X637992Y946420D1*
X643587Y949848D1*
X649648Y952360D1*
X656028Y953891D1*
X662568Y954406D1*
X669109Y953891D1*
X675488Y952360D1*
X681550Y949848D1*
X687144Y946420D1*
X692133Y942159D1*
X696394Y937171D1*
X699822Y931576D1*
X702333Y925514D1*
X703865Y919135D1*
X704379Y912594D1*
X704251Y909314D1*
X448085Y1036427D2*
X447686Y1031722D1*
X446759Y1027092D1*
X445315Y1022596D1*
X443373Y1018291D1*
X440959Y1014234D1*
X438102Y1010474D1*
X434840Y1007060D1*
X431214Y1004035D1*
X427269Y1001440D1*
X423058Y999306D1*
X418631Y997659D1*
X414049Y996522D1*
X409366Y995909D1*
X404646Y995829D1*
X399945Y996281D1*
X395325Y997260D1*
X390846Y998753D1*
X386564Y1000743D1*
X382533Y1003202D1*
X378806Y1006101D1*
X375428Y1009400D1*
X372445Y1013060D1*
X369892Y1017033D1*
X367804Y1021269D1*
X366209Y1025713D1*
X365122Y1030308D1*
X364562Y1034996D1*
X364534Y1039718D1*
X365038Y1044413D1*
X366068Y1049021D1*
X367612Y1053484D1*
X369648Y1057744D1*
X372152Y1061747D1*
X375092Y1065442D1*
X378429Y1068782D1*
X382122Y1071726D1*
X386123Y1074232D1*
X390382Y1076273D1*
X394843Y1077820D1*
X399450Y1078856D1*
X404144Y1079364D1*
X408866Y1079340D1*
X413555Y1078783D1*
X418151Y1077701D1*
X422597Y1076108D1*
X426833Y1074024D1*
X430808Y1071476D1*
X434471Y1068495D1*
X437774Y1065121D1*
X440676Y1061396D1*
X443139Y1057367D1*
X445131Y1053087D1*
X446630Y1048608D1*
X447613Y1043990D1*
X448068Y1039290D1*
X448085Y1036427D1*
X104299Y1236448D2*
X103900Y1231743D1*
X102972Y1227113D1*
X101529Y1222617D1*
X99587Y1218312D1*
X97173Y1214255D1*
X94316Y1210495D1*
X91054Y1207081D1*
X87428Y1204056D1*
X83483Y1201461D1*
X79272Y1199327D1*
X74845Y1197680D1*
X70262Y1196543D1*
X65580Y1195930D1*
X60860Y1195850D1*
X56159Y1196302D1*
X51539Y1197281D1*
X47060Y1198774D1*
X42778Y1200764D1*
X38747Y1203223D1*
X35020Y1206122D1*
X31642Y1209421D1*
X28659Y1213081D1*
X26106Y1217054D1*
X24018Y1221290D1*
X22423Y1225734D1*
X21336Y1230329D1*
X20776Y1235017D1*
X20748Y1239739D1*
X21252Y1244434D1*
X22282Y1249042D1*
X23825Y1253505D1*
X25862Y1257765D1*
X28366Y1261768D1*
X31306Y1265463D1*
X34643Y1268803D1*
X38336Y1271747D1*
X42337Y1274253D1*
X46596Y1276294D1*
X51056Y1277841D1*
X55664Y1278877D1*
X60358Y1279385D1*
X65080Y1279361D1*
X69769Y1278804D1*
X74365Y1277722D1*
X78811Y1276129D1*
X83047Y1274045D1*
X87022Y1271497D1*
X90685Y1268516D1*
X93988Y1265142D1*
X96890Y1261417D1*
X99353Y1257388D1*
X101345Y1253108D1*
X102844Y1248629D1*
X103827Y1244010D1*
X104282Y1239311D1*
X104299Y1236448D1*
X1304425D2*
X1304026Y1231743D1*
X1303098Y1227113D1*
X1301655Y1222617D1*
X1299713Y1218312D1*
X1297299Y1214255D1*
X1294442Y1210495D1*
X1291180Y1207081D1*
X1287554Y1204056D1*
X1283609Y1201461D1*
X1279398Y1199327D1*
X1274971Y1197680D1*
X1270388Y1196543D1*
X1265706Y1195930D1*
X1260986Y1195850D1*
X1256285Y1196302D1*
X1251665Y1197281D1*
X1247186Y1198774D1*
X1242904Y1200764D1*
X1238873Y1203223D1*
X1235146Y1206122D1*
X1231768Y1209421D1*
X1228785Y1213081D1*
X1226232Y1217054D1*
X1224144Y1221290D1*
X1222549Y1225734D1*
X1221462Y1230329D1*
X1220902Y1235017D1*
X1220874Y1239739D1*
X1221378Y1244434D1*
X1222408Y1249042D1*
X1223951Y1253505D1*
X1225988Y1257765D1*
X1228492Y1261768D1*
X1231432Y1265463D1*
X1234769Y1268803D1*
X1238462Y1271747D1*
X1242463Y1274253D1*
X1246722Y1276294D1*
X1251182Y1277841D1*
X1255790Y1278877D1*
X1260484Y1279385D1*
X1265206Y1279361D1*
X1269895Y1278804D1*
X1274491Y1277722D1*
X1278937Y1276129D1*
X1283173Y1274045D1*
X1287148Y1271497D1*
X1290811Y1268516D1*
X1294114Y1265142D1*
X1297016Y1261417D1*
X1299479Y1257388D1*
X1301471Y1253108D1*
X1302970Y1248629D1*
X1303953Y1244010D1*
X1304408Y1239311D1*
X1304425Y1236448D1*
X354325Y736395D2*
X353927Y731690D1*
X352999Y727060D1*
X351555Y722564D1*
X349613Y718260D1*
X347199Y714202D1*
X344343Y710442D1*
X341080Y707029D1*
X337454Y704004D1*
X333509Y701408D1*
X329298Y699274D1*
X324871Y697627D1*
X320289Y696491D1*
X315606Y695878D1*
X310886Y695798D1*
X306185Y696249D1*
X301566Y697228D1*
X297087Y698722D1*
X292804Y700711D1*
X288773Y703171D1*
X285046Y706070D1*
X281668Y709369D1*
X278685Y713029D1*
X276133Y717001D1*
X274045Y721238D1*
X272449Y725681D1*
X271362Y730277D1*
X270802Y734965D1*
X270774Y739686D1*
X271278Y744382D1*
X272308Y748990D1*
X273852Y753453D1*
X275888Y757713D1*
X278392Y761715D1*
X281332Y765411D1*
X284669Y768751D1*
X288362Y771694D1*
X292364Y774201D1*
X296622Y776241D1*
X301083Y777789D1*
X305690Y778824D1*
X310385Y779332D1*
X315106Y779308D1*
X319795Y778752D1*
X324391Y777669D1*
X328837Y776076D1*
X333073Y773992D1*
X337049Y771445D1*
X340711Y768463D1*
X344014Y765089D1*
X346916Y761365D1*
X349379Y757336D1*
X351371Y753055D1*
X352870Y748576D1*
X353853Y743958D1*
X354308Y739259D1*
X354325Y736395D1*
X1079841Y1662184D2*
X1152440D1*
Y1541160D1*
X1078660D1*
Y1662184D1*
X1079841D1*
X857857Y753312D2*
Y751348D1*
X750613D1*
Y753308D1*
X674152Y753316D1*
X674163Y707584D1*
X678280Y709761D1*
X681875Y710929D1*
X685609Y711520D1*
X717028Y711594D1*
X917514D1*
X914304Y714294D1*
X900524Y728178D1*
X898302Y731238D1*
X896585Y734606D1*
X895416Y738202D1*
X894825Y741936D1*
X894751Y752615D1*
X892202Y753316D1*
X857853D1*
X750613Y801509D2*
Y830080D1*
X675335Y830163D1*
X671601Y830753D1*
X668005Y831923D1*
X664636Y833639D1*
X661577Y835861D1*
X649146Y848188D1*
X649159Y799559D1*
X653024Y800840D1*
X656757Y801432D1*
X688176Y801505D1*
X750622D1*
X857857Y930484D2*
Y929459D1*
X1084234Y929383D1*
X1087967Y928793D1*
X1091563Y927625D1*
X1094932Y925908D1*
X1097991Y923685D1*
X1110902Y910881D1*
X1113361Y907999D1*
X1113524Y908491D1*
Y958018D1*
X857870Y958041D1*
X857833Y930482D1*
X171993Y165738D2*
X154066Y165824D1*
X149722Y166512D1*
X145538Y167871D1*
X141618Y169869D1*
X138060Y172454D1*
X123942Y186449D1*
X121085Y189794D1*
X118787Y193545D1*
X117104Y197608D1*
X116077Y201886D1*
X115732Y206294D1*
X115676Y215472D1*
X113785Y211367D1*
X111576Y207424D1*
X109064Y203667D1*
X106266Y200117D1*
X103199Y196798D1*
X99881Y193731D1*
X96331Y190933D1*
X92573Y188421D1*
X88630Y186213D1*
X84525Y184322D1*
X80285Y182757D1*
X75936Y181530D1*
X71503Y180648D1*
X67014Y180117D1*
X62499Y179940D1*
X57983Y180117D1*
X53495Y180648D1*
X49062Y181530D1*
X44713Y182757D1*
X40472Y184322D1*
X36367Y186213D1*
X32424Y188421D1*
X28667Y190933D1*
X25117Y193731D1*
X21798Y196798D1*
X18731Y200117D1*
X15933Y203667D1*
X13421Y207424D1*
X11213Y211367D1*
X9322Y215472D1*
X7757Y219713D1*
X5907Y227196D1*
X5908Y110493D1*
X7614Y115881D1*
X9783Y121373D1*
X12329Y126699D1*
X15240Y131836D1*
X18501Y136759D1*
X22097Y141441D1*
X26010Y145862D1*
X30222Y150001D1*
X34711Y153836D1*
X39457Y157349D1*
X44434Y160524D1*
X49622Y163344D1*
X54993Y165797D1*
X60521Y167869D1*
X66181Y169551D1*
X71944Y170836D1*
X77782Y171717D1*
X83668Y172189D1*
X89572Y172251D1*
X95466Y171900D1*
X101320Y171142D1*
X107109Y169976D1*
X112802Y168411D1*
X118373Y166454D1*
X123793Y164113D1*
X129038Y161402D1*
X134081Y158331D1*
X138898Y154917D1*
X143466Y151176D1*
X147762Y147126D1*
X151766Y142787D1*
X155459Y138180D1*
X158822Y133327D1*
X161839Y128251D1*
X164495Y122978D1*
X166777Y117533D1*
X168676Y111942D1*
X170180Y106232D1*
X171283Y100432D1*
X171980Y94570D1*
X172268Y88672D1*
X171988Y99664D1*
Y165755D1*
X381570Y1187280D2*
Y1087957D1*
X313207Y1137618D2*
X449932D1*
X381570Y987259D2*
Y887936D1*
X313207Y937597D2*
X449932D1*
X1099900Y1287499D2*
Y1239804D1*
Y1287499D2*
X1143657D1*
X312531Y351647D2*
Y191299D1*
X599507Y1438735D2*
Y1311853D1*
X571499Y1375294D2*
X599507D1*
X837696Y1446609D2*
Y1379231D1*
X780160D2*
X895231D1*
X487302Y1446609D2*
Y1311853D1*
X429766Y1379231D2*
X544837D1*
X837696Y1663144D2*
Y1528388D1*
X780160Y1595766D2*
X895231D1*
X487302Y1663144D2*
Y1528388D1*
X429766Y1595766D2*
X544837D1*
X1262499Y237499D2*
Y179963D1*
X1204963Y237499D2*
X1262499D1*
X812568Y232552D2*
Y117482D1*
Y175017D2*
X870104D1*
X877403Y487448D2*
X925096D1*
X243774Y310564D2*
Y226990D1*
X201987Y268777D2*
X243774D1*
X381289Y310564D2*
Y226990D1*
Y268777D2*
X423076D1*
X406291Y1079395D2*
Y995820D1*
X364504Y1037608D2*
X448079D1*
X62505Y1279416D2*
Y1195841D1*
X20718Y1237629D2*
X104293D1*
X1262631Y1279416D2*
Y1195841D1*
X1220844Y1237629D2*
X1304419D1*
X312531Y779364D2*
Y695789D1*
X270744Y737576D2*
X354319D1*
X1115550Y1662160D2*
Y1541182D1*
X1078684Y1601672D2*
X1152417D1*
X750636Y930954D2*
X857833D1*
X467172Y1033316D2*
X574370D1*
X467172Y956545D2*
X574370D1*
X467172Y854182D2*
X520770D1*
X467172Y828592D2*
X574369D1*
D18*
X181119Y3787730D3*
X318915D3*
X181119Y3287672D3*
X318915D3*
D19*
X237413Y3575207D3*
X162610D3*
X237413Y3500199D3*
X162610D3*
D22*
X367285Y3006398D3*
D23*
X564135D3*
X760986D3*
X957836D3*
D24*
X62497Y3837688D3*
D25*
Y3737688D3*
Y3637688D3*
Y3537688D3*
Y3437688D3*
Y3337688D3*
Y3237688D3*
Y3137688D3*
Y3037688D3*
Y2937688D3*
D24*
X1262623Y3837688D3*
D25*
Y3737688D3*
Y3637688D3*
Y3537688D3*
Y3437688D3*
Y3337688D3*
Y3237688D3*
Y3137688D3*
Y3037688D3*
Y2937688D3*
D27*
X431286Y3681469D3*
X356483D3*
X393885Y3590917D3*
X431286Y3518951D3*
X356483D3*
X393885Y3428400D3*
D28*
X806325Y3519054D3*
Y3593857D3*
D19*
X625056Y3425192D3*
X699860D3*
D28*
X518795Y3519054D3*
Y3593857D3*
Y3756374D3*
Y3681571D3*
D19*
X162610Y3425192D3*
X237413D3*
Y3650215D3*
X162610D3*
D29*
X737560Y3744013D3*
X687560D3*
X637560D3*
X587560D3*
Y3531415D3*
X637560D3*
X687560D3*
X737560D3*
D31*
X218896Y2700249D3*
Y2562454D3*
D28*
X181392Y2443730D3*
Y2368927D3*
D22*
X367348Y1900114D3*
D23*
X564198D3*
X761049D3*
X957899D3*
D32*
X662693Y2506328D3*
D33*
Y2406328D3*
D25*
Y2306328D3*
D24*
X1143871Y2031369D3*
D25*
Y1931369D3*
Y1831369D3*
D24*
X181375Y2031369D3*
D25*
Y1931369D3*
Y1831369D3*
D24*
X62623Y2731369D3*
D25*
Y2631369D3*
Y2531369D3*
Y2431369D3*
Y2331369D3*
Y2231369D3*
Y2131369D3*
Y2031369D3*
Y1931369D3*
Y1831369D3*
D24*
X1262623Y2731369D3*
D25*
Y2631369D3*
Y2531369D3*
Y2431369D3*
Y2331369D3*
Y2231369D3*
Y2131369D3*
Y2031369D3*
Y1931369D3*
Y1831369D3*
D19*
X725222Y2118869D3*
X800025D3*
X1031274D3*
X956471D3*
X1031274Y2206369D3*
X956471D3*
X293971D3*
X368774D3*
Y2118869D3*
X293971D3*
X600025D3*
X525222D3*
D28*
X256400Y2443730D3*
Y2368927D3*
D29*
X543873Y2512618D3*
X493873D3*
X443873D3*
X393873D3*
Y2300020D3*
X443873D3*
X493873D3*
X543873D3*
X931373Y2512618D3*
X881373D3*
X831373D3*
X781373D3*
Y2300020D3*
X831373D3*
X881373D3*
X931373D3*
D18*
X243774Y1137618D3*
X381570D3*
X243774Y937597D3*
X381570D3*
D19*
X762597Y1287499D3*
X837400D3*
X1025097D3*
X1099900D3*
D35*
X312531Y78560D3*
Y271474D3*
D28*
X1100001Y124896D3*
Y50093D3*
X1012501Y124896D3*
Y50093D3*
X925096Y124909D3*
Y50106D3*
D37*
X725491Y1375294D3*
X693995D3*
X662499D3*
X631003D3*
X599507D3*
D38*
X837696Y1379231D3*
X487302D3*
X837696Y1595766D3*
X487302D3*
D24*
X1262499Y1137499D3*
D25*
Y1037499D3*
Y937499D3*
Y837499D3*
Y737499D3*
Y637499D3*
Y537499D3*
Y437499D3*
Y337499D3*
Y237499D3*
D24*
X62499Y1137499D3*
D25*
Y1037499D3*
Y937499D3*
Y837499D3*
Y737499D3*
Y637499D3*
Y537499D3*
Y437499D3*
Y337499D3*
Y237499D3*
D24*
X512568Y175017D3*
D25*
X612568D3*
X712568D3*
X812568D3*
D28*
X1100001Y412598D3*
Y487402D3*
X1012501Y412598D3*
Y487402D3*
X925096Y487448D3*
Y412644D3*
D40*
X1115550Y1601672D3*
X1024999D3*
X934448D3*
D41*
X1024999Y1373325D3*
D42*
X804235Y777411D3*
Y803001D3*
Y828592D3*
Y854182D3*
Y879773D3*
Y905364D3*
Y930954D3*
Y956545D3*
Y982135D3*
Y1007726D3*
Y1033316D3*
Y1058907D3*
Y1084497D3*
Y1110088D3*
X520762D3*
X520770Y1084497D3*
Y1058907D3*
Y1033316D3*
Y1007726D3*
Y982135D3*
Y956545D3*
Y930954D3*
Y905364D3*
Y879773D3*
Y854182D3*
Y828592D3*
Y803001D3*
Y777411D3*
M02*
