M48
INCH
T01C0.0118
T02C0.0354
T03C0.0433
T04C0.0984
%
T01
X+011376Y+007313
X+010251Y+007313
X+009814Y+007688
X+010251Y+008063
X+010251Y+008626
X+008938Y+010813
X+008562Y+011625
X+008001Y+011626
X+009062Y+012875
X+009564Y+012376
X+012626Y+012376
X+006626Y+010376
X+006626Y+009126
X+004063Y+010376
X+002438Y+010376
X+002438Y+012376
X+000625Y+012376
X+001813Y+007376
X+003125Y+007376
X+005188Y+006376
X+005188Y+005376
X+008063Y+005376
X+008063Y+006376
X+003813Y+002688
X+002438Y+002688
T02
X+007491Y+014777
X+005759Y+014777
T03
X+012625Y+011375
X+012625Y+010375
X+012625Y+009375
X+012625Y+008375
X+012625Y+007375
X+012625Y+006375
X+012625Y+005375
X+012625Y+004375
X+012625Y+003375
X+012625Y+002375
X+008126Y+001750
X+007126Y+001750
X+006126Y+001750
X+005126Y+001750
X+000625Y+002375
X+000625Y+003375
X+000625Y+004375
X+000625Y+005375
X+000625Y+006375
X+000625Y+007375
X+000625Y+008375
X+000625Y+009375
X+000625Y+010375
X+000625Y+011375
T04
X+012375Y+016000
X+000875Y+016000
X+000875Y+000875
X+012376Y+000875
T00
M30
