G04 DipTrace 3.1.0.1*
G04 Верхняяграфика.gbr*
%MOIN*%
G04 #@! TF.FileFunction,Drawing,Top*
G04 #@! TF.Part,Single*
%ADD10C,0.009843*%
%ADD65C,0.003088*%
%FSLAX26Y26*%
G04*
G70*
G90*
G75*
G01*
G04 TopAssy*
%LPD*%
X839646Y1684337D2*
D10*
X485354D1*
X630250Y1652799D2*
D65*
X642675D1*
Y1672895D1*
X630250D1*
X642675Y1662372D2*
X635026D1*
X624075Y1652799D2*
Y1672895D1*
X617376D1*
X614502Y1671923D1*
X612579Y1670021D1*
X611628Y1668098D1*
X610677Y1665246D1*
Y1660449D1*
X611628Y1657575D1*
X612579Y1655673D1*
X614502Y1653750D1*
X617376Y1652799D1*
X624075D1*
X590154Y1657575D2*
X591104Y1655673D1*
X593028Y1653750D1*
X594929Y1652799D1*
X598754D1*
X600677Y1653750D1*
X602578Y1655673D1*
X603551Y1657575D1*
X604502Y1660449D1*
Y1665246D1*
X603551Y1668098D1*
X602578Y1670021D1*
X600677Y1671923D1*
X598754Y1672895D1*
X594929D1*
X593028Y1671923D1*
X591104Y1670021D1*
X590154Y1668098D1*
Y1665246D1*
X594929D1*
X571553Y1652799D2*
X583978D1*
Y1672895D1*
X571553D1*
X583978Y1662372D2*
X576329D1*
X760772Y1652386D2*
Y1672482D1*
X752151D1*
X749277Y1671509D1*
X748326Y1670559D1*
X747375Y1668657D1*
Y1665783D1*
X748326Y1663860D1*
X749276Y1662909D1*
X752150Y1661959D1*
X749276Y1660986D1*
X748326Y1660035D1*
X747375Y1658134D1*
Y1656211D1*
X748326Y1654309D1*
X749276Y1653337D1*
X752150Y1652386D1*
X760772D1*
Y1661959D2*
X752150D1*
X735451Y1652386D2*
X737375Y1653337D1*
X739276Y1655260D1*
X740249Y1657161D1*
X741200Y1660035D1*
Y1664833D1*
X740249Y1667685D1*
X739276Y1669608D1*
X737375Y1671509D1*
X735452Y1672482D1*
X731627D1*
X729726Y1671509D1*
X727802Y1669608D1*
X726852Y1667684D1*
X725901Y1664833D1*
Y1660035D1*
X726852Y1657161D1*
X727802Y1655260D1*
X729726Y1653337D1*
X731627Y1652386D1*
X735451D1*
X704405Y1672482D2*
X712076Y1652386D1*
X719725Y1672482D1*
X716851Y1665783D2*
X707279D1*
X698229Y1661959D2*
X689629D1*
X686755Y1660986D1*
X685782Y1660035D1*
X684832Y1658134D1*
Y1656211D1*
X685782Y1654309D1*
X686755Y1653337D1*
X689629Y1652386D1*
X698229D1*
Y1672482D1*
X691530Y1661959D2*
X684832Y1672482D1*
X678656Y1652386D2*
Y1672482D1*
X671957D1*
X669083Y1671509D1*
X667160Y1669608D1*
X666209Y1667684D1*
X665258Y1664833D1*
Y1660035D1*
X666209Y1657161D1*
X667160Y1655260D1*
X669083Y1653337D1*
X671957Y1652386D1*
X678656D1*
M02*
