G04 DipTrace 3.1.0.1*
G04 Верхняямаркировка.gbr*
%MOIN*%
G04 #@! TF.FileFunction,Legend,Top*
G04 #@! TF.Part,Single*
%ADD10C,0.009843*%
%ADD16C,0.012992*%
%ADD17C,0.023676*%
%ADD21C,0.02362*%
%ADD23C,0.019654*%
%ADD28C,0.015403*%
%ADD61C,0.00772*%
%ADD62C,0.004374*%
%ADD63C,0.006562*%
%ADD64C,0.008749*%
%FSLAX26Y26*%
G04*
G70*
G90*
G75*
G01*
G04 TopSilk*
%LPD*%
X397302Y1222265D2*
D10*
X397326Y1186832D1*
X397302Y1222265D2*
X257604D1*
X228045Y1192741D2*
X257604Y1222265D1*
X228045Y1192741D2*
X228021Y1186832D1*
X397326Y1088406D2*
X397302Y1052974D1*
X257604D1*
X228045Y1082498D2*
X257604Y1052974D1*
X228021Y1088406D2*
X228045Y1082498D1*
D17*
X206393Y1192749D3*
X397302Y1022244D2*
D10*
X397326Y986811D1*
X397302Y1022244D2*
X257604D1*
X228045Y992720D2*
X257604Y1022244D1*
X228045Y992720D2*
X228021Y986811D1*
X397326Y888385D2*
X397302Y852953D1*
X257604D1*
X228045Y882477D2*
X257604Y852953D1*
X228021Y888385D2*
X228045Y882477D1*
D17*
X206393Y992728D3*
X721239Y1261929D2*
D10*
Y1313071D1*
X983739Y1261929D2*
Y1313071D1*
X182612Y304922D2*
X263319Y304954D1*
X182612Y304922D2*
Y88417D1*
X225927Y45122D2*
X182612Y88417D1*
X225927Y45122D2*
X263319D1*
X361747Y304954D2*
X442454Y304922D1*
Y88417D1*
X399138Y45122D2*
X442454Y88417D1*
X361747Y45122D2*
X399138D1*
D21*
X255458Y21467D3*
X1074432Y162278D2*
D10*
X1125573D1*
X986932D2*
X1038073D1*
X899526Y162291D2*
X950668D1*
X816044Y1711909D2*
X508956D1*
X816044D2*
Y1662717D1*
Y1529606D2*
Y1445358D1*
X780598Y1341846D2*
X753047D1*
X571953D2*
X544402D1*
X508956Y1445358D2*
Y1529606D1*
Y1662717D2*
Y1711909D1*
D23*
X725497Y1308362D3*
X1312502Y1187520D2*
D10*
X1212501D1*
Y187480D1*
X1312502D1*
Y1187520D1*
X112502D2*
X12501D1*
Y187480D1*
X112502D1*
Y1187520D1*
X462570Y125008D2*
X862583D1*
Y28D1*
X462570D1*
Y125008D1*
X493811Y28D2*
Y-274939D1*
X531332Y28D2*
Y-274939D1*
X493811D2*
X512531Y-294903D1*
X531332Y-274939D2*
X512531Y-294903D1*
X593814Y28D2*
Y-274939D1*
X631335Y28D2*
Y-274939D1*
X593814D2*
X612534Y-294903D1*
X631335Y-274939D2*
X612534Y-294903D1*
X693817Y28D2*
Y-274939D1*
X731338Y28D2*
Y-274939D1*
X693817D2*
X712538Y-294903D1*
X731338Y-274939D2*
X712538Y-294903D1*
X793820Y28D2*
Y-274939D1*
X831342Y28D2*
Y-274939D1*
X793820D2*
X812541Y-294903D1*
X831342Y-274939D2*
X812541Y-294903D1*
D28*
X1153880Y1631868D3*
X1154920Y1542618D2*
D10*
X895090D1*
X1154920Y1432382D2*
X895090D1*
Y1542618D2*
Y1432382D1*
X1154920Y1542618D2*
Y1432382D1*
X757002Y739026D2*
Y1148475D1*
X567998Y739026D2*
Y1148475D1*
X757002D2*
X567998D1*
X757002Y739026D2*
X690068D1*
X634932D2*
X567998D1*
X690068D2*
G03X634932Y739026I-27568J3711D01*
G01*
X511529Y707777D2*
D16*
X813222D1*
Y356320D1*
X511529D1*
Y707777D1*
X316892Y1283550D2*
D61*
X314515Y1288303D1*
X309707Y1293112D1*
X304954Y1295488D1*
X295392D1*
X290584Y1293112D1*
X285830Y1288303D1*
X283398Y1283550D1*
X281022Y1276365D1*
Y1264371D1*
X283398Y1257242D1*
X285830Y1252433D1*
X290584Y1247680D1*
X295392Y1245248D1*
X304954D1*
X309707Y1247680D1*
X314515Y1252433D1*
X316892Y1257242D1*
X332331Y1285871D2*
X337140Y1288303D1*
X344325Y1295433D1*
Y1245248D1*
X306142Y824056D2*
X303765Y828809D1*
X298957Y833617D1*
X294204Y835994D1*
X284642D1*
X279834Y833617D1*
X275080Y828809D1*
X272649Y824056D1*
X270272Y816871D1*
Y804877D1*
X272649Y797748D1*
X275080Y792939D1*
X279834Y788186D1*
X284642Y785754D1*
X294204D1*
X298957Y788186D1*
X303765Y792939D1*
X306142Y797748D1*
X324013Y824001D2*
Y826377D1*
X326390Y831186D1*
X328766Y833562D1*
X333575Y835939D1*
X343136D1*
X347889Y833562D1*
X350266Y831186D1*
X352698Y826377D1*
Y821624D1*
X350266Y816816D1*
X345513Y809686D1*
X321581Y785754D1*
X355074D1*
X785584Y1229076D2*
X783208Y1233829D1*
X778399Y1238637D1*
X773646Y1241014D1*
X764084D1*
X759276Y1238637D1*
X754523Y1233829D1*
X752091Y1229076D1*
X749714Y1221890D1*
Y1209897D1*
X752091Y1202767D1*
X754523Y1197959D1*
X759276Y1193206D1*
X764084Y1190774D1*
X773646D1*
X778399Y1193206D1*
X783208Y1197959D1*
X785584Y1202767D1*
X805832Y1240958D2*
X832085D1*
X817770Y1221835D1*
X824955D1*
X829708Y1219459D1*
X832085Y1217082D1*
X834517Y1209897D1*
Y1205144D1*
X832085Y1197959D1*
X827332Y1193150D1*
X820147Y1190774D1*
X812962D1*
X805832Y1193150D1*
X803455Y1195582D1*
X801023Y1200335D1*
X1046896Y1229076D2*
X1044519Y1233829D1*
X1039711Y1238637D1*
X1034958Y1241014D1*
X1025396D1*
X1020588Y1238637D1*
X1015834Y1233829D1*
X1013403Y1229076D1*
X1011026Y1221890D1*
Y1209897D1*
X1013403Y1202767D1*
X1015834Y1197959D1*
X1020588Y1193206D1*
X1025396Y1190774D1*
X1034958D1*
X1039711Y1193206D1*
X1044519Y1197959D1*
X1046896Y1202767D1*
X1086267Y1190774D2*
Y1240958D1*
X1062335Y1207520D1*
X1098205D1*
X306001Y394768D2*
X303625Y399521D1*
X298816Y404329D1*
X294063Y406706D1*
X284502D1*
X279693Y404329D1*
X274940Y399521D1*
X272508Y394768D1*
X270132Y387583D1*
Y375589D1*
X272508Y368459D1*
X274940Y363651D1*
X279693Y358898D1*
X284502Y356466D1*
X294063D1*
X298816Y358898D1*
X303625Y363651D1*
X306001Y368459D1*
X331002Y356466D2*
X354934Y406651D1*
X321441D1*
X374710Y1590975D2*
X412957D1*
X420142Y1588599D1*
X422518Y1586167D1*
X424950Y1581414D1*
Y1576605D1*
X422518Y1571852D1*
X420142Y1569475D1*
X412957Y1567044D1*
X408203D1*
X384327Y1606415D2*
X381895Y1611223D1*
X374765Y1618408D1*
X424950D1*
X1139278Y675000D2*
X1177524D1*
X1184709Y672623D1*
X1187086Y670191D1*
X1189518Y665438D1*
Y660630D1*
X1187086Y655876D1*
X1184709Y653500D1*
X1177524Y651068D1*
X1172771D1*
X1151271Y692871D2*
X1148895D1*
X1144086Y695247D1*
X1141710Y697624D1*
X1139333Y702432D1*
Y711994D1*
X1141710Y716747D1*
X1144086Y719124D1*
X1148895Y721556D1*
X1153648D1*
X1158456Y719124D1*
X1165586Y714371D1*
X1189518Y690439D1*
Y723932D1*
X129461Y675000D2*
X167707D1*
X174892Y672623D1*
X177269Y670191D1*
X179701Y665438D1*
Y660630D1*
X177269Y655876D1*
X174892Y653500D1*
X167707Y651068D1*
X162954D1*
X129516Y695247D2*
Y721500D1*
X148639Y707186D1*
Y714371D1*
X151016Y719124D1*
X153392Y721500D1*
X160577Y723932D1*
X165331D1*
X172516Y721500D1*
X177324Y716747D1*
X179701Y709562D1*
Y702377D1*
X177324Y695247D1*
X174892Y692871D1*
X170139Y690439D1*
X648887Y87591D2*
Y49344D1*
X646511Y42159D1*
X644079Y39782D1*
X639326Y37351D1*
X634517D1*
X629764Y39782D1*
X627388Y42159D1*
X624956Y49344D1*
Y54097D1*
X688258Y37351D2*
Y87535D1*
X664327Y54097D1*
X700197D1*
X1095413Y544552D2*
Y566051D1*
X1092981Y573236D1*
X1090604Y575668D1*
X1085851Y578045D1*
X1081043D1*
X1076290Y575668D1*
X1073858Y573236D1*
X1071481Y566051D1*
Y544552D1*
X1121721D1*
X1095413Y561298D2*
X1121721Y578045D1*
X1081098Y593484D2*
X1078666Y598293D1*
X1071536Y605478D1*
X1121721Y605477D1*
X1008692Y533802D2*
Y555301D1*
X1006260Y562486D1*
X1003883Y564918D1*
X999130Y567295D1*
X994322D1*
X989568Y564918D1*
X987137Y562486D1*
X984760Y555301D1*
Y533802D1*
X1035000D1*
X1008692Y550548D2*
X1035000Y567295D1*
X996753Y585166D2*
X994377D1*
X989568Y587543D1*
X987192Y589919D1*
X984815Y594728D1*
Y604289D1*
X987192Y609042D1*
X989568Y611419D1*
X994377Y613851D1*
X999130D1*
X1003938Y611419D1*
X1011068Y606666D1*
X1035000Y582734D1*
Y616227D1*
X921286Y533848D2*
Y555347D1*
X918854Y562532D1*
X916478Y564964D1*
X911724Y567341D1*
X906916D1*
X902163Y564964D1*
X899731Y562532D1*
X897354Y555347D1*
Y533848D1*
X947594D1*
X921286Y550594D2*
X947594Y567341D1*
X897410Y587589D2*
Y613842D1*
X916533Y599527D1*
Y606712D1*
X918910Y611465D1*
X921286Y613842D1*
X928471Y616273D1*
X933224D1*
X940409Y613841D1*
X945218Y609088D1*
X947594Y601903D1*
Y594718D1*
X945218Y587588D1*
X942786Y585212D1*
X938033Y582780D1*
X1178541Y1457037D2*
X1214411D1*
X1221596Y1459414D1*
X1226349Y1464222D1*
X1228781Y1471407D1*
Y1476160D1*
X1226349Y1483345D1*
X1221596Y1488154D1*
X1214411Y1490530D1*
X1178541D1*
X1188158Y1505970D2*
X1185726Y1510778D1*
X1178596Y1517963D1*
X1228781D1*
X621287Y1221698D2*
Y1185828D1*
X623664Y1178643D1*
X628472Y1173890D1*
X635657Y1171458D1*
X640410D1*
X647595Y1173890D1*
X652404Y1178643D1*
X654780Y1185828D1*
Y1221698D1*
X672651Y1209705D2*
Y1212081D1*
X675028Y1216890D1*
X677405Y1219266D1*
X682213Y1221643D1*
X691775D1*
X696528Y1219266D1*
X698905Y1216890D1*
X701336Y1212081D1*
Y1207328D1*
X698905Y1202520D1*
X694151Y1195390D1*
X670220Y1171458D1*
X703713D1*
X531171Y651101D2*
D62*
X538821Y631005D1*
X546470Y651101D1*
X569567Y646325D2*
X568616Y648227D1*
X566693Y650150D1*
X564792Y651101D1*
X560967D1*
X559044Y650150D1*
X557142Y648227D1*
X556170Y646325D1*
X555219Y643451D1*
Y638654D1*
X556170Y635802D1*
X557142Y633879D1*
X559044Y631978D1*
X560967Y631005D1*
X564792D1*
X566693Y631978D1*
X568616Y633879D1*
X569567Y635802D1*
X592664Y646325D2*
X591713Y648227D1*
X589790Y650150D1*
X587889Y651101D1*
X584064D1*
X582141Y650150D1*
X580239Y648227D1*
X579267Y646325D1*
X578316Y643451D1*
Y638654D1*
X579267Y635802D1*
X580239Y633879D1*
X582141Y631978D1*
X584064Y631005D1*
X587889D1*
X589790Y631978D1*
X591713Y633879D1*
X592664Y635802D1*
X542645Y682332D2*
X533095D1*
X532144Y673732D1*
X533095Y674683D1*
X535969Y675655D1*
X538821D1*
X541695Y674683D1*
X543618Y672781D1*
X544569Y669907D1*
Y668006D1*
X543618Y665132D1*
X541695Y663209D1*
X538821Y662258D1*
X535969D1*
X533095Y663209D1*
X532144Y664181D1*
X531171Y666083D1*
X553318Y682354D2*
X560967Y662258D1*
X568616Y682354D1*
X533095Y619825D2*
X543596D1*
X537870Y612176D1*
X540744D1*
X542645Y611225D1*
X543596Y610275D1*
X544569Y607401D1*
Y605500D1*
X543596Y602626D1*
X541695Y600702D1*
X538821Y599751D1*
X535947D1*
X533095Y600702D1*
X532144Y601675D1*
X531171Y603576D1*
X554268Y601675D2*
X553318Y600702D1*
X554268Y599751D1*
X555241Y600702D1*
X554268Y601675D1*
X565913Y619825D2*
X576415D1*
X570689Y612176D1*
X573563D1*
X575464Y611225D1*
X576415Y610275D1*
X577387Y607401D1*
Y605500D1*
X576415Y602626D1*
X574513Y600702D1*
X571639Y599751D1*
X568765D1*
X565913Y600702D1*
X564963Y601675D1*
X563990Y603576D1*
X586136Y619847D2*
X593786Y599751D1*
X601435Y619847D1*
X544569Y588594D2*
Y568498D1*
X531171Y588594D1*
Y568498D1*
X567666Y583819D2*
X566715Y585720D1*
X564792Y587644D1*
X562890Y588594D1*
X559066D1*
X557142Y587644D1*
X555241Y585720D1*
X554268Y583819D1*
X553318Y580945D1*
Y576148D1*
X554268Y573296D1*
X555241Y571372D1*
X557142Y569471D1*
X559066Y568498D1*
X562890D1*
X564792Y569471D1*
X566715Y571372D1*
X567666Y573296D1*
X544569Y557341D2*
Y537245D1*
X531171Y557341D1*
Y537245D1*
X567666Y552566D2*
X566715Y554467D1*
X564792Y556390D1*
X562890Y557341D1*
X559066D1*
X557142Y556390D1*
X555241Y554467D1*
X554268Y552566D1*
X553318Y549692D1*
Y544894D1*
X554268Y542042D1*
X555241Y540119D1*
X557142Y538218D1*
X559066Y537245D1*
X562890D1*
X564792Y538218D1*
X566715Y540119D1*
X567666Y542042D1*
X545519Y521312D2*
X544569Y523214D1*
X542645Y525137D1*
X540744Y526088D1*
X536920D1*
X534996Y525137D1*
X533095Y523214D1*
X532122Y521312D1*
X531171Y518438D1*
Y513641D1*
X532122Y510789D1*
X533095Y508866D1*
X534996Y506964D1*
X536920Y505992D1*
X540744D1*
X542645Y506964D1*
X544569Y508866D1*
X545519Y510789D1*
X554268Y526088D2*
Y505992D1*
X562890D1*
X565764Y506964D1*
X566715Y507915D1*
X567666Y509816D1*
Y512690D1*
X566715Y514614D1*
X565764Y515564D1*
X562890Y516515D1*
X565764Y517488D1*
X566715Y518438D1*
X567666Y520340D1*
Y522263D1*
X566715Y524164D1*
X565764Y525137D1*
X562890Y526088D1*
X554268D1*
Y516515D2*
X562890D1*
X576415Y526088D2*
Y511740D1*
X577365Y508866D1*
X579289Y506964D1*
X582163Y505992D1*
X584064D1*
X586938Y506964D1*
X588861Y508866D1*
X589812Y511740D1*
Y526088D1*
X611958Y523214D2*
X610057Y525137D1*
X607183Y526088D1*
X603358D1*
X600484Y525137D1*
X598561Y523214D1*
Y521312D1*
X599534Y519389D1*
X600484Y518438D1*
X602385Y517488D1*
X608134Y515564D1*
X610057Y514614D1*
X611008Y513641D1*
X611958Y511740D1*
Y508866D1*
X610057Y506964D1*
X607183Y505992D1*
X603358D1*
X600484Y506964D1*
X598561Y508866D1*
X626455Y526066D2*
X623581Y525115D1*
X621658Y522241D1*
X620707Y517466D1*
Y514592D1*
X621658Y509816D1*
X623581Y506942D1*
X626455Y505992D1*
X628356D1*
X631230Y506942D1*
X633132Y509816D1*
X634104Y514592D1*
Y517466D1*
X633132Y522241D1*
X631230Y525115D1*
X628356Y526066D1*
X626455D1*
X633132Y522241D2*
X621658Y509816D1*
X545519Y490059D2*
X544569Y491960D1*
X542645Y493884D1*
X540744Y494834D1*
X536920D1*
X534996Y493884D1*
X533095Y491960D1*
X532122Y490059D1*
X531171Y487185D1*
Y482388D1*
X532122Y479536D1*
X533095Y477612D1*
X534996Y475711D1*
X536920Y474738D1*
X540744D1*
X542645Y475711D1*
X544569Y477612D1*
X545519Y479536D1*
X554268Y494834D2*
Y474738D1*
X562890D1*
X565764Y475711D1*
X566715Y476662D1*
X567666Y478563D1*
Y481437D1*
X566715Y483360D1*
X565764Y484311D1*
X562890Y485262D1*
X565764Y486234D1*
X566715Y487185D1*
X567666Y489086D1*
Y491010D1*
X566715Y492911D1*
X565764Y493884D1*
X562890Y494834D1*
X554268D1*
Y485262D2*
X562890D1*
X576415Y494834D2*
Y480486D1*
X577365Y477612D1*
X579289Y475711D1*
X582163Y474738D1*
X584064D1*
X586938Y475711D1*
X588861Y477612D1*
X589812Y480486D1*
Y494834D1*
X611958Y491960D2*
X610057Y493884D1*
X607183Y494834D1*
X603358D1*
X600484Y493884D1*
X598561Y491960D1*
Y490059D1*
X599534Y488136D1*
X600484Y487185D1*
X602385Y486234D1*
X608134Y484311D1*
X610057Y483360D1*
X611008Y482388D1*
X611958Y480486D1*
Y477612D1*
X610057Y475711D1*
X607183Y474738D1*
X603358D1*
X600484Y475711D1*
X598561Y477612D1*
X620707Y490988D2*
X622630Y491960D1*
X625504Y494812D1*
Y474738D1*
X545519Y458806D2*
X544569Y460707D1*
X542645Y462630D1*
X540744Y463581D1*
X536920D1*
X534996Y462630D1*
X533095Y460707D1*
X532122Y458806D1*
X531171Y455932D1*
Y451134D1*
X532122Y448282D1*
X533095Y446359D1*
X534996Y444458D1*
X536920Y443485D1*
X540744D1*
X542645Y444458D1*
X544569Y446359D1*
X545519Y448282D1*
X554268Y463581D2*
Y443485D1*
X562890D1*
X565764Y444458D1*
X566715Y445408D1*
X567666Y447310D1*
Y450184D1*
X566715Y452107D1*
X565764Y453058D1*
X562890Y454008D1*
X565764Y454981D1*
X566715Y455932D1*
X567666Y457833D1*
Y459756D1*
X566715Y461658D1*
X565764Y462630D1*
X562890Y463581D1*
X554268D1*
Y454008D2*
X562890D1*
X576415Y463581D2*
Y449233D1*
X577365Y446359D1*
X579289Y444458D1*
X582163Y443485D1*
X584064D1*
X586938Y444458D1*
X588861Y446359D1*
X589812Y449233D1*
Y463581D1*
X611958Y460707D2*
X610057Y462630D1*
X607183Y463581D1*
X603358D1*
X600484Y462630D1*
X598561Y460707D1*
Y458806D1*
X599534Y456882D1*
X600484Y455932D1*
X602385Y454981D1*
X608134Y453058D1*
X610057Y452107D1*
X611008Y451134D1*
X611958Y449233D1*
Y446359D1*
X610057Y444458D1*
X607183Y443485D1*
X603358D1*
X600484Y444458D1*
X598561Y446359D1*
X621680Y458784D2*
Y459734D1*
X622630Y461658D1*
X623581Y462608D1*
X625504Y463559D1*
X629329D1*
X631230Y462608D1*
X632181Y461658D1*
X633154Y459734D1*
Y457833D1*
X632181Y455910D1*
X630280Y453058D1*
X620707Y443485D1*
X634104D1*
X545519Y427553D2*
X544569Y429454D1*
X542645Y431377D1*
X540744Y432328D1*
X536920D1*
X534996Y431377D1*
X533095Y429454D1*
X532122Y427553D1*
X531171Y424679D1*
Y419881D1*
X532122Y417029D1*
X533095Y415106D1*
X534996Y413205D1*
X536920Y412232D1*
X540744D1*
X542645Y413205D1*
X544569Y415106D1*
X545519Y417029D1*
X554268Y432328D2*
Y412232D1*
X562890D1*
X565764Y413205D1*
X566715Y414155D1*
X567666Y416056D1*
Y418930D1*
X566715Y420854D1*
X565764Y421804D1*
X562890Y422755D1*
X565764Y423728D1*
X566715Y424679D1*
X567666Y426580D1*
Y428503D1*
X566715Y430404D1*
X565764Y431377D1*
X562890Y432328D1*
X554268D1*
Y422755D2*
X562890D1*
X576415Y432328D2*
Y417980D1*
X577365Y415106D1*
X579289Y413205D1*
X582163Y412232D1*
X584064D1*
X586938Y413205D1*
X588861Y415106D1*
X589812Y417980D1*
Y432328D1*
X611958Y429454D2*
X610057Y431377D1*
X607183Y432328D1*
X603358D1*
X600484Y431377D1*
X598561Y429454D1*
Y427553D1*
X599534Y425629D1*
X600484Y424679D1*
X602385Y423728D1*
X608134Y421804D1*
X610057Y420854D1*
X611008Y419881D1*
X611958Y417980D1*
Y415106D1*
X610057Y413205D1*
X607183Y412232D1*
X603358D1*
X600484Y413205D1*
X598561Y415106D1*
X622630Y432306D2*
X633132D1*
X627406Y424656D1*
X630280D1*
X632181Y423706D1*
X633132Y422755D1*
X634104Y419881D1*
Y417980D1*
X633132Y415106D1*
X631230Y413182D1*
X628356Y412232D1*
X625482D1*
X622630Y413182D1*
X621680Y414155D1*
X620707Y416056D1*
X545519Y396299D2*
X544569Y398201D1*
X542645Y400124D1*
X540744Y401075D1*
X536920D1*
X534996Y400124D1*
X533095Y398201D1*
X532122Y396299D1*
X531171Y393425D1*
Y388628D1*
X532122Y385776D1*
X533095Y383853D1*
X534996Y381951D1*
X536920Y380979D1*
X540744D1*
X542645Y381951D1*
X544569Y383853D1*
X545519Y385776D1*
X554268Y401075D2*
Y380979D1*
X562890D1*
X565764Y381951D1*
X566715Y382902D1*
X567666Y384803D1*
Y387677D1*
X566715Y389601D1*
X565764Y390551D1*
X562890Y391502D1*
X565764Y392475D1*
X566715Y393425D1*
X567666Y395327D1*
Y397250D1*
X566715Y399151D1*
X565764Y400124D1*
X562890Y401075D1*
X554268D1*
Y391502D2*
X562890D1*
X576415Y401075D2*
Y386727D1*
X577365Y383853D1*
X579289Y381951D1*
X582163Y380979D1*
X584064D1*
X586938Y381951D1*
X588861Y383853D1*
X589812Y386727D1*
Y401075D1*
X611958Y398201D2*
X610057Y400124D1*
X607183Y401075D1*
X603358D1*
X600484Y400124D1*
X598561Y398201D1*
Y396299D1*
X599534Y394376D1*
X600484Y393425D1*
X602385Y392475D1*
X608134Y390551D1*
X610057Y389601D1*
X611008Y388628D1*
X611958Y386727D1*
Y383853D1*
X610057Y381951D1*
X607183Y380979D1*
X603358D1*
X600484Y381951D1*
X598561Y383853D1*
X630280Y380979D2*
Y401052D1*
X620707Y387677D1*
X635055D1*
X738020Y682225D2*
Y662129D1*
X731321Y682225D2*
X744718D1*
X753467D2*
X766865Y662129D1*
Y682225D2*
X753467Y662129D1*
X775614Y682225D2*
Y662129D1*
X782312D1*
X785186Y663102D1*
X787110Y665003D1*
X788060Y666927D1*
X789011Y669779D1*
Y674576D1*
X788060Y677450D1*
X787110Y679351D1*
X785186Y681275D1*
X782312Y682225D1*
X775614D1*
X731321Y641399D2*
X739921D1*
X742795Y642372D1*
X743768Y643323D1*
X744718Y645224D1*
Y647148D1*
X743768Y649049D1*
X742795Y650022D1*
X739921Y650972D1*
X731321D1*
Y630876D1*
X738020Y641399D2*
X744718Y630876D1*
X753467Y650972D2*
X766865Y630876D1*
Y650972D2*
X753467Y630876D1*
X775614Y650972D2*
Y630876D1*
X782312D1*
X785186Y631849D1*
X787110Y633750D1*
X788060Y635674D1*
X789011Y638525D1*
Y643323D1*
X788060Y646197D1*
X787110Y648098D1*
X785186Y650022D1*
X782312Y650972D1*
X775614D1*
X731321Y610146D2*
X739921D1*
X742795Y611119D1*
X743768Y612070D1*
X744718Y613971D1*
Y615894D1*
X743768Y617796D1*
X742795Y618768D1*
X739921Y619719D1*
X731321D1*
Y599623D1*
X738020Y610146D2*
X744718Y599623D1*
X760166Y619719D2*
Y599623D1*
X753467Y619719D2*
X766865D1*
X789011Y616845D2*
X787110Y618768D1*
X784236Y619719D1*
X780411D1*
X777537Y618768D1*
X775614Y616845D1*
Y614944D1*
X776586Y613020D1*
X777537Y612070D1*
X779438Y611119D1*
X785186Y609196D1*
X787110Y608245D1*
X788060Y607272D1*
X789011Y605371D1*
Y602497D1*
X787110Y600596D1*
X784236Y599623D1*
X780411D1*
X777537Y600596D1*
X775614Y602497D1*
X745669Y583690D2*
X744718Y585592D1*
X742795Y587515D1*
X740894Y588466D1*
X737069D1*
X735146Y587515D1*
X733244Y585592D1*
X732272Y583690D1*
X731321Y580816D1*
Y576019D1*
X732272Y573167D1*
X733244Y571244D1*
X735146Y569342D1*
X737069Y568370D1*
X740894D1*
X742795Y569342D1*
X744718Y571244D1*
X745669Y573167D1*
X761117Y588466D2*
Y568370D1*
X754418Y588466D2*
X767815D1*
X789962Y585592D2*
X788060Y587515D1*
X785186Y588466D1*
X781362D1*
X778488Y587515D1*
X776564Y585592D1*
Y583690D1*
X777537Y581767D1*
X778488Y580816D1*
X780389Y579866D1*
X786137Y577942D1*
X788060Y576992D1*
X789011Y576019D1*
X789962Y574118D1*
Y571244D1*
X788060Y569342D1*
X785186Y568370D1*
X781362D1*
X778488Y569342D1*
X776564Y571244D1*
X731321Y557212D2*
Y537116D1*
X738020D1*
X740894Y538089D1*
X742817Y539990D1*
X743768Y541914D1*
X744718Y544766D1*
Y549563D1*
X743768Y552437D1*
X742817Y554338D1*
X740894Y556262D1*
X738020Y557212D1*
X731321D1*
X760166D2*
Y537116D1*
X753467Y557212D2*
X766865D1*
X775614Y547640D2*
X784214D1*
X787088Y548612D1*
X788060Y549563D1*
X789011Y551464D1*
Y553388D1*
X788060Y555289D1*
X787088Y556262D1*
X784214Y557212D1*
X775614D1*
Y537116D1*
X782312Y547640D2*
X789011Y537116D1*
X731321Y525959D2*
Y505863D1*
X738020D1*
X740894Y506836D1*
X742817Y508737D1*
X743768Y510660D1*
X744718Y513512D1*
Y518310D1*
X743768Y521184D1*
X742817Y523085D1*
X740894Y525008D1*
X738020Y525959D1*
X731321D1*
X766865Y523085D2*
X764963Y525008D1*
X762089Y525959D1*
X758265D1*
X755391Y525008D1*
X753467Y523085D1*
Y521184D1*
X754440Y519260D1*
X755391Y518310D1*
X757292Y517359D1*
X763040Y515436D1*
X764963Y514485D1*
X765914Y513512D1*
X766865Y511611D1*
Y508737D1*
X764963Y506836D1*
X762089Y505863D1*
X758265D1*
X755391Y506836D1*
X753467Y508737D1*
X775614Y516386D2*
X784214D1*
X787088Y517359D1*
X788060Y518310D1*
X789011Y520211D1*
Y522134D1*
X788060Y524036D1*
X787088Y525008D1*
X784214Y525959D1*
X775614D1*
Y505863D1*
X782312Y516386D2*
X789011Y505863D1*
X731321Y494706D2*
Y474610D1*
X738020D1*
X740894Y475583D1*
X742817Y477484D1*
X743768Y479407D1*
X744718Y482259D1*
Y487056D1*
X743768Y489930D1*
X742817Y491832D1*
X740894Y493755D1*
X738020Y494706D1*
X731321D1*
X767815Y489930D2*
X766865Y491832D1*
X764941Y493755D1*
X763040Y494706D1*
X759215D1*
X757292Y493755D1*
X755391Y491832D1*
X754418Y489930D1*
X753467Y487056D1*
Y482259D1*
X754418Y479407D1*
X755391Y477484D1*
X757292Y475583D1*
X759215Y474610D1*
X763040D1*
X764941Y475583D1*
X766865Y477484D1*
X767815Y479407D1*
X776564Y494706D2*
Y474610D1*
X783263D1*
X786137Y475583D1*
X788060Y477484D1*
X789011Y479407D1*
X789962Y482259D1*
Y487056D1*
X789011Y489930D1*
X788060Y491832D1*
X786137Y493755D1*
X783263Y494706D1*
X776564D1*
X762574Y453880D2*
X771174D1*
X774048Y454853D1*
X775021Y455803D1*
X775972Y457704D1*
Y459628D1*
X775021Y461529D1*
X774048Y462502D1*
X771174Y463452D1*
X762574D1*
Y443356D1*
X769273Y453880D2*
X775972Y443356D1*
X784721Y463452D2*
Y443356D1*
X687566Y422627D2*
X696166D1*
X699040Y423599D1*
X700013Y424550D1*
X700964Y426451D1*
Y428375D1*
X700013Y430276D1*
X699040Y431249D1*
X696166Y432199D1*
X687566D1*
Y412103D1*
X694265Y422627D2*
X700964Y412103D1*
X722137Y432199D2*
X709713D1*
Y412103D1*
X722137D1*
X709713Y422627D2*
X717362D1*
X744284Y429325D2*
X742382Y431249D1*
X739508Y432199D1*
X735684D1*
X732810Y431249D1*
X730886Y429325D1*
Y427424D1*
X731859Y425501D1*
X732810Y424550D1*
X734711Y423599D1*
X740459Y421676D1*
X742382Y420725D1*
X743333Y419753D1*
X744284Y417851D1*
Y414977D1*
X742382Y413076D1*
X739508Y412103D1*
X735684D1*
X732810Y413076D1*
X730886Y414977D1*
X765457Y432199D2*
X753032D1*
Y412103D1*
X765457D1*
X753032Y422627D2*
X760682D1*
X780905Y432199D2*
Y412103D1*
X774206Y432199D2*
X787603D1*
X745669Y396171D2*
X744718Y398072D1*
X742795Y399995D1*
X740894Y400946D1*
X737069D1*
X735146Y399995D1*
X733244Y398072D1*
X732272Y396171D1*
X731321Y393297D1*
Y388499D1*
X732272Y385647D1*
X733244Y383724D1*
X735146Y381823D1*
X737069Y380850D1*
X740894D1*
X742795Y381823D1*
X744718Y383724D1*
X745669Y385647D1*
Y388499D1*
X740894D1*
X767815Y400946D2*
Y380850D1*
X754418Y400946D1*
Y380850D1*
X776564Y400946D2*
Y380850D1*
X783263D1*
X786137Y381823D1*
X788060Y383724D1*
X789011Y385647D1*
X789962Y388499D1*
Y393297D1*
X789011Y396171D1*
X788060Y398072D1*
X786137Y399995D1*
X783263Y400946D1*
X776564D1*
X491790Y235248D2*
D63*
X521934Y246722D1*
X491790Y258196D1*
X498953Y292841D2*
X496101Y291415D1*
X493216Y288530D1*
X491790Y285678D1*
Y279941D1*
X493216Y277056D1*
X496101Y274204D1*
X498953Y272745D1*
X503264Y271319D1*
X510460D1*
X514738Y272745D1*
X517623Y274204D1*
X520475Y277056D1*
X521934Y279941D1*
Y285678D1*
X520475Y288530D1*
X517623Y291415D1*
X514738Y292841D1*
X498953Y327487D2*
X496101Y326061D1*
X493216Y323176D1*
X491790Y320324D1*
Y314587D1*
X493216Y311702D1*
X496101Y308850D1*
X498953Y307391D1*
X503264Y305965D1*
X510460D1*
X514738Y307391D1*
X517623Y308850D1*
X520475Y311702D1*
X521934Y314587D1*
Y320324D1*
X520475Y323176D1*
X517623Y326061D1*
X514738Y327487D1*
X595199Y248148D2*
X625343D1*
X595199Y238100D2*
Y258196D1*
Y271319D2*
X625343Y291415D1*
X595199D2*
X625343Y271319D1*
X595199Y304538D2*
X625343D1*
Y314586D1*
X623884Y318897D1*
X621032Y321783D1*
X618147Y323209D1*
X613869Y324634D1*
X606673D1*
X602362Y323209D1*
X599510Y321783D1*
X596625Y318898D1*
X595199Y314586D1*
Y304538D1*
X709569Y238100D2*
Y251000D1*
X708110Y255311D1*
X706684Y256770D1*
X703832Y258196D1*
X700947D1*
X698095Y256770D1*
X696636Y255311D1*
X695210Y251000D1*
Y238100D1*
X725354D1*
X709569Y248148D2*
X725354Y258196D1*
X695210Y271319D2*
X725354Y291415D1*
X695210D2*
X725354Y271319D1*
X695210Y304538D2*
X725354D1*
Y314586D1*
X723895Y318897D1*
X721043Y321783D1*
X718158Y323209D1*
X713880Y324634D1*
X706684D1*
X702373Y323209D1*
X699521Y321783D1*
X696636Y318898D1*
X695210Y314586D1*
Y304538D1*
X803096Y258909D2*
X800244Y257483D1*
X797359Y254598D1*
X795933Y251746D1*
Y246009D1*
X797359Y243124D1*
X800244Y240272D1*
X803096Y238813D1*
X807407Y237387D1*
X814603D1*
X818881Y238813D1*
X821766Y240272D1*
X824618Y243124D1*
X826077Y246009D1*
Y251746D1*
X824618Y254598D1*
X821766Y257483D1*
X818881Y258909D1*
X814603D1*
Y251746D1*
X795933Y292129D2*
X826077Y292128D1*
X795933Y272033D1*
X826077Y272032D1*
X795933Y305252D2*
X826077D1*
Y315300D1*
X824618Y319611D1*
X821766Y322496D1*
X818881Y323922D1*
X814603Y325348D1*
X807407D1*
X803096Y323922D1*
X800244Y322496D1*
X797359Y319611D1*
X795933Y315300D1*
Y305252D1*
X924240Y187373D2*
Y200306D1*
X922814Y204584D1*
X921355Y206043D1*
X918503Y207469D1*
X914192D1*
X911340Y206043D1*
X909881Y204584D1*
X908455Y200306D1*
Y187373D1*
X938599D1*
X908455Y229214D2*
X909881Y226329D1*
X912766Y223477D1*
X915618Y222018D1*
X919929Y220592D1*
X927125D1*
X931403Y222018D1*
X934288Y223477D1*
X937140Y226329D1*
X938599Y229214D1*
Y234951D1*
X937140Y237803D1*
X934288Y240688D1*
X931403Y242114D1*
X927125Y243540D1*
X919929D1*
X915618Y242114D1*
X912766Y240688D1*
X909881Y237803D1*
X908455Y234951D1*
Y229214D1*
Y256663D2*
X938599Y263859D1*
X908455Y271022D1*
X938599Y278185D1*
X908455Y285381D1*
Y317142D2*
Y298505D1*
X938599D1*
Y317142D1*
X922814Y298505D2*
Y309979D1*
Y330265D2*
Y343165D1*
X921355Y347476D1*
X919929Y348935D1*
X917077Y350361D1*
X914192D1*
X911340Y348935D1*
X909881Y347476D1*
X908455Y343165D1*
Y330265D1*
X938599D1*
X922814Y340313D2*
X938599Y350361D1*
X1009600Y194315D2*
Y207215D1*
X1008141Y211526D1*
X1006715Y212985D1*
X1003863Y214411D1*
X1000978D1*
X998126Y212985D1*
X996667Y211526D1*
X995241Y207215D1*
Y194315D1*
X1025385D1*
X1009600Y204363D2*
X1025385Y214411D1*
X995241Y227534D2*
X1025385Y247630D1*
X995241D2*
X1025385Y227534D1*
X995241Y260754D2*
X1025385D1*
Y277965D1*
X995241Y309725D2*
Y291088D1*
X1025385D1*
Y309725D1*
X1009600Y291088D2*
Y302562D1*
X995241Y322848D2*
X1025385D1*
Y332896D1*
X1023926Y337207D1*
X1021074Y340092D1*
X1018189Y341518D1*
X1013911Y342944D1*
X1006715D1*
X1002404Y341518D1*
X999552Y340092D1*
X996667Y337207D1*
X995241Y332896D1*
Y322848D1*
X1082750Y204363D2*
X1112894D1*
X1082750Y194315D2*
Y214411D1*
Y227534D2*
X1112894Y247630D1*
X1082750D2*
X1112894Y227534D1*
X1082750Y260754D2*
X1112894D1*
Y277965D1*
X1082750Y309725D2*
Y291088D1*
X1112894D1*
Y309725D1*
X1097109Y291088D2*
Y302562D1*
X1082750Y322848D2*
X1112894D1*
Y332896D1*
X1111435Y337207D1*
X1108583Y340092D1*
X1105698Y341518D1*
X1101420Y342944D1*
X1094224D1*
X1089913Y341518D1*
X1087061Y340092D1*
X1084176Y337207D1*
X1082750Y332896D1*
Y322848D1*
X73566Y1388369D2*
D64*
X61292Y1428561D1*
X49053Y1388369D1*
X53651Y1401766D2*
X68968D1*
X87564Y1428561D2*
X99803Y1388369D1*
X112042Y1428561D1*
X126040Y1409416D2*
X139800D1*
X144399Y1411361D1*
X145955Y1413263D1*
X147476Y1417065D1*
Y1420912D1*
X145955Y1424714D1*
X144399Y1426660D1*
X139800Y1428561D1*
X126040D1*
Y1388369D1*
X136758Y1409416D2*
X147476Y1388369D1*
X185987D2*
X173713Y1428561D1*
X161474Y1388369D1*
X166073Y1401766D2*
X181389D1*
X221421Y1422813D2*
X218379Y1426660D1*
X213781Y1428561D1*
X207662D1*
X203063Y1426660D1*
X199986Y1422813D1*
Y1419011D1*
X201542Y1415164D1*
X203063Y1413263D1*
X206105Y1411361D1*
X215302Y1407515D1*
X218379Y1405613D1*
X219900Y1403668D1*
X221421Y1399865D1*
Y1394117D1*
X218379Y1390315D1*
X213781Y1388369D1*
X207662D1*
X203063Y1390315D1*
X199986Y1394117D1*
X259897Y1388369D2*
Y1428561D1*
X247659Y1388369D1*
X235420Y1428561D1*
Y1388369D1*
X273896Y1420868D2*
X276973Y1422813D1*
X281572Y1428517D1*
Y1388369D1*
X297126Y1418966D2*
Y1420868D1*
X298647Y1424714D1*
X300168Y1426616D1*
X303246Y1428517D1*
X309365D1*
X312407Y1426616D1*
X313928Y1424714D1*
X315485Y1420868D1*
Y1417065D1*
X313928Y1413218D1*
X310886Y1407515D1*
X295570Y1388369D1*
X317006D1*
X334081Y1428517D2*
X350883D1*
X341722Y1413218D1*
X346320D1*
X349362Y1411317D1*
X350883Y1409416D1*
X352440Y1403668D1*
Y1399865D1*
X350883Y1394117D1*
X347841Y1390270D1*
X343243Y1388369D1*
X338644D1*
X334081Y1390270D1*
X332560Y1392216D1*
X331004Y1396018D1*
X381754Y1388369D2*
Y1428517D1*
X366438Y1401766D1*
X389395D1*
X97353Y1357136D2*
D63*
X100238Y1358595D1*
X104549Y1362873D1*
Y1332762D1*
X120558Y1362873D2*
X136309D1*
X127720Y1351399D1*
X132031D1*
X134883Y1349973D1*
X136309Y1348547D1*
X137768Y1344236D1*
Y1341384D1*
X136309Y1337073D1*
X133457Y1334188D1*
X129146Y1332762D1*
X124835D1*
X120558Y1334188D1*
X119132Y1335647D1*
X117672Y1338499D1*
X152318Y1335647D2*
X150892Y1334188D1*
X152318Y1332762D1*
X153777Y1334188D1*
X152318Y1335647D1*
X166900Y1357136D2*
X169785Y1358595D1*
X174096Y1362873D1*
Y1332762D1*
X188679Y1355710D2*
Y1357136D1*
X190105Y1360021D1*
X191531Y1361447D1*
X194416Y1362873D1*
X200153D1*
X203005Y1361447D1*
X204431Y1360021D1*
X205890Y1357136D1*
Y1354284D1*
X204431Y1351399D1*
X201579Y1347121D1*
X187220Y1332762D1*
X207316D1*
X221865Y1335647D2*
X220439Y1334188D1*
X221865Y1332762D1*
X223324Y1334188D1*
X221865Y1335647D1*
X237907Y1355710D2*
Y1357136D1*
X239333Y1360021D1*
X240759Y1361447D1*
X243644Y1362873D1*
X249381D1*
X252232Y1361447D1*
X253658Y1360021D1*
X255118Y1357136D1*
Y1354284D1*
X253658Y1351399D1*
X250807Y1347121D1*
X236448Y1332762D1*
X256544D1*
X278289Y1362873D2*
X273978Y1361447D1*
X271093Y1357136D1*
X269667Y1349973D1*
Y1345662D1*
X271093Y1338499D1*
X273978Y1334188D1*
X278289Y1332762D1*
X281141D1*
X285452Y1334188D1*
X288304Y1338499D1*
X289763Y1345662D1*
Y1349973D1*
X288304Y1357136D1*
X285452Y1361447D1*
X281141Y1362873D1*
X278289D1*
X288304Y1357136D2*
X271093Y1338499D1*
X302886Y1357136D2*
X305771Y1358595D1*
X310082Y1362873D1*
Y1332762D1*
X328943D2*
X343302Y1362873D1*
X323206D1*
X51737Y1491068D2*
D64*
Y1450876D1*
Y1491068D2*
X30301Y1450876D1*
Y1491068D2*
Y1450876D1*
X65735Y1477670D2*
Y1450876D1*
X76064D1*
X79530Y1452158D1*
X80662Y1453440D1*
X81794Y1455960D1*
Y1459807D1*
X80662Y1462372D1*
X79530Y1463654D1*
X76064Y1464892D1*
X79530Y1466219D1*
X80662Y1467457D1*
X81794Y1470021D1*
Y1472586D1*
X80662Y1475106D1*
X79530Y1476388D1*
X76064Y1477670D1*
X65735D1*
Y1464892D2*
X76064D1*
X114151Y1477670D2*
Y1450876D1*
Y1471922D2*
X111109Y1475769D1*
X108031Y1477670D1*
X103468D1*
X100391Y1475769D1*
X97349Y1471922D1*
X95792Y1466174D1*
Y1462372D1*
X97349Y1456624D1*
X100391Y1452821D1*
X103468Y1450876D1*
X108031D1*
X111109Y1452821D1*
X114151Y1456624D1*
X128149Y1477670D2*
Y1450876D1*
X144208Y1477670D2*
Y1450876D1*
X128149Y1464892D2*
X144208D1*
X174265Y1477670D2*
Y1450876D1*
Y1477670D2*
X158206Y1450876D1*
Y1477670D2*
Y1450876D1*
X188264D2*
Y1477670D1*
X211220D2*
Y1450876D1*
X199724Y1477670D2*
Y1450876D1*
X188264D2*
X211220D1*
X241278Y1477670D2*
Y1450876D1*
Y1477670D2*
X225219Y1450876D1*
Y1477670D2*
Y1450876D1*
X255276Y1477670D2*
Y1450876D1*
X271335Y1477670D2*
Y1450876D1*
X255276Y1464892D2*
X271335D1*
X320555Y1491068D2*
Y1450876D1*
X334350D1*
X338949Y1452821D1*
X340470Y1454722D1*
X341991Y1458525D1*
Y1464273D1*
X340470Y1468120D1*
X338949Y1470021D1*
X334350Y1471922D1*
X338949Y1473868D1*
X340470Y1475769D1*
X341991Y1479572D1*
Y1483418D1*
X340470Y1487221D1*
X338949Y1489166D1*
X334350Y1491068D1*
X320555D1*
Y1471922D2*
X334350D1*
X357510Y1454722D2*
X355989Y1452777D1*
X357510Y1450876D1*
X359067Y1452777D1*
X357510Y1454722D1*
X373065Y1491068D2*
Y1450876D1*
X386860D1*
X391458Y1452821D1*
X392979Y1454722D1*
X394500Y1458525D1*
Y1464273D1*
X392979Y1468120D1*
X391458Y1470021D1*
X386860Y1471922D1*
X391458Y1473868D1*
X392979Y1475769D1*
X394500Y1479572D1*
Y1483418D1*
X392979Y1487221D1*
X391458Y1489166D1*
X386860Y1491068D1*
X373065D1*
Y1471922D2*
X386860D1*
X410020Y1454722D2*
X408499Y1452777D1*
X410020Y1450876D1*
X411576Y1452777D1*
X410020Y1454722D1*
M02*
