G04 DipTrace 3.1.0.1*
G04 Верхний.gbr*
%MOIN*%
G04 #@! TF.FileFunction,Copper,L1,Top*
G04 #@! TF.Part,Single*
G04 #@! TA.AperFunction,CopperBalancing*
%ADD14C,0.011811*%
G04 #@! TA.AperFunction,Conductor*
%ADD15C,0.019685*%
%ADD18R,0.100394X0.062992*%
%ADD19R,0.051181X0.059055*%
%ADD20R,0.059055X0.051181*%
%ADD22R,0.062992X0.124016*%
%ADD24R,0.019685X0.090551*%
%ADD25R,0.07874X0.098425*%
G04 #@! TA.AperFunction,ComponentPad*
%ADD26R,0.07874X0.07874*%
%ADD27C,0.07874*%
%ADD29R,0.037402X0.084646*%
%ADD30R,0.127953X0.084646*%
%ADD31R,0.070866X0.015748*%
G04 #@! TA.AperFunction,ViaPad*
%ADD32C,0.047244*%
%FSLAX26Y26*%
G04*
G70*
G90*
G75*
G01*
G04 Top*
%LPD*%
X806335Y637567D2*
D14*
X1087614D1*
X1100003Y625178D1*
Y487403D1*
X520772Y905365D2*
X588542D1*
X600063Y893844D1*
Y650068D1*
X587562Y637567D1*
X518804D1*
X1012503Y487403D2*
Y525159D1*
X1000105Y537556D1*
X806335D1*
X520772Y930955D2*
X612957D1*
X625066Y918846D1*
Y550058D1*
X612564Y537556D1*
X518804D1*
X804236Y1084499D2*
X759270D1*
X750001Y1093768D1*
Y1152974D1*
X759650Y1162622D1*
X800084D1*
X804236Y1110089D2*
X847739D1*
X856251Y1118601D1*
Y1162500D1*
X856249D1*
X804236Y1058908D2*
X871407D1*
X893751Y1081252D1*
X804236Y1033318D2*
X1173164D1*
X1187625Y1018857D1*
Y850089D1*
X1200214Y837500D1*
X1262500D1*
X520764Y1110089D2*
X651133D1*
X662500Y1121457D1*
Y1375295D1*
X520772Y1084499D2*
X681526D1*
X693751Y1096723D1*
Y1375050D1*
X693996Y1375295D1*
X804236Y1007727D2*
X1148749D1*
X1162622Y993854D1*
Y837588D1*
X1187625Y812585D1*
Y556308D1*
X1206433Y537500D1*
X1262500D1*
X804236Y982136D2*
X1124335D1*
X1137619Y968852D1*
Y731327D1*
X981353Y768752D2*
X947102Y803003D1*
X804236D1*
X520772Y1007727D2*
X632688D1*
X662570Y1037609D1*
X804236Y905365D2*
X1082344D1*
X1093865Y893844D1*
Y700073D1*
X1106366Y687572D1*
X1150121D1*
X1162622Y675071D1*
Y543807D1*
X1187625Y518804D1*
Y450047D1*
X1200172Y437500D1*
X1262500D1*
X804236Y828593D2*
X959094D1*
X981353Y806335D1*
X1025108D1*
X804236Y879774D2*
X963978D1*
X981161Y862591D1*
X1025108D1*
X712570Y175018D2*
X675071Y212517D1*
Y675071D1*
X687501Y687501D1*
X1056467D1*
X1068751Y699785D1*
Y850026D1*
X1056186Y862591D1*
X1025108D1*
X804236Y777412D2*
X658650D1*
X650070Y768832D1*
Y212518D1*
X612570Y175018D1*
X804236Y777412D2*
X904014D1*
X918846Y762580D1*
Y743828D1*
X931348Y731327D1*
X1025108D1*
X1100003Y50094D2*
X1012503D1*
X312533Y78562D2*
D15*
X409846D1*
X425045Y93760D1*
Y162517D1*
X437546Y175018D1*
X512570D1*
X62500Y1037500D2*
X131373D1*
X143765Y1025108D1*
Y737577D1*
Y206272D1*
X156266Y193770D1*
X187520D1*
X200021Y181269D1*
Y93760D1*
X215219Y78562D1*
X312533D1*
X804236Y854184D2*
D14*
X677227D1*
X662570Y868841D1*
Y912596D1*
X181269Y737577D2*
X143765D1*
X1012503Y50094D2*
X925110D1*
X925097Y50108D1*
X524953D1*
X512554Y62507D1*
Y175003D1*
X512570Y175018D1*
X934449Y1601673D2*
D15*
Y1315699D1*
X906249Y1287500D1*
X725492Y1375295D2*
Y1324606D1*
X762598Y1287500D1*
Y1243749D1*
X775076Y1231272D1*
X893770D1*
X906249Y1243751D1*
Y1287500D1*
X520772Y982136D2*
D14*
X713358D1*
X724686Y993465D1*
Y1248958D1*
X762598Y1286870D1*
Y1287500D1*
X243776Y1137619D2*
D15*
Y1237630D1*
X837402Y1287500D2*
Y1378937D1*
X837697Y1379232D1*
X804236Y930955D2*
D14*
X737970D1*
X712379Y956546D1*
X520772D1*
X243776Y268778D2*
X309836D1*
X312533Y271475D1*
X381290Y268778D2*
X315230D1*
X312533Y271475D1*
X1025000Y1373327D2*
D15*
X1025098Y1287500D1*
X968717D1*
X956350Y1275134D1*
Y1237630D1*
X1025000Y1373327D2*
Y1601673D1*
X243776Y937598D2*
Y1037609D1*
X1100003Y412600D2*
D14*
Y124898D1*
X1012503D2*
Y412600D1*
X925097Y412646D2*
Y124911D1*
D32*
X1137619Y731327D3*
X1025108Y862591D3*
Y806335D3*
Y731327D3*
X243776Y1237630D3*
X893751Y1081252D3*
X800084Y1162622D3*
X856249Y1162500D3*
X662570Y1037609D3*
X906249Y1287500D3*
X956350Y1237630D3*
X806335Y537556D3*
Y637567D3*
X981353Y768752D3*
X243776Y268778D3*
Y1037609D3*
X518804Y637567D3*
Y537556D3*
X381290Y268778D3*
X662570Y912596D3*
X181269Y737577D3*
X406293Y1037609D3*
X62507Y1237630D3*
X1262633D3*
X312533Y737577D3*
X7098Y1669916D2*
D14*
X38370D1*
X136627D2*
X1188375D1*
X1286634D2*
X1317906D1*
X7098Y1658236D2*
X24713D1*
X150283D2*
X428572D1*
X546046D2*
X778958D1*
X972510D2*
X986920D1*
X1063077D2*
X1077486D1*
X1153621D2*
X1174719D1*
X1300290D2*
X1317906D1*
X7098Y1646556D2*
X15453D1*
X159534D2*
X428572D1*
X546046D2*
X778958D1*
X972510D2*
X986920D1*
X1063077D2*
X1077486D1*
X1153621D2*
X1165469D1*
X1309541D2*
X1317906D1*
X165948Y1634877D2*
X428572D1*
X546046D2*
X778958D1*
X972510D2*
X986920D1*
X1063077D2*
X1077486D1*
X1153621D2*
X1159062D1*
X170215Y1623197D2*
X428572D1*
X546046D2*
X778958D1*
X972510D2*
X986920D1*
X1063077D2*
X1077486D1*
X172684Y1611517D2*
X428572D1*
X546046D2*
X778958D1*
X972510D2*
X986920D1*
X1063077D2*
X1077486D1*
X173467Y1599837D2*
X428572D1*
X546046D2*
X778958D1*
X972510D2*
X986920D1*
X1063077D2*
X1077486D1*
X172636Y1588157D2*
X428572D1*
X546046D2*
X778958D1*
X972510D2*
X986920D1*
X1063077D2*
X1077486D1*
X170122Y1576478D2*
X428572D1*
X546046D2*
X778958D1*
X972510D2*
X986920D1*
X1063077D2*
X1077486D1*
X165808Y1564798D2*
X428572D1*
X546046D2*
X778958D1*
X972510D2*
X986920D1*
X1063077D2*
X1077486D1*
X1153621D2*
X1159190D1*
X7098Y1553118D2*
X15682D1*
X159327D2*
X428572D1*
X546046D2*
X778958D1*
X972510D2*
X986920D1*
X1063077D2*
X1077486D1*
X1153621D2*
X1165677D1*
X1309310D2*
X1317906D1*
X7098Y1541438D2*
X25013D1*
X149984D2*
X428572D1*
X546046D2*
X778958D1*
X972510D2*
X986920D1*
X1063077D2*
X1077486D1*
X1153621D2*
X1175020D1*
X1299990D2*
X1317906D1*
X7098Y1529759D2*
X38854D1*
X136143D2*
X428572D1*
X546046D2*
X778958D1*
X896432D2*
X905234D1*
X963652D2*
X995778D1*
X1054219D2*
X1188861D1*
X1286150D2*
X1317906D1*
X7098Y1518079D2*
X64507D1*
X110491D2*
X905234D1*
X963652D2*
X995778D1*
X1054219D2*
X1214512D1*
X1260497D2*
X1317906D1*
X7098Y1506399D2*
X550558D1*
X601178D2*
X723778D1*
X774423D2*
X905234D1*
X963652D2*
X995778D1*
X1054219D2*
X1317906D1*
X7098Y1494719D2*
X541261D1*
X610475D2*
X714482D1*
X783719D2*
X905234D1*
X963652D2*
X995778D1*
X1054219D2*
X1317906D1*
X7098Y1483039D2*
X537547D1*
X614189D2*
X710768D1*
X787433D2*
X905234D1*
X963652D2*
X995778D1*
X1054219D2*
X1317906D1*
X7098Y1471360D2*
X537685D1*
X614051D2*
X710906D1*
X787272D2*
X905234D1*
X963652D2*
X995778D1*
X1054219D2*
X1317906D1*
X7098Y1459680D2*
X541745D1*
X609991D2*
X714966D1*
X783235D2*
X905234D1*
X963652D2*
X995778D1*
X1054219D2*
X1317906D1*
X7098Y1448000D2*
X551688D1*
X600049D2*
X724908D1*
X773269D2*
X905234D1*
X963652D2*
X995778D1*
X1054219D2*
X1317906D1*
X7098Y1436320D2*
X428572D1*
X546046D2*
X570304D1*
X754699D2*
X778958D1*
X896432D2*
X905234D1*
X963652D2*
X995778D1*
X1054219D2*
X1317906D1*
X7098Y1424640D2*
X428572D1*
X546046D2*
X570304D1*
X754699D2*
X778958D1*
X896432D2*
X905234D1*
X1108337D2*
X1317906D1*
X7098Y1412961D2*
X428572D1*
X546046D2*
X570304D1*
X754699D2*
X778958D1*
X896432D2*
X905234D1*
X1108337D2*
X1317906D1*
X7098Y1401281D2*
X428572D1*
X546046D2*
X570304D1*
X754699D2*
X778958D1*
X896432D2*
X905234D1*
X1108337D2*
X1317906D1*
X7098Y1389601D2*
X428572D1*
X546046D2*
X570304D1*
X754699D2*
X778958D1*
X896432D2*
X905234D1*
X1108337D2*
X1317906D1*
X7098Y1377921D2*
X428572D1*
X546046D2*
X570304D1*
X754699D2*
X778958D1*
X896432D2*
X905234D1*
X1108337D2*
X1317906D1*
X7098Y1366241D2*
X428572D1*
X546046D2*
X570304D1*
X754699D2*
X778958D1*
X896432D2*
X905234D1*
X1108337D2*
X1317906D1*
X7098Y1354562D2*
X428572D1*
X546046D2*
X570304D1*
X754699D2*
X778958D1*
X896432D2*
X905234D1*
X1108337D2*
X1317906D1*
X7098Y1342882D2*
X428572D1*
X546046D2*
X570304D1*
X754699D2*
X778958D1*
X896432D2*
X905234D1*
X1108337D2*
X1317906D1*
X7098Y1331202D2*
X428572D1*
X546046D2*
X570304D1*
X896432D2*
X905234D1*
X1144854D2*
X1317906D1*
X7098Y1319522D2*
X428572D1*
X546046D2*
X570304D1*
X1144854D2*
X1317906D1*
X7098Y1307843D2*
X637226D1*
X1144854D2*
X1317906D1*
X7098Y1296163D2*
X637226D1*
X1144854D2*
X1317906D1*
X7098Y1284483D2*
X637226D1*
X1144854D2*
X1317906D1*
X7098Y1272803D2*
X38715D1*
X86291D2*
X219987D1*
X267563D2*
X637226D1*
X1144854D2*
X1238849D1*
X1286425D2*
X1317906D1*
X7098Y1261123D2*
X26743D1*
X98265D2*
X208014D1*
X279535D2*
X637226D1*
X1144854D2*
X1226854D1*
X1298398D2*
X1317906D1*
X7098Y1249444D2*
X21207D1*
X103801D2*
X202478D1*
X285072D2*
X637226D1*
X1144854D2*
X1221341D1*
X1303912D2*
X1317906D1*
X7098Y1237764D2*
X19522D1*
X105508D2*
X200794D1*
X286756D2*
X637226D1*
X999340D2*
X1219634D1*
X1305618D2*
X1317906D1*
X7098Y1226084D2*
X21138D1*
X103870D2*
X202409D1*
X285142D2*
X637226D1*
X997724D2*
X1221272D1*
X1304004D2*
X1317906D1*
X7098Y1214404D2*
X26559D1*
X98449D2*
X207831D1*
X279720D2*
X637226D1*
X992303D2*
X1226693D1*
X1298583D2*
X1317906D1*
X7098Y1202724D2*
X38301D1*
X86707D2*
X214566D1*
X272984D2*
X637226D1*
X868841D2*
X932155D1*
X980539D2*
X1238434D1*
X1286841D2*
X1317906D1*
X121240Y1191045D2*
X214566D1*
X272984D2*
X637226D1*
X887988D2*
X1203762D1*
X121240Y1179365D2*
X174219D1*
X451142D2*
X637226D1*
X895693D2*
X1203762D1*
X121240Y1167685D2*
X174219D1*
X451142D2*
X637226D1*
X898923D2*
X1203762D1*
X121240Y1156005D2*
X174219D1*
X451142D2*
X637226D1*
X898738D2*
X1203762D1*
X121240Y1144325D2*
X174219D1*
X451142D2*
X637226D1*
X895093D2*
X1203762D1*
X121240Y1132646D2*
X174219D1*
X451142D2*
X465966D1*
X886697D2*
X1203762D1*
X121240Y1120966D2*
X174219D1*
X451142D2*
X465966D1*
X908012D2*
X1203762D1*
X121240Y1109286D2*
X174219D1*
X451142D2*
X465966D1*
X925959D2*
X1203762D1*
X121240Y1097606D2*
X174219D1*
X451142D2*
X465966D1*
X933409D2*
X1203762D1*
X121240Y1085927D2*
X465966D1*
X936478D2*
X1203762D1*
X107976Y1074247D2*
X222455D1*
X265096D2*
X384972D1*
X427612D2*
X465966D1*
X936155D2*
X1217026D1*
X145093Y1062567D2*
X209052D1*
X278497D2*
X371570D1*
X441014D2*
X465966D1*
X932325D2*
X1209507D1*
X158819Y1050887D2*
X202940D1*
X284612D2*
X365457D1*
X447129D2*
X465966D1*
X575573D2*
X621747D1*
X1190831D2*
X1205331D1*
X169177Y1039207D2*
X200818D1*
X286734D2*
X363335D1*
X449251D2*
X465966D1*
X575573D2*
X619601D1*
X172867Y1027528D2*
X202017D1*
X285534D2*
X364534D1*
X448051D2*
X465966D1*
X172983Y1015848D2*
X206885D1*
X280667D2*
X369402D1*
X443184D2*
X465966D1*
X7098Y1004168D2*
X14392D1*
X172983D2*
X214566D1*
X272984D2*
X380013D1*
X432572D2*
X465966D1*
X1310601D2*
X1317906D1*
X7098Y992488D2*
X25451D1*
X172983D2*
X214566D1*
X272984D2*
X465966D1*
X1299551D2*
X1317906D1*
X7098Y980808D2*
X23398D1*
X451142D2*
X465966D1*
X1301605D2*
X1317906D1*
X7098Y969129D2*
X13240D1*
X451142D2*
X465966D1*
X735598D2*
X749430D1*
X1311778D2*
X1317906D1*
X451142Y957449D2*
X465966D1*
X575573D2*
X749430D1*
X859038D2*
X1112343D1*
X451142Y945769D2*
X465966D1*
X689207D2*
X749430D1*
X859038D2*
X1112343D1*
X451142Y934089D2*
X465966D1*
X699612D2*
X749430D1*
X859038D2*
X1112343D1*
X451142Y922409D2*
X465966D1*
X704387D2*
X749430D1*
X1100563D2*
X1112343D1*
X451142Y910730D2*
X465966D1*
X705517D2*
X749430D1*
X7098Y899050D2*
X18484D1*
X451142D2*
X465966D1*
X703303D2*
X749430D1*
X1306518D2*
X1317906D1*
X7098Y887370D2*
X32580D1*
X172983D2*
X465966D1*
X697097D2*
X749430D1*
X1292424D2*
X1317906D1*
X7098Y875690D2*
X18255D1*
X172983D2*
X465966D1*
X1306749D2*
X1317906D1*
X172983Y864010D2*
X465966D1*
X172983Y852331D2*
X465966D1*
X172983Y840651D2*
X465966D1*
X650337D2*
X655496D1*
X172983Y828971D2*
X465966D1*
X650337D2*
X749430D1*
X172983Y817291D2*
X465966D1*
X650337D2*
X749430D1*
X7098Y805612D2*
X13378D1*
X172983D2*
X465966D1*
X650337D2*
X749430D1*
X1311593D2*
X1317906D1*
X7098Y793932D2*
X23698D1*
X172983D2*
X465966D1*
X1301304D2*
X1317906D1*
X7098Y782252D2*
X25129D1*
X172983D2*
X465966D1*
X1299874D2*
X1317906D1*
X7098Y770572D2*
X14207D1*
X208139D2*
X285663D1*
X339399D2*
X465966D1*
X1310786D2*
X1317906D1*
X218428Y758892D2*
X275374D1*
X349688D2*
X465966D1*
X223134Y747213D2*
X270668D1*
X354392D2*
X574780D1*
X675344D2*
X893562D1*
X224218Y735533D2*
X269584D1*
X355478D2*
X574780D1*
X675344D2*
X895038D1*
X221934Y723853D2*
X271867D1*
X353217D2*
X574780D1*
X675344D2*
X903573D1*
X215660Y712173D2*
X278143D1*
X346919D2*
X574780D1*
X675344D2*
X915546D1*
X7098Y700493D2*
X17239D1*
X201773D2*
X292030D1*
X333031D2*
X574780D1*
X1307764D2*
X1317906D1*
X7098Y688814D2*
X30618D1*
X172983D2*
X574780D1*
X1294385D2*
X1317906D1*
X7098Y677134D2*
X19570D1*
X172983D2*
X504121D1*
X533496D2*
X574780D1*
X1305411D2*
X1317906D1*
X7098Y665454D2*
X10982D1*
X172983D2*
X486474D1*
X551143D2*
X574780D1*
X1067369D2*
X1095618D1*
X1313992D2*
X1317915D1*
X172983Y653774D2*
X479092D1*
X700350D2*
X766617D1*
X1106654D2*
X1137349D1*
X172983Y642094D2*
X476070D1*
X700350D2*
X763594D1*
X1118349D2*
X1137349D1*
X172983Y630415D2*
X476438D1*
X700350D2*
X763963D1*
X1124693D2*
X1137349D1*
X172983Y618735D2*
X480291D1*
X700350D2*
X767816D1*
X1125270D2*
X1137349D1*
X7098Y607055D2*
X12457D1*
X172983D2*
X489034D1*
X548583D2*
X599786D1*
X700350D2*
X776559D1*
X836108D2*
X1074718D1*
X1125270D2*
X1137349D1*
X1312539D2*
X1317911D1*
X7098Y595375D2*
X22084D1*
X172983D2*
X599786D1*
X700350D2*
X1074718D1*
X1125270D2*
X1137349D1*
X1302896D2*
X1317906D1*
X7098Y583696D2*
X26974D1*
X172983D2*
X599786D1*
X700350D2*
X1074718D1*
X1125270D2*
X1137349D1*
X1298029D2*
X1317906D1*
X7098Y572016D2*
X15268D1*
X172983D2*
X493948D1*
X543669D2*
X599786D1*
X700350D2*
X781472D1*
X831194D2*
X1074718D1*
X1125270D2*
X1137349D1*
X1309748D2*
X1317906D1*
X172983Y560336D2*
X482551D1*
X700350D2*
X770100D1*
X1009143D2*
X1074718D1*
X1125270D2*
X1137349D1*
X172983Y548656D2*
X477315D1*
X700350D2*
X764840D1*
X1024253D2*
X1074718D1*
X1125270D2*
X1137349D1*
X172983Y536976D2*
X475816D1*
X700350D2*
X763340D1*
X1034680D2*
X1074718D1*
X1125270D2*
X1138340D1*
X172983Y525297D2*
X477661D1*
X700350D2*
X765186D1*
X172983Y513617D2*
X483336D1*
X616474D2*
X624782D1*
X700350D2*
X770883D1*
X1148892D2*
X1157556D1*
X7098Y501937D2*
X16051D1*
X172983D2*
X495724D1*
X541870D2*
X624791D1*
X700350D2*
X783248D1*
X829417D2*
X876192D1*
X1148892D2*
X1162354D1*
X1308941D2*
X1317906D1*
X7098Y490257D2*
X28428D1*
X172983D2*
X624791D1*
X700350D2*
X876192D1*
X1148892D2*
X1162354D1*
X1296552D2*
X1317906D1*
X7098Y478577D2*
X20999D1*
X172983D2*
X624791D1*
X700350D2*
X876192D1*
X1148892D2*
X1162354D1*
X1304004D2*
X1317906D1*
X7098Y466898D2*
X11811D1*
X172983D2*
X624791D1*
X700350D2*
X876192D1*
X1148892D2*
X1162354D1*
X1313161D2*
X1317902D1*
X172983Y455218D2*
X624791D1*
X700350D2*
X876192D1*
X1148892D2*
X1162354D1*
X172983Y443538D2*
X624791D1*
X700350D2*
X876192D1*
X1148892D2*
X1163255D1*
X172983Y431858D2*
X624791D1*
X700350D2*
X876192D1*
X1148892D2*
X1170567D1*
X172983Y420178D2*
X624791D1*
X700350D2*
X876192D1*
X1148892D2*
X1182240D1*
X7098Y408499D2*
X11580D1*
X172983D2*
X624791D1*
X700350D2*
X876192D1*
X1148892D2*
X1211606D1*
X1313392D2*
X1317898D1*
X7098Y396819D2*
X20608D1*
X172983D2*
X624791D1*
X700350D2*
X876192D1*
X1148892D2*
X1220602D1*
X1304396D2*
X1317906D1*
X7098Y385139D2*
X29004D1*
X172983D2*
X624791D1*
X700350D2*
X876192D1*
X1148892D2*
X1229022D1*
X1295976D2*
X1317906D1*
X7098Y373459D2*
X16374D1*
X172983D2*
X624791D1*
X700350D2*
X876192D1*
X1148892D2*
X1216381D1*
X1308618D2*
X1317906D1*
X172983Y361780D2*
X624791D1*
X700350D2*
X899814D1*
X950365D2*
X987219D1*
X1037772D2*
X1074718D1*
X1125270D2*
X1209138D1*
X172983Y350100D2*
X261672D1*
X363390D2*
X624791D1*
X700350D2*
X899814D1*
X950365D2*
X987219D1*
X1037772D2*
X1074718D1*
X1125270D2*
X1205147D1*
X172983Y338420D2*
X261672D1*
X363390D2*
X624791D1*
X700350D2*
X899814D1*
X950365D2*
X987219D1*
X1037772D2*
X1074718D1*
X1125270D2*
X1203762D1*
X172983Y326740D2*
X261672D1*
X363390D2*
X624791D1*
X700350D2*
X899814D1*
X950365D2*
X987219D1*
X1037772D2*
X1074718D1*
X1125270D2*
X1204777D1*
X172983Y315060D2*
X261672D1*
X363390D2*
X624791D1*
X700350D2*
X899814D1*
X950365D2*
X987219D1*
X1037772D2*
X1074718D1*
X1125270D2*
X1208307D1*
X7098Y303381D2*
X14945D1*
X172983D2*
X219134D1*
X405951D2*
X624791D1*
X700350D2*
X899814D1*
X950365D2*
X987219D1*
X1037772D2*
X1074718D1*
X1125270D2*
X1214974D1*
X1310047D2*
X1317906D1*
X7098Y291701D2*
X26466D1*
X172983D2*
X207622D1*
X417438D2*
X624791D1*
X700350D2*
X899814D1*
X950365D2*
X987219D1*
X1037772D2*
X1074718D1*
X1125270D2*
X1226462D1*
X1298537D2*
X1317906D1*
X7098Y280021D2*
X22522D1*
X172983D2*
X202316D1*
X422744D2*
X624791D1*
X700350D2*
X899814D1*
X950365D2*
X987219D1*
X1037772D2*
X1074718D1*
X1125270D2*
X1222517D1*
X1302482D2*
X1317906D1*
X7098Y268341D2*
X12732D1*
X172983D2*
X200794D1*
X424290D2*
X624791D1*
X700350D2*
X899814D1*
X950365D2*
X987219D1*
X1037772D2*
X1074718D1*
X1125270D2*
X1212713D1*
X1312286D2*
X1317919D1*
X172983Y256661D2*
X202571D1*
X422491D2*
X624791D1*
X700350D2*
X899814D1*
X950365D2*
X987219D1*
X1037772D2*
X1074718D1*
X1125270D2*
X1207038D1*
X172983Y244982D2*
X208222D1*
X416839D2*
X624791D1*
X700350D2*
X899814D1*
X950365D2*
X987219D1*
X1037772D2*
X1074718D1*
X1125270D2*
X1204247D1*
X172983Y233302D2*
X220471D1*
X404589D2*
X624791D1*
X700350D2*
X899814D1*
X950365D2*
X987219D1*
X1037772D2*
X1074718D1*
X1125270D2*
X1203924D1*
X191877Y221622D2*
X261672D1*
X363390D2*
X453832D1*
X571306D2*
X577617D1*
X747525D2*
X777597D1*
X847526D2*
X899814D1*
X950365D2*
X987219D1*
X1037772D2*
X1074718D1*
X1125270D2*
X1206000D1*
X7098Y209942D2*
X10797D1*
X212176D2*
X261672D1*
X363390D2*
X453832D1*
X759497D2*
X765635D1*
X859499D2*
X899814D1*
X950365D2*
X987219D1*
X1037772D2*
X1074718D1*
X1125270D2*
X1210776D1*
X1314223D2*
X1317924D1*
X7098Y198262D2*
X19199D1*
X105785D2*
X115718D1*
X223503D2*
X261672D1*
X363390D2*
X420706D1*
X866396D2*
X899814D1*
X950365D2*
X987219D1*
X1037772D2*
X1074718D1*
X1125270D2*
X1219196D1*
X1305803D2*
X1317906D1*
X7098Y186583D2*
X34471D1*
X90513D2*
X122639D1*
X228717D2*
X408295D1*
X870134D2*
X899814D1*
X950365D2*
X987219D1*
X1037772D2*
X1074718D1*
X1125270D2*
X1234466D1*
X1290531D2*
X1317906D1*
X7098Y174903D2*
X134311D1*
X229224D2*
X398722D1*
X871310D2*
X899814D1*
X950365D2*
X987219D1*
X1037772D2*
X1074718D1*
X1125270D2*
X1317906D1*
X7098Y163223D2*
X48197D1*
X126801D2*
X170806D1*
X229224D2*
X395837D1*
X870087D2*
X876180D1*
X1148892D2*
X1198319D1*
X1276945D2*
X1317906D1*
X7098Y151543D2*
X30780D1*
X144240D2*
X170806D1*
X229224D2*
X261672D1*
X363390D2*
X395837D1*
X866304D2*
X876192D1*
X1148892D2*
X1180902D1*
X1294361D2*
X1317906D1*
X7098Y139864D2*
X19638D1*
X155358D2*
X170806D1*
X229224D2*
X261672D1*
X363390D2*
X395837D1*
X659335D2*
X665802D1*
X759336D2*
X765807D1*
X859337D2*
X876192D1*
X1148892D2*
X1169760D1*
X1305480D2*
X1317906D1*
X7098Y128184D2*
X11949D1*
X163063D2*
X170806D1*
X229224D2*
X261672D1*
X363390D2*
X395837D1*
X571306D2*
X577940D1*
X647201D2*
X677919D1*
X747202D2*
X777920D1*
X847203D2*
X876192D1*
X1148892D2*
X1162077D1*
X1313185D2*
X1317909D1*
X229224Y116504D2*
X261672D1*
X363390D2*
X395837D1*
X454256D2*
X487281D1*
X537833D2*
X876192D1*
X1148892D2*
X1156795D1*
X454256Y104824D2*
X487281D1*
X537833D2*
X876192D1*
X1148892D2*
X1153457D1*
X454256Y93144D2*
X487281D1*
X537833D2*
X876192D1*
X451419Y81465D2*
X487281D1*
X537833D2*
X876192D1*
X171576Y69785D2*
X183171D1*
X441891D2*
X487281D1*
X1148892D2*
X1153533D1*
X168207Y58105D2*
X194866D1*
X430196D2*
X487673D1*
X1148892D2*
X1156933D1*
X7098Y46425D2*
X12180D1*
X162833D2*
X261672D1*
X363390D2*
X493440D1*
X1148892D2*
X1162286D1*
X1312978D2*
X1317924D1*
X7098Y34745D2*
X19961D1*
X155035D2*
X261672D1*
X363390D2*
X505067D1*
X1148892D2*
X1170083D1*
X1305157D2*
X1317906D1*
X7098Y23066D2*
X31218D1*
X143778D2*
X261672D1*
X363390D2*
X876192D1*
X1148892D2*
X1181364D1*
X1293900D2*
X1317906D1*
X7098Y11386D2*
X48982D1*
X126016D2*
X261672D1*
X363390D2*
X876192D1*
X1148892D2*
X1199126D1*
X1276114D2*
X1317906D1*
X181295Y1187304D2*
X215736D1*
X215744Y1206617D1*
X211982Y1210476D1*
X208126Y1215783D1*
X205147Y1221630D1*
X203119Y1227869D1*
X202093Y1234349D1*
Y1240911D1*
X203119Y1247391D1*
X205147Y1253630D1*
X208126Y1259476D1*
X211982Y1264783D1*
X216622Y1269424D1*
X221929Y1273280D1*
X227776Y1276259D1*
X234014Y1278286D1*
X240495Y1279312D1*
X247056D1*
X253537Y1278286D1*
X259776Y1276259D1*
X265622Y1273280D1*
X270929Y1269424D1*
X275570Y1264783D1*
X279425Y1259476D1*
X282404Y1253630D1*
X284432Y1247391D1*
X285458Y1240911D1*
Y1234349D1*
X284432Y1227869D1*
X282404Y1221630D1*
X279425Y1215783D1*
X275570Y1210476D1*
X271806Y1206646D1*
X271807Y1187318D1*
X312161Y1187304D1*
Y1087934D1*
X175390D1*
Y1187304D1*
X181295D1*
X314366D2*
X449957D1*
Y1087934D1*
X313185D1*
Y1187304D1*
X314366D1*
X181295Y987283D2*
X215736D1*
X215744Y1006596D1*
X211982Y1010455D1*
X208126Y1015762D1*
X205147Y1021609D1*
X203119Y1027848D1*
X202093Y1034328D1*
Y1040890D1*
X203119Y1047370D1*
X205147Y1053609D1*
X208126Y1059455D1*
X211982Y1064762D1*
X216622Y1069403D1*
X221929Y1073259D1*
X227776Y1076238D1*
X234014Y1078265D1*
X240495Y1079291D1*
X247056D1*
X253537Y1078265D1*
X259776Y1076238D1*
X265622Y1073259D1*
X270929Y1069403D1*
X275570Y1064762D1*
X279425Y1059455D1*
X282404Y1053609D1*
X284432Y1047370D1*
X285458Y1040890D1*
Y1034328D1*
X284432Y1027848D1*
X282404Y1021609D1*
X279425Y1015762D1*
X275570Y1010455D1*
X271806Y1006625D1*
X271807Y987297D1*
X312161Y987283D1*
Y887913D1*
X175390D1*
Y987283D1*
X181295D1*
X314366D2*
X449957D1*
Y887913D1*
X313185D1*
Y987283D1*
X314366D1*
X754505Y1335217D2*
X780157D1*
X780138Y1446634D1*
X895256D1*
Y1327836D1*
X899709Y1328797D1*
X906249Y1329311D1*
X906416Y1329304D1*
X906378Y1541161D1*
X897559D1*
Y1662185D1*
X971339D1*
Y1541161D1*
X962458D1*
X962480Y1433850D1*
X996976Y1433839D1*
X996929Y1541161D1*
X988110D1*
Y1662185D1*
X1061890D1*
Y1541161D1*
X1053009D1*
X1053031Y1433850D1*
X1107165Y1433839D1*
Y1335220D1*
X1143681Y1335217D1*
Y1239783D1*
X998127D1*
X998033Y1234349D1*
X997007Y1227869D1*
X994979Y1221630D1*
X992000Y1215783D1*
X988144Y1210476D1*
X983504Y1205836D1*
X978197Y1201980D1*
X972350Y1199001D1*
X966112Y1196974D1*
X959631Y1195948D1*
X953070D1*
X946589Y1196974D1*
X940350Y1199001D1*
X934504Y1201980D1*
X929197Y1205836D1*
X924556Y1210476D1*
X920701Y1215783D1*
X919705Y1217563D1*
X911975Y1209957D1*
X908417Y1207371D1*
X904497Y1205374D1*
X900314Y1204014D1*
X895970Y1203327D1*
X870148Y1203240D1*
X866010Y1203156D1*
X872249Y1201129D1*
X878096Y1198150D1*
X883403Y1194294D1*
X888043Y1189654D1*
X891899Y1184346D1*
X894878Y1178500D1*
X896906Y1172261D1*
X897932Y1165781D1*
Y1159219D1*
X896906Y1152739D1*
X894878Y1146500D1*
X891899Y1140654D1*
X888043Y1135346D1*
X883403Y1130706D1*
X880345Y1128353D1*
Y1120852D1*
X883990Y1121908D1*
X890470Y1122934D1*
X897031D1*
X903512Y1121908D1*
X909751Y1119881D1*
X915597Y1116902D1*
X920904Y1113046D1*
X925545Y1108406D1*
X929400Y1103098D1*
X932379Y1097252D1*
X934407Y1091013D1*
X935433Y1084533D1*
Y1077971D1*
X934407Y1071491D1*
X932379Y1065252D1*
X929400Y1059406D1*
X928068Y1057412D1*
X1175055Y1057337D1*
X1178789Y1056747D1*
X1182385Y1055577D1*
X1185753Y1053862D1*
X1188812Y1051639D1*
X1204667Y1035888D1*
X1204941Y1037500D1*
X1205118Y1042016D1*
X1205650Y1046504D1*
X1206531Y1050937D1*
X1207759Y1055286D1*
X1209323Y1059526D1*
X1211214Y1063631D1*
X1213423Y1067575D1*
X1215934Y1071332D1*
X1218732Y1074882D1*
X1223680Y1079938D1*
X1204941Y1079941D1*
Y1195059D1*
X1319092D1*
X1319008Y1576684D1*
X1317188Y1571067D1*
X1314980Y1565591D1*
X1312398Y1560282D1*
X1309451Y1555165D1*
X1306156Y1550265D1*
X1302528Y1545608D1*
X1298584Y1541214D1*
X1294344Y1537105D1*
X1289828Y1533301D1*
X1285059Y1529820D1*
X1280059Y1526680D1*
X1274853Y1523896D1*
X1269465Y1521480D1*
X1263921Y1519446D1*
X1258251Y1517803D1*
X1252479Y1516558D1*
X1246635Y1515718D1*
X1240747Y1515286D1*
X1234843Y1515266D1*
X1228951Y1515656D1*
X1223101Y1516457D1*
X1217322Y1517661D1*
X1211639Y1519265D1*
X1206081Y1521261D1*
X1200677Y1523639D1*
X1195451Y1526387D1*
X1190430Y1529493D1*
X1185636Y1532940D1*
X1181094Y1536713D1*
X1176827Y1540793D1*
X1172853Y1545159D1*
X1169192Y1549791D1*
X1165864Y1554668D1*
X1162882Y1559764D1*
X1160262Y1565055D1*
X1158017Y1570517D1*
X1156157Y1576121D1*
X1154693Y1581840D1*
X1153630Y1587648D1*
X1152972Y1593516D1*
X1152727Y1599415D1*
X1152891Y1605316D1*
X1153466Y1611193D1*
X1154449Y1617014D1*
X1155835Y1622755D1*
X1157617Y1628383D1*
X1159786Y1633875D1*
X1162332Y1639202D1*
X1165243Y1644339D1*
X1168504Y1649261D1*
X1172100Y1653944D1*
X1176013Y1658365D1*
X1180224Y1662504D1*
X1184714Y1666339D1*
X1189459Y1669852D1*
X1194437Y1673026D1*
X1199625Y1675846D1*
X1204996Y1678299D1*
X1210524Y1680371D1*
X1214659Y1681601D1*
X110518Y1681596D1*
X118375Y1678957D1*
X123795Y1676615D1*
X129041Y1673904D1*
X134084Y1670833D1*
X138900Y1667420D1*
X143469Y1663678D1*
X147765Y1659629D1*
X151769Y1655290D1*
X155462Y1650682D1*
X158824Y1645829D1*
X161841Y1640753D1*
X164497Y1635480D1*
X166780Y1630035D1*
X168678Y1624445D1*
X170182Y1618735D1*
X171286Y1612934D1*
X171983Y1607072D1*
X172278Y1600001D1*
X172072Y1594101D1*
X171457Y1588228D1*
X170434Y1582413D1*
X169008Y1576684D1*
X167188Y1571067D1*
X164980Y1565591D1*
X162398Y1560282D1*
X159451Y1555165D1*
X156156Y1550265D1*
X152528Y1545608D1*
X148584Y1541214D1*
X144344Y1537105D1*
X139828Y1533301D1*
X135059Y1529820D1*
X130059Y1526680D1*
X124853Y1523896D1*
X119465Y1521480D1*
X113921Y1519446D1*
X108251Y1517803D1*
X102479Y1516558D1*
X96635Y1515718D1*
X90747Y1515286D1*
X84843Y1515266D1*
X78951Y1515656D1*
X73101Y1516457D1*
X67322Y1517661D1*
X61639Y1519265D1*
X56081Y1521261D1*
X50677Y1523639D1*
X45451Y1526387D1*
X40430Y1529493D1*
X35636Y1532940D1*
X31094Y1536713D1*
X26827Y1540793D1*
X22853Y1545159D1*
X19192Y1549791D1*
X15864Y1554668D1*
X12882Y1559764D1*
X10262Y1565055D1*
X8017Y1570517D1*
X5911Y1577081D1*
X5907Y1195060D1*
X120059Y1195059D1*
Y1079941D1*
X101396D1*
X106268Y1074882D1*
X109066Y1071332D1*
X112724Y1065526D1*
X133572Y1065445D1*
X137916Y1064757D1*
X142100Y1063398D1*
X146020Y1061400D1*
X149577Y1058815D1*
X163587Y1044929D1*
X166444Y1041584D1*
X168741Y1037833D1*
X170425Y1033770D1*
X171451Y1029492D1*
X171797Y1025108D1*
Y778299D1*
X177988Y779260D1*
X184550D1*
X191030Y778234D1*
X197269Y776206D1*
X203115Y773227D1*
X208423Y769371D1*
X213063Y764731D1*
X216919Y759424D1*
X219898Y753577D1*
X221925Y747339D1*
X222951Y740858D1*
Y734297D1*
X221925Y727816D1*
X219898Y721577D1*
X216919Y715731D1*
X213063Y710424D1*
X208423Y705783D1*
X203115Y701928D1*
X197269Y698949D1*
X191030Y696921D1*
X184550Y695895D1*
X177988D1*
X171798Y696864D1*
X171797Y221791D1*
X189719Y221715D1*
X194063Y221028D1*
X198247Y219668D1*
X202167Y217671D1*
X205724Y215085D1*
X219843Y201091D1*
X222699Y197745D1*
X224997Y193995D1*
X226681Y189932D1*
X227707Y185654D1*
X228052Y181269D1*
Y106597D1*
X262856Y106593D1*
X262848Y158759D1*
X362218D1*
Y106601D1*
X397033Y106593D1*
X397100Y164717D1*
X397787Y169060D1*
X399147Y173244D1*
X401144Y177164D1*
X403730Y180722D1*
X417724Y194840D1*
X421070Y197697D1*
X424820Y199995D1*
X428883Y201678D1*
X433161Y202705D1*
X437546Y203050D1*
X455009D1*
X455010Y232577D1*
X570129D1*
Y213915D1*
X575188Y218786D1*
X578738Y221584D1*
X582495Y224096D1*
X586438Y226304D1*
X590543Y228196D1*
X594783Y229760D1*
X599133Y230987D1*
X603566Y231869D1*
X608054Y232400D1*
X612570Y232577D1*
X617085Y232400D1*
X621573Y231869D1*
X625990Y230991D1*
X625975Y517552D1*
X623503Y516088D1*
X620010Y514640D1*
X616333Y513759D1*
X612564Y513462D1*
X552979D1*
X550598Y510403D1*
X545958Y505762D1*
X540651Y501907D1*
X534804Y498928D1*
X528566Y496900D1*
X522085Y495874D1*
X515524D1*
X509043Y496900D1*
X502804Y498928D1*
X496958Y501907D1*
X491651Y505762D1*
X487010Y510403D1*
X483155Y515710D1*
X480176Y521556D1*
X478148Y527795D1*
X477122Y534276D1*
Y540837D1*
X478148Y547318D1*
X480176Y553556D1*
X483155Y559403D1*
X487010Y564710D1*
X491651Y569350D1*
X496958Y573206D1*
X502804Y576185D1*
X509043Y578213D1*
X515524Y579239D1*
X522085D1*
X528566Y578213D1*
X534804Y576185D1*
X540651Y573206D1*
X545958Y569350D1*
X550598Y564710D1*
X552951Y561652D1*
X600951Y561651D1*
X600971Y617533D1*
X596782Y615307D1*
X593186Y614138D1*
X589453Y613547D1*
X558034Y613472D1*
X552982D1*
X550598Y610413D1*
X545958Y605773D1*
X540651Y601917D1*
X534804Y598938D1*
X528566Y596911D1*
X522085Y595885D1*
X515524D1*
X509043Y596911D1*
X502804Y598938D1*
X496958Y601917D1*
X491651Y605773D1*
X487010Y610413D1*
X483155Y615720D1*
X480176Y621567D1*
X478148Y627806D1*
X477122Y634286D1*
Y640848D1*
X478148Y647328D1*
X480176Y653567D1*
X483155Y659413D1*
X487010Y664720D1*
X491651Y669361D1*
X496958Y673217D1*
X502804Y676196D1*
X509043Y678223D1*
X515524Y679249D1*
X522085D1*
X528566Y678223D1*
X534804Y676196D1*
X540651Y673217D1*
X545958Y669361D1*
X550598Y664720D1*
X552951Y661663D1*
X575991Y661661D1*
X575969Y881283D1*
X574394Y876310D1*
Y751349D1*
X467150D1*
X467142Y1136152D1*
X574386D1*
Y1134192D1*
X638390Y1134184D1*
X638406Y1311840D1*
X571476Y1311831D1*
Y1438760D1*
X753524D1*
X753665Y1336076D1*
X754530Y1335211D1*
X362218Y50545D2*
Y5885D1*
X1214667Y5906D1*
X1206210Y8769D1*
X1200806Y11147D1*
X1195580Y13895D1*
X1190559Y17001D1*
X1185765Y20448D1*
X1181223Y24220D1*
X1176955Y28301D1*
X1172982Y32667D1*
X1169320Y37299D1*
X1165992Y42176D1*
X1163010Y47272D1*
X1160391Y52563D1*
X1158146Y58025D1*
X1156286Y63629D1*
X1154822Y69348D1*
X1153759Y75156D1*
X1153101Y81024D1*
X1152856Y86923D1*
X1153020Y92824D1*
X1153594Y98701D1*
X1154577Y104522D1*
X1155963Y110262D1*
X1157745Y115891D1*
X1159915Y121383D1*
X1162461Y126710D1*
X1165371Y131846D1*
X1168633Y136769D1*
X1172228Y141451D1*
X1176142Y145873D1*
X1180353Y150012D1*
X1184843Y153846D1*
X1189588Y157360D1*
X1194566Y160534D1*
X1199753Y163354D1*
X1205125Y165807D1*
X1210652Y167879D1*
X1216312Y169562D1*
X1222075Y170846D1*
X1227913Y171727D1*
X1233799Y172199D1*
X1239703Y172261D1*
X1245597Y171911D1*
X1251451Y171152D1*
X1257240Y169987D1*
X1262933Y168421D1*
X1268504Y166465D1*
X1273924Y164123D1*
X1279169Y161412D1*
X1284213Y158341D1*
X1289029Y154928D1*
X1293597Y151186D1*
X1297894Y147136D1*
X1301898Y142798D1*
X1305591Y138190D1*
X1308953Y133337D1*
X1311970Y128261D1*
X1314626Y122988D1*
X1316908Y117543D1*
X1319094Y110860D1*
X1319080Y226930D1*
X1317701Y221192D1*
X1315740Y215623D1*
X1313219Y210286D1*
X1310165Y205234D1*
X1306610Y200522D1*
X1302591Y196198D1*
X1298150Y192310D1*
X1293333Y188896D1*
X1288194Y185993D1*
X1282783Y183634D1*
X1277160Y181839D1*
X1271382Y180630D1*
X1265510Y180020D1*
X1259608Y180013D1*
X1253735Y180612D1*
X1247955Y181808D1*
X1242328Y183592D1*
X1236912Y185941D1*
X1231766Y188833D1*
X1226944Y192236D1*
X1222495Y196117D1*
X1218466Y200432D1*
X1214902Y205136D1*
X1211837Y210181D1*
X1209306Y215513D1*
X1207333Y221077D1*
X1205941Y226814D1*
X1205144Y232663D1*
X1204950Y238563D1*
X1205362Y244451D1*
X1206374Y250266D1*
X1207978Y255948D1*
X1210154Y261434D1*
X1212881Y266671D1*
X1216129Y271598D1*
X1219865Y276169D1*
X1224050Y280332D1*
X1228639Y284045D1*
X1233584Y287269D1*
X1233990Y287499D1*
X1228668Y290934D1*
X1225118Y293732D1*
X1221799Y296799D1*
X1218732Y300118D1*
X1215934Y303668D1*
X1213423Y307425D1*
X1211214Y311369D1*
X1209323Y315474D1*
X1207759Y319714D1*
X1206531Y324063D1*
X1205650Y328496D1*
X1205118Y332984D1*
X1204941Y337500D1*
X1205118Y342016D1*
X1205650Y346504D1*
X1206531Y350937D1*
X1207759Y355286D1*
X1209323Y359526D1*
X1211214Y363631D1*
X1213423Y367575D1*
X1215934Y371332D1*
X1218732Y374882D1*
X1221799Y378201D1*
X1225118Y381268D1*
X1228668Y384066D1*
X1234043Y387483D1*
X1228668Y390934D1*
X1225118Y393732D1*
X1221799Y396799D1*
X1218732Y400118D1*
X1215934Y403668D1*
X1213423Y407425D1*
X1210276Y413406D1*
X1198281Y413480D1*
X1194547Y414071D1*
X1190951Y415240D1*
X1187583Y416957D1*
X1184524Y419178D1*
X1170588Y433010D1*
X1168131Y435885D1*
X1166156Y439109D1*
X1164710Y442601D1*
X1163827Y446278D1*
X1163530Y450055D1*
Y508802D1*
X1147727Y524627D1*
X1147719Y368820D1*
X1124075D1*
X1124097Y168697D1*
X1147719Y168677D1*
Y6315D1*
X877381Y6328D1*
Y26005D1*
X523062Y26088D1*
X519328Y26678D1*
X515732Y27848D1*
X512364Y29563D1*
X509304Y31786D1*
X495516Y45469D1*
X493060Y48344D1*
X491085Y51568D1*
X489639Y55060D1*
X488756Y58738D1*
X488459Y62507D1*
Y117479D1*
X455010Y117459D1*
Y147009D1*
X453076Y146987D1*
X452990Y91560D1*
X452302Y87217D1*
X450942Y83033D1*
X448945Y79113D1*
X446360Y75555D1*
X429668Y58740D1*
X426323Y55883D1*
X422572Y53585D1*
X418509Y51902D1*
X414231Y50875D1*
X409837Y50530D1*
X362210D1*
X262848Y5908D2*
Y50522D1*
X213020Y50617D1*
X208676Y51304D1*
X204492Y52664D1*
X200572Y54661D1*
X197014Y57247D1*
X180199Y73938D1*
X177343Y77283D1*
X175045Y81034D1*
X173361Y85097D1*
X172333Y89383D1*
X172071Y81600D1*
X171455Y75727D1*
X170433Y69912D1*
X169007Y64182D1*
X167186Y58566D1*
X164979Y53089D1*
X162396Y47781D1*
X159450Y42664D1*
X156155Y37764D1*
X152526Y33106D1*
X148583Y28713D1*
X144343Y24604D1*
X139827Y20799D1*
X135058Y17319D1*
X130058Y14178D1*
X124852Y11395D1*
X119463Y8979D1*
X113920Y6945D1*
X110354Y5912D1*
X262865Y5906D1*
X264029Y351672D2*
X362218D1*
Y305983D1*
X366479Y307878D1*
X370982Y309299D1*
X375617Y310202D1*
X380323Y310577D1*
X385042Y310420D1*
X389714Y309732D1*
X394278Y308521D1*
X398676Y306803D1*
X402853Y304600D1*
X406755Y301941D1*
X410331Y298858D1*
X413538Y295391D1*
X416332Y291585D1*
X418681Y287490D1*
X420552Y283154D1*
X421923Y278635D1*
X422774Y273991D1*
X423101Y268778D1*
X422835Y264064D1*
X422038Y259409D1*
X420722Y254875D1*
X418903Y250517D1*
X416604Y246392D1*
X413854Y242554D1*
X410690Y239050D1*
X407151Y235924D1*
X403281Y233218D1*
X399131Y230965D1*
X394753Y229194D1*
X390205Y227929D1*
X385542Y227184D1*
X380825Y226970D1*
X376114Y227289D1*
X371469Y228136D1*
X366949Y229504D1*
X362214Y231576D1*
X362218Y191278D1*
X262848D1*
Y231570D1*
X258352Y229591D1*
X253840Y228197D1*
X249201Y227320D1*
X244492Y226974D1*
X239773Y227159D1*
X235106Y227875D1*
X230550Y229114D1*
X226161Y230858D1*
X221999Y233087D1*
X218113Y235769D1*
X214555Y238874D1*
X211369Y242360D1*
X208597Y246181D1*
X206273Y250293D1*
X204428Y254639D1*
X203084Y259165D1*
X202260Y263815D1*
X201966Y268528D1*
X202203Y273243D1*
X202972Y277902D1*
X204261Y282445D1*
X206054Y286814D1*
X208328Y290951D1*
X211054Y294807D1*
X214198Y298331D1*
X217719Y301476D1*
X221572Y304206D1*
X225707Y306484D1*
X230075Y308281D1*
X234615Y309573D1*
X239274Y310346D1*
X243990Y310589D1*
X248703Y310298D1*
X253353Y309478D1*
X257881Y308138D1*
X262849Y305980D1*
X262848Y351672D1*
X264029D1*
X1058192Y168677D2*
X1075886D1*
X1075908Y368801D1*
X1036575Y368820D1*
X1036597Y168697D1*
X1058192Y168677D1*
X972791D2*
X988386D1*
X988408Y368801D1*
X949169Y368866D1*
X949192Y168697D1*
X972814Y168667D1*
X883286Y168690D2*
X900980D1*
X901003Y368860D1*
X877381Y368866D1*
Y513461D1*
X840495Y513462D1*
X838129Y510403D1*
X833488Y505762D1*
X828181Y501907D1*
X822335Y498928D1*
X816096Y496900D1*
X809615Y495874D1*
X803054D1*
X796573Y496900D1*
X790335Y498928D1*
X784488Y501907D1*
X779181Y505762D1*
X774541Y510403D1*
X770685Y515710D1*
X767706Y521556D1*
X765678Y527795D1*
X764652Y534276D1*
Y540837D1*
X765678Y547318D1*
X767706Y553556D1*
X770685Y559403D1*
X774541Y564710D1*
X779181Y569350D1*
X784488Y573206D1*
X790335Y576185D1*
X796573Y578213D1*
X803054Y579239D1*
X809615D1*
X816096Y578213D1*
X822335Y576185D1*
X828181Y573206D1*
X833488Y569350D1*
X838129Y564710D1*
X840482Y561652D1*
X1001996Y561576D1*
X1005730Y560986D1*
X1009325Y559818D1*
X1012694Y558101D1*
X1015753Y555878D1*
X1029541Y542197D1*
X1031996Y539322D1*
X1033971Y536097D1*
X1035420Y532597D1*
X1041558Y531182D1*
X1075886D1*
X1075908Y613471D1*
X840483Y613472D1*
X838129Y610413D1*
X833488Y605773D1*
X828181Y601917D1*
X822335Y598938D1*
X816096Y596911D1*
X809615Y595885D1*
X803054D1*
X796573Y596911D1*
X790335Y598938D1*
X784488Y601917D1*
X779181Y605773D1*
X774541Y610413D1*
X770685Y615720D1*
X767706Y621567D1*
X765678Y627806D1*
X764652Y634286D1*
Y640848D1*
X765678Y647328D1*
X767706Y653567D1*
X770685Y659413D1*
X773501Y663402D1*
X699160Y663407D1*
X699165Y230982D1*
X703566Y231869D1*
X708054Y232400D1*
X712570Y232577D1*
X717085Y232400D1*
X721573Y231869D1*
X726007Y230987D1*
X730356Y229760D1*
X734596Y228196D1*
X738701Y226304D1*
X742644Y224096D1*
X746402Y221584D1*
X749951Y218786D1*
X753270Y215719D1*
X756337Y212400D1*
X759135Y208850D1*
X762552Y203475D1*
X765508Y208159D1*
X769150Y212804D1*
X773248Y217052D1*
X777760Y220860D1*
X782638Y224182D1*
X787831Y226990D1*
X793283Y229251D1*
X798940Y230941D1*
X804739Y232042D1*
X810621Y232545D1*
X816522Y232441D1*
X822383Y231735D1*
X828140Y230432D1*
X833734Y228545D1*
X839105Y226096D1*
X844197Y223110D1*
X848955Y219618D1*
X853332Y215656D1*
X857280Y211268D1*
X860757Y206499D1*
X863728Y201398D1*
X866161Y196018D1*
X868030Y190420D1*
X869315Y184659D1*
X870004Y178795D1*
X870080Y172657D1*
X869535Y166780D1*
X868392Y160988D1*
X866661Y155344D1*
X864362Y149908D1*
X861518Y144735D1*
X858159Y139881D1*
X854320Y135396D1*
X850043Y131329D1*
X845371Y127720D1*
X840354Y124610D1*
X835046Y122029D1*
X829500Y120005D1*
X823777Y118560D1*
X817936Y117710D1*
X812038Y117462D1*
X806146Y117819D1*
X800322Y118777D1*
X794626Y120328D1*
X789119Y122453D1*
X783858Y125131D1*
X778900Y128335D1*
X774295Y132028D1*
X770094Y136175D1*
X766339Y140728D1*
X763070Y145644D1*
X762572Y146503D1*
X759135Y141186D1*
X756337Y137636D1*
X753270Y134318D1*
X749951Y131251D1*
X746402Y128453D1*
X742644Y125941D1*
X738701Y123732D1*
X734596Y121841D1*
X730356Y120277D1*
X726007Y119050D1*
X721573Y118168D1*
X717085Y117636D1*
X712570Y117459D1*
X708054Y117636D1*
X703566Y118168D1*
X699133Y119050D1*
X694783Y120277D1*
X690543Y121841D1*
X686438Y123732D1*
X682495Y125941D1*
X678738Y128453D1*
X675188Y131251D1*
X671869Y134318D1*
X668802Y137636D1*
X666004Y141186D1*
X662587Y146562D1*
X659135Y141186D1*
X656337Y137636D1*
X653270Y134318D1*
X649951Y131251D1*
X646402Y128453D1*
X642644Y125941D1*
X638701Y123732D1*
X634596Y121841D1*
X630356Y120277D1*
X626007Y119050D1*
X621573Y118168D1*
X617085Y117636D1*
X612570Y117459D1*
X608054Y117636D1*
X603566Y118168D1*
X599133Y119050D1*
X594783Y120277D1*
X590543Y121841D1*
X586438Y123732D1*
X582495Y125941D1*
X578738Y128453D1*
X575188Y131251D1*
X570131Y136198D1*
X570129Y117459D1*
X536656D1*
X536764Y74202D1*
X877369D1*
X877381Y168690D1*
X883286D1*
X1260336Y1681592D2*
X1268375Y1678957D1*
X1273795Y1676615D1*
X1279041Y1673904D1*
X1284084Y1670833D1*
X1288900Y1667420D1*
X1293469Y1663678D1*
X1297765Y1659629D1*
X1301769Y1655290D1*
X1305462Y1650682D1*
X1308824Y1645829D1*
X1311841Y1640753D1*
X1314497Y1635480D1*
X1316780Y1630035D1*
X1319096Y1622861D1*
Y1681618D1*
X1260525Y1681596D1*
X5911Y1622996D2*
X7617Y1628383D1*
X9786Y1633875D1*
X12332Y1639202D1*
X15243Y1644339D1*
X18504Y1649261D1*
X22100Y1653944D1*
X26013Y1658365D1*
X30224Y1662504D1*
X34714Y1666339D1*
X39459Y1669852D1*
X44437Y1673026D1*
X49625Y1675846D1*
X54996Y1678299D1*
X60524Y1680371D1*
X64659Y1681601D1*
X5927Y1681596D1*
X5907Y1623025D1*
X64678Y5906D2*
X56080Y8760D1*
X50676Y11138D1*
X45450Y13886D1*
X40429Y16992D1*
X35635Y20438D1*
X31093Y24211D1*
X26825Y28291D1*
X22852Y32657D1*
X19190Y37290D1*
X15862Y42167D1*
X12881Y47262D1*
X10261Y52554D1*
X8016Y58016D1*
X5909Y64580D1*
X5906Y5883D1*
X64476Y5906D1*
X1319101Y64081D2*
X1317316Y58575D1*
X1315109Y53098D1*
X1312526Y47790D1*
X1309580Y42673D1*
X1306285Y37773D1*
X1302656Y33115D1*
X1298713Y28722D1*
X1294472Y24613D1*
X1289957Y20808D1*
X1285188Y17328D1*
X1280188Y14188D1*
X1274982Y11404D1*
X1269593Y8988D1*
X1264050Y6954D1*
X1260440Y5908D1*
X1319075Y5906D1*
X1319094Y64060D1*
X430925Y1446634D2*
X544862D1*
Y1311831D1*
X429744D1*
Y1446634D1*
X430925D1*
X781319Y1663169D2*
X895256D1*
Y1528366D1*
X780138D1*
Y1663169D1*
X781319D1*
X430925D2*
X544862D1*
Y1528366D1*
X429744D1*
Y1663169D1*
X430925D1*
X786513Y1474713D2*
X785592Y1468895D1*
X783772Y1463294D1*
X781098Y1458047D1*
X777636Y1453282D1*
X773471Y1449117D1*
X768706Y1445655D1*
X763459Y1442982D1*
X757858Y1441161D1*
X752041Y1440240D1*
X746151D1*
X740333Y1441161D1*
X734732Y1442982D1*
X729486Y1445655D1*
X724720Y1449117D1*
X720555Y1453282D1*
X717093Y1458047D1*
X714420Y1463294D1*
X712600Y1468895D1*
X711678Y1474713D1*
Y1480602D1*
X712600Y1486420D1*
X714420Y1492021D1*
X717093Y1497268D1*
X720555Y1502033D1*
X724720Y1506198D1*
X729486Y1509660D1*
X734732Y1512333D1*
X740333Y1514154D1*
X746151Y1515075D1*
X752041D1*
X757858Y1514154D1*
X763459Y1512333D1*
X768706Y1509660D1*
X773471Y1506198D1*
X777636Y1502033D1*
X781098Y1497268D1*
X783772Y1492021D1*
X785592Y1486420D1*
X786513Y1480602D1*
Y1474713D1*
X613285D2*
X612364Y1468895D1*
X610543Y1463294D1*
X607870Y1458047D1*
X604408Y1453282D1*
X600243Y1449117D1*
X595478Y1445655D1*
X590231Y1442982D1*
X584630Y1441161D1*
X578812Y1440240D1*
X572923D1*
X567105Y1441161D1*
X561504Y1442982D1*
X556257Y1445655D1*
X551492Y1449117D1*
X547327Y1453282D1*
X543865Y1458047D1*
X541192Y1463294D1*
X539371Y1468895D1*
X538450Y1474713D1*
Y1480602D1*
X539371Y1486420D1*
X541192Y1492021D1*
X543865Y1497268D1*
X547327Y1502033D1*
X551492Y1506198D1*
X556257Y1509660D1*
X561504Y1512333D1*
X567105Y1514154D1*
X572923Y1515075D1*
X578812D1*
X584630Y1514154D1*
X590231Y1512333D1*
X595478Y1509660D1*
X600243Y1506198D1*
X604408Y1502033D1*
X607870Y1497268D1*
X610543Y1492021D1*
X612364Y1486420D1*
X613285Y1480602D1*
Y1474713D1*
X1319092Y1027197D2*
X1317241Y1019714D1*
X1315677Y1015474D1*
X1313786Y1011369D1*
X1311577Y1007425D1*
X1309066Y1003668D1*
X1306268Y1000118D1*
X1303201Y996799D1*
X1299882Y993732D1*
X1296332Y990934D1*
X1290957Y987517D1*
X1296332Y984066D1*
X1299882Y981268D1*
X1303201Y978201D1*
X1306268Y974882D1*
X1309066Y971332D1*
X1311577Y967575D1*
X1313786Y963631D1*
X1315677Y959526D1*
X1317241Y955286D1*
X1319092Y947803D1*
X1319096Y1027029D1*
X1319092Y927197D2*
X1317241Y919714D1*
X1315677Y915474D1*
X1313786Y911369D1*
X1311577Y907425D1*
X1309066Y903668D1*
X1306268Y900118D1*
X1303201Y896799D1*
X1299882Y893732D1*
X1296332Y890934D1*
X1290957Y887517D1*
X1296332Y884066D1*
X1299882Y881268D1*
X1303201Y878201D1*
X1306268Y874882D1*
X1309066Y871332D1*
X1311577Y867575D1*
X1313786Y863631D1*
X1315677Y859526D1*
X1317241Y855286D1*
X1319092Y847803D1*
X1319094Y927004D1*
X1319092Y827197D2*
X1317241Y819714D1*
X1315677Y815474D1*
X1313786Y811369D1*
X1311577Y807425D1*
X1309066Y803668D1*
X1306268Y800118D1*
X1303201Y796799D1*
X1299882Y793732D1*
X1296332Y790934D1*
X1290957Y787517D1*
X1296332Y784066D1*
X1299882Y781268D1*
X1303201Y778201D1*
X1306268Y774882D1*
X1309066Y771332D1*
X1311577Y767575D1*
X1313786Y763631D1*
X1315677Y759526D1*
X1317241Y755286D1*
X1319092Y747803D1*
X1319094Y827025D1*
X1319092Y727197D2*
X1317241Y719714D1*
X1315677Y715474D1*
X1313786Y711369D1*
X1311577Y707425D1*
X1309066Y703668D1*
X1306268Y700118D1*
X1303201Y696799D1*
X1299882Y693732D1*
X1296332Y690934D1*
X1290957Y687517D1*
X1296332Y684066D1*
X1299882Y681268D1*
X1303201Y678201D1*
X1306268Y674882D1*
X1309066Y671332D1*
X1311577Y667575D1*
X1313786Y663631D1*
X1315677Y659526D1*
X1317241Y655286D1*
X1319092Y647803D1*
X1319094Y727001D1*
X1319092Y627197D2*
X1317241Y619714D1*
X1315677Y615474D1*
X1313786Y611369D1*
X1311577Y607425D1*
X1309066Y603668D1*
X1306268Y600118D1*
X1303201Y596799D1*
X1299882Y593732D1*
X1296332Y590934D1*
X1290957Y587517D1*
X1296332Y584066D1*
X1299882Y581268D1*
X1303201Y578201D1*
X1306268Y574882D1*
X1309066Y571332D1*
X1311577Y567575D1*
X1313786Y563631D1*
X1315677Y559526D1*
X1317241Y555286D1*
X1319092Y547803D1*
X1319094Y627022D1*
X1319092Y527197D2*
X1317241Y519714D1*
X1315677Y515474D1*
X1313786Y511369D1*
X1311577Y507425D1*
X1309066Y503668D1*
X1306268Y500118D1*
X1303201Y496799D1*
X1299882Y493732D1*
X1296332Y490934D1*
X1290957Y487517D1*
X1296332Y484066D1*
X1299882Y481268D1*
X1303201Y478201D1*
X1306268Y474882D1*
X1309066Y471332D1*
X1311577Y467575D1*
X1313786Y463631D1*
X1315677Y459526D1*
X1317241Y455286D1*
X1319092Y447803D1*
X1319094Y526997D1*
X1319092Y427197D2*
X1317241Y419714D1*
X1315677Y415474D1*
X1313786Y411369D1*
X1311577Y407425D1*
X1309066Y403668D1*
X1306268Y400118D1*
X1303201Y396799D1*
X1299882Y393732D1*
X1296332Y390934D1*
X1290957Y387517D1*
X1296332Y384066D1*
X1299882Y381268D1*
X1303201Y378201D1*
X1306268Y374882D1*
X1309066Y371332D1*
X1311577Y367575D1*
X1313786Y363631D1*
X1315677Y359526D1*
X1317241Y355286D1*
X1319092Y347803D1*
X1319094Y427020D1*
X1319092Y327197D2*
X1317241Y319714D1*
X1315677Y315474D1*
X1313786Y311369D1*
X1311577Y307425D1*
X1309066Y303668D1*
X1306268Y300118D1*
X1303201Y296799D1*
X1299882Y293732D1*
X1296332Y290934D1*
X1290957Y287517D1*
X1295108Y284932D1*
X1299794Y281344D1*
X1304088Y277293D1*
X1307945Y272824D1*
X1311324Y267984D1*
X1314189Y262824D1*
X1316510Y257396D1*
X1318265Y251760D1*
X1319094Y248031D1*
Y326995D1*
X34043Y987517D2*
X28668Y990934D1*
X25118Y993732D1*
X21799Y996799D1*
X18732Y1000118D1*
X15934Y1003668D1*
X13423Y1007425D1*
X11214Y1011369D1*
X9323Y1015474D1*
X7759Y1019714D1*
X5908Y1027197D1*
X5907Y947997D1*
X7759Y955286D1*
X9323Y959526D1*
X11214Y963631D1*
X13423Y967575D1*
X15934Y971332D1*
X18732Y974882D1*
X21799Y978201D1*
X25118Y981268D1*
X28668Y984066D1*
X34043Y987483D1*
Y887517D2*
X28668Y890934D1*
X25118Y893732D1*
X21799Y896799D1*
X18732Y900118D1*
X15934Y903668D1*
X13423Y907425D1*
X11214Y911369D1*
X9323Y915474D1*
X7759Y919714D1*
X5908Y927197D1*
X5907Y848018D1*
X7759Y855286D1*
X9323Y859526D1*
X11214Y863631D1*
X13423Y867575D1*
X15934Y871332D1*
X18732Y874882D1*
X21799Y878201D1*
X25118Y881268D1*
X28668Y884066D1*
X34043Y887483D1*
Y787517D2*
X28668Y790934D1*
X25118Y793732D1*
X21799Y796799D1*
X18732Y800118D1*
X15934Y803668D1*
X13423Y807425D1*
X11214Y811369D1*
X9323Y815474D1*
X7759Y819714D1*
X5908Y827197D1*
X5907Y747995D1*
X7759Y755286D1*
X9323Y759526D1*
X11214Y763631D1*
X13423Y767575D1*
X15934Y771332D1*
X18732Y774882D1*
X21799Y778201D1*
X25118Y781268D1*
X28668Y784066D1*
X34043Y787483D1*
Y687517D2*
X28668Y690934D1*
X25118Y693732D1*
X21799Y696799D1*
X18732Y700118D1*
X15934Y703668D1*
X13423Y707425D1*
X11214Y711369D1*
X9323Y715474D1*
X7759Y719714D1*
X5908Y727197D1*
X5906Y648016D1*
X7759Y655286D1*
X9323Y659526D1*
X11214Y663631D1*
X13423Y667575D1*
X15934Y671332D1*
X18732Y674882D1*
X21799Y678201D1*
X25118Y681268D1*
X28668Y684066D1*
X34043Y687483D1*
Y587517D2*
X28668Y590934D1*
X25118Y593732D1*
X21799Y596799D1*
X18732Y600118D1*
X15934Y603668D1*
X13423Y607425D1*
X11214Y611369D1*
X9323Y615474D1*
X7759Y619714D1*
X5908Y627197D1*
X5906Y547991D1*
X7759Y555286D1*
X9323Y559526D1*
X11214Y563631D1*
X13423Y567575D1*
X15934Y571332D1*
X18732Y574882D1*
X21799Y578201D1*
X25118Y581268D1*
X28668Y584066D1*
X34043Y587483D1*
Y487517D2*
X28668Y490934D1*
X25118Y493732D1*
X21799Y496799D1*
X18732Y500118D1*
X15934Y503668D1*
X13423Y507425D1*
X11214Y511369D1*
X9323Y515474D1*
X7759Y519714D1*
X5908Y527197D1*
X5906Y448013D1*
X7759Y455286D1*
X9323Y459526D1*
X11214Y463631D1*
X13423Y467575D1*
X15934Y471332D1*
X18732Y474882D1*
X21799Y478201D1*
X25118Y481268D1*
X28668Y484066D1*
X34043Y487483D1*
Y387517D2*
X28668Y390934D1*
X25118Y393732D1*
X21799Y396799D1*
X18732Y400118D1*
X15934Y403668D1*
X13423Y407425D1*
X11214Y411369D1*
X9323Y415474D1*
X7759Y419714D1*
X5908Y427197D1*
X5906Y347988D1*
X7759Y355286D1*
X9323Y359526D1*
X11214Y363631D1*
X13423Y367575D1*
X15934Y371332D1*
X18732Y374882D1*
X21799Y378201D1*
X25118Y381268D1*
X28668Y384066D1*
X34043Y387483D1*
Y287517D2*
X28668Y290934D1*
X25118Y293732D1*
X21799Y296799D1*
X18732Y300118D1*
X15934Y303668D1*
X13423Y307425D1*
X11214Y311369D1*
X9323Y315474D1*
X7759Y319714D1*
X5908Y327197D1*
X5906Y248009D1*
X7759Y255286D1*
X9323Y259526D1*
X11214Y263631D1*
X13423Y267575D1*
X15934Y271332D1*
X18732Y274882D1*
X21799Y278201D1*
X25118Y281268D1*
X28668Y284066D1*
X34043Y287483D1*
X1124098Y531182D2*
X1142077Y531218D1*
X1140361Y534587D1*
X1139193Y538182D1*
X1138601Y541916D1*
X1138528Y573335D1*
Y663463D1*
X1104475Y663551D1*
X1100741Y664143D1*
X1097146Y665311D1*
X1093777Y667028D1*
X1090718Y669251D1*
X1081450Y678413D1*
X1072115Y669180D1*
X1069056Y666957D1*
X1065688Y665240D1*
X1062092Y664072D1*
X1058358Y663482D1*
X1026940Y663407D1*
X839186D1*
X840482Y661663D1*
X1089505Y661587D1*
X1093239Y660996D1*
X1096835Y659827D1*
X1100203Y658110D1*
X1103262Y655888D1*
X1117041Y642217D1*
X1119496Y639341D1*
X1121471Y636117D1*
X1122917Y632625D1*
X1123801Y628948D1*
X1124097Y625178D1*
Y531175D1*
X621184Y1031820D2*
X620759Y1037609D1*
X621273Y1044150D1*
X622804Y1050529D1*
X625316Y1056591D1*
X627554Y1060404D1*
X574374D1*
X574394Y1031829D1*
X621142Y1031822D1*
X704252Y909315D2*
X703226Y902835D1*
X701198Y896596D1*
X698219Y890749D1*
X694364Y885442D1*
X689723Y880802D1*
X686879Y878592D1*
X689038Y878278D1*
X750608D1*
X750638Y931428D1*
X750614Y1008199D1*
X750638Y1059381D1*
X748781Y1059982D1*
X748707Y991573D1*
X748115Y987840D1*
X746948Y984244D1*
X745231Y980875D1*
X743008Y977816D1*
X730396Y965098D1*
X727521Y962643D1*
X724297Y960668D1*
X720804Y959220D1*
X717127Y958339D1*
X713350Y958042D1*
X574371D1*
X574394Y955058D1*
X614848Y954975D1*
X618581Y954385D1*
X622177Y953217D1*
X625546Y951500D1*
X628605Y949277D1*
X634448Y943539D1*
X637993Y946421D1*
X643588Y949849D1*
X649650Y952361D1*
X656029Y953892D1*
X662570Y954407D1*
X669110Y953892D1*
X675490Y952361D1*
X681551Y949849D1*
X687146Y946421D1*
X692134Y942160D1*
X696395Y937172D1*
X699823Y931577D1*
X702335Y925516D1*
X703866Y919136D1*
X704381Y912596D1*
X704252Y909315D1*
X448087Y1036428D2*
X447688Y1031723D1*
X446760Y1027093D1*
X445316Y1022597D1*
X443374Y1018293D1*
X440961Y1014235D1*
X438104Y1010475D1*
X434841Y1007062D1*
X431215Y1004037D1*
X427270Y1001441D1*
X423059Y999307D1*
X418633Y997660D1*
X414050Y996524D1*
X409367Y995911D1*
X404647Y995831D1*
X399946Y996282D1*
X395327Y997261D1*
X390848Y998755D1*
X386566Y1000744D1*
X382534Y1003203D1*
X378807Y1006102D1*
X375429Y1009402D1*
X372446Y1013062D1*
X369894Y1017034D1*
X367806Y1021270D1*
X366210Y1025714D1*
X365123Y1030310D1*
X364563Y1034997D1*
X364535Y1039719D1*
X365039Y1044415D1*
X366070Y1049022D1*
X367613Y1053486D1*
X369650Y1057745D1*
X372154Y1061748D1*
X375093Y1065444D1*
X378430Y1068783D1*
X382123Y1071727D1*
X386125Y1074234D1*
X390383Y1076274D1*
X394844Y1077822D1*
X399451Y1078857D1*
X404146Y1079365D1*
X408867Y1079341D1*
X413556Y1078785D1*
X418152Y1077702D1*
X422598Y1076109D1*
X426835Y1074025D1*
X430810Y1071478D1*
X434472Y1068496D1*
X437776Y1065122D1*
X440677Y1061398D1*
X443140Y1057369D1*
X445133Y1053088D1*
X446631Y1048609D1*
X447614Y1043991D1*
X448070Y1039291D1*
X448087Y1036428D1*
X104301Y1236449D2*
X103902Y1231744D1*
X102974Y1227114D1*
X101530Y1222618D1*
X99588Y1218314D1*
X97175Y1214256D1*
X94318Y1210496D1*
X91055Y1207083D1*
X87429Y1204058D1*
X83484Y1201462D1*
X79273Y1199328D1*
X74846Y1197681D1*
X70264Y1196545D1*
X65581Y1195932D1*
X60861Y1195852D1*
X56160Y1196303D1*
X51541Y1197282D1*
X47062Y1198776D1*
X42780Y1200765D1*
X38748Y1203224D1*
X35021Y1206123D1*
X31643Y1209423D1*
X28660Y1213083D1*
X26108Y1217055D1*
X24020Y1221291D1*
X22424Y1225735D1*
X21337Y1230331D1*
X20777Y1235018D1*
X20749Y1239740D1*
X21253Y1244436D1*
X22283Y1249043D1*
X23827Y1253507D1*
X25864Y1257766D1*
X28367Y1261769D1*
X31307Y1265465D1*
X34644Y1268804D1*
X38337Y1271748D1*
X42339Y1274255D1*
X46597Y1276295D1*
X51058Y1277843D1*
X55665Y1278878D1*
X60360Y1279386D1*
X65081Y1279362D1*
X69770Y1278806D1*
X74366Y1277723D1*
X78812Y1276130D1*
X83049Y1274046D1*
X87024Y1271499D1*
X90686Y1268517D1*
X93990Y1265143D1*
X96891Y1261419D1*
X99354Y1257390D1*
X101346Y1253109D1*
X102845Y1248630D1*
X103828Y1244012D1*
X104283Y1239312D1*
X104301Y1236449D1*
X1304427D2*
X1304028Y1231744D1*
X1303100Y1227114D1*
X1301656Y1222618D1*
X1299714Y1218314D1*
X1297301Y1214256D1*
X1294444Y1210496D1*
X1291181Y1207083D1*
X1287555Y1204058D1*
X1283610Y1201462D1*
X1279399Y1199328D1*
X1274972Y1197681D1*
X1270390Y1196545D1*
X1265707Y1195932D1*
X1260987Y1195852D1*
X1256286Y1196303D1*
X1251667Y1197282D1*
X1247188Y1198776D1*
X1242906Y1200765D1*
X1238874Y1203224D1*
X1235147Y1206123D1*
X1231769Y1209423D1*
X1228786Y1213083D1*
X1226234Y1217055D1*
X1224146Y1221291D1*
X1222550Y1225735D1*
X1221463Y1230331D1*
X1220903Y1235018D1*
X1220875Y1239740D1*
X1221379Y1244436D1*
X1222409Y1249043D1*
X1223953Y1253507D1*
X1225990Y1257766D1*
X1228493Y1261769D1*
X1231433Y1265465D1*
X1234770Y1268804D1*
X1238463Y1271748D1*
X1242465Y1274255D1*
X1246723Y1276295D1*
X1251184Y1277843D1*
X1255791Y1278878D1*
X1260486Y1279386D1*
X1265207Y1279362D1*
X1269896Y1278806D1*
X1274492Y1277723D1*
X1278938Y1276130D1*
X1283175Y1274046D1*
X1287150Y1271499D1*
X1290812Y1268517D1*
X1294115Y1265143D1*
X1297017Y1261419D1*
X1299480Y1257390D1*
X1301472Y1253109D1*
X1302971Y1248630D1*
X1303954Y1244012D1*
X1304409Y1239312D1*
X1304427Y1236449D1*
X354327Y736396D2*
X353928Y731692D1*
X353000Y727062D1*
X351556Y722566D1*
X349614Y718261D1*
X347201Y714203D1*
X344344Y710444D1*
X341081Y707030D1*
X337455Y704005D1*
X333510Y701409D1*
X329299Y699276D1*
X324873Y697629D1*
X320290Y696492D1*
X315608Y695879D1*
X310887Y695799D1*
X306186Y696251D1*
X301567Y697230D1*
X297088Y698723D1*
X292806Y700713D1*
X288774Y703172D1*
X285047Y706071D1*
X281669Y709370D1*
X278686Y713030D1*
X276134Y717003D1*
X274046Y721239D1*
X272450Y725682D1*
X271364Y730278D1*
X270803Y734966D1*
X270776Y739688D1*
X271280Y744383D1*
X272310Y748991D1*
X273853Y753454D1*
X275890Y757714D1*
X278394Y761717D1*
X281333Y765412D1*
X284671Y768752D1*
X288364Y771696D1*
X292365Y774202D1*
X296623Y776243D1*
X301084Y777790D1*
X305692Y778825D1*
X310386Y779333D1*
X315108Y779310D1*
X319797Y778753D1*
X324392Y777671D1*
X328839Y776077D1*
X333075Y773993D1*
X337050Y771446D1*
X340713Y768465D1*
X344016Y765091D1*
X346917Y761366D1*
X349381Y757337D1*
X351373Y753056D1*
X352871Y748577D1*
X353854Y743959D1*
X354310Y739260D1*
X354327Y736396D1*
X1079843Y1662185D2*
X1152441D1*
Y1541161D1*
X1078661D1*
Y1662185D1*
X1079843D1*
X857858Y753314D2*
Y751349D1*
X750614D1*
Y753310D1*
X674154Y753318D1*
X674164Y707585D1*
X678281Y709762D1*
X681877Y710930D1*
X685610Y711521D1*
X717029Y711596D1*
X917516D1*
X914306Y714295D1*
X900525Y728180D1*
X898303Y731239D1*
X896587Y734608D1*
X895417Y738203D1*
X894827Y741937D1*
X894752Y752617D1*
X892203Y753318D1*
X857854D1*
X750614Y801510D2*
Y830081D1*
X675336Y830164D1*
X671602Y830755D1*
X668007Y831924D1*
X664638Y833640D1*
X661579Y835862D1*
X649147Y848189D1*
X649160Y799560D1*
X653025Y800841D1*
X656759Y801433D1*
X688177Y801507D1*
X750623D1*
X857858Y930486D2*
Y929461D1*
X1084235Y929385D1*
X1087969Y928794D1*
X1091564Y927626D1*
X1094933Y925909D1*
X1097992Y923686D1*
X1110903Y910882D1*
X1113362Y908000D1*
X1113525Y908492D1*
Y958020D1*
X857871Y958042D1*
X857835Y930483D1*
X171995Y165739D2*
X154067Y165825D1*
X149723Y166513D1*
X145539Y167873D1*
X141619Y169870D1*
X138062Y172455D1*
X123944Y186450D1*
X121087Y189795D1*
X118789Y193546D1*
X117105Y197609D1*
X116079Y201887D1*
X115734Y206295D1*
X115677Y215474D1*
X113786Y211369D1*
X111577Y207425D1*
X109066Y203668D1*
X106268Y200118D1*
X103201Y196799D1*
X99882Y193732D1*
X96332Y190934D1*
X92575Y188423D1*
X88631Y186214D1*
X84526Y184323D1*
X80286Y182759D1*
X75937Y181531D1*
X71504Y180650D1*
X67016Y180118D1*
X62500Y179941D1*
X57984Y180118D1*
X53496Y180650D1*
X49063Y181531D1*
X44714Y182759D1*
X40474Y184323D1*
X36369Y186214D1*
X32425Y188423D1*
X28668Y190934D1*
X25118Y193732D1*
X21799Y196799D1*
X18732Y200118D1*
X15934Y203668D1*
X13423Y207425D1*
X11214Y211369D1*
X9323Y215474D1*
X7759Y219714D1*
X5908Y227197D1*
X5909Y110495D1*
X7615Y115882D1*
X9785Y121374D1*
X12331Y126701D1*
X15241Y131837D1*
X18503Y136760D1*
X22098Y141442D1*
X26012Y145864D1*
X30223Y150003D1*
X34713Y153837D1*
X39458Y157350D1*
X44436Y160525D1*
X49623Y163345D1*
X54995Y165798D1*
X60522Y167870D1*
X66182Y169552D1*
X71945Y170837D1*
X77783Y171718D1*
X83669Y172190D1*
X89573Y172252D1*
X95467Y171902D1*
X101322Y171143D1*
X107110Y169978D1*
X112803Y168412D1*
X118374Y166455D1*
X123794Y164114D1*
X129039Y161403D1*
X134083Y158332D1*
X138899Y154919D1*
X143467Y151177D1*
X147764Y147127D1*
X151768Y142789D1*
X155461Y138181D1*
X158823Y133328D1*
X161840Y128252D1*
X164496Y122979D1*
X166778Y117534D1*
X168677Y111944D1*
X170181Y106234D1*
X171285Y100433D1*
X171982Y94571D1*
X172269Y88673D1*
X171990Y99665D1*
Y165756D1*
X381571Y1187281D2*
Y1087958D1*
X313209Y1137619D2*
X449933D1*
X381571Y987260D2*
Y887937D1*
X313209Y937598D2*
X449933D1*
X1099902Y1287500D2*
Y1239806D1*
Y1287500D2*
X1143659D1*
X312533Y351648D2*
Y191301D1*
X599508Y1438736D2*
Y1311854D1*
X571500Y1375295D2*
X599508D1*
X837697Y1446610D2*
Y1379232D1*
X780161D2*
X895232D1*
X487303Y1446610D2*
Y1311854D1*
X429768Y1379232D2*
X544839D1*
X837697Y1663146D2*
Y1528390D1*
X780161Y1595768D2*
X895232D1*
X487303Y1663146D2*
Y1528390D1*
X429768Y1595768D2*
X544839D1*
X1262500Y237500D2*
Y179965D1*
X1204965Y237500D2*
X1262500D1*
X812570Y232554D2*
Y117483D1*
Y175018D2*
X870105D1*
X877404Y487449D2*
X925097D1*
X243776Y310566D2*
Y226991D1*
X201988Y268778D2*
X243776D1*
X381290Y310566D2*
Y226991D1*
Y268778D2*
X423077D1*
X406293Y1079396D2*
Y995822D1*
X364505Y1037609D2*
X448080D1*
X62507Y1279417D2*
Y1195843D1*
X20719Y1237630D2*
X104294D1*
X1262633Y1279417D2*
Y1195843D1*
X1220845Y1237630D2*
X1304420D1*
X312533Y779365D2*
Y695790D1*
X270745Y737577D2*
X354320D1*
X1115551Y1662161D2*
Y1541184D1*
X1078685Y1601673D2*
X1152419D1*
X750638Y930955D2*
X857835D1*
X467173Y1033318D2*
X574371D1*
X467173Y956546D2*
X574371D1*
X467173Y854184D2*
X520772D1*
X467173Y828593D2*
X574370D1*
D18*
X243776Y1137619D3*
X381571D3*
X243776Y937598D3*
X381571D3*
D19*
X762598Y1287500D3*
X837402D3*
X1025098D3*
X1099902D3*
D22*
X312533Y78562D3*
Y271475D3*
D20*
X1100003Y124898D3*
Y50094D3*
X1012503Y124898D3*
Y50094D3*
X925097Y124911D3*
Y50108D3*
D24*
X725492Y1375295D3*
X693996D3*
X662500D3*
X631004D3*
X599508D3*
D25*
X837697Y1379232D3*
X487303D3*
X837697Y1595768D3*
X487303D3*
D26*
X1262500Y1137500D3*
D27*
Y1037500D3*
Y937500D3*
Y837500D3*
Y737500D3*
Y637500D3*
Y537500D3*
Y437500D3*
Y337500D3*
Y237500D3*
D26*
X62500Y1137500D3*
D27*
Y1037500D3*
Y937500D3*
Y837500D3*
Y737500D3*
Y637500D3*
Y537500D3*
Y437500D3*
Y337500D3*
Y237500D3*
D26*
X512570Y175018D3*
D27*
X612570D3*
X712570D3*
X812570D3*
D20*
X1100003Y412600D3*
Y487403D3*
X1012503Y412600D3*
Y487403D3*
X925097Y487449D3*
Y412646D3*
D29*
X1115551Y1601673D3*
X1025000D3*
X934449D3*
D30*
X1025000Y1373327D3*
D31*
X804236Y777412D3*
Y803003D3*
Y828593D3*
Y854184D3*
Y879774D3*
Y905365D3*
Y930955D3*
Y956546D3*
Y982136D3*
Y1007727D3*
Y1033318D3*
Y1058908D3*
Y1084499D3*
Y1110089D3*
X520764D3*
X520772Y1084499D3*
Y1058908D3*
Y1033318D3*
Y1007727D3*
Y982136D3*
Y956546D3*
Y930955D3*
Y905365D3*
Y879774D3*
Y854184D3*
Y828593D3*
Y803003D3*
Y777412D3*
M02*
