G04 DipTrace 3.1.0.1*
G04 Нижняямаркировка.gbr*
%MOIN*%
G04 #@! TF.FileFunction,Legend,Bot*
G04 #@! TF.Part,Single*
%ADD10C,0.009843*%
%ADD18C,0.023627*%
%ADD54C,0.00772*%
%FSLAX26Y26*%
G04*
G70*
G90*
G75*
G01*
G04 BotSilk*
%LPD*%
X-1941457Y1725749D2*
D10*
Y1674608D1*
X-1941354Y1225697D2*
Y1174555D1*
X-1971173Y973713D2*
Y926468D1*
X-1904233Y973713D2*
Y926468D1*
D18*
X-1937703Y1070184D3*
X-1864049Y1790991D2*
D54*
X-1861672Y1795744D1*
X-1856864Y1800553D1*
X-1852111Y1802929D1*
X-1842549D1*
X-1837740Y1800553D1*
X-1832987Y1795744D1*
X-1830555Y1790991D1*
X-1828179Y1783806D1*
Y1771812D1*
X-1830555Y1764683D1*
X-1832987Y1759874D1*
X-1837740Y1755121D1*
X-1842549Y1752689D1*
X-1852111D1*
X-1856864Y1755121D1*
X-1861672Y1759874D1*
X-1864049Y1764683D1*
X-1881920Y1790936D2*
Y1793312D1*
X-1884296Y1798121D1*
X-1886673Y1800497D1*
X-1891481Y1802874D1*
X-1901043D1*
X-1905796Y1800497D1*
X-1908173Y1798121D1*
X-1910605Y1793312D1*
Y1788559D1*
X-1908173Y1783751D1*
X-1903420Y1776621D1*
X-1879488Y1752689D1*
X-1912981D1*
X-1862758Y1290938D2*
X-1860381Y1295692D1*
X-1855573Y1300500D1*
X-1850820Y1302877D1*
X-1841258D1*
X-1836450Y1300500D1*
X-1831697Y1295692D1*
X-1829265Y1290938D1*
X-1826888Y1283753D1*
Y1271760D1*
X-1829265Y1264630D1*
X-1831697Y1259822D1*
X-1836450Y1255068D1*
X-1841258Y1252637D1*
X-1850820D1*
X-1855573Y1255068D1*
X-1860381Y1259822D1*
X-1862758Y1264630D1*
X-1902129Y1252637D2*
Y1302821D1*
X-1878197Y1269383D1*
X-1914067D1*
X-2046359Y999264D2*
X-1996120D1*
Y982517D1*
X-1998551Y975332D1*
X-2003305Y970523D1*
X-2008113Y968147D1*
X-2015243Y965770D1*
X-2027236D1*
X-2034421Y968147D1*
X-2039174Y970524D1*
X-2043983Y975332D1*
X-2046359Y982517D1*
Y999264D1*
X-2036743Y950331D2*
X-2039175Y945523D1*
X-2046304Y938338D1*
X-1996120D1*
M02*
