M48
INCH
T01C0.0118
T02C0.0433
T03C0.0512
%
T03
X-017454Y+009188
X-015486Y+009188
X-013517Y+009188
X-011549Y+009188
T02
X-020502Y+017501
X-020502Y+016501
X-020502Y+015501
X-020502Y+014501
X-020502Y+013501
X-020502Y+012501
X-020502Y+011501
X-020502Y+010501
X-020502Y+009501
X-020502Y+008501
X-008501Y+017501
X-008501Y+016501
X-008501Y+015501
X-008501Y+014501
X-008501Y+013501
X-008501Y+012501
X-008501Y+011501
X-008501Y+010501
X-008501Y+009501
X-008501Y+008501
T01
X-016627Y+015064
X-019502Y+012689
X-013501Y+013376
X-015502Y+013376
X-013064Y+015877
X-016752Y+017502
X-019502Y+016314
T00
M30
