G04 DipTrace 3.1.0.1*
G04 Верхняямаркировка.gbr*
%MOIN*%
G04 #@! TF.FileFunction,Legend,Top*
G04 #@! TF.Part,Single*
%ADD10C,0.009843*%
%ADD15C,0.023676*%
%ADD24C,0.015404*%
%ADD54C,0.00772*%
%ADD55C,0.010936*%
%ADD56C,0.008749*%
%FSLAX26Y26*%
G04*
G70*
G90*
G75*
G01*
G04 TopSilk*
%LPD*%
X-1778067Y1784824D2*
D10*
X-1778043Y1749391D1*
X-1778067Y1784824D2*
X-1917765D1*
X-1947324Y1755300D2*
X-1917765Y1784824D1*
X-1947324Y1755300D2*
X-1947348Y1749391D1*
X-1778043Y1650965D2*
X-1778067Y1615533D1*
X-1917765D1*
X-1947324Y1645057D2*
X-1917765Y1615533D1*
X-1947348Y1650965D2*
X-1947324Y1645057D1*
D15*
X-1968975Y1755308D3*
X-1778067Y1284766D2*
D10*
X-1778043Y1249334D1*
X-1778067Y1284766D2*
X-1917765D1*
X-1947324Y1255242D2*
X-1917765Y1284766D1*
X-1947324Y1255242D2*
X-1947348Y1249334D1*
X-1778043Y1150908D2*
X-1778067Y1115475D1*
X-1917765D1*
X-1947324Y1144999D2*
X-1917765Y1115475D1*
X-1947348Y1150908D2*
X-1947324Y1144999D1*
D15*
X-1968975Y1255250D3*
X-1837919Y1513227D2*
D10*
Y1462085D1*
Y1438219D2*
Y1387077D1*
X-1867475Y788925D2*
X-1032829D1*
Y1084201D1*
X-1867475D1*
Y788925D1*
G36*
X-1761141Y823679D2*
X-1729675D1*
Y792173D1*
X-1761141D1*
Y823679D1*
G37*
G36*
X-1564332D2*
X-1532866D1*
Y792173D1*
X-1564332D1*
Y823679D1*
G37*
G36*
X-1367522D2*
X-1336056D1*
Y792173D1*
X-1367522D1*
Y823679D1*
G37*
G36*
X-1170546D2*
X-1139080D1*
Y792173D1*
X-1170546D1*
Y823679D1*
G37*
X-2001003Y1809979D2*
D10*
X-2099428D1*
Y790294D1*
X-2001003D1*
Y1809979D1*
X-800877D2*
X-899302D1*
Y790294D1*
X-800877D1*
Y1809979D1*
D24*
X-1650578Y1608626D3*
X-1659778Y1558484D2*
D10*
X-1777883D1*
Y1538799D1*
X-1659778D1*
Y1558484D1*
D24*
X-1650578Y1446109D3*
X-1659778Y1395967D2*
D10*
X-1777883D1*
Y1376282D1*
X-1659778D1*
Y1395967D1*
X-1351725Y1601351D2*
X-1548579D1*
X-1351725Y1498975D2*
X-1548579D1*
Y1601351D2*
Y1498975D1*
X-1351725Y1569857D2*
Y1601351D1*
Y1530468D2*
Y1498975D1*
Y1569857D2*
G03X-1351725Y1530468I9J-19694D01*
G01*
X-1462653Y1157424D2*
D54*
Y1119177D1*
X-1465029Y1111992D1*
X-1467461Y1109616D1*
X-1472214Y1107184D1*
X-1477023D1*
X-1481776Y1109616D1*
X-1484153Y1111992D1*
X-1486584Y1119177D1*
Y1123931D1*
X-1442405Y1157369D2*
X-1416152D1*
X-1430467Y1138245D1*
X-1423282D1*
X-1418529Y1135869D1*
X-1416152Y1133492D1*
X-1413720Y1126307D1*
Y1121554D1*
X-1416152Y1114369D1*
X-1420905Y1109560D1*
X-1428090Y1107184D1*
X-1435275D1*
X-1442405Y1109560D1*
X-1444782Y1111992D1*
X-1447213Y1116745D1*
X-1728876Y1689560D2*
X-1733630Y1687239D1*
X-1738438Y1682431D1*
X-1740815Y1677622D1*
X-1743247Y1670437D1*
Y1658499D1*
X-1740815Y1651314D1*
X-1738438Y1646561D1*
X-1733630Y1641752D1*
X-1728876Y1639376D1*
X-1719315D1*
X-1714506Y1641752D1*
X-1709753Y1646561D1*
X-1707377Y1651314D1*
X-1704945Y1658499D1*
Y1670437D1*
X-1707377Y1677622D1*
X-1709753Y1682431D1*
X-1714506Y1687239D1*
X-1719315Y1689560D1*
X-1728876D1*
X-1721691Y1648937D2*
X-1707377Y1634567D1*
X-1689505Y1679943D2*
X-1684697Y1682375D1*
X-1677512Y1689505D1*
Y1639320D1*
X-1739626Y1303221D2*
X-1744380Y1300900D1*
X-1749188Y1296091D1*
X-1751565Y1291283D1*
X-1753996Y1284098D1*
Y1272160D1*
X-1751565Y1264975D1*
X-1749188Y1260221D1*
X-1744380Y1255413D1*
X-1739626Y1253036D1*
X-1730065D1*
X-1725256Y1255413D1*
X-1720503Y1260221D1*
X-1718127Y1264975D1*
X-1715695Y1272160D1*
Y1284098D1*
X-1718127Y1291283D1*
X-1720503Y1296091D1*
X-1725256Y1300900D1*
X-1730065Y1303221D1*
X-1739626D1*
X-1732441Y1262598D2*
X-1718127Y1248228D1*
X-1697824Y1291228D2*
Y1293604D1*
X-1695447Y1298413D1*
X-1693070Y1300789D1*
X-1688262Y1303166D1*
X-1678700D1*
X-1673947Y1300789D1*
X-1671571Y1298413D1*
X-1669139Y1293604D1*
Y1288851D1*
X-1671571Y1284043D1*
X-1676324Y1276913D1*
X-1700255Y1252981D1*
X-1666762D1*
X-1336850Y1365022D2*
X-1315350D1*
X-1308165Y1367454D1*
X-1305733Y1369830D1*
X-1303357Y1374583D1*
Y1379392D1*
X-1305733Y1384145D1*
X-1308165Y1386577D1*
X-1315350Y1388953D1*
X-1336850D1*
Y1338713D1*
X-1320104Y1365022D2*
X-1303357Y1338713D1*
X-1287918Y1379336D2*
X-1283109Y1381768D1*
X-1275924Y1388898D1*
Y1338713D1*
X-1491468Y1267222D2*
X-1469968D1*
X-1462783Y1269654D1*
X-1460351Y1272031D1*
X-1457974Y1276784D1*
Y1281593D1*
X-1460351Y1286346D1*
X-1462783Y1288778D1*
X-1469968Y1291154D1*
X-1491468D1*
Y1240914D1*
X-1474721Y1267222D2*
X-1457974Y1240914D1*
X-1440103Y1279161D2*
Y1281537D1*
X-1437727Y1286346D1*
X-1435350Y1288722D1*
X-1430541Y1291099D1*
X-1420980D1*
X-1416227Y1288722D1*
X-1413850Y1286346D1*
X-1411418Y1281537D1*
Y1276784D1*
X-1413850Y1271976D1*
X-1418603Y1264846D1*
X-1442535Y1240914D1*
X-1409042D1*
X-1635130Y1365022D2*
X-1613630D1*
X-1606445Y1367454D1*
X-1604014Y1369830D1*
X-1601637Y1374583D1*
Y1379392D1*
X-1604014Y1384145D1*
X-1606445Y1386577D1*
X-1613630Y1388953D1*
X-1635130D1*
Y1338713D1*
X-1618384Y1365022D2*
X-1601637Y1338713D1*
X-1581389Y1388898D2*
X-1555136D1*
X-1569451Y1369775D1*
X-1562266D1*
X-1557513Y1367398D1*
X-1555136Y1365022D1*
X-1552704Y1357837D1*
Y1353083D1*
X-1555136Y1345898D1*
X-1559889Y1341090D1*
X-1567074Y1338713D1*
X-1574259D1*
X-1581389Y1341090D1*
X-1583766Y1343522D1*
X-1586198Y1348275D1*
X-1636319Y1743705D2*
X-1614819D1*
X-1607634Y1746137D1*
X-1605202Y1748513D1*
X-1602825Y1753266D1*
Y1758075D1*
X-1605202Y1762828D1*
X-1607634Y1765260D1*
X-1614819Y1767636D1*
X-1636319D1*
Y1717396D1*
X-1619572Y1743705D2*
X-1602825Y1717396D1*
X-1563454D2*
Y1767581D1*
X-1587386Y1734143D1*
X-1551516D1*
X-1480615Y1769055D2*
Y1733185D1*
X-1478239Y1726000D1*
X-1473430Y1721247D1*
X-1466245Y1718815D1*
X-1461492D1*
X-1454307Y1721247D1*
X-1449499Y1726000D1*
X-1447122Y1733185D1*
Y1769055D1*
X-1431683Y1759438D2*
X-1426874Y1761870D1*
X-1419689Y1769000D1*
Y1718815D1*
X-1210440Y1422365D2*
D55*
Y1372125D1*
X-1176947Y1422365D2*
X-1210440Y1388871D1*
X-1198502Y1400865D2*
X-1176947Y1372125D1*
X-1155074Y1397217D2*
X-1127440D1*
X-1105567Y1422365D2*
Y1372125D1*
X-1076883D1*
X-1055010Y1422365D2*
X-1052634Y1419988D1*
X-1050202Y1422365D1*
X-1052634Y1424797D1*
X-1055010Y1422365D1*
X-1052634Y1405618D2*
Y1372125D1*
X-1028330Y1405618D2*
Y1372125D1*
Y1396057D2*
X-1021145Y1403242D1*
X-1016336Y1405618D1*
X-1009206D1*
X-1004398Y1403242D1*
X-1002021Y1396057D1*
Y1372125D1*
X-980149Y1391248D2*
X-951464D1*
Y1396057D1*
X-953841Y1400865D1*
X-956217Y1403242D1*
X-961026Y1405618D1*
X-968211D1*
X-972964Y1403242D1*
X-977772Y1398433D1*
X-980149Y1391248D1*
Y1386495D1*
X-977772Y1379310D1*
X-972964Y1374557D1*
X-968211Y1372125D1*
X-961026D1*
X-956217Y1374557D1*
X-951464Y1379310D1*
X-1569961Y1101927D2*
D56*
X-1529769D1*
X-1569961Y1118004D2*
X-1543167Y1101927D1*
X-1552762Y1107657D2*
X-1529769Y1118004D1*
X-1549843Y1128503D2*
Y1141767D1*
X-1569961Y1152266D2*
X-1529769D1*
Y1166035D1*
X-1569961Y1176533D2*
X-1568060Y1177674D1*
X-1569961Y1178841D1*
X-1571907Y1177674D1*
X-1569961Y1176533D1*
X-1556564Y1177674D2*
X-1529769D1*
X-1556564Y1189340D2*
X-1529769D1*
X-1548915D2*
X-1554663Y1192789D1*
X-1556564Y1195097D1*
Y1198519D1*
X-1554663Y1200827D1*
X-1548915Y1201968D1*
X-1529769D1*
X-1545068Y1212467D2*
Y1226235D1*
X-1548915D1*
X-1552761Y1225095D1*
X-1554663Y1223954D1*
X-1556564Y1221646D1*
Y1218197D1*
X-1554663Y1215915D1*
X-1550816Y1213607D1*
X-1545068Y1212467D1*
X-1541265D1*
X-1535517Y1213607D1*
X-1531715Y1215915D1*
X-1529769Y1218197D1*
Y1221646D1*
X-1531715Y1223954D1*
X-1535517Y1226235D1*
X-1375394Y1101132D2*
X-1335202D1*
Y1114900D1*
X-1355276Y1125399D2*
Y1138664D1*
X-1375394Y1149163D2*
X-1335202Y1149162D1*
Y1162931D1*
X-1375394Y1173430D2*
X-1373493Y1174571D1*
X-1375394Y1175738D1*
X-1377340Y1174571D1*
X-1375394Y1173430D1*
X-1361997Y1174571D2*
X-1335202D1*
X-1361997Y1186237D2*
X-1335202D1*
X-1354348D2*
X-1360096Y1189685D1*
X-1361997Y1191994D1*
Y1195416D1*
X-1360096Y1197724D1*
X-1354348Y1198865D1*
X-1335202D1*
X-1350501Y1209363D2*
Y1223132D1*
X-1354348D1*
X-1358195Y1221991D1*
X-1360096Y1220851D1*
X-1361997Y1218543D1*
Y1215094D1*
X-1360096Y1212812D1*
X-1356249Y1210504D1*
X-1350501Y1209363D1*
X-1346699D1*
X-1340950Y1210504D1*
X-1337148Y1212812D1*
X-1335202Y1215094D1*
Y1218542D1*
X-1337148Y1220851D1*
X-1340950Y1223132D1*
X-1697908Y1113474D2*
X-1663464D1*
X-1680664Y1101434D2*
Y1125544D1*
X-1693110Y1137793D2*
X-1695056Y1140486D1*
X-1700760Y1144509D1*
X-1660612D1*
X-1691209Y1158119D2*
X-1693110D1*
X-1696957Y1159450D1*
X-1698858Y1160781D1*
X-1700760Y1163474D1*
Y1168829D1*
X-1698858Y1171490D1*
X-1696957Y1172821D1*
X-1693110Y1174183D1*
X-1689308D1*
X-1685461Y1172821D1*
X-1679757Y1170159D1*
X-1660612Y1156758D1*
Y1175514D1*
X-1700804Y1187762D2*
X-1660612D1*
Y1199833D1*
X-1662557Y1203857D1*
X-1664459Y1205188D1*
X-1668261Y1206519D1*
X-1674009D1*
X-1677856Y1205188D1*
X-1679757Y1203857D1*
X-1681659Y1199833D1*
X-1683604Y1203857D1*
X-1685505Y1205188D1*
X-1689308Y1206519D1*
X-1693155D1*
X-1696957Y1205188D1*
X-1698903Y1203857D1*
X-1700804Y1199833D1*
Y1187762D1*
X-1681659D2*
Y1199833D1*
X-1233059Y1116827D2*
X-1236862Y1115686D1*
X-1240708Y1113378D1*
X-1242610Y1111097D1*
Y1106507D1*
X-1240708Y1104199D1*
X-1236862Y1101918D1*
X-1233059Y1100750D1*
X-1227311Y1099609D1*
X-1217716D1*
X-1212012Y1100750D1*
X-1208166Y1101918D1*
X-1204363Y1104199D1*
X-1202418Y1106507D1*
Y1111097D1*
X-1204363Y1113378D1*
X-1208166Y1115686D1*
X-1212012Y1116827D1*
X-1217716D1*
Y1111097D1*
X-1242610Y1143402D2*
X-1202418D1*
X-1242610Y1127326D1*
X-1202418D1*
X-1242610Y1153901D2*
X-1202418D1*
Y1161940D1*
X-1204363Y1165388D1*
X-1208166Y1167696D1*
X-1212012Y1168837D1*
X-1217716Y1169978D1*
X-1227311D1*
X-1233059Y1168837D1*
X-1236862Y1167696D1*
X-1240708Y1165388D1*
X-1242610Y1161940D1*
Y1153901D1*
X-1218712Y1565895D2*
D55*
X-1230219Y1616135D1*
X-1241693Y1565895D1*
X-1237382Y1582642D2*
X-1223023D1*
X-1205589Y1616135D2*
X-1194115Y1565895D1*
X-1182641Y1616135D1*
X-1169518Y1592203D2*
X-1156618D1*
X-1152307Y1594635D1*
X-1150848Y1597012D1*
X-1149422Y1601765D1*
Y1606574D1*
X-1150848Y1611327D1*
X-1152307Y1613759D1*
X-1156618Y1616135D1*
X-1169518D1*
Y1565895D1*
X-1159470Y1592203D2*
X-1149422Y1565895D1*
X-1113317D2*
X-1124824Y1616135D1*
X-1136298Y1565895D1*
X-1131987Y1582642D2*
X-1117628D1*
X-1080098Y1608950D2*
X-1082950Y1613759D1*
X-1087261Y1616135D1*
X-1092998D1*
X-1097309Y1613759D1*
X-1100194Y1608950D1*
Y1604197D1*
X-1098735Y1599388D1*
X-1097309Y1597012D1*
X-1094457Y1594635D1*
X-1085835Y1589827D1*
X-1082950Y1587450D1*
X-1081524Y1585018D1*
X-1080098Y1580265D1*
Y1573080D1*
X-1082950Y1568327D1*
X-1087261Y1565895D1*
X-1092998D1*
X-1097309Y1568327D1*
X-1100194Y1573080D1*
X-1044027Y1565895D2*
Y1616135D1*
X-1055501Y1565895D1*
X-1066974Y1616135D1*
Y1565895D1*
X-1030903Y1606518D2*
X-1028018Y1608950D1*
X-1023707Y1616080D1*
Y1565895D1*
X-1009125Y1604142D2*
Y1606518D1*
X-1007699Y1611327D1*
X-1006273Y1613703D1*
X-1003388Y1616080D1*
X-997651D1*
X-994799Y1613703D1*
X-993373Y1611327D1*
X-991914Y1606518D1*
Y1601765D1*
X-993373Y1596957D1*
X-996225Y1589827D1*
X-1010584Y1565895D1*
X-990488D1*
X-974479Y1616080D2*
X-958728D1*
X-967316Y1596957D1*
X-963005D1*
X-960153Y1594580D1*
X-958728Y1592203D1*
X-957268Y1585018D1*
Y1580265D1*
X-958728Y1573080D1*
X-961579Y1568272D1*
X-965890Y1565895D1*
X-970201D1*
X-974479Y1568272D1*
X-975905Y1570704D1*
X-977364Y1575457D1*
X-929786Y1565895D2*
Y1616080D1*
X-944145Y1582642D1*
X-922623D1*
X-1210440Y1525260D2*
X-1207074Y1527692D1*
X-1202045Y1534821D1*
Y1484637D1*
X-1183368Y1534821D2*
X-1164991D1*
X-1175011Y1515698D1*
X-1169982D1*
X-1166655Y1513322D1*
X-1164991Y1510945D1*
X-1163289Y1503760D1*
Y1499007D1*
X-1164991Y1491822D1*
X-1168318Y1487013D1*
X-1173348Y1484637D1*
X-1178377D1*
X-1183368Y1487013D1*
X-1185032Y1489445D1*
X-1186734Y1494198D1*
X-1146315Y1489445D2*
X-1147978Y1487013D1*
X-1146315Y1484637D1*
X-1144612Y1487013D1*
X-1146315Y1489445D1*
X-1129302Y1525260D2*
X-1125936Y1527692D1*
X-1120906Y1534821D1*
Y1484637D1*
X-1103893Y1522883D2*
Y1525260D1*
X-1102230Y1530068D1*
X-1100566Y1532445D1*
X-1097200Y1534821D1*
X-1090507D1*
X-1087180Y1532445D1*
X-1085516Y1530068D1*
X-1083814Y1525260D1*
Y1520507D1*
X-1085516Y1515698D1*
X-1088843Y1508568D1*
X-1105596Y1484637D1*
X-1082150D1*
X-1065176Y1489445D2*
X-1066840Y1487013D1*
X-1065176Y1484637D1*
X-1063474Y1487013D1*
X-1065176Y1489445D1*
X-1046461Y1522883D2*
Y1525260D1*
X-1044797Y1530068D1*
X-1043134Y1532445D1*
X-1039768Y1534821D1*
X-1033075D1*
X-1029747Y1532445D1*
X-1028084Y1530068D1*
X-1026381Y1525260D1*
Y1520507D1*
X-1028084Y1515698D1*
X-1031411Y1508568D1*
X-1048163Y1484637D1*
X-1024718D1*
X-999348Y1534821D2*
X-1004378Y1532445D1*
X-1007744Y1525260D1*
X-1009407Y1513322D1*
Y1506136D1*
X-1007744Y1494198D1*
X-1004378Y1487013D1*
X-999348Y1484637D1*
X-996021D1*
X-990991Y1487013D1*
X-987664Y1494198D1*
X-985962Y1506136D1*
Y1513322D1*
X-987664Y1525260D1*
X-990991Y1532445D1*
X-996021Y1534821D1*
X-999348D1*
X-987664Y1525260D2*
X-1007744Y1494198D1*
X-970651Y1525260D2*
X-967285Y1527692D1*
X-962256Y1534821D1*
Y1484637D1*
X-940252D2*
X-923500Y1534821D1*
X-946945D1*
X-1203392Y1278365D2*
X-1222570Y1328605D1*
X-1241693Y1278365D1*
X-1234508Y1295112D2*
X-1210577D1*
X-1152834Y1328605D2*
Y1278365D1*
Y1304673D2*
X-1157588Y1309482D1*
X-1162396Y1311858D1*
X-1169581D1*
X-1174334Y1309482D1*
X-1179143Y1304673D1*
X-1181519Y1297488D1*
Y1292735D1*
X-1179143Y1285550D1*
X-1174334Y1280797D1*
X-1169581Y1278365D1*
X-1162396D1*
X-1157588Y1280797D1*
X-1152834Y1285550D1*
X-1102277Y1311858D2*
Y1278365D1*
Y1304673D2*
X-1107030Y1309482D1*
X-1111839Y1311858D1*
X-1118969D1*
X-1123777Y1309482D1*
X-1128530Y1304673D1*
X-1130962Y1297488D1*
Y1292735D1*
X-1128530Y1285550D1*
X-1123777Y1280797D1*
X-1118969Y1278365D1*
X-1111839D1*
X-1107030Y1280797D1*
X-1102277Y1285550D1*
X-1080405Y1311858D2*
Y1261618D1*
Y1304673D2*
X-1075597Y1309426D1*
X-1070843Y1311858D1*
X-1063658D1*
X-1058850Y1309426D1*
X-1054097Y1304673D1*
X-1051665Y1297488D1*
Y1292680D1*
X-1054097Y1285550D1*
X-1058850Y1280742D1*
X-1063658Y1278365D1*
X-1070843D1*
X-1075597Y1280742D1*
X-1080405Y1285550D1*
X-1022608Y1328605D2*
Y1287927D1*
X-1020231Y1280797D1*
X-1015422Y1278365D1*
X-1010669D1*
X-1029793Y1311858D2*
X-1013046D1*
X-988797Y1297488D2*
X-960112D1*
Y1302297D1*
X-962489Y1307105D1*
X-964865Y1309482D1*
X-969674Y1311858D1*
X-976859D1*
X-981612Y1309482D1*
X-986420Y1304673D1*
X-988797Y1297488D1*
Y1292735D1*
X-986420Y1285550D1*
X-981612Y1280797D1*
X-976859Y1278365D1*
X-969674D1*
X-964865Y1280797D1*
X-960112Y1285550D1*
X-938240Y1311858D2*
Y1278365D1*
Y1297488D2*
X-935808Y1304673D1*
X-931055Y1309482D1*
X-926246Y1311858D1*
X-919061D1*
X-1277607Y1688606D2*
D56*
Y1648414D1*
Y1688606D2*
X-1299043Y1648414D1*
Y1688606D2*
Y1648414D1*
X-1263609Y1675208D2*
Y1648414D1*
X-1253280D1*
X-1249814Y1649696D1*
X-1248682Y1650978D1*
X-1247550Y1653499D1*
Y1657345D1*
X-1248682Y1659910D1*
X-1249814Y1661192D1*
X-1253280Y1662430D1*
X-1249814Y1663757D1*
X-1248682Y1664995D1*
X-1247550Y1667559D1*
Y1670124D1*
X-1248682Y1672644D1*
X-1249814Y1673926D1*
X-1253280Y1675208D1*
X-1263609D1*
Y1662430D2*
X-1253280D1*
X-1215193Y1675208D2*
Y1648414D1*
Y1669460D2*
X-1218235Y1673307D1*
X-1221313Y1675208D1*
X-1225876D1*
X-1228953Y1673307D1*
X-1231995Y1669460D1*
X-1233552Y1663712D1*
Y1659910D1*
X-1231995Y1654162D1*
X-1228953Y1650359D1*
X-1225876Y1648414D1*
X-1221313D1*
X-1218235Y1650359D1*
X-1215193Y1654162D1*
X-1201195Y1675208D2*
Y1648414D1*
X-1185136Y1675208D2*
Y1648414D1*
X-1201195Y1662430D2*
X-1185136D1*
X-1155078Y1675208D2*
Y1648414D1*
Y1675208D2*
X-1171138Y1648414D1*
Y1675208D2*
Y1648414D1*
X-1141080D2*
Y1675208D1*
X-1118123D2*
Y1648414D1*
X-1129620Y1675208D2*
Y1648414D1*
X-1141080D2*
X-1118123D1*
X-1088066Y1675208D2*
Y1648414D1*
Y1675208D2*
X-1104125Y1648414D1*
Y1675208D2*
Y1648414D1*
X-1074068Y1675208D2*
Y1648414D1*
X-1058009Y1675208D2*
Y1648414D1*
X-1074068Y1662430D2*
X-1058009D1*
X-1008789Y1688606D2*
Y1648414D1*
X-994993D1*
X-990395Y1650359D1*
X-988874Y1652261D1*
X-987353Y1656063D1*
Y1661811D1*
X-988874Y1665658D1*
X-990395Y1667559D1*
X-994993Y1669460D1*
X-990395Y1671406D1*
X-988874Y1673307D1*
X-987353Y1677110D1*
Y1680956D1*
X-988874Y1684759D1*
X-990395Y1686704D1*
X-994993Y1688606D1*
X-1008789D1*
Y1669460D2*
X-994993D1*
X-971834Y1652261D2*
X-973355Y1650315D1*
X-971834Y1648414D1*
X-970277Y1650315D1*
X-971834Y1652261D1*
X-956279Y1688606D2*
Y1648414D1*
X-942484D1*
X-937885Y1650359D1*
X-936364Y1652261D1*
X-934843Y1656063D1*
Y1661811D1*
X-936364Y1665658D1*
X-937885Y1667559D1*
X-942484Y1669460D1*
X-937885Y1671406D1*
X-936364Y1673307D1*
X-934843Y1677110D1*
Y1680956D1*
X-936364Y1684759D1*
X-937885Y1686704D1*
X-942484Y1688606D1*
X-956279D1*
Y1669460D2*
X-942484D1*
X-919324Y1652261D2*
X-920845Y1650315D1*
X-919324Y1648414D1*
X-917768Y1650315D1*
X-919324Y1652261D1*
M02*
