G04 DipTrace 3.1.0.1*
G04 Верхняямаска.gbr*
%MOIN*%
G04 #@! TF.FileFunction,Soldermask,Top*
G04 #@! TF.Part,Single*
%ADD34R,0.031496X0.086614*%
%ADD36R,0.066929X0.059055*%
%ADD38R,0.033465X0.049213*%
%ADD40C,0.086614*%
%ADD42R,0.086614X0.086614*%
%ADD44C,0.106299*%
%ADD46R,0.106299X0.106299*%
%ADD50R,0.059055X0.066929*%
%ADD52R,0.108268X0.070866*%
%FSLAX26Y26*%
G04*
G70*
G90*
G75*
G01*
G04 TopMask*
%LPD*%
D52*
X-1931593Y1700178D3*
X-1793798D3*
X-1931593Y1200121D3*
X-1793798D3*
D50*
X-1875299Y1487656D3*
X-1950102D3*
X-1875299Y1412648D3*
X-1950102D3*
D46*
X-1745428Y918846D3*
D44*
X-1548577D3*
X-1351727D3*
X-1154877D3*
D42*
X-2050215Y1750136D3*
D40*
Y1650136D3*
Y1550136D3*
Y1450136D3*
Y1350136D3*
Y1250136D3*
Y1150136D3*
Y1050136D3*
Y950136D3*
Y850136D3*
D42*
X-850089Y1750136D3*
D40*
Y1650136D3*
Y1550136D3*
Y1450136D3*
Y1350136D3*
Y1250136D3*
Y1150136D3*
Y1050136D3*
Y950136D3*
Y850136D3*
D38*
X-1681427Y1593917D3*
X-1756230D3*
X-1718828Y1503366D3*
X-1681427Y1431400D3*
X-1756230D3*
X-1718828Y1340849D3*
D36*
X-1306387Y1431503D3*
Y1506306D3*
D50*
X-1487656Y1337640D3*
X-1412853D3*
D36*
X-1593917Y1431503D3*
Y1506306D3*
Y1668823D3*
Y1594020D3*
D50*
X-1950102Y1337640D3*
X-1875299D3*
Y1562664D3*
X-1950102D3*
D34*
X-1375152Y1656462D3*
X-1425152D3*
X-1475152D3*
X-1525152D3*
Y1443864D3*
X-1475152D3*
X-1425152D3*
X-1375152D3*
M02*
