G04 DipTrace 3.1.0.1*
G04 Вехнийразмер.gbr*
%MOIN*%
G04 #@! TF.FileFunction,Drawing,Top*
G04 #@! TF.Part,Single*
%ADD13C,0.001378*%
%ADD57C,0.006176*%
%FSLAX26Y26*%
G04*
G70*
G90*
G75*
G01*
G04 TopDimension*
%LPD*%
X-2112600Y787545D2*
D13*
Y649135D1*
X-787461Y787545D2*
Y649135D1*
X-1450030Y668820D2*
X-2073230D1*
G36*
X-2112600D2*
X-2073230Y676694D1*
Y660946D1*
X-2112600Y668820D1*
G37*
X-1450030D2*
D13*
X-826831D1*
G36*
X-787461D2*
X-826831Y660946D1*
Y676694D1*
X-787461Y668820D1*
G37*
X-2112600Y787545D2*
D13*
X-2251169D1*
X-2112600Y1812652D2*
X-2251169D1*
X-2231484Y1300098D2*
Y826915D1*
G36*
Y787545D2*
X-2239358Y826915D1*
X-2223610D1*
X-2231484Y787545D1*
G37*
Y1300098D2*
D13*
Y1773282D1*
G36*
Y1812652D2*
X-2223610Y1773282D1*
X-2239358D1*
X-2231484Y1812652D1*
G37*
X-1521366Y721179D2*
D57*
X-1500363D1*
X-1511815Y705880D1*
X-1506067D1*
X-1502264Y703979D1*
X-1500363Y702078D1*
X-1498418Y696330D1*
Y692527D1*
X-1500363Y686779D1*
X-1504166Y682932D1*
X-1509914Y681031D1*
X-1515662D1*
X-1521366Y682932D1*
X-1523267Y684878D1*
X-1525212Y688680D1*
X-1482220Y721179D2*
X-1461217D1*
X-1472669Y705880D1*
X-1466921D1*
X-1463118Y703979D1*
X-1461217Y702078D1*
X-1459272Y696330D1*
Y692527D1*
X-1461217Y686779D1*
X-1465020Y682932D1*
X-1470768Y681031D1*
X-1476516D1*
X-1482220Y682932D1*
X-1484121Y684878D1*
X-1486066Y688680D1*
X-1445019Y684878D2*
X-1446920Y682932D1*
X-1445019Y681031D1*
X-1443073Y682932D1*
X-1445019Y684878D1*
X-1407774Y715475D2*
X-1409675Y719277D1*
X-1415423Y721179D1*
X-1419226D1*
X-1424974Y719277D1*
X-1428821Y713529D1*
X-1430722Y703979D1*
Y694428D1*
X-1428821Y686779D1*
X-1424974Y682932D1*
X-1419226Y681031D1*
X-1417325D1*
X-1411621Y682932D1*
X-1407774Y686779D1*
X-1405873Y692527D1*
Y694428D1*
X-1407774Y700176D1*
X-1411621Y703979D1*
X-1417325Y705880D1*
X-1419226D1*
X-1424974Y703979D1*
X-1428821Y700176D1*
X-1430722Y694428D1*
X-1370574Y715475D2*
X-1372475Y719277D1*
X-1378223Y721179D1*
X-1382025D1*
X-1387773Y719277D1*
X-1391620Y713529D1*
X-1393521Y703979D1*
Y694428D1*
X-1391620Y686779D1*
X-1387773Y682932D1*
X-1382025Y681031D1*
X-1380124D1*
X-1374420Y682932D1*
X-1370574Y686779D1*
X-1368672Y692527D1*
Y694428D1*
X-1370574Y700176D1*
X-1374420Y703979D1*
X-1380124Y705880D1*
X-1382025D1*
X-1387773Y703979D1*
X-1391620Y700176D1*
X-1393521Y694428D1*
X-2274292Y1224938D2*
X-2276193D1*
X-2280040Y1226840D1*
X-2281942Y1228741D1*
X-2283843Y1232588D1*
Y1240237D1*
X-2281942Y1244040D1*
X-2280040Y1245941D1*
X-2276193Y1247886D1*
X-2272391D1*
X-2268544Y1245941D1*
X-2262840Y1242138D1*
X-2243695Y1222993D1*
Y1249788D1*
X-2278139Y1285087D2*
X-2281942Y1283186D1*
X-2283843Y1277438D1*
Y1273635D1*
X-2281942Y1267887D1*
X-2276193Y1264040D1*
X-2266643Y1262139D1*
X-2257092D1*
X-2249443Y1264040D1*
X-2245596Y1267887D1*
X-2243695Y1273635D1*
Y1275536D1*
X-2245596Y1281240D1*
X-2249443Y1285087D1*
X-2255191Y1286988D1*
X-2257092D1*
X-2262840Y1285087D1*
X-2266643Y1281240D1*
X-2268544Y1275536D1*
Y1273635D1*
X-2266643Y1267887D1*
X-2262840Y1264040D1*
X-2257092Y1262139D1*
X-2247542Y1301241D2*
X-2245596Y1299340D1*
X-2243695Y1301241D1*
X-2245596Y1303186D1*
X-2247542Y1301241D1*
X-2283843Y1327034D2*
X-2281942Y1321286D1*
X-2276193Y1317439D1*
X-2266643Y1315538D1*
X-2260895D1*
X-2251344Y1317439D1*
X-2245596Y1321286D1*
X-2243695Y1327034D1*
Y1330836D1*
X-2245596Y1336584D1*
X-2251344Y1340387D1*
X-2260895Y1342332D1*
X-2266643D1*
X-2276193Y1340387D1*
X-2281942Y1336584D1*
X-2283843Y1330836D1*
Y1327034D1*
X-2276193Y1340387D2*
X-2251344Y1317439D1*
X-2243695Y1373829D2*
X-2283843D1*
X-2257092Y1354684D1*
Y1383380D1*
M02*
