G04 DipTrace 3.1.0.1*
G04 Верхний.gbr*
%MOIN*%
G04 #@! TF.FileFunction,Copper,L1,Top*
G04 #@! TF.Part,Single*
G04 #@! TA.AperFunction,CopperBalancing*
%ADD14C,0.011811*%
%ADD16R,0.100394X0.062992*%
%ADD17R,0.051181X0.059055*%
G04 #@! TA.AperFunction,ComponentPad*
%ADD20R,0.098425X0.098425*%
%ADD21C,0.098425*%
%ADD22R,0.07874X0.07874*%
%ADD23C,0.07874*%
%ADD25R,0.025591X0.041339*%
%ADD26R,0.059055X0.051181*%
%ADD27R,0.023622X0.07874*%
G04 #@! TA.AperFunction,ViaPad*
%ADD28C,0.047244*%
%FSLAX26Y26*%
G04*
G70*
G90*
G75*
G01*
G04 Top*
%LPD*%
X-1593917Y1506306D2*
D14*
X-1425152D1*
Y1443864D1*
X-1306387Y1506306D2*
X-1425152D1*
Y1443864D2*
Y1393899D1*
X-1412648Y1381395D1*
Y1337845D1*
X-1412853Y1337640D1*
X-1875299D2*
Y1281282D1*
X-1887698Y1268883D1*
X-1950205D1*
X-1306387Y1587667D2*
Y1506306D1*
X-1950205Y1268883D2*
Y1218732D1*
X-1931593Y1200121D1*
X-1475152Y1443864D2*
Y1393899D1*
X-1487656Y1381395D1*
Y1337640D1*
X-1550163D2*
X-1487656D1*
X-1375152Y1443864D2*
X-1356354D1*
X-1343993Y1431503D1*
X-1306387D1*
Y1350142D1*
X-1318888Y1337640D1*
X-1350142D1*
X-1718828Y1340849D2*
X-1622129D1*
X-1562664Y1281385D1*
X-1362643D1*
X-1350142Y1293886D1*
Y1337640D1*
X-850089Y1650136D2*
X-1331353D1*
X-1337640Y1656424D1*
X-1425114D1*
X-1425152Y1656462D1*
X-1375152D2*
X-1425152D1*
X-1593917Y1668823D2*
X-1556311D1*
X-1543912Y1656424D1*
X-1525190D1*
X-1525152Y1656462D1*
X-850089Y1750136D2*
X-1512706D1*
X-1525160Y1737682D1*
Y1656470D1*
X-1950205Y1631421D2*
Y1700178D1*
X-1931593D1*
X-1875299Y1562664D2*
X-1812690D1*
X-1800189Y1550163D1*
X-1662675D1*
Y1506408D1*
Y1550163D2*
X-1487656D1*
X-1475155Y1562664D1*
Y1656459D1*
X-1475152Y1656462D1*
X-1950102Y1337640D2*
Y1412648D1*
Y1562664D2*
Y1487656D1*
X-1718828Y1503366D2*
Y1443799D1*
X-1706429Y1431400D1*
X-1681427D1*
X-1594020D1*
X-1593917Y1431503D1*
X-1681427Y1593917D2*
X-1594020D1*
X-1593917Y1594020D1*
D28*
X-1950205Y1631421D3*
X-1662675Y1506408D3*
X-1950205Y1268883D3*
X-1350142Y1337640D3*
X-1550163D3*
X-1306387Y1587667D3*
X-1675176Y1750184D3*
X-1991475Y1795067D2*
D14*
X-908837D1*
X-1991475Y1783387D2*
X-1701768D1*
X-1648585D2*
X-908837D1*
X-1991475Y1771707D2*
X-1712194D1*
X-1638159D2*
X-1524625D1*
X-1991475Y1760028D2*
X-1716992D1*
X-1633361D2*
X-1538075D1*
X-1724227Y1748348D2*
X-1718129D1*
X-1632230D2*
X-1547948D1*
X-1724227Y1736668D2*
X-1715932D1*
X-1634421D2*
X-1550438D1*
X-1724227Y1724988D2*
X-1709726D1*
X-1640627D2*
X-1550438D1*
X-1499887D2*
X-908837D1*
X-1724227Y1713308D2*
X-1696070D1*
X-1654283D2*
X-1556344D1*
X-1343967D2*
X-908837D1*
X-1724227Y1701629D2*
X-1642804D1*
X-1343967D2*
X-908837D1*
X-1724227Y1689949D2*
X-1642804D1*
X-1343967D2*
X-892850D1*
X-1724227Y1678269D2*
X-1642804D1*
X-1326297D2*
X-901479D1*
X-1724227Y1666589D2*
X-1642804D1*
X-1724227Y1654909D2*
X-1642804D1*
X-1908912Y1643230D2*
X-1642804D1*
X-1907206Y1631550D2*
X-1788390D1*
X-1724066D2*
X-1713601D1*
X-1649255D2*
X-1642806D1*
X-2105501Y1619870D2*
X-2100374D1*
X-2000079D2*
X-1991576D1*
X-1908844D2*
X-1788390D1*
X-1724066D2*
X-1713601D1*
X-1649255D2*
X-1642806D1*
X-1343967D2*
X-1334241D1*
X-1278546D2*
X-900232D1*
X-799945D2*
X-794563D1*
X-2105501Y1608190D2*
X-2090816D1*
X-2009630D2*
X-1995059D1*
X-1830341D2*
X-1788390D1*
X-1724066D2*
X-1713601D1*
X-1268787D2*
X-890682D1*
X-809496D2*
X-794556D1*
X-2105501Y1596510D2*
X-2085487D1*
X-2014934D2*
X-1995059D1*
X-1830341D2*
X-1788390D1*
X-1724066D2*
X-1713601D1*
X-1545009D2*
X-1500427D1*
X-1449874D2*
X-1348429D1*
X-1264335D2*
X-885377D1*
X-814802D2*
X-794556D1*
X-2105501Y1584831D2*
X-2097332D1*
X-2003101D2*
X-1995059D1*
X-1802060D2*
X-1788390D1*
X-1724066D2*
X-1713601D1*
X-1545009D2*
X-1500427D1*
X-1449874D2*
X-1349282D1*
X-1263482D2*
X-897188D1*
X-802991D2*
X-794556D1*
X-1449874Y1573151D2*
X-1346768D1*
X-1265996D2*
X-904039D1*
X-1449898Y1561471D2*
X-1340147D1*
X-1272617D2*
X-907707D1*
X-1453612Y1549791D2*
X-1355280D1*
X-1257484D2*
X-908837D1*
X-1830341Y1538112D2*
X-1823385D1*
X-1464454D2*
X-1355280D1*
X-1257484D2*
X-907568D1*
X-1830341Y1526432D2*
X-1805529D1*
X-1257484D2*
X-903717D1*
X-2105501Y1514752D2*
X-2096778D1*
X-2003631D2*
X-1995059D1*
X-1830341D2*
X-1750996D1*
X-1257484D2*
X-896657D1*
X-803521D2*
X-794556D1*
X-2105501Y1503072D2*
X-2084542D1*
X-2015904D2*
X-1995059D1*
X-1830341D2*
X-1750996D1*
X-1257484D2*
X-884408D1*
X-815770D2*
X-794556D1*
X-2105501Y1491392D2*
X-2091531D1*
X-2008891D2*
X-1995059D1*
X-1830341D2*
X-1750996D1*
X-1257484D2*
X-891398D1*
X-808781D2*
X-794556D1*
X-2105501Y1479713D2*
X-2100789D1*
X-1999664D2*
X-1995059D1*
X-1830341D2*
X-1750996D1*
X-1257484D2*
X-900648D1*
X-799530D2*
X-794559D1*
X-1830341Y1468033D2*
X-1788390D1*
X-1257484D2*
X-905976D1*
X-1830341Y1456353D2*
X-1788390D1*
X-1257484D2*
X-908491D1*
X-1830341Y1444673D2*
X-1788390D1*
X-1257484D2*
X-908560D1*
X-1830341Y1432993D2*
X-1788390D1*
X-1257484D2*
X-906207D1*
X-2105501Y1421314D2*
X-2101203D1*
X-1999202D2*
X-1995042D1*
X-1830341D2*
X-1788390D1*
X-1257484D2*
X-901087D1*
X-799092D2*
X-794538D1*
X-2105501Y1409634D2*
X-2092293D1*
X-2008130D2*
X-1995059D1*
X-1830341D2*
X-1788390D1*
X-1724066D2*
X-1717938D1*
X-1257484D2*
X-892159D1*
X-808020D2*
X-794556D1*
X-2105501Y1397954D2*
X-2083434D1*
X-2016988D2*
X-1995059D1*
X-1830341D2*
X-1788390D1*
X-1724066D2*
X-1713601D1*
X-1649255D2*
X-1642806D1*
X-1257484D2*
X-883301D1*
X-816878D2*
X-794556D1*
X-2105501Y1386274D2*
X-2096180D1*
X-2004231D2*
X-1995059D1*
X-1830341D2*
X-1512423D1*
X-1281106D2*
X-896080D1*
X-804097D2*
X-794556D1*
X-1830341Y1374594D2*
X-1750996D1*
X-1686672D2*
X-1570900D1*
X-1281106D2*
X-903370D1*
X-1830341Y1362915D2*
X-1750996D1*
X-1611261D2*
X-1584650D1*
X-1281106D2*
X-907385D1*
X-1830341Y1351235D2*
X-1750996D1*
X-1597259D2*
X-1590891D1*
X-1281106D2*
X-908814D1*
X-1830341Y1339555D2*
X-1750996D1*
X-1283551D2*
X-907845D1*
X-1830341Y1327875D2*
X-1750996D1*
X-1293402D2*
X-904339D1*
X-2105501Y1316196D2*
X-2097885D1*
X-2002547D2*
X-1995059D1*
X-1830341D2*
X-1750996D1*
X-1686672D2*
X-1632724D1*
X-1306711D2*
X-897765D1*
X-802413D2*
X-794556D1*
X-2105501Y1304516D2*
X-2086503D1*
X-2013944D2*
X-1995059D1*
X-1830341D2*
X-1750996D1*
X-1686672D2*
X-1621051D1*
X-1323437D2*
X-886369D1*
X-813810D2*
X-794556D1*
X-2105501Y1292836D2*
X-2089986D1*
X-2010437D2*
X-1995059D1*
X-1830341D2*
X-1609379D1*
X-1324890D2*
X-889875D1*
X-810303D2*
X-794556D1*
X-2105501Y1281156D2*
X-2099867D1*
X-2000541D2*
X-1991345D1*
X-1850018D2*
X-1597682D1*
X-1328512D2*
X-899748D1*
X-800429D2*
X-794556D1*
X-1853110Y1269476D2*
X-1586010D1*
X-1339285D2*
X-905492D1*
X-1863537Y1257797D2*
X-1568755D1*
X-1356539D2*
X-908307D1*
X-1724227Y1246117D2*
X-908699D1*
X-1724227Y1234437D2*
X-906646D1*
X-1724227Y1222757D2*
X-901894D1*
X-798285D2*
X-794564D1*
X-2105501Y1211077D2*
X-2093677D1*
X-1724227D2*
X-893543D1*
X-806635D2*
X-794556D1*
X-2105501Y1199398D2*
X-2081173D1*
X-1724227D2*
X-881039D1*
X-819138D2*
X-794556D1*
X-2105501Y1187718D2*
X-2094992D1*
X-1724227D2*
X-894858D1*
X-805320D2*
X-794556D1*
X-1724227Y1176038D2*
X-902678D1*
X-1724227Y1164358D2*
X-907038D1*
X-1724227Y1152678D2*
X-908768D1*
X-1992213Y1140999D2*
X-908100D1*
X-1995373Y1129319D2*
X-904938D1*
X-2105501Y1117639D2*
X-2098899D1*
X-2001533D2*
X-898780D1*
X-801399D2*
X-794556D1*
X-2105501Y1105959D2*
X-2088302D1*
X-2012144D2*
X-888168D1*
X-812010D2*
X-794556D1*
X-2105501Y1094280D2*
X-2088325D1*
X-2012097D2*
X-888214D1*
X-811963D2*
X-794556D1*
X-2105501Y1082600D2*
X-2098945D1*
X-2001509D2*
X-898803D1*
X-801375D2*
X-794556D1*
X-1995350Y1070920D2*
X-904938D1*
X-1992189Y1059240D2*
X-908100D1*
X-1991543Y1047560D2*
X-908768D1*
X-1993274Y1035881D2*
X-907038D1*
X-1997656Y1024201D2*
X-902655D1*
X-2105501Y1012521D2*
X-2094969D1*
X-2005476D2*
X-894835D1*
X-805344D2*
X-794556D1*
X-2105501Y1000841D2*
X-2081105D1*
X-2019318D2*
X-880993D1*
X-819184D2*
X-794556D1*
X-2105501Y989161D2*
X-2093699D1*
X-2006723D2*
X-893589D1*
X-806589D2*
X-794556D1*
X-1998395Y977482D2*
X-1814018D1*
X-1676844D2*
X-1582988D1*
X-1514167D2*
X-1386146D1*
X-1317301D2*
X-1189303D1*
X-1120458D2*
X-901917D1*
X-798261D2*
X-794556D1*
X-1993643Y965802D2*
X-1814018D1*
X-1676844D2*
X-1598121D1*
X-1499033D2*
X-1401256D1*
X-1302190D2*
X-1204413D1*
X-1105348D2*
X-906646D1*
X-1991613Y954122D2*
X-1814018D1*
X-1676844D2*
X-1607188D1*
X-1489967D2*
X-1410344D1*
X-1293101D2*
X-1213501D1*
X-1096259D2*
X-908699D1*
X-1991982Y942442D2*
X-1814018D1*
X-1676844D2*
X-1612885D1*
X-1484269D2*
X-1416042D1*
X-1287404D2*
X-1219199D1*
X-1090560D2*
X-908307D1*
X-1994843Y930762D2*
X-1814018D1*
X-1676844D2*
X-1616092D1*
X-1481063D2*
X-1419249D1*
X-1284197D2*
X-1222406D1*
X-1087354D2*
X-905470D1*
X-2105501Y919083D2*
X-2099867D1*
X-2000563D2*
X-1814018D1*
X-1676844D2*
X-1617152D1*
X-1480001D2*
X-1420310D1*
X-1283136D2*
X-1223467D1*
X-1086293D2*
X-899726D1*
X-800453D2*
X-794556D1*
X-2105501Y907403D2*
X-2089963D1*
X-2010483D2*
X-1814018D1*
X-1676844D2*
X-1616184D1*
X-1480971D2*
X-1419341D1*
X-1284127D2*
X-1222475D1*
X-1087262D2*
X-889829D1*
X-810349D2*
X-794556D1*
X-2105501Y895723D2*
X-2086549D1*
X-2013896D2*
X-1814018D1*
X-1676844D2*
X-1613070D1*
X-1484085D2*
X-1416227D1*
X-1287243D2*
X-1219361D1*
X-1090377D2*
X-886415D1*
X-813764D2*
X-794556D1*
X-2105501Y884043D2*
X-2097930D1*
X-2002524D2*
X-1814018D1*
X-1676844D2*
X-1607487D1*
X-1489668D2*
X-1410621D1*
X-1292824D2*
X-1213778D1*
X-1095982D2*
X-897787D1*
X-802391D2*
X-794556D1*
X-1995950Y872364D2*
X-1814018D1*
X-1676844D2*
X-1598559D1*
X-1498594D2*
X-1401717D1*
X-1301730D2*
X-1204874D1*
X-1104886D2*
X-904362D1*
X-1992444Y860684D2*
X-1814018D1*
X-1676844D2*
X-1583819D1*
X-1513336D2*
X-1386976D1*
X-1316493D2*
X-1190110D1*
X-1119627D2*
X-907845D1*
X-1991497Y849004D2*
X-908814D1*
X-1992928Y837324D2*
X-907385D1*
X-1996942Y825644D2*
X-903370D1*
X-2105501Y813965D2*
X-2096180D1*
X-2004255D2*
X-896034D1*
X-804143D2*
X-794556D1*
X-2105501Y802285D2*
X-2083388D1*
X-2017034D2*
X-883255D1*
X-816924D2*
X-794556D1*
X-1992667Y1749864D2*
X-1863207D1*
Y1650493D1*
X-1912951Y1650403D1*
X-1910440Y1644341D1*
X-1908908Y1637962D1*
X-1908394Y1631421D1*
X-1908908Y1624881D1*
X-1910440Y1618501D1*
X-1912951Y1612440D1*
X-1914110Y1610370D1*
X-1831520Y1610381D1*
Y1586781D1*
X-1810799Y1586684D1*
X-1807066Y1586093D1*
X-1803470Y1584925D1*
X-1800101Y1583209D1*
X-1797042Y1580986D1*
X-1790220Y1574269D1*
X-1787202Y1574257D1*
X-1787214Y1632776D1*
X-1725245D1*
Y1574260D1*
X-1712413Y1574257D1*
X-1712411Y1632776D1*
X-1650442D1*
Y1618034D1*
X-1641634Y1618012D1*
Y1712602D1*
X-1555151D1*
X-1555152Y1714021D1*
X-1549269D1*
X-1549180Y1739573D1*
X-1548589Y1743307D1*
X-1547420Y1746903D1*
X-1545705Y1750272D1*
X-1543482Y1753331D1*
X-1529744Y1767175D1*
X-1526869Y1769630D1*
X-1523644Y1771605D1*
X-1520152Y1773051D1*
X-1516475Y1773934D1*
X-1512698Y1774231D1*
X-907644D1*
X-907648Y1806751D1*
X-1992669Y1806747D1*
X-1992656Y1749864D1*
X-1861003D2*
X-1725412D1*
Y1650493D1*
X-1862184D1*
Y1749864D1*
X-1861003D1*
X-1992667Y1249806D2*
X-1987458Y1249902D1*
X-1989970Y1255963D1*
X-1991501Y1262343D1*
X-1992016Y1268883D1*
X-1991501Y1275424D1*
X-1989970Y1281803D1*
X-1987458Y1287865D1*
X-1986299Y1289934D1*
X-1993882Y1289924D1*
Y1338344D1*
X-1995474Y1332350D1*
X-1997038Y1328110D1*
X-1998929Y1324005D1*
X-2001138Y1320062D1*
X-2003650Y1316304D1*
X-2006448Y1312755D1*
X-2009514Y1309436D1*
X-2012833Y1306369D1*
X-2016383Y1303571D1*
X-2021759Y1300154D1*
X-2016383Y1296702D1*
X-2012833Y1293904D1*
X-2009514Y1290837D1*
X-2006448Y1287518D1*
X-2003650Y1283969D1*
X-2001138Y1280211D1*
X-1998929Y1276268D1*
X-1997038Y1272163D1*
X-1995474Y1267923D1*
X-1994247Y1263573D1*
X-1993365Y1259140D1*
X-1992833Y1254652D1*
X-1992669Y1249802D1*
X-1872987Y1249806D2*
X-1863207D1*
Y1150436D1*
X-1992644D1*
X-1992833Y1145621D1*
X-1993365Y1141133D1*
X-1994247Y1136699D1*
X-1995474Y1132350D1*
X-1997038Y1128110D1*
X-1998929Y1124005D1*
X-2001138Y1120062D1*
X-2003650Y1116304D1*
X-2006448Y1112755D1*
X-2009514Y1109436D1*
X-2012833Y1106369D1*
X-2016383Y1103571D1*
X-2021759Y1100154D1*
X-2016383Y1096702D1*
X-2012833Y1093904D1*
X-2009514Y1090837D1*
X-2006448Y1087518D1*
X-2003650Y1083969D1*
X-2001138Y1080211D1*
X-1998929Y1076268D1*
X-1997038Y1072163D1*
X-1995474Y1067923D1*
X-1994247Y1063573D1*
X-1993365Y1059140D1*
X-1992833Y1054652D1*
X-1992656Y1050136D1*
X-1992833Y1045621D1*
X-1993365Y1041133D1*
X-1994247Y1036699D1*
X-1995474Y1032350D1*
X-1997038Y1028110D1*
X-1998929Y1024005D1*
X-2001138Y1020062D1*
X-2003650Y1016304D1*
X-2006448Y1012755D1*
X-2009514Y1009436D1*
X-2012833Y1006369D1*
X-2016383Y1003571D1*
X-2021759Y1000154D1*
X-2016383Y996702D1*
X-2012833Y993904D1*
X-2009514Y990837D1*
X-2006448Y987518D1*
X-2003650Y983969D1*
X-2001138Y980211D1*
X-1998929Y976268D1*
X-1997038Y972163D1*
X-1995474Y967923D1*
X-1994247Y963573D1*
X-1993365Y959140D1*
X-1992833Y954652D1*
X-1992656Y950136D1*
X-1992833Y945621D1*
X-1993365Y941133D1*
X-1994247Y936699D1*
X-1995474Y932350D1*
X-1997038Y928110D1*
X-1998929Y924005D1*
X-2001138Y920062D1*
X-2003650Y916304D1*
X-2006448Y912755D1*
X-2009514Y909436D1*
X-2012833Y906369D1*
X-2016383Y903571D1*
X-2021759Y900154D1*
X-2016383Y896702D1*
X-2012833Y893904D1*
X-2009514Y890837D1*
X-2006448Y887518D1*
X-2003650Y883969D1*
X-2001138Y880211D1*
X-1998929Y876268D1*
X-1997038Y872163D1*
X-1995474Y867923D1*
X-1994247Y863573D1*
X-1993365Y859140D1*
X-1992833Y854652D1*
X-1992656Y850136D1*
X-1992833Y845621D1*
X-1993365Y841133D1*
X-1994247Y836699D1*
X-1995474Y832350D1*
X-1997038Y828110D1*
X-1998929Y824005D1*
X-2001138Y820062D1*
X-2003650Y816304D1*
X-2006448Y812755D1*
X-2009514Y809436D1*
X-2012833Y806369D1*
X-2016383Y803571D1*
X-2020140Y801059D1*
X-2024084Y798850D1*
X-2028189Y796959D1*
X-2032429Y795395D1*
X-2036778Y794168D1*
X-2040398Y793448D1*
X-860055Y793450D1*
X-865774Y794756D1*
X-871364Y796654D1*
X-876730Y799113D1*
X-881815Y802110D1*
X-886567Y805612D1*
X-890936Y809583D1*
X-894874Y813979D1*
X-898341Y818756D1*
X-901302Y823864D1*
X-903723Y829247D1*
X-905581Y834849D1*
X-906856Y840613D1*
X-907531Y846478D1*
X-907605Y852379D1*
X-907072Y858259D1*
X-905941Y864052D1*
X-904222Y869699D1*
X-901933Y875140D1*
X-899100Y880319D1*
X-895751Y885180D1*
X-891923Y889672D1*
X-887652Y893749D1*
X-882988Y897366D1*
X-878600Y900135D1*
X-883921Y903571D1*
X-887471Y906369D1*
X-890790Y909436D1*
X-893857Y912755D1*
X-896655Y916304D1*
X-899167Y920062D1*
X-901375Y924005D1*
X-903266Y928110D1*
X-904831Y932350D1*
X-906058Y936699D1*
X-906940Y941133D1*
X-907471Y945621D1*
X-907648Y950136D1*
X-907471Y954652D1*
X-906940Y959140D1*
X-906058Y963573D1*
X-904831Y967923D1*
X-903266Y972163D1*
X-901375Y976268D1*
X-899167Y980211D1*
X-896655Y983969D1*
X-893857Y987518D1*
X-890790Y990837D1*
X-887471Y993904D1*
X-883921Y996702D1*
X-878546Y1000119D1*
X-883921Y1003571D1*
X-887471Y1006369D1*
X-890790Y1009436D1*
X-893857Y1012755D1*
X-896655Y1016304D1*
X-899167Y1020062D1*
X-901375Y1024005D1*
X-903266Y1028110D1*
X-904831Y1032350D1*
X-906058Y1036699D1*
X-906940Y1041133D1*
X-907471Y1045621D1*
X-907648Y1050136D1*
X-907471Y1054652D1*
X-906940Y1059140D1*
X-906058Y1063573D1*
X-904831Y1067923D1*
X-903266Y1072163D1*
X-901375Y1076268D1*
X-899167Y1080211D1*
X-896655Y1083969D1*
X-893857Y1087518D1*
X-890790Y1090837D1*
X-887471Y1093904D1*
X-883921Y1096702D1*
X-878546Y1100119D1*
X-883921Y1103571D1*
X-887471Y1106369D1*
X-890790Y1109436D1*
X-893857Y1112755D1*
X-896655Y1116304D1*
X-899167Y1120062D1*
X-901375Y1124005D1*
X-903266Y1128110D1*
X-904831Y1132350D1*
X-906058Y1136699D1*
X-906940Y1141133D1*
X-907471Y1145621D1*
X-907648Y1150136D1*
X-907471Y1154652D1*
X-906940Y1159140D1*
X-906058Y1163573D1*
X-904831Y1167923D1*
X-903266Y1172163D1*
X-901375Y1176268D1*
X-899167Y1180211D1*
X-896655Y1183969D1*
X-893857Y1187518D1*
X-890790Y1190837D1*
X-887471Y1193904D1*
X-883921Y1196702D1*
X-878546Y1200119D1*
X-883921Y1203571D1*
X-887471Y1206369D1*
X-890790Y1209436D1*
X-893857Y1212755D1*
X-896655Y1216304D1*
X-899167Y1220062D1*
X-901375Y1224005D1*
X-903266Y1228110D1*
X-904831Y1232350D1*
X-906058Y1236699D1*
X-906940Y1241133D1*
X-907471Y1245621D1*
X-907648Y1250136D1*
X-907471Y1254652D1*
X-906940Y1259140D1*
X-906058Y1263573D1*
X-904831Y1267923D1*
X-903266Y1272163D1*
X-901375Y1276268D1*
X-899167Y1280211D1*
X-896655Y1283969D1*
X-893857Y1287518D1*
X-890790Y1290837D1*
X-887471Y1293904D1*
X-883921Y1296702D1*
X-878546Y1300119D1*
X-883921Y1303571D1*
X-887471Y1306369D1*
X-890790Y1309436D1*
X-893857Y1312755D1*
X-896655Y1316304D1*
X-899167Y1320062D1*
X-901375Y1324005D1*
X-903266Y1328110D1*
X-904831Y1332350D1*
X-906058Y1336699D1*
X-906940Y1341133D1*
X-907471Y1345621D1*
X-907648Y1350136D1*
X-907471Y1354652D1*
X-906940Y1359140D1*
X-906058Y1363573D1*
X-904831Y1367923D1*
X-903266Y1372163D1*
X-901375Y1376268D1*
X-899167Y1380211D1*
X-896655Y1383969D1*
X-893857Y1387518D1*
X-890790Y1390837D1*
X-887471Y1393904D1*
X-883921Y1396702D1*
X-878546Y1400119D1*
X-883921Y1403571D1*
X-887471Y1406369D1*
X-890790Y1409436D1*
X-893857Y1412755D1*
X-896655Y1416304D1*
X-899167Y1420062D1*
X-901375Y1424005D1*
X-903266Y1428110D1*
X-904831Y1432350D1*
X-906058Y1436699D1*
X-906940Y1441133D1*
X-907471Y1445621D1*
X-907648Y1450136D1*
X-907471Y1454652D1*
X-906940Y1459140D1*
X-906058Y1463573D1*
X-904831Y1467923D1*
X-903266Y1472163D1*
X-901375Y1476268D1*
X-899167Y1480211D1*
X-896655Y1483969D1*
X-893857Y1487518D1*
X-890790Y1490837D1*
X-887471Y1493904D1*
X-883921Y1496702D1*
X-878546Y1500119D1*
X-883921Y1503571D1*
X-887471Y1506369D1*
X-890790Y1509436D1*
X-893857Y1512755D1*
X-896655Y1516304D1*
X-899167Y1520062D1*
X-901375Y1524005D1*
X-903266Y1528110D1*
X-904831Y1532350D1*
X-906058Y1536699D1*
X-906940Y1541133D1*
X-907471Y1545621D1*
X-907648Y1550136D1*
X-907471Y1554652D1*
X-906940Y1559140D1*
X-906058Y1563573D1*
X-904831Y1567923D1*
X-903266Y1572163D1*
X-901375Y1576268D1*
X-899167Y1580211D1*
X-896655Y1583969D1*
X-893857Y1587518D1*
X-890790Y1590837D1*
X-887471Y1593904D1*
X-883921Y1596702D1*
X-878546Y1600119D1*
X-883921Y1603571D1*
X-887471Y1606369D1*
X-890790Y1609436D1*
X-893857Y1612755D1*
X-896655Y1616304D1*
X-899167Y1620062D1*
X-902314Y1626042D1*
X-1289797D1*
X-1284541Y1623316D1*
X-1279234Y1619461D1*
X-1274593Y1614820D1*
X-1270738Y1609513D1*
X-1267759Y1603667D1*
X-1265731Y1597428D1*
X-1264705Y1590948D1*
Y1584386D1*
X-1265731Y1577906D1*
X-1267759Y1571667D1*
X-1270738Y1565820D1*
X-1274593Y1560513D1*
X-1279234Y1555873D1*
X-1282291Y1553520D1*
X-1282293Y1550088D1*
X-1258671Y1550085D1*
Y1387723D1*
X-1282315D1*
X-1282366Y1348251D1*
X-1282958Y1344517D1*
X-1284126Y1340921D1*
X-1285843Y1337552D1*
X-1288066Y1334493D1*
X-1301850Y1320602D1*
X-1304726Y1318147D1*
X-1307950Y1316172D1*
X-1311442Y1314724D1*
X-1315126Y1313841D1*
X-1316316Y1313064D1*
X-1320577Y1308076D1*
X-1325566Y1303815D1*
X-1326046Y1303493D1*
X-1326122Y1291995D1*
X-1326713Y1288261D1*
X-1327882Y1284665D1*
X-1329598Y1281297D1*
X-1331820Y1278238D1*
X-1345606Y1264348D1*
X-1348480Y1261891D1*
X-1351705Y1259916D1*
X-1355197Y1258470D1*
X-1358874Y1257587D1*
X-1362651Y1257290D1*
X-1564555Y1257364D1*
X-1568289Y1257955D1*
X-1571885Y1259123D1*
X-1575253Y1260840D1*
X-1578312Y1263063D1*
X-1600580Y1285226D1*
X-1632112Y1316757D1*
X-1687850Y1316755D1*
X-1687844Y1301991D1*
X-1749812D1*
Y1379707D1*
X-1687844D1*
Y1364966D1*
X-1620238Y1364870D1*
X-1616504Y1364278D1*
X-1612908Y1363110D1*
X-1609539Y1361394D1*
X-1606480Y1359171D1*
X-1591438Y1344234D1*
X-1589928Y1350560D1*
X-1587416Y1356622D1*
X-1583988Y1362217D1*
X-1579727Y1367205D1*
X-1574739Y1371466D1*
X-1569144Y1374894D1*
X-1563083Y1377406D1*
X-1556703Y1378937D1*
X-1550163Y1379451D1*
X-1543622Y1378937D1*
X-1537243Y1377406D1*
X-1531425Y1375007D1*
X-1531436Y1385357D1*
X-1511436D1*
X-1511688Y1386304D1*
X-1555152D1*
Y1387720D1*
X-1641634Y1387723D1*
Y1407308D1*
X-1650423Y1407306D1*
X-1650442Y1392542D1*
X-1712411D1*
Y1408067D1*
X-1715650Y1409140D1*
X-1719018Y1410856D1*
X-1722077Y1413079D1*
X-1723471Y1414369D1*
X-1725245Y1414747D1*
Y1392542D1*
X-1787214D1*
Y1470259D1*
X-1749811D1*
X-1749812Y1526077D1*
X-1802080Y1526142D1*
X-1805814Y1526734D1*
X-1809409Y1527902D1*
X-1812778Y1529618D1*
X-1815837Y1531841D1*
X-1822659Y1538558D1*
X-1831537Y1538570D1*
X-1831520Y1289924D1*
X-1851197D1*
X-1851280Y1279391D1*
X-1851870Y1275657D1*
X-1853039Y1272062D1*
X-1854756Y1268693D1*
X-1856978Y1265634D1*
X-1870660Y1251845D1*
X-1872056Y1250556D1*
X-1861003Y1249806D2*
X-1725412D1*
Y1150436D1*
X-1862184D1*
Y1249806D1*
X-1861003D1*
X-1993882Y1461970D2*
X-1993858Y1535373D1*
X-1994247Y1536699D1*
X-1995474Y1532350D1*
X-1997038Y1528110D1*
X-1998929Y1524005D1*
X-2001138Y1520062D1*
X-2003650Y1516304D1*
X-2006448Y1512755D1*
X-2009514Y1509436D1*
X-2012833Y1506369D1*
X-2016383Y1503571D1*
X-2021759Y1500154D1*
X-2016383Y1496702D1*
X-2012833Y1493904D1*
X-2009514Y1490837D1*
X-2006448Y1487518D1*
X-2003650Y1483969D1*
X-2001138Y1480211D1*
X-1998929Y1476268D1*
X-1997038Y1472163D1*
X-1995474Y1467923D1*
X-1993885Y1461756D1*
X-1993882Y1385348D2*
Y1438312D1*
X-1995474Y1432350D1*
X-1997038Y1428110D1*
X-1998929Y1424005D1*
X-2001138Y1420062D1*
X-2003650Y1416304D1*
X-2006448Y1412755D1*
X-2009514Y1409436D1*
X-2012833Y1406369D1*
X-2016383Y1403571D1*
X-2021759Y1400154D1*
X-2016383Y1396702D1*
X-2012833Y1393904D1*
X-2009514Y1390837D1*
X-2006448Y1387518D1*
X-2003650Y1383969D1*
X-2001138Y1380211D1*
X-1998929Y1376268D1*
X-1997038Y1372163D1*
X-1995474Y1367923D1*
X-1993885Y1361756D1*
X-1993858Y1385357D1*
X-1806924Y986248D2*
X-1678026D1*
Y851445D1*
X-1812829D1*
Y986248D1*
X-1806924D1*
X-1481383Y913558D2*
X-1482005Y908303D1*
X-1483038Y903112D1*
X-1484475Y898018D1*
X-1486307Y893052D1*
X-1488522Y888247D1*
X-1491108Y883629D1*
X-1494049Y879228D1*
X-1497325Y875072D1*
X-1500917Y871186D1*
X-1504803Y867594D1*
X-1508959Y864318D1*
X-1513360Y861377D1*
X-1517978Y858791D1*
X-1522783Y856576D1*
X-1527749Y854744D1*
X-1532843Y853307D1*
X-1538034Y852274D1*
X-1543289Y851652D1*
X-1548577Y851445D1*
X-1553866Y851652D1*
X-1559121Y852274D1*
X-1564312Y853307D1*
X-1569406Y854744D1*
X-1574371Y856576D1*
X-1579177Y858791D1*
X-1583795Y861377D1*
X-1588196Y864318D1*
X-1592352Y867594D1*
X-1596238Y871186D1*
X-1599829Y875072D1*
X-1603106Y879228D1*
X-1606047Y883629D1*
X-1608633Y888247D1*
X-1610848Y893052D1*
X-1612680Y898018D1*
X-1614117Y903112D1*
X-1615150Y908303D1*
X-1615772Y913558D1*
X-1615979Y918846D1*
X-1615772Y924135D1*
X-1615150Y929390D1*
X-1614117Y934581D1*
X-1612680Y939675D1*
X-1610848Y944640D1*
X-1608633Y949446D1*
X-1606047Y954064D1*
X-1603106Y958465D1*
X-1599829Y962621D1*
X-1596238Y966507D1*
X-1592352Y970098D1*
X-1588196Y973375D1*
X-1583795Y976316D1*
X-1579177Y978902D1*
X-1574371Y981117D1*
X-1569406Y982949D1*
X-1564312Y984386D1*
X-1559121Y985419D1*
X-1553866Y986041D1*
X-1548577Y986248D1*
X-1543289Y986041D1*
X-1538034Y985419D1*
X-1532843Y984386D1*
X-1527749Y982949D1*
X-1522783Y981117D1*
X-1517978Y978902D1*
X-1513360Y976316D1*
X-1508959Y973375D1*
X-1504803Y970098D1*
X-1500917Y966507D1*
X-1497325Y962621D1*
X-1494049Y958465D1*
X-1491108Y954064D1*
X-1488522Y949446D1*
X-1486307Y944640D1*
X-1484475Y939675D1*
X-1483038Y934581D1*
X-1482005Y929390D1*
X-1481383Y924135D1*
X-1481176Y918846D1*
X-1481383Y913558D1*
X-1284533D2*
X-1285155Y908303D1*
X-1286188Y903112D1*
X-1287625Y898018D1*
X-1289457Y893052D1*
X-1291672Y888247D1*
X-1294257Y883629D1*
X-1297198Y879228D1*
X-1300475Y875072D1*
X-1304067Y871186D1*
X-1307953Y867594D1*
X-1312109Y864318D1*
X-1316509Y861377D1*
X-1321127Y858791D1*
X-1325933Y856576D1*
X-1330899Y854744D1*
X-1335992Y853307D1*
X-1341184Y852274D1*
X-1346438Y851652D1*
X-1351727Y851445D1*
X-1357016Y851652D1*
X-1362270Y852274D1*
X-1367462Y853307D1*
X-1372555Y854744D1*
X-1377521Y856576D1*
X-1382327Y858791D1*
X-1386945Y861377D1*
X-1391345Y864318D1*
X-1395501Y867594D1*
X-1399387Y871186D1*
X-1402979Y875072D1*
X-1406256Y879228D1*
X-1409197Y883629D1*
X-1411782Y888247D1*
X-1413997Y893052D1*
X-1415829Y898018D1*
X-1417266Y903112D1*
X-1418299Y908303D1*
X-1418921Y913558D1*
X-1419129Y918846D1*
X-1418921Y924135D1*
X-1418299Y929390D1*
X-1417266Y934581D1*
X-1415829Y939675D1*
X-1413997Y944640D1*
X-1411782Y949446D1*
X-1409197Y954064D1*
X-1406256Y958465D1*
X-1402979Y962621D1*
X-1399387Y966507D1*
X-1395501Y970098D1*
X-1391345Y973375D1*
X-1386945Y976316D1*
X-1382327Y978902D1*
X-1377521Y981117D1*
X-1372555Y982949D1*
X-1367462Y984386D1*
X-1362270Y985419D1*
X-1357016Y986041D1*
X-1351727Y986248D1*
X-1346438Y986041D1*
X-1341184Y985419D1*
X-1335992Y984386D1*
X-1330899Y982949D1*
X-1325933Y981117D1*
X-1321127Y978902D1*
X-1316509Y976316D1*
X-1312109Y973375D1*
X-1307953Y970098D1*
X-1304067Y966507D1*
X-1300475Y962621D1*
X-1297198Y958465D1*
X-1294257Y954064D1*
X-1291672Y949446D1*
X-1289457Y944640D1*
X-1287625Y939675D1*
X-1286188Y934581D1*
X-1285155Y929390D1*
X-1284533Y924135D1*
X-1284325Y918846D1*
X-1284533Y913558D1*
X-1087486Y917665D2*
X-1087848Y911773D1*
X-1088723Y905934D1*
X-1090108Y900196D1*
X-1091987Y894600D1*
X-1094350Y889189D1*
X-1097177Y884007D1*
X-1100448Y879092D1*
X-1104135Y874482D1*
X-1108213Y870211D1*
X-1112647Y866315D1*
X-1117406Y862820D1*
X-1122451Y859757D1*
X-1127747Y857146D1*
X-1133251Y855009D1*
X-1138919Y853361D1*
X-1144711Y852217D1*
X-1150580Y851581D1*
X-1156483Y851465D1*
X-1162373Y851864D1*
X-1168206Y852776D1*
X-1173936Y854196D1*
X-1179520Y856112D1*
X-1184915Y858508D1*
X-1190080Y861369D1*
X-1194974Y864669D1*
X-1199562Y868386D1*
X-1203806Y872490D1*
X-1207675Y876949D1*
X-1211138Y881730D1*
X-1214169Y886795D1*
X-1216747Y892106D1*
X-1218849Y897623D1*
X-1220462Y903302D1*
X-1221570Y909101D1*
X-1222167Y914974D1*
X-1222248Y920878D1*
X-1221811Y926765D1*
X-1220862Y932592D1*
X-1219406Y938312D1*
X-1217455Y943885D1*
X-1215024Y949265D1*
X-1212131Y954411D1*
X-1208799Y959285D1*
X-1205054Y963848D1*
X-1200924Y968067D1*
X-1196441Y971907D1*
X-1191638Y975340D1*
X-1186554Y978341D1*
X-1181226Y980885D1*
X-1175697Y982951D1*
X-1170007Y984528D1*
X-1164201Y985600D1*
X-1158324Y986160D1*
X-1152421Y986203D1*
X-1146537Y985730D1*
X-1140715Y984744D1*
X-1135004Y983252D1*
X-1129444Y981265D1*
X-1124080Y978801D1*
X-1118951Y975875D1*
X-1114098Y972513D1*
X-1109559Y968739D1*
X-1105367Y964583D1*
X-1101555Y960075D1*
X-1098152Y955251D1*
X-1095184Y950147D1*
X-1092675Y944804D1*
X-1090642Y939261D1*
X-1089101Y933562D1*
X-1088066Y927751D1*
X-1087543Y921870D1*
X-1087486Y917665D1*
X-1992833Y1645621D2*
X-1993365Y1641133D1*
X-1994247Y1636699D1*
X-1995474Y1632350D1*
X-1997038Y1628110D1*
X-1998929Y1624005D1*
X-2001138Y1620062D1*
X-2003650Y1616304D1*
X-2006448Y1612755D1*
X-2009514Y1609436D1*
X-2012833Y1606369D1*
X-2016383Y1603571D1*
X-2021759Y1600154D1*
X-2016383Y1596702D1*
X-2012833Y1593904D1*
X-2009514Y1590837D1*
X-2006448Y1587518D1*
X-2003650Y1583969D1*
X-2001138Y1580211D1*
X-1998929Y1576268D1*
X-1997038Y1572163D1*
X-1995474Y1567923D1*
X-1993885Y1561756D1*
X-1993882Y1610381D1*
X-1986339D1*
X-1988833Y1615421D1*
X-1990861Y1621660D1*
X-1991887Y1628140D1*
Y1634702D1*
X-1990861Y1641182D1*
X-1988833Y1647421D1*
X-1987402Y1650504D1*
X-1992656Y1650136D1*
X-1992833Y1645621D1*
X-2078672Y1600154D2*
X-2084047Y1603571D1*
X-2087597Y1606369D1*
X-2090916Y1609436D1*
X-2093983Y1612755D1*
X-2096781Y1616304D1*
X-2099293Y1620062D1*
X-2101501Y1624005D1*
X-2103392Y1628110D1*
X-2104957Y1632350D1*
X-2106697Y1639280D1*
X-2106694Y1561230D1*
X-2104957Y1567923D1*
X-2103392Y1572163D1*
X-2101501Y1576268D1*
X-2099293Y1580211D1*
X-2096781Y1583969D1*
X-2093983Y1587518D1*
X-2090916Y1590837D1*
X-2087597Y1593904D1*
X-2084047Y1596702D1*
X-2078672Y1600119D1*
Y1500154D2*
X-2084047Y1503571D1*
X-2087597Y1506369D1*
X-2090916Y1509436D1*
X-2093983Y1512755D1*
X-2096781Y1516304D1*
X-2099293Y1520062D1*
X-2101501Y1524005D1*
X-2103392Y1528110D1*
X-2104957Y1532350D1*
X-2106697Y1539280D1*
X-2106694Y1461251D1*
X-2104957Y1467923D1*
X-2103392Y1472163D1*
X-2101501Y1476268D1*
X-2099293Y1480211D1*
X-2096781Y1483969D1*
X-2093983Y1487518D1*
X-2090916Y1490837D1*
X-2087597Y1493904D1*
X-2084047Y1496702D1*
X-2078672Y1500119D1*
Y1400154D2*
X-2084047Y1403571D1*
X-2087597Y1406369D1*
X-2090916Y1409436D1*
X-2093983Y1412755D1*
X-2096781Y1416304D1*
X-2099293Y1420062D1*
X-2101501Y1424005D1*
X-2103392Y1428110D1*
X-2104957Y1432350D1*
X-2106697Y1439280D1*
X-2106694Y1361227D1*
X-2104957Y1367923D1*
X-2103392Y1372163D1*
X-2101501Y1376268D1*
X-2099293Y1380211D1*
X-2096781Y1383969D1*
X-2093983Y1387518D1*
X-2090916Y1390837D1*
X-2087597Y1393904D1*
X-2084047Y1396702D1*
X-2078672Y1400119D1*
Y1300154D2*
X-2084047Y1303571D1*
X-2087597Y1306369D1*
X-2090916Y1309436D1*
X-2093983Y1312755D1*
X-2096781Y1316304D1*
X-2099293Y1320062D1*
X-2101501Y1324005D1*
X-2103392Y1328110D1*
X-2104957Y1332350D1*
X-2106697Y1339280D1*
X-2106694Y1261248D1*
X-2104957Y1267923D1*
X-2103392Y1272163D1*
X-2101501Y1276268D1*
X-2099293Y1280211D1*
X-2096781Y1283969D1*
X-2093983Y1287518D1*
X-2090916Y1290837D1*
X-2087597Y1293904D1*
X-2084047Y1296702D1*
X-2078672Y1300119D1*
Y1200154D2*
X-2084047Y1203571D1*
X-2087597Y1206369D1*
X-2090916Y1209436D1*
X-2093983Y1212755D1*
X-2096781Y1216304D1*
X-2099293Y1220062D1*
X-2101501Y1224005D1*
X-2103392Y1228110D1*
X-2104957Y1232350D1*
X-2106697Y1239280D1*
X-2106694Y1161223D1*
X-2104957Y1167923D1*
X-2103392Y1172163D1*
X-2101501Y1176268D1*
X-2099293Y1180211D1*
X-2096781Y1183969D1*
X-2093983Y1187518D1*
X-2090916Y1190837D1*
X-2087597Y1193904D1*
X-2084047Y1196702D1*
X-2078672Y1200119D1*
Y1100154D2*
X-2084047Y1103571D1*
X-2087597Y1106369D1*
X-2090916Y1109436D1*
X-2093983Y1112755D1*
X-2096781Y1116304D1*
X-2099293Y1120062D1*
X-2101501Y1124005D1*
X-2103392Y1128110D1*
X-2104957Y1132350D1*
X-2106697Y1139280D1*
X-2106694Y1061245D1*
X-2104957Y1067923D1*
X-2103392Y1072163D1*
X-2101501Y1076268D1*
X-2099293Y1080211D1*
X-2096781Y1083969D1*
X-2093983Y1087518D1*
X-2090916Y1090837D1*
X-2087597Y1093904D1*
X-2084047Y1096702D1*
X-2078672Y1100119D1*
Y1000154D2*
X-2084047Y1003571D1*
X-2087597Y1006369D1*
X-2090916Y1009436D1*
X-2093983Y1012755D1*
X-2096781Y1016304D1*
X-2099293Y1020062D1*
X-2101501Y1024005D1*
X-2103392Y1028110D1*
X-2104957Y1032350D1*
X-2106697Y1039280D1*
X-2106694Y961220D1*
X-2104957Y967923D1*
X-2103392Y972163D1*
X-2101501Y976268D1*
X-2099293Y980211D1*
X-2096781Y983969D1*
X-2093983Y987518D1*
X-2090916Y990837D1*
X-2087597Y993904D1*
X-2084047Y996702D1*
X-2078672Y1000119D1*
Y900154D2*
X-2084047Y903571D1*
X-2087597Y906369D1*
X-2090916Y909436D1*
X-2093983Y912755D1*
X-2096781Y916304D1*
X-2099293Y920062D1*
X-2101501Y924005D1*
X-2103392Y928110D1*
X-2104957Y932350D1*
X-2106697Y939280D1*
X-2106694Y861241D1*
X-2104957Y867923D1*
X-2103392Y872163D1*
X-2101501Y876268D1*
X-2099293Y880211D1*
X-2096781Y883969D1*
X-2093983Y887518D1*
X-2090916Y890837D1*
X-2087597Y893904D1*
X-2084047Y896702D1*
X-2078672Y900119D1*
X-2060033Y793448D2*
X-2063652Y794168D1*
X-2068001Y795395D1*
X-2072241Y796959D1*
X-2076346Y798850D1*
X-2080290Y801059D1*
X-2084047Y803571D1*
X-2087597Y806369D1*
X-2090916Y809436D1*
X-2093983Y812755D1*
X-2096781Y816304D1*
X-2099293Y820062D1*
X-2101501Y824005D1*
X-2103392Y828110D1*
X-2104957Y832350D1*
X-2106697Y839280D1*
X-2106694Y793467D1*
X-2060211Y793450D1*
X-888979Y1692577D2*
X-907648D1*
Y1726050D1*
X-1501056Y1726042D1*
X-1501066Y1714037D1*
X-1345152Y1714021D1*
Y1680503D1*
X-1335749Y1680444D1*
X-1332016Y1679853D1*
X-1328420Y1678684D1*
X-1325051Y1676967D1*
X-1321987Y1674740D1*
X-1319542Y1674231D1*
X-902350D1*
X-899167Y1680211D1*
X-896655Y1683969D1*
X-893857Y1687518D1*
X-888909Y1692575D1*
X-793366Y1640492D2*
X-794121Y1636699D1*
X-795348Y1632350D1*
X-796912Y1628110D1*
X-798803Y1624005D1*
X-801012Y1620062D1*
X-803524Y1616304D1*
X-806322Y1612755D1*
X-809388Y1609436D1*
X-812707Y1606369D1*
X-816257Y1603571D1*
X-821633Y1600154D1*
X-816257Y1596702D1*
X-812707Y1593904D1*
X-809388Y1590837D1*
X-806322Y1587518D1*
X-803524Y1583969D1*
X-801012Y1580211D1*
X-798803Y1576268D1*
X-796912Y1572163D1*
X-795348Y1567923D1*
X-794121Y1563573D1*
X-793366Y1559781D1*
Y1640361D1*
Y1540492D2*
X-794121Y1536699D1*
X-795348Y1532350D1*
X-796912Y1528110D1*
X-798803Y1524005D1*
X-801012Y1520062D1*
X-803524Y1516304D1*
X-806322Y1512755D1*
X-809388Y1509436D1*
X-812707Y1506369D1*
X-816257Y1503571D1*
X-821633Y1500154D1*
X-816257Y1496702D1*
X-812707Y1493904D1*
X-809388Y1490837D1*
X-806322Y1487518D1*
X-803524Y1483969D1*
X-801012Y1480211D1*
X-798803Y1476268D1*
X-796912Y1472163D1*
X-795348Y1467923D1*
X-794121Y1463573D1*
X-793366Y1459781D1*
Y1540382D1*
Y1440492D2*
X-794121Y1436699D1*
X-795348Y1432350D1*
X-796912Y1428110D1*
X-798803Y1424005D1*
X-801012Y1420062D1*
X-803524Y1416304D1*
X-806322Y1412755D1*
X-809388Y1409436D1*
X-812707Y1406369D1*
X-816257Y1403571D1*
X-821633Y1400154D1*
X-816257Y1396702D1*
X-812707Y1393904D1*
X-809388Y1390837D1*
X-806322Y1387518D1*
X-803524Y1383969D1*
X-801012Y1380211D1*
X-798803Y1376268D1*
X-796912Y1372163D1*
X-795348Y1367923D1*
X-794121Y1363573D1*
X-793366Y1360379D1*
Y1440357D1*
Y1340492D2*
X-794121Y1336699D1*
X-795348Y1332350D1*
X-796912Y1328110D1*
X-798803Y1324005D1*
X-801012Y1320062D1*
X-803524Y1316304D1*
X-806322Y1312755D1*
X-809388Y1309436D1*
X-812707Y1306369D1*
X-816257Y1303571D1*
X-821633Y1300154D1*
X-816257Y1296702D1*
X-812707Y1293904D1*
X-809388Y1290837D1*
X-806322Y1287518D1*
X-803524Y1283969D1*
X-801012Y1280211D1*
X-798803Y1276268D1*
X-796912Y1272163D1*
X-795348Y1267923D1*
X-794121Y1263573D1*
X-793366Y1259986D1*
Y1340379D1*
Y1240492D2*
X-794121Y1236699D1*
X-795348Y1232350D1*
X-796912Y1228110D1*
X-798803Y1224005D1*
X-801012Y1220062D1*
X-803524Y1216304D1*
X-806322Y1212755D1*
X-809388Y1209436D1*
X-812707Y1206369D1*
X-816257Y1203571D1*
X-821633Y1200154D1*
X-816257Y1196702D1*
X-812707Y1193904D1*
X-809388Y1190837D1*
X-806322Y1187518D1*
X-803524Y1183969D1*
X-801012Y1180211D1*
X-798803Y1176268D1*
X-796912Y1172163D1*
X-795348Y1167923D1*
X-794121Y1163573D1*
X-793366Y1159781D1*
Y1240354D1*
Y1140492D2*
X-794121Y1136699D1*
X-795348Y1132350D1*
X-796912Y1128110D1*
X-798803Y1124005D1*
X-801012Y1120062D1*
X-803524Y1116304D1*
X-806322Y1112755D1*
X-809388Y1109436D1*
X-812707Y1106369D1*
X-816257Y1103571D1*
X-821633Y1100154D1*
X-816257Y1096702D1*
X-812707Y1093904D1*
X-809388Y1090837D1*
X-806322Y1087518D1*
X-803524Y1083969D1*
X-801012Y1080211D1*
X-798803Y1076268D1*
X-796912Y1072163D1*
X-795348Y1067923D1*
X-794121Y1063573D1*
X-793366Y1059781D1*
Y1140375D1*
Y1040492D2*
X-794121Y1036699D1*
X-795348Y1032350D1*
X-796912Y1028110D1*
X-798803Y1024005D1*
X-801012Y1020062D1*
X-803524Y1016304D1*
X-806322Y1012755D1*
X-809388Y1009436D1*
X-812707Y1006369D1*
X-816257Y1003571D1*
X-821633Y1000154D1*
X-816257Y996702D1*
X-812707Y993904D1*
X-809388Y990837D1*
X-806322Y987518D1*
X-803524Y983969D1*
X-801012Y980211D1*
X-798803Y976268D1*
X-796912Y972163D1*
X-795348Y967923D1*
X-794121Y963573D1*
X-793366Y959781D1*
Y1040352D1*
Y940492D2*
X-794121Y936699D1*
X-795348Y932350D1*
X-796912Y928110D1*
X-798803Y924005D1*
X-801012Y920062D1*
X-803524Y916304D1*
X-806322Y912755D1*
X-809388Y909436D1*
X-812707Y906369D1*
X-816257Y903571D1*
X-821633Y900154D1*
X-817482Y897568D1*
X-812795Y893980D1*
X-808501Y889929D1*
X-804644Y885461D1*
X-801265Y880621D1*
X-798400Y875461D1*
X-796079Y870033D1*
X-794324Y864396D1*
X-793367Y859908D1*
X-793366Y940373D1*
Y840381D2*
X-794566Y834963D1*
X-796412Y829357D1*
X-798823Y823969D1*
X-801772Y818856D1*
X-805230Y814071D1*
X-809160Y809667D1*
X-813520Y805688D1*
X-818265Y802176D1*
X-823344Y799168D1*
X-828705Y796697D1*
X-834290Y794789D1*
X-840110Y793450D1*
X-793387D1*
X-793366Y840348D1*
X-1348198Y1550085D2*
X-1330504D1*
X-1330963Y1553841D1*
X-1335951Y1558102D1*
X-1340213Y1563091D1*
X-1343640Y1568685D1*
X-1346152Y1574747D1*
X-1347684Y1581126D1*
X-1348198Y1587667D1*
X-1347684Y1594207D1*
X-1346629Y1598896D1*
X-1451080Y1598903D1*
X-1451135Y1560773D1*
X-1451726Y1557039D1*
X-1452895Y1553444D1*
X-1454612Y1550075D1*
X-1456833Y1547016D1*
X-1470618Y1533125D1*
X-1473500Y1530665D1*
X-1469902Y1530400D1*
X-1354125D1*
X-1354104Y1550085D1*
X-1348198D1*
X-1546201Y1598883D2*
Y1574245D1*
X-1499235Y1574257D1*
X-1499249Y1598904D1*
X-1546202Y1598903D1*
X-1345154Y1603294D2*
X-1343640Y1606648D1*
X-1340213Y1612243D1*
X-1335951Y1617231D1*
X-1330963Y1621492D1*
X-1325369Y1624920D1*
X-1322934Y1626043D1*
X-1333244Y1626117D1*
X-1336978Y1626707D1*
X-1340573Y1627877D1*
X-1343949Y1629597D1*
X-1345152Y1625438D1*
Y1603315D1*
X-1633382Y1749003D2*
X-1633781Y1744298D1*
X-1634709Y1739668D1*
X-1636152Y1735172D1*
X-1638094Y1730867D1*
X-1640508Y1726810D1*
X-1643365Y1723050D1*
X-1646627Y1719636D1*
X-1650253Y1716612D1*
X-1654198Y1714016D1*
X-1658409Y1711882D1*
X-1662836Y1710235D1*
X-1667419Y1709098D1*
X-1672101Y1708486D1*
X-1676822Y1708406D1*
X-1681522Y1708857D1*
X-1686142Y1709836D1*
X-1690621Y1711329D1*
X-1694903Y1713319D1*
X-1698934Y1715778D1*
X-1702661Y1718677D1*
X-1706039Y1721976D1*
X-1709022Y1725636D1*
X-1711575Y1729609D1*
X-1713663Y1733845D1*
X-1715259Y1738289D1*
X-1716345Y1742885D1*
X-1716906Y1747572D1*
X-1716933Y1752294D1*
X-1716429Y1756990D1*
X-1715399Y1761597D1*
X-1713856Y1766060D1*
X-1711819Y1770320D1*
X-1709315Y1774323D1*
X-1706375Y1778018D1*
X-1703038Y1781358D1*
X-1699345Y1784302D1*
X-1695344Y1786808D1*
X-1691085Y1788849D1*
X-1686625Y1790396D1*
X-1682017Y1791432D1*
X-1677323Y1791940D1*
X-1672601Y1791916D1*
X-1667912Y1791360D1*
X-1663316Y1790277D1*
X-1658870Y1788684D1*
X-1654634Y1786600D1*
X-1650659Y1784052D1*
X-1646996Y1781071D1*
X-1643693Y1777697D1*
X-1640791Y1773972D1*
X-1638328Y1769944D1*
X-1636336Y1765663D1*
X-1634837Y1761184D1*
X-1633854Y1756566D1*
X-1633399Y1751866D1*
X-1633382Y1749003D1*
X-1793798Y1749840D2*
Y1650517D1*
X-1862160Y1700178D2*
X-1725436D1*
X-1793798Y1249782D2*
Y1150459D1*
X-1862160Y1200121D2*
X-1725436D1*
X-1875299Y1487656D2*
X-1831543D1*
X-1875299Y1412648D2*
X-1831542D1*
X-1154877Y986224D2*
Y851469D1*
X-1222255Y918846D2*
X-1087499D1*
X-907625Y850136D2*
X-850089D1*
X-1756230Y1632752D2*
Y1593917D1*
X-1787190D2*
X-1725268D1*
X-1756230Y1470235D2*
Y1392564D1*
X-1787190Y1431400D2*
X-1756230D1*
X-1675176Y1791971D2*
Y1708396D1*
X-1716963Y1750184D2*
X-1633388D1*
X-1525152Y1443864D2*
Y1386327D1*
D16*
X-1931593Y1700178D3*
X-1793798D3*
X-1931593Y1200121D3*
X-1793798D3*
D17*
X-1875299Y1487656D3*
X-1950102D3*
X-1875299Y1412648D3*
X-1950102D3*
D20*
X-1745428Y918846D3*
D21*
X-1548577D3*
X-1351727D3*
X-1154877D3*
D22*
X-2050215Y1750136D3*
D23*
Y1650136D3*
Y1550136D3*
Y1450136D3*
Y1350136D3*
Y1250136D3*
Y1150136D3*
Y1050136D3*
Y950136D3*
Y850136D3*
D22*
X-850089Y1750136D3*
D23*
Y1650136D3*
Y1550136D3*
Y1450136D3*
Y1350136D3*
Y1250136D3*
Y1150136D3*
Y1050136D3*
Y950136D3*
Y850136D3*
D25*
X-1681427Y1593917D3*
X-1756230D3*
X-1718828Y1503366D3*
X-1681427Y1431400D3*
X-1756230D3*
X-1718828Y1340849D3*
D26*
X-1306387Y1431503D3*
Y1506306D3*
D17*
X-1487656Y1337640D3*
X-1412853D3*
D26*
X-1593917Y1431503D3*
Y1506306D3*
Y1668823D3*
Y1594020D3*
D17*
X-1950102Y1337640D3*
X-1875299D3*
Y1562664D3*
X-1950102D3*
D27*
X-1375152Y1656462D3*
X-1425152D3*
X-1475152D3*
X-1525152D3*
Y1443864D3*
X-1475152D3*
X-1425152D3*
X-1375152D3*
M02*
