G04 DipTrace 3.1.0.1*
G04 Нижний.gbr*
%MOIN*%
G04 #@! TF.FileFunction,Copper,L2,Bot*
G04 #@! TF.Part,Single*
G04 #@! TA.AperFunction,CopperBalancing*
%ADD14C,0.011811*%
%ADD18R,0.059055X0.051181*%
G04 #@! TA.AperFunction,ComponentPad*
%ADD19R,0.098425X0.098425*%
%ADD20C,0.098425*%
%ADD21R,0.07874X0.066929*%
%ADD22O,0.07874X0.066929*%
%ADD23C,0.07874*%
%ADD24R,0.07874X0.07874*%
G04 #@! TA.AperFunction,ViaPad*
%ADD27C,0.047244*%
%FSLAX26Y26*%
G04*
G70*
G90*
G75*
G01*
G04 Bottom*
%LPD*%
X181252Y-862500D2*
D14*
Y-962500D1*
X564075Y-893755D2*
Y-948584D1*
X550159Y-962500D1*
X181252D1*
X662570Y-287541D2*
X481290D1*
X468799Y-300031D1*
Y-650068D1*
X456298Y-662570D1*
X162430D1*
X62500Y-762500D1*
X981353Y-387541D2*
X1175123D1*
X1187625Y-375039D1*
Y-175018D1*
X1200143Y-162500D1*
X1262500D1*
X981353Y-218773D2*
X1150121D1*
X1162622Y-206272D1*
Y-162517D1*
X1187625Y-137514D1*
Y-75008D1*
X1200133Y-62500D1*
X1262500D1*
X62500Y-162500D2*
Y-62500D1*
X393791Y-162517D2*
X843839D1*
X856340Y-175018D1*
Y-575060D1*
X843839Y-587562D1*
X662570D1*
X62500Y-62500D2*
X162510D1*
X162517Y-62507D1*
X206272D1*
X218773Y-75008D1*
Y-125115D1*
X356390D1*
X393791Y-162517D1*
X1143748Y-962500D2*
Y-862500D1*
X760925Y-893755D2*
Y-948445D1*
X775081Y-962601D1*
X1143647D1*
X1143748Y-962500D1*
D27*
X181269Y-587562D3*
X393791Y-162517D3*
X662570Y-587562D3*
X981353Y-387541D3*
Y-218773D3*
X162517Y-62507D3*
X662570Y-762580D3*
X1143870Y-587562D3*
X121240Y-17585D2*
D14*
X1203762D1*
X121240Y-29265D2*
X135972D1*
X189062D2*
X1203762D1*
X218197Y-40945D2*
X1188192D1*
X231646Y-52625D2*
X1174743D1*
X241542Y-64304D2*
X1164846D1*
X244056Y-75984D2*
X1162354D1*
X121240Y-87664D2*
X127950D1*
X267678D2*
X1162354D1*
X121240Y-99344D2*
X141555D1*
X267678D2*
X1162354D1*
X121240Y-111024D2*
X169883D1*
X377554D2*
X1162354D1*
X105255Y-122703D2*
X169883D1*
X407751D2*
X1162354D1*
X113906Y-134383D2*
X169883D1*
X425906D2*
X1155504D1*
X118841Y-146063D2*
X169883D1*
X862636D2*
X1143831D1*
X121033Y-157743D2*
X169883D1*
X267678D2*
X351062D1*
X874332D2*
X1137833D1*
X120825Y-169423D2*
X169883D1*
X267678D2*
X351385D1*
X880953D2*
X1137349D1*
X118150Y-181102D2*
X169883D1*
X267678D2*
X355168D1*
X881622D2*
X962029D1*
X1000677D2*
X1137349D1*
X7098Y-192782D2*
X12364D1*
X112636D2*
X169883D1*
X267678D2*
X363773D1*
X423829D2*
X831070D1*
X881622D2*
X947427D1*
X1015280D2*
X1137349D1*
X1312631D2*
X1318073D1*
X7098Y-204462D2*
X21921D1*
X103085D2*
X169883D1*
X267678D2*
X831070D1*
X881622D2*
X940875D1*
X1303081D2*
X1318043D1*
X7098Y-216142D2*
X27205D1*
X97803D2*
X169883D1*
X267678D2*
X831070D1*
X881622D2*
X938453D1*
X1297798D2*
X1318043D1*
X7098Y-227822D2*
X15360D1*
X109614D2*
X169883D1*
X267678D2*
X831070D1*
X881622D2*
X939353D1*
X1309609D2*
X1318043D1*
X116442Y-239501D2*
X169883D1*
X267678D2*
X603823D1*
X721319D2*
X831070D1*
X881622D2*
X943850D1*
X120110Y-251181D2*
X603823D1*
X721319D2*
X831070D1*
X881622D2*
X953747D1*
X1008959D2*
X1162354D1*
X121240Y-262861D2*
X603823D1*
X721319D2*
X831070D1*
X881622D2*
X1162354D1*
X119972Y-274541D2*
X459045D1*
X721319D2*
X831070D1*
X881622D2*
X1162354D1*
X116119Y-286220D2*
X447881D1*
X721319D2*
X831070D1*
X881622D2*
X1162354D1*
X7098Y-297900D2*
X15913D1*
X109060D2*
X443613D1*
X721319D2*
X831070D1*
X881622D2*
X1162354D1*
X1309056D2*
X1318043D1*
X7098Y-309580D2*
X28197D1*
X96789D2*
X443520D1*
X721319D2*
X831070D1*
X881622D2*
X1162354D1*
X1296783D2*
X1318043D1*
X7098Y-321260D2*
X21160D1*
X103824D2*
X443520D1*
X494072D2*
X603823D1*
X721319D2*
X831070D1*
X881622D2*
X1162354D1*
X1303843D2*
X1318043D1*
X7098Y-332940D2*
X11949D1*
X113075D2*
X443520D1*
X494072D2*
X603823D1*
X721319D2*
X831070D1*
X881622D2*
X1162354D1*
X1313070D2*
X1318041D1*
X118403Y-344619D2*
X443520D1*
X494072D2*
X626752D1*
X698388D2*
X831070D1*
X881622D2*
X1162354D1*
X120895Y-356299D2*
X443520D1*
X494072D2*
X614341D1*
X710799D2*
X831070D1*
X881622D2*
X952386D1*
X1010320D2*
X1162354D1*
X120987Y-367979D2*
X443520D1*
X494072D2*
X607675D1*
X717467D2*
X831070D1*
X881622D2*
X943228D1*
X118634Y-379659D2*
X443520D1*
X494072D2*
X604445D1*
X720697D2*
X831070D1*
X881622D2*
X939122D1*
X7098Y-391339D2*
X11488D1*
X113490D2*
X443520D1*
X494072D2*
X603961D1*
X721181D2*
X831070D1*
X881622D2*
X938545D1*
X1206539D2*
X1211491D1*
X1313486D2*
X1318054D1*
X7098Y-403018D2*
X20445D1*
X104562D2*
X443520D1*
X494072D2*
X606198D1*
X718944D2*
X831070D1*
X881622D2*
X941336D1*
X1194890D2*
X1220441D1*
X1304558D2*
X1318043D1*
X7098Y-414698D2*
X29257D1*
X95751D2*
X443520D1*
X494072D2*
X611550D1*
X713591D2*
X831070D1*
X881622D2*
X948373D1*
X1014333D2*
X1229253D1*
X1295745D2*
X1318043D1*
X7098Y-426378D2*
X16512D1*
X108484D2*
X443520D1*
X494072D2*
X621424D1*
X703718D2*
X831070D1*
X881622D2*
X964681D1*
X998025D2*
X1216496D1*
X1308503D2*
X1318043D1*
X115797Y-438058D2*
X443520D1*
X494072D2*
X631990D1*
X693152D2*
X831070D1*
X881622D2*
X1209206D1*
X119811Y-449738D2*
X443520D1*
X494072D2*
X617987D1*
X707155D2*
X831070D1*
X881622D2*
X1205193D1*
X121240Y-461417D2*
X443520D1*
X494072D2*
X610097D1*
X715045D2*
X831070D1*
X881622D2*
X1203762D1*
X120248Y-473097D2*
X443520D1*
X494072D2*
X605668D1*
X719474D2*
X831070D1*
X881622D2*
X1204755D1*
X116765Y-484777D2*
X443520D1*
X494072D2*
X603891D1*
X721249D2*
X831070D1*
X881622D2*
X1208238D1*
X7098Y-496457D2*
X14853D1*
X110168D2*
X443520D1*
X494072D2*
X604514D1*
X720604D2*
X831070D1*
X881622D2*
X1214835D1*
X1310163D2*
X1318043D1*
X7098Y-508136D2*
X26236D1*
X98749D2*
X443520D1*
X494072D2*
X607652D1*
X717490D2*
X831070D1*
X881622D2*
X1226231D1*
X1298768D2*
X1318043D1*
X7098Y-519816D2*
X22706D1*
X102302D2*
X443520D1*
X494072D2*
X613719D1*
X711400D2*
X831070D1*
X881622D2*
X1222702D1*
X1302297D2*
X1318043D1*
X7098Y-531496D2*
X12825D1*
X112175D2*
X443520D1*
X494072D2*
X624238D1*
X700903D2*
X831070D1*
X881622D2*
X1212828D1*
X1312171D2*
X1318043D1*
X117896Y-543176D2*
X443520D1*
X494072D2*
X646638D1*
X678504D2*
X831070D1*
X881622D2*
X1207108D1*
X120734Y-554856D2*
X154034D1*
X208508D2*
X443520D1*
X494072D2*
X635333D1*
X689807D2*
X831070D1*
X881622D2*
X1116633D1*
X1171106D2*
X1204270D1*
X121102Y-566535D2*
X143954D1*
X218589D2*
X443520D1*
X494072D2*
X625253D1*
X881622D2*
X1106552D1*
X1181188D2*
X1203900D1*
X119049Y-578215D2*
X139340D1*
X223203D2*
X443520D1*
X494072D2*
X620639D1*
X881413D2*
X1101938D1*
X1185802D2*
X1205954D1*
X7098Y-589895D2*
X10705D1*
X114297D2*
X138348D1*
X224196D2*
X443520D1*
X494072D2*
X619647D1*
X876500D2*
X1100946D1*
X1186794D2*
X1210706D1*
X1314293D2*
X1318064D1*
X7098Y-601575D2*
X19062D1*
X105946D2*
X140701D1*
X221843D2*
X443520D1*
X494072D2*
X622000D1*
X865081D2*
X1103299D1*
X1184441D2*
X1219056D1*
X1305942D2*
X1318043D1*
X7098Y-613255D2*
X31518D1*
X93490D2*
X147091D1*
X215429D2*
X443520D1*
X494072D2*
X628413D1*
X696728D2*
X1109713D1*
X1178028D2*
X1231513D1*
X1293484D2*
X1318043D1*
X7098Y-624934D2*
X17701D1*
X107285D2*
X161348D1*
X201196D2*
X443520D1*
X494072D2*
X642647D1*
X682495D2*
X1123946D1*
X1163794D2*
X1217719D1*
X1307303D2*
X1318043D1*
X115081Y-636614D2*
X443520D1*
X494072D2*
X1209899D1*
X119465Y-648294D2*
X141440D1*
X494072D2*
X1205539D1*
X121194Y-659974D2*
X129766D1*
X491950D2*
X1203808D1*
X482469Y-671654D2*
X1204500D1*
X469713Y-683333D2*
X1207661D1*
X7098Y-695013D2*
X13839D1*
X165232D2*
X1213820D1*
X1311178D2*
X1318043D1*
X7098Y-706693D2*
X24437D1*
X239997D2*
X1085007D1*
X1202480D2*
X1224432D1*
X1300567D2*
X1318043D1*
X7098Y-718373D2*
X24367D1*
X239997D2*
X1085007D1*
X1202480D2*
X1224362D1*
X1300636D2*
X1318043D1*
X7098Y-730052D2*
X13793D1*
X239997D2*
X635126D1*
X690016D2*
X1085007D1*
X1202480D2*
X1213774D1*
X1311224D2*
X1318043D1*
X118518Y-741732D2*
X122509D1*
X239997D2*
X625138D1*
X700004D2*
X1085007D1*
X1202480D2*
X1207644D1*
X239997Y-753412D2*
X620593D1*
X704549D2*
X1085007D1*
X239997Y-765092D2*
X619647D1*
X705495D2*
X1085007D1*
X239997Y-776772D2*
X622070D1*
X703072D2*
X1085007D1*
X115058Y-788451D2*
X122497D1*
X239997D2*
X628551D1*
X696589D2*
X1085007D1*
X1202480D2*
X1209945D1*
X7098Y-800131D2*
X17769D1*
X107238D2*
X122524D1*
X239997D2*
X642992D1*
X682126D2*
X1085007D1*
X1202480D2*
X1217765D1*
X1307234D2*
X1318043D1*
X7098Y-811811D2*
X31634D1*
X93374D2*
X122524D1*
X239997D2*
X1085007D1*
X1202480D2*
X1231629D1*
X1293369D2*
X1318043D1*
X7098Y-823491D2*
X18992D1*
X106016D2*
X137748D1*
X224748D2*
X1100231D1*
X1187255D2*
X1218988D1*
X1306010D2*
X1318043D1*
X7098Y-835171D2*
X10659D1*
X114343D2*
X129421D1*
X233100D2*
X298651D1*
X435802D2*
X529566D1*
X598594D2*
X726408D1*
X795438D2*
X923274D1*
X992281D2*
X1091904D1*
X1195583D2*
X1210660D1*
X1314339D2*
X1318043D1*
X119072Y-846850D2*
X124692D1*
X237828D2*
X298651D1*
X435802D2*
X514479D1*
X613659D2*
X711344D1*
X810501D2*
X908186D1*
X1007367D2*
X1087175D1*
X1200311D2*
X1205923D1*
X239858Y-858530D2*
X298651D1*
X435802D2*
X505436D1*
X622724D2*
X702278D1*
X819567D2*
X899121D1*
X1016409D2*
X1085144D1*
X239466Y-870210D2*
X298651D1*
X435802D2*
X499738D1*
X628423D2*
X696580D1*
X825265D2*
X893446D1*
X1022108D2*
X1085537D1*
X117873Y-881890D2*
X125869D1*
X236629D2*
X298651D1*
X435802D2*
X496554D1*
X631606D2*
X693398D1*
X828449D2*
X890240D1*
X1025315D2*
X1088374D1*
X1199135D2*
X1207130D1*
X7098Y-893570D2*
X12871D1*
X112129D2*
X131612D1*
X230885D2*
X298651D1*
X435802D2*
X495493D1*
X632667D2*
X692336D1*
X829510D2*
X889202D1*
X1026353D2*
X1094118D1*
X1193391D2*
X1212874D1*
X1312123D2*
X1318043D1*
X7098Y-905249D2*
X22776D1*
X102232D2*
X141531D1*
X220966D2*
X298651D1*
X435802D2*
X496486D1*
X631676D2*
X693328D1*
X828518D2*
X890171D1*
X1025361D2*
X1104014D1*
X1183471D2*
X1222770D1*
X1302227D2*
X1318043D1*
X7098Y-916929D2*
X26167D1*
X98841D2*
X144899D1*
X217597D2*
X298651D1*
X435802D2*
X499600D1*
X628538D2*
X696442D1*
X825404D2*
X893308D1*
X1022247D2*
X1107406D1*
X1180080D2*
X1226161D1*
X1298836D2*
X1318043D1*
X7098Y-928609D2*
X14807D1*
X110214D2*
X133550D1*
X228948D2*
X298651D1*
X435802D2*
X505205D1*
X622955D2*
X702047D1*
X819798D2*
X898913D1*
X1016640D2*
X1096033D1*
X1191453D2*
X1214789D1*
X1310209D2*
X1318043D1*
X116789Y-940289D2*
X126975D1*
X614005D2*
X710975D1*
X1198028D2*
X1208215D1*
X599218Y-951969D2*
X725762D1*
X584062Y-963648D2*
X741056D1*
X119787Y-975328D2*
X123945D1*
X572597D2*
X752545D1*
X1201050D2*
X1205224D1*
X115773Y-987008D2*
X127991D1*
X234507D2*
X1090496D1*
X1197013D2*
X1209230D1*
X7098Y-998688D2*
X16547D1*
X108437D2*
X135303D1*
X227194D2*
X1097810D1*
X1189699D2*
X1216566D1*
X1308433D2*
X1318043D1*
X7098Y-1010367D2*
X29350D1*
X95635D2*
X148106D1*
X214391D2*
X1110613D1*
X1176898D2*
X1229345D1*
X1295654D2*
X1318043D1*
X242869Y-81336D2*
X266490D1*
Y-101013D1*
X358281Y-101096D1*
X362014Y-101686D1*
X365610Y-102856D1*
X368979Y-104572D1*
X372038Y-106794D1*
X386656Y-121307D1*
X390510Y-120835D1*
X397072D1*
X403552Y-121861D1*
X409791Y-123888D1*
X415638Y-126867D1*
X420945Y-130723D1*
X425585Y-135364D1*
X427938Y-138421D1*
X845730Y-138497D1*
X849463Y-139088D1*
X853059Y-140256D1*
X856428Y-141972D1*
X859487Y-144196D1*
X873378Y-157980D1*
X875833Y-160856D1*
X877808Y-164080D1*
X879255Y-167572D1*
X880138Y-171249D1*
X880434Y-175018D1*
X880360Y-576951D1*
X879769Y-580685D1*
X878601Y-584281D1*
X876885Y-587650D1*
X874661Y-590709D1*
X860877Y-604600D1*
X858001Y-607055D1*
X854777Y-609030D1*
X851285Y-610476D1*
X847608Y-611360D1*
X843839Y-611656D1*
X696731D1*
X694364Y-614715D1*
X689723Y-619356D1*
X684416Y-623211D1*
X678570Y-626190D1*
X672331Y-628218D1*
X665850Y-629244D1*
X659289D1*
X652808Y-628218D1*
X646570Y-626190D1*
X640723Y-623211D1*
X635416Y-619356D1*
X630776Y-614715D1*
X626920Y-609408D1*
X623941Y-603562D1*
X621913Y-597323D1*
X620887Y-590843D1*
Y-584281D1*
X621913Y-577801D1*
X623941Y-571562D1*
X626920Y-565715D1*
X630776Y-560408D1*
X635416Y-555768D1*
X640723Y-551912D1*
X646570Y-548933D1*
X652808Y-546906D1*
X659289Y-545879D1*
X665850D1*
X672331Y-546906D1*
X678570Y-548933D1*
X684416Y-551912D1*
X689723Y-555768D1*
X694364Y-560408D1*
X696717Y-563466D1*
X832238Y-563467D1*
X832245Y-186612D1*
X427984D1*
X425585Y-189671D1*
X420945Y-194311D1*
X415638Y-198167D1*
X409791Y-201146D1*
X403552Y-203173D1*
X397072Y-204199D1*
X390510D1*
X384030Y-203173D1*
X377791Y-201146D1*
X371945Y-198167D1*
X366638Y-194311D1*
X361997Y-189671D1*
X358142Y-184364D1*
X355163Y-178517D1*
X353135Y-172278D1*
X352109Y-165798D1*
Y-159236D1*
X352608Y-155411D1*
X346398Y-149198D1*
X266492Y-149210D1*
X266490Y-243698D1*
X171056D1*
Y-103450D1*
X165798Y-104189D1*
X159236D1*
X152756Y-103163D1*
X146517Y-101135D1*
X140671Y-98156D1*
X135364Y-94301D1*
X130723Y-89660D1*
X128370Y-86602D1*
X120042Y-86594D1*
X120059Y-120059D1*
X101396D1*
X106268Y-125118D1*
X109066Y-128668D1*
X111577Y-132425D1*
X113786Y-136369D1*
X115677Y-140474D1*
X117241Y-144714D1*
X118469Y-149063D1*
X119350Y-153496D1*
X119882Y-157984D1*
X120059Y-162500D1*
X119882Y-167016D1*
X119350Y-171504D1*
X118469Y-175937D1*
X117241Y-180286D1*
X115677Y-184526D1*
X113786Y-188631D1*
X111577Y-192575D1*
X109066Y-196332D1*
X106268Y-199882D1*
X103201Y-203201D1*
X99882Y-206268D1*
X96332Y-209066D1*
X90957Y-212483D1*
X96332Y-215934D1*
X99882Y-218732D1*
X103201Y-221799D1*
X106268Y-225118D1*
X109066Y-228668D1*
X111577Y-232425D1*
X113786Y-236369D1*
X115677Y-240474D1*
X117241Y-244714D1*
X118469Y-249063D1*
X119350Y-253496D1*
X119882Y-257984D1*
X120059Y-262500D1*
X119882Y-267016D1*
X119350Y-271504D1*
X118469Y-275937D1*
X117241Y-280286D1*
X115677Y-284526D1*
X113786Y-288631D1*
X111577Y-292575D1*
X109066Y-296332D1*
X106268Y-299882D1*
X103201Y-303201D1*
X99882Y-306268D1*
X96332Y-309066D1*
X90957Y-312483D1*
X96332Y-315934D1*
X99882Y-318732D1*
X103201Y-321799D1*
X106268Y-325118D1*
X109066Y-328668D1*
X111577Y-332425D1*
X113786Y-336369D1*
X115677Y-340474D1*
X117241Y-344714D1*
X118469Y-349063D1*
X119350Y-353496D1*
X119882Y-357984D1*
X120059Y-362500D1*
X119882Y-367016D1*
X119350Y-371504D1*
X118469Y-375937D1*
X117241Y-380286D1*
X115677Y-384526D1*
X113786Y-388631D1*
X111577Y-392575D1*
X109066Y-396332D1*
X106268Y-399882D1*
X103201Y-403201D1*
X99882Y-406268D1*
X96332Y-409066D1*
X90957Y-412483D1*
X96332Y-415934D1*
X99882Y-418732D1*
X103201Y-421799D1*
X106268Y-425118D1*
X109066Y-428668D1*
X111577Y-432425D1*
X113786Y-436369D1*
X115677Y-440474D1*
X117241Y-444714D1*
X118469Y-449063D1*
X119350Y-453496D1*
X119882Y-457984D1*
X120059Y-462500D1*
X119882Y-467016D1*
X119350Y-471504D1*
X118469Y-475937D1*
X117241Y-480286D1*
X115677Y-484526D1*
X113786Y-488631D1*
X111577Y-492575D1*
X109066Y-496332D1*
X106268Y-499882D1*
X103201Y-503201D1*
X99882Y-506268D1*
X96332Y-509066D1*
X90957Y-512483D1*
X96332Y-515934D1*
X99882Y-518732D1*
X103201Y-521799D1*
X106268Y-525118D1*
X109066Y-528668D1*
X111577Y-532425D1*
X113786Y-536369D1*
X115677Y-540474D1*
X117241Y-544714D1*
X118469Y-549063D1*
X119350Y-553496D1*
X119882Y-557984D1*
X120059Y-562500D1*
X119882Y-567016D1*
X119350Y-571504D1*
X118469Y-575937D1*
X117241Y-580286D1*
X115677Y-584526D1*
X113786Y-588631D1*
X111577Y-592575D1*
X109066Y-596332D1*
X106268Y-599882D1*
X103201Y-603201D1*
X99882Y-606268D1*
X96332Y-609066D1*
X90957Y-612483D1*
X96332Y-615934D1*
X99882Y-618732D1*
X103201Y-621799D1*
X106268Y-625118D1*
X109066Y-628668D1*
X111577Y-632425D1*
X113786Y-636369D1*
X115677Y-640474D1*
X117241Y-644714D1*
X118469Y-649063D1*
X119350Y-653496D1*
X119882Y-657984D1*
X120059Y-662500D1*
X119882Y-667016D1*
X119333Y-671591D1*
X146782Y-644248D1*
X149841Y-642025D1*
X153210Y-640308D1*
X156806Y-639140D1*
X160539Y-638549D1*
X191958Y-638475D1*
X444719D1*
X444780Y-298140D1*
X445370Y-294407D1*
X446538Y-290811D1*
X448255Y-287442D1*
X450478Y-284383D1*
X464252Y-270503D1*
X467127Y-268047D1*
X470352Y-266072D1*
X473844Y-264626D1*
X477521Y-263743D1*
X481298Y-263446D1*
X605005D1*
X605010Y-235887D1*
X720129D1*
Y-339194D1*
X686656D1*
X691925Y-341517D1*
X695465Y-343499D1*
X698836Y-345752D1*
X702021Y-348262D1*
X705000Y-351016D1*
X707753Y-353995D1*
X710264Y-357180D1*
X712517Y-360551D1*
X714499Y-364091D1*
X716197Y-367774D1*
X717601Y-371579D1*
X718701Y-375483D1*
X719492Y-379461D1*
X719970Y-383488D1*
X720129Y-387541D1*
X719970Y-391593D1*
X719492Y-395621D1*
X718701Y-399598D1*
X717601Y-403503D1*
X716197Y-407307D1*
X714499Y-410991D1*
X712517Y-414530D1*
X710264Y-417902D1*
X707753Y-421087D1*
X705000Y-424066D1*
X702021Y-426819D1*
X698836Y-429329D1*
X695465Y-431583D1*
X691925Y-433564D1*
X687365Y-435585D1*
X693203Y-438811D1*
X698033Y-442205D1*
X702490Y-446075D1*
X706526Y-450382D1*
X710101Y-455079D1*
X713176Y-460118D1*
X715719Y-465445D1*
X717702Y-471005D1*
X719106Y-476739D1*
X719915Y-482585D1*
X720117Y-488722D1*
X719693Y-494609D1*
X718668Y-500423D1*
X717054Y-506101D1*
X714866Y-511583D1*
X712130Y-516814D1*
X708870Y-521735D1*
X705125Y-526298D1*
X700932Y-530451D1*
X696335Y-534155D1*
X691383Y-537369D1*
X686129Y-540058D1*
X680626Y-542194D1*
X674933Y-543756D1*
X669110Y-544727D1*
X663219Y-545096D1*
X657322Y-544860D1*
X651478Y-544021D1*
X645752Y-542588D1*
X640202Y-540576D1*
X634888Y-538007D1*
X629865Y-534906D1*
X625186Y-531307D1*
X620900Y-527248D1*
X617052Y-522772D1*
X613684Y-517924D1*
X610828Y-512757D1*
X608518Y-507325D1*
X606776Y-501686D1*
X605621Y-495898D1*
X605064Y-490021D1*
X605113Y-484118D1*
X605765Y-478251D1*
X607016Y-472482D1*
X608849Y-466871D1*
X611249Y-461478D1*
X614188Y-456360D1*
X617636Y-451568D1*
X621556Y-447155D1*
X625909Y-443167D1*
X630647Y-439646D1*
X635719Y-436627D1*
X637752Y-435608D1*
X633214Y-433564D1*
X629675Y-431583D1*
X626303Y-429329D1*
X623118Y-426819D1*
X620139Y-424066D1*
X617386Y-421087D1*
X614875Y-417902D1*
X612622Y-414530D1*
X610640Y-410991D1*
X608942Y-407307D1*
X607538Y-403503D1*
X606438Y-399598D1*
X605647Y-395621D1*
X605169Y-391593D1*
X605010Y-387541D1*
X605169Y-383488D1*
X605647Y-379461D1*
X606438Y-375483D1*
X607538Y-371579D1*
X608942Y-367774D1*
X610640Y-364091D1*
X612622Y-360551D1*
X614875Y-357180D1*
X617386Y-353995D1*
X620139Y-351016D1*
X623118Y-348262D1*
X626303Y-345752D1*
X629675Y-343499D1*
X633214Y-341517D1*
X638576Y-339199D1*
X605010Y-339194D1*
Y-311627D1*
X492902Y-311635D1*
X492820Y-651959D1*
X492228Y-655693D1*
X491060Y-659289D1*
X489344Y-662657D1*
X487121Y-665717D1*
X473336Y-679608D1*
X470461Y-682063D1*
X467236Y-684038D1*
X463744Y-685486D1*
X460067Y-686367D1*
X456298Y-686664D1*
X172395D1*
X154135Y-704940D1*
X238811Y-704941D1*
Y-820059D1*
X220148D1*
X225020Y-825118D1*
X227818Y-828668D1*
X230329Y-832425D1*
X232538Y-836369D1*
X234429Y-840474D1*
X235993Y-844714D1*
X237220Y-849063D1*
X238102Y-853496D1*
X238634Y-857984D1*
X238811Y-862500D1*
X238634Y-867016D1*
X238102Y-871504D1*
X237220Y-875937D1*
X235993Y-880286D1*
X234429Y-884526D1*
X232538Y-888631D1*
X230329Y-892575D1*
X227818Y-896332D1*
X225020Y-899882D1*
X221953Y-903201D1*
X218634Y-906268D1*
X215084Y-909066D1*
X209709Y-912483D1*
X215084Y-915934D1*
X218634Y-918732D1*
X221953Y-921799D1*
X225020Y-925118D1*
X227818Y-928668D1*
X230329Y-932425D1*
X233476Y-938406D1*
X299801D1*
X299823Y-826353D1*
X434626D1*
Y-938396D1*
X513598Y-938406D1*
X509546Y-933373D1*
X506605Y-928972D1*
X504020Y-924354D1*
X501804Y-919549D1*
X499972Y-914583D1*
X498535Y-909490D1*
X497503Y-904298D1*
X496881Y-899043D1*
X496673Y-893755D1*
X496881Y-888466D1*
X497503Y-883211D1*
X498535Y-878020D1*
X499972Y-872927D1*
X501804Y-867961D1*
X504020Y-863155D1*
X506605Y-858537D1*
X509546Y-854136D1*
X512823Y-849980D1*
X516415Y-846094D1*
X520301Y-842503D1*
X524457Y-839226D1*
X528857Y-836285D1*
X533475Y-833699D1*
X538281Y-831484D1*
X543247Y-829652D1*
X548340Y-828215D1*
X553531Y-827182D1*
X558786Y-826560D1*
X564075Y-826353D1*
X569364Y-826560D1*
X574618Y-827182D1*
X579810Y-828215D1*
X584903Y-829652D1*
X589869Y-831484D1*
X594675Y-833699D1*
X599293Y-836285D1*
X603693Y-839226D1*
X607849Y-842503D1*
X611735Y-846094D1*
X615327Y-849980D1*
X618604Y-854136D1*
X621545Y-858537D1*
X624130Y-863155D1*
X626345Y-867961D1*
X628177Y-872927D1*
X629614Y-878020D1*
X630647Y-883211D1*
X631269Y-888466D1*
X631476Y-893755D1*
X631269Y-899043D1*
X630647Y-904298D1*
X629614Y-909490D1*
X628177Y-914583D1*
X626345Y-919549D1*
X624130Y-924354D1*
X621545Y-928972D1*
X618604Y-933373D1*
X615327Y-937529D1*
X611735Y-941415D1*
X607849Y-945007D1*
X603693Y-948283D1*
X599293Y-951224D1*
X594675Y-953810D1*
X589869Y-956025D1*
X586551Y-957249D1*
X584619Y-961173D1*
X582396Y-964232D1*
X567197Y-979538D1*
X564322Y-981993D1*
X561097Y-983969D1*
X557605Y-985415D1*
X553928Y-986298D1*
X550159Y-986594D1*
X233545D1*
X230329Y-992575D1*
X227818Y-996332D1*
X225020Y-999882D1*
X221953Y-1003201D1*
X218634Y-1006268D1*
X215084Y-1009066D1*
X211327Y-1011577D1*
X207383Y-1013786D1*
X203278Y-1015677D1*
X199038Y-1017241D1*
X194689Y-1018469D1*
X191001Y-1019202D1*
X1133835D1*
X1125962Y-1017241D1*
X1121722Y-1015677D1*
X1117617Y-1013786D1*
X1113673Y-1011577D1*
X1109916Y-1009066D1*
X1106366Y-1006268D1*
X1103047Y-1003201D1*
X1099980Y-999882D1*
X1097182Y-996332D1*
X1094671Y-992575D1*
X1091568Y-986692D1*
X773190Y-986621D1*
X769457Y-986030D1*
X765861Y-984861D1*
X762492Y-983144D1*
X759433Y-980923D1*
X743888Y-965482D1*
X741432Y-962608D1*
X739457Y-959383D1*
X738663Y-957659D1*
X730325Y-953810D1*
X725707Y-951224D1*
X721307Y-948283D1*
X717151Y-945007D1*
X713265Y-941415D1*
X709673Y-937529D1*
X706396Y-933373D1*
X703455Y-928972D1*
X700870Y-924354D1*
X698655Y-919549D1*
X696823Y-914583D1*
X695386Y-909490D1*
X694353Y-904298D1*
X693731Y-899043D1*
X693524Y-893755D1*
X693731Y-888466D1*
X694353Y-883211D1*
X695386Y-878020D1*
X696823Y-872927D1*
X698655Y-867961D1*
X700870Y-863155D1*
X703455Y-858537D1*
X706396Y-854136D1*
X709673Y-849980D1*
X713265Y-846094D1*
X717151Y-842503D1*
X721307Y-839226D1*
X725707Y-836285D1*
X730325Y-833699D1*
X735131Y-831484D1*
X740097Y-829652D1*
X745190Y-828215D1*
X750382Y-827182D1*
X755636Y-826560D1*
X760925Y-826353D1*
X766214Y-826560D1*
X771469Y-827182D1*
X776660Y-828215D1*
X781753Y-829652D1*
X786719Y-831484D1*
X791525Y-833699D1*
X796143Y-836285D1*
X800543Y-839226D1*
X804699Y-842503D1*
X808585Y-846094D1*
X812177Y-849980D1*
X815454Y-854136D1*
X818395Y-858537D1*
X820980Y-863155D1*
X823196Y-867961D1*
X825028Y-872927D1*
X826465Y-878020D1*
X827497Y-883211D1*
X828119Y-888466D1*
X828327Y-893755D1*
X828119Y-899043D1*
X827497Y-904298D1*
X826465Y-909490D1*
X825028Y-914583D1*
X823196Y-919549D1*
X820980Y-924354D1*
X818395Y-928972D1*
X815454Y-933373D1*
X811265Y-938516D1*
X907379Y-938507D1*
X903247Y-933373D1*
X900306Y-928972D1*
X897720Y-924354D1*
X895505Y-919549D1*
X893673Y-914583D1*
X892236Y-909490D1*
X891203Y-904298D1*
X890581Y-899043D1*
X890374Y-893755D1*
X890581Y-888466D1*
X891203Y-883211D1*
X892236Y-878020D1*
X893673Y-872927D1*
X895505Y-867961D1*
X897720Y-863155D1*
X900306Y-858537D1*
X903247Y-854136D1*
X906524Y-849980D1*
X910115Y-846094D1*
X914001Y-842503D1*
X918157Y-839226D1*
X922558Y-836285D1*
X927176Y-833699D1*
X931982Y-831484D1*
X936948Y-829652D1*
X942041Y-828215D1*
X947232Y-827182D1*
X952487Y-826560D1*
X957776Y-826353D1*
X963064Y-826560D1*
X968319Y-827182D1*
X973510Y-828215D1*
X978604Y-829652D1*
X983570Y-831484D1*
X988375Y-833699D1*
X992993Y-836285D1*
X997394Y-839226D1*
X1001550Y-842503D1*
X1005436Y-846094D1*
X1009028Y-849980D1*
X1012304Y-854136D1*
X1015245Y-858537D1*
X1017831Y-863155D1*
X1020046Y-867961D1*
X1021878Y-872927D1*
X1023315Y-878020D1*
X1024348Y-883211D1*
X1024970Y-888466D1*
X1025177Y-893755D1*
X1024970Y-899043D1*
X1024348Y-904298D1*
X1023315Y-909490D1*
X1021878Y-914583D1*
X1020046Y-919549D1*
X1017831Y-924354D1*
X1015245Y-928972D1*
X1012304Y-933373D1*
X1008115Y-938516D1*
X1091419Y-938507D1*
X1094671Y-932425D1*
X1097182Y-928668D1*
X1099980Y-925118D1*
X1103047Y-921799D1*
X1106366Y-918732D1*
X1109916Y-915934D1*
X1115291Y-912517D1*
X1109916Y-909066D1*
X1106366Y-906268D1*
X1103047Y-903201D1*
X1099980Y-899882D1*
X1097182Y-896332D1*
X1094671Y-892575D1*
X1092462Y-888631D1*
X1090571Y-884526D1*
X1089007Y-880286D1*
X1087780Y-875937D1*
X1086898Y-871504D1*
X1086366Y-867016D1*
X1086189Y-862500D1*
X1086366Y-857984D1*
X1086898Y-853496D1*
X1087780Y-849063D1*
X1089007Y-844714D1*
X1090571Y-840474D1*
X1092462Y-836369D1*
X1094671Y-832425D1*
X1097182Y-828668D1*
X1099980Y-825118D1*
X1104928Y-820062D1*
X1086189Y-820059D1*
Y-704941D1*
X1201307D1*
Y-820059D1*
X1182644D1*
X1187516Y-825118D1*
X1190314Y-828668D1*
X1192825Y-832425D1*
X1195034Y-836369D1*
X1196925Y-840474D1*
X1198490Y-844714D1*
X1199717Y-849063D1*
X1200598Y-853496D1*
X1201130Y-857984D1*
X1201307Y-862500D1*
X1201130Y-867016D1*
X1200598Y-871504D1*
X1199717Y-875937D1*
X1198490Y-880286D1*
X1196925Y-884526D1*
X1195034Y-888631D1*
X1192825Y-892575D1*
X1190314Y-896332D1*
X1187516Y-899882D1*
X1184449Y-903201D1*
X1181130Y-906268D1*
X1177580Y-909066D1*
X1172205Y-912483D1*
X1177580Y-915934D1*
X1181130Y-918732D1*
X1184449Y-921799D1*
X1187516Y-925118D1*
X1190314Y-928668D1*
X1192825Y-932425D1*
X1195034Y-936369D1*
X1196925Y-940474D1*
X1198490Y-944714D1*
X1199717Y-949063D1*
X1200598Y-953496D1*
X1201130Y-957984D1*
X1201307Y-962500D1*
X1201130Y-967016D1*
X1200598Y-971504D1*
X1199717Y-975937D1*
X1198490Y-980286D1*
X1196925Y-984526D1*
X1195034Y-988631D1*
X1192825Y-992575D1*
X1190314Y-996332D1*
X1187516Y-999882D1*
X1184449Y-1003201D1*
X1181130Y-1006268D1*
X1177580Y-1009066D1*
X1173823Y-1011577D1*
X1169879Y-1013786D1*
X1165774Y-1015677D1*
X1161534Y-1017241D1*
X1157185Y-1018469D1*
X1153497Y-1019202D1*
X1252570Y-1019196D1*
X1246815Y-1017881D1*
X1241226Y-1015983D1*
X1235860Y-1013524D1*
X1230774Y-1010526D1*
X1226022Y-1007025D1*
X1221654Y-1003054D1*
X1217715Y-998657D1*
X1214248Y-993881D1*
X1211287Y-988773D1*
X1208866Y-983390D1*
X1207008Y-977787D1*
X1205734Y-972024D1*
X1205058Y-966159D1*
X1204984Y-960257D1*
X1205517Y-954378D1*
X1206648Y-948584D1*
X1208367Y-942937D1*
X1210656Y-937496D1*
X1213490Y-932318D1*
X1216839Y-927457D1*
X1220667Y-922965D1*
X1224937Y-918887D1*
X1229601Y-915270D1*
X1233990Y-912501D1*
X1228668Y-909066D1*
X1225118Y-906268D1*
X1221799Y-903201D1*
X1218732Y-899882D1*
X1215934Y-896332D1*
X1213423Y-892575D1*
X1211214Y-888631D1*
X1209323Y-884526D1*
X1207759Y-880286D1*
X1206531Y-875937D1*
X1205650Y-871504D1*
X1205118Y-867016D1*
X1204941Y-862500D1*
X1205118Y-857984D1*
X1205650Y-853496D1*
X1206531Y-849063D1*
X1207759Y-844714D1*
X1209323Y-840474D1*
X1211214Y-836369D1*
X1213423Y-832425D1*
X1215934Y-828668D1*
X1218732Y-825118D1*
X1221799Y-821799D1*
X1225118Y-818732D1*
X1228668Y-815934D1*
X1234043Y-812517D1*
X1228668Y-809066D1*
X1225118Y-806268D1*
X1221799Y-803201D1*
X1218732Y-799882D1*
X1215934Y-796332D1*
X1213423Y-792575D1*
X1211214Y-788631D1*
X1209323Y-784526D1*
X1207759Y-780286D1*
X1206531Y-775937D1*
X1205650Y-771504D1*
X1205118Y-767016D1*
X1204941Y-762500D1*
X1205118Y-757984D1*
X1205650Y-753496D1*
X1206531Y-749063D1*
X1207759Y-744714D1*
X1209323Y-740474D1*
X1211214Y-736369D1*
X1213423Y-732425D1*
X1215934Y-728668D1*
X1218732Y-725118D1*
X1221799Y-721799D1*
X1225118Y-718732D1*
X1228668Y-715934D1*
X1234043Y-712517D1*
X1228668Y-709066D1*
X1225118Y-706268D1*
X1221799Y-703201D1*
X1218732Y-699882D1*
X1215934Y-696332D1*
X1213423Y-692575D1*
X1211214Y-688631D1*
X1209323Y-684526D1*
X1207759Y-680286D1*
X1206531Y-675937D1*
X1205650Y-671504D1*
X1205118Y-667016D1*
X1204941Y-662500D1*
X1205118Y-657984D1*
X1205650Y-653496D1*
X1206531Y-649063D1*
X1207759Y-644714D1*
X1209323Y-640474D1*
X1211214Y-636369D1*
X1213423Y-632425D1*
X1215934Y-628668D1*
X1218732Y-625118D1*
X1221799Y-621799D1*
X1225118Y-618732D1*
X1228668Y-615934D1*
X1234043Y-612517D1*
X1228668Y-609066D1*
X1225118Y-606268D1*
X1221799Y-603201D1*
X1218732Y-599882D1*
X1215934Y-596332D1*
X1213423Y-592575D1*
X1211214Y-588631D1*
X1209323Y-584526D1*
X1207759Y-580286D1*
X1206531Y-575937D1*
X1205650Y-571504D1*
X1205118Y-567016D1*
X1204941Y-562500D1*
X1205118Y-557984D1*
X1205650Y-553496D1*
X1206531Y-549063D1*
X1207759Y-544714D1*
X1209323Y-540474D1*
X1211214Y-536369D1*
X1213423Y-532425D1*
X1215934Y-528668D1*
X1218732Y-525118D1*
X1221799Y-521799D1*
X1225118Y-518732D1*
X1228668Y-515934D1*
X1234043Y-512517D1*
X1228668Y-509066D1*
X1225118Y-506268D1*
X1221799Y-503201D1*
X1218732Y-499882D1*
X1215934Y-496332D1*
X1213423Y-492575D1*
X1211214Y-488631D1*
X1209323Y-484526D1*
X1207759Y-480286D1*
X1206531Y-475937D1*
X1205650Y-471504D1*
X1205118Y-467016D1*
X1204941Y-462500D1*
X1205118Y-457984D1*
X1205650Y-453496D1*
X1206531Y-449063D1*
X1207759Y-444714D1*
X1209323Y-440474D1*
X1211214Y-436369D1*
X1213423Y-432425D1*
X1215934Y-428668D1*
X1218732Y-425118D1*
X1221799Y-421799D1*
X1225118Y-418732D1*
X1228668Y-415934D1*
X1234043Y-412517D1*
X1228668Y-409066D1*
X1225118Y-406268D1*
X1221799Y-403201D1*
X1218732Y-399882D1*
X1215934Y-396332D1*
X1213423Y-392575D1*
X1211214Y-388631D1*
X1209551Y-385024D1*
X1208168Y-387629D1*
X1205946Y-390688D1*
X1192161Y-404579D1*
X1189286Y-407034D1*
X1186062Y-409009D1*
X1182570Y-410457D1*
X1178892Y-411339D1*
X1175123Y-411635D1*
X1015513D1*
X1013147Y-414694D1*
X1008507Y-419335D1*
X1003199Y-423190D1*
X997353Y-426169D1*
X991114Y-428197D1*
X984634Y-429223D1*
X978072D1*
X971592Y-428197D1*
X965353Y-426169D1*
X959507Y-423190D1*
X954199Y-419335D1*
X949559Y-414694D1*
X945703Y-409387D1*
X942724Y-403541D1*
X940697Y-397302D1*
X939671Y-390822D1*
Y-384260D1*
X940697Y-377780D1*
X942724Y-371541D1*
X945703Y-365694D1*
X949559Y-360387D1*
X954199Y-355747D1*
X959507Y-351891D1*
X965353Y-348912D1*
X971592Y-346885D1*
X978072Y-345858D1*
X984634D1*
X991114Y-346885D1*
X997353Y-348912D1*
X1003199Y-351891D1*
X1008507Y-355747D1*
X1013147Y-360387D1*
X1015500Y-363445D1*
X1163524Y-363446D1*
X1163530Y-238774D1*
X1161059Y-240241D1*
X1157567Y-241688D1*
X1153890Y-242571D1*
X1150113Y-242867D1*
X1015517D1*
X1013147Y-245927D1*
X1008507Y-250567D1*
X1003199Y-254423D1*
X997353Y-257402D1*
X991114Y-259429D1*
X984634Y-260455D1*
X978072D1*
X971592Y-259429D1*
X965353Y-257402D1*
X959507Y-254423D1*
X954199Y-250567D1*
X949559Y-245927D1*
X945703Y-240619D1*
X942724Y-234773D1*
X940697Y-228534D1*
X939671Y-222054D1*
Y-215492D1*
X940697Y-209012D1*
X942724Y-202773D1*
X945703Y-196927D1*
X949559Y-191619D1*
X954199Y-186979D1*
X959507Y-183123D1*
X965353Y-180144D1*
X971592Y-178117D1*
X978072Y-177091D1*
X984634D1*
X991114Y-178117D1*
X997353Y-180144D1*
X1003199Y-183123D1*
X1008507Y-186979D1*
X1013147Y-191619D1*
X1015500Y-194677D1*
X1138518Y-194678D1*
X1138602Y-160626D1*
X1139193Y-156892D1*
X1140362Y-153297D1*
X1142077Y-149928D1*
X1144301Y-146869D1*
X1163543Y-127520D1*
X1163605Y-73117D1*
X1164196Y-69383D1*
X1165365Y-65787D1*
X1167080Y-62419D1*
X1169303Y-59360D1*
X1183094Y-45462D1*
X1185970Y-43007D1*
X1189194Y-41031D1*
X1192686Y-39585D1*
X1196364Y-38702D1*
X1200133Y-38406D1*
X1204954D1*
X1204941Y-5908D1*
X120068Y-5906D1*
X120059Y-38413D1*
X128361Y-38406D1*
X130723Y-35353D1*
X135364Y-30713D1*
X140671Y-26857D1*
X146517Y-23878D1*
X152756Y-21850D1*
X159236Y-20824D1*
X165798D1*
X172278Y-21850D1*
X178517Y-23878D1*
X184364Y-26857D1*
X189671Y-30713D1*
X194311Y-35353D1*
X196664Y-38411D1*
X208163Y-38486D1*
X211896Y-39077D1*
X215492Y-40245D1*
X218861Y-41962D1*
X221920Y-44185D1*
X235811Y-57970D1*
X238266Y-60845D1*
X240241Y-64070D1*
X241689Y-67562D1*
X242571Y-71239D1*
X242867Y-75008D1*
Y-81352D1*
X142362Y-820059D2*
X123693D1*
Y-735375D1*
X116488Y-742587D1*
X118469Y-749063D1*
X119350Y-753496D1*
X119882Y-757984D1*
X120059Y-762500D1*
X119882Y-767016D1*
X119350Y-771504D1*
X118469Y-775937D1*
X117241Y-780286D1*
X115677Y-784526D1*
X113786Y-788631D1*
X111577Y-792575D1*
X109066Y-796332D1*
X106268Y-799882D1*
X103201Y-803201D1*
X99882Y-806268D1*
X96332Y-809066D1*
X90957Y-812483D1*
X96332Y-815934D1*
X99882Y-818732D1*
X103201Y-821799D1*
X106268Y-825118D1*
X109066Y-828668D1*
X111577Y-832425D1*
X113786Y-836369D1*
X115677Y-840474D1*
X117241Y-844714D1*
X118469Y-849063D1*
X119350Y-853496D1*
X119882Y-857984D1*
X120059Y-862500D1*
X119882Y-867016D1*
X119350Y-871504D1*
X118469Y-875937D1*
X117241Y-880286D1*
X115677Y-884526D1*
X113786Y-888631D1*
X111577Y-892575D1*
X109066Y-896332D1*
X106268Y-899882D1*
X103201Y-903201D1*
X99882Y-906268D1*
X96332Y-909066D1*
X90957Y-912483D1*
X96332Y-915934D1*
X99882Y-918732D1*
X103201Y-921799D1*
X106268Y-925118D1*
X109066Y-928668D1*
X111577Y-932425D1*
X113786Y-936369D1*
X115677Y-940474D1*
X117241Y-944714D1*
X118469Y-949063D1*
X119350Y-953496D1*
X119882Y-957984D1*
X120059Y-962500D1*
X119882Y-967016D1*
X119350Y-971504D1*
X118469Y-975937D1*
X117241Y-980286D1*
X115677Y-984526D1*
X113786Y-988631D1*
X111577Y-992575D1*
X109066Y-996332D1*
X106268Y-999882D1*
X103201Y-1003201D1*
X99882Y-1006268D1*
X96332Y-1009066D1*
X92575Y-1011577D1*
X88631Y-1013786D1*
X84526Y-1015677D1*
X80286Y-1017241D1*
X75937Y-1018469D1*
X72249Y-1019202D1*
X171375D1*
X163466Y-1017241D1*
X159226Y-1015677D1*
X155121Y-1013786D1*
X151177Y-1011577D1*
X147420Y-1009066D1*
X143870Y-1006268D1*
X140551Y-1003201D1*
X137484Y-999882D1*
X134686Y-996332D1*
X132175Y-992575D1*
X129966Y-988631D1*
X128075Y-984526D1*
X126510Y-980286D1*
X125283Y-975937D1*
X124402Y-971504D1*
X123870Y-967016D1*
X123693Y-962500D1*
X123870Y-957984D1*
X124402Y-953496D1*
X125283Y-949063D1*
X126510Y-944714D1*
X128075Y-940474D1*
X129966Y-936369D1*
X132175Y-932425D1*
X134686Y-928668D1*
X137484Y-925118D1*
X140551Y-921799D1*
X143870Y-918732D1*
X147420Y-915934D1*
X152795Y-912517D1*
X147420Y-909066D1*
X143870Y-906268D1*
X140551Y-903201D1*
X137484Y-899882D1*
X134686Y-896332D1*
X132175Y-892575D1*
X129966Y-888631D1*
X128075Y-884526D1*
X126510Y-880286D1*
X125283Y-875937D1*
X124402Y-871504D1*
X123870Y-867016D1*
X123693Y-862500D1*
X123870Y-857984D1*
X124402Y-853496D1*
X125283Y-849063D1*
X126510Y-844714D1*
X128075Y-840474D1*
X129966Y-836369D1*
X132175Y-832425D1*
X134686Y-828668D1*
X137484Y-825118D1*
X142432Y-820062D1*
X34043Y-212483D2*
X28668Y-209066D1*
X25118Y-206268D1*
X21799Y-203201D1*
X18732Y-199882D1*
X15934Y-196332D1*
X13423Y-192575D1*
X11214Y-188631D1*
X9323Y-184526D1*
X7759Y-180286D1*
X5908Y-172803D1*
X5906Y-252022D1*
X7759Y-244714D1*
X9323Y-240474D1*
X11214Y-236369D1*
X13423Y-232425D1*
X15934Y-228668D1*
X18732Y-225118D1*
X21799Y-221799D1*
X25118Y-218732D1*
X28668Y-215934D1*
X34043Y-212517D1*
Y-312483D2*
X28668Y-309066D1*
X25118Y-306268D1*
X21799Y-303201D1*
X18732Y-299882D1*
X15934Y-296332D1*
X13423Y-292575D1*
X11214Y-288631D1*
X9323Y-284526D1*
X7759Y-280286D1*
X5908Y-272803D1*
X5906Y-352001D1*
X7759Y-344714D1*
X9323Y-340474D1*
X11214Y-336369D1*
X13423Y-332425D1*
X15934Y-328668D1*
X18732Y-325118D1*
X21799Y-321799D1*
X25118Y-318732D1*
X28668Y-315934D1*
X34043Y-312517D1*
Y-412483D2*
X28668Y-409066D1*
X25118Y-406268D1*
X21799Y-403201D1*
X18732Y-399882D1*
X15934Y-396332D1*
X13423Y-392575D1*
X11214Y-388631D1*
X9323Y-384526D1*
X7759Y-380286D1*
X5908Y-372803D1*
X5906Y-452025D1*
X7759Y-444714D1*
X9323Y-440474D1*
X11214Y-436369D1*
X13423Y-432425D1*
X15934Y-428668D1*
X18732Y-425118D1*
X21799Y-421799D1*
X25118Y-418732D1*
X28668Y-415934D1*
X34043Y-412517D1*
Y-512483D2*
X28668Y-509066D1*
X25118Y-506268D1*
X21799Y-503201D1*
X18732Y-499882D1*
X15934Y-496332D1*
X13423Y-492575D1*
X11214Y-488631D1*
X9323Y-484526D1*
X7759Y-480286D1*
X5908Y-472803D1*
X5906Y-552004D1*
X7759Y-544714D1*
X9323Y-540474D1*
X11214Y-536369D1*
X13423Y-532425D1*
X15934Y-528668D1*
X18732Y-525118D1*
X21799Y-521799D1*
X25118Y-518732D1*
X28668Y-515934D1*
X34043Y-512517D1*
Y-612483D2*
X28668Y-609066D1*
X25118Y-606268D1*
X21799Y-603201D1*
X18732Y-599882D1*
X15934Y-596332D1*
X13423Y-592575D1*
X11214Y-588631D1*
X9323Y-584526D1*
X7759Y-580286D1*
X5908Y-572803D1*
X5906Y-652029D1*
X7759Y-644714D1*
X9323Y-640474D1*
X11214Y-636369D1*
X13423Y-632425D1*
X15934Y-628668D1*
X18732Y-625118D1*
X21799Y-621799D1*
X25118Y-618732D1*
X28668Y-615934D1*
X34043Y-612517D1*
Y-712483D2*
X28668Y-709066D1*
X25118Y-706268D1*
X21799Y-703201D1*
X18732Y-699882D1*
X15934Y-696332D1*
X13423Y-692575D1*
X11214Y-688631D1*
X9323Y-684526D1*
X7759Y-680286D1*
X5908Y-672803D1*
X5906Y-752007D1*
X7759Y-744714D1*
X9323Y-740474D1*
X11214Y-736369D1*
X13423Y-732425D1*
X15934Y-728668D1*
X18732Y-725118D1*
X21799Y-721799D1*
X25118Y-718732D1*
X28668Y-715934D1*
X34043Y-712517D1*
Y-812483D2*
X28668Y-809066D1*
X25118Y-806268D1*
X21799Y-803201D1*
X18732Y-799882D1*
X15934Y-796332D1*
X13423Y-792575D1*
X11214Y-788631D1*
X9323Y-784526D1*
X7759Y-780286D1*
X5908Y-772803D1*
X5906Y-851986D1*
X7759Y-844714D1*
X9323Y-840474D1*
X11214Y-836369D1*
X13423Y-832425D1*
X15934Y-828668D1*
X18732Y-825118D1*
X21799Y-821799D1*
X25118Y-818732D1*
X28668Y-815934D1*
X34043Y-812517D1*
Y-912483D2*
X28668Y-909066D1*
X25118Y-906268D1*
X21799Y-903201D1*
X18732Y-899882D1*
X15934Y-896332D1*
X13423Y-892575D1*
X11214Y-888631D1*
X9323Y-884526D1*
X7759Y-880286D1*
X5908Y-872803D1*
X5906Y-952010D1*
X7759Y-944714D1*
X9323Y-940474D1*
X11214Y-936369D1*
X13423Y-932425D1*
X15934Y-928668D1*
X18732Y-925118D1*
X21799Y-921799D1*
X25118Y-918732D1*
X28668Y-915934D1*
X34043Y-912517D1*
X52751Y-1019202D2*
X49063Y-1018469D1*
X44714Y-1017241D1*
X40474Y-1015677D1*
X36369Y-1013786D1*
X32425Y-1011577D1*
X28668Y-1009066D1*
X25118Y-1006268D1*
X21799Y-1003201D1*
X18732Y-999882D1*
X15934Y-996332D1*
X13423Y-992575D1*
X11214Y-988631D1*
X9323Y-984526D1*
X7759Y-980286D1*
X5908Y-972803D1*
X5906Y-1019185D1*
X52619Y-1019202D1*
X1319236Y-172076D2*
X1318469Y-175937D1*
X1317241Y-180286D1*
X1315677Y-184526D1*
X1313786Y-188631D1*
X1311577Y-192575D1*
X1309066Y-196332D1*
X1306268Y-199882D1*
X1303201Y-203201D1*
X1299882Y-206268D1*
X1296332Y-209066D1*
X1290957Y-212483D1*
X1296332Y-215934D1*
X1299882Y-218732D1*
X1303201Y-221799D1*
X1306268Y-225118D1*
X1309066Y-228668D1*
X1311577Y-232425D1*
X1313786Y-236369D1*
X1315677Y-240474D1*
X1317241Y-244714D1*
X1318469Y-249063D1*
X1319236Y-252924D1*
X1319234Y-172199D1*
X1319236Y-272076D2*
X1318469Y-275937D1*
X1317241Y-280286D1*
X1315677Y-284526D1*
X1313786Y-288631D1*
X1311577Y-292575D1*
X1309066Y-296332D1*
X1306268Y-299882D1*
X1303201Y-303201D1*
X1299882Y-306268D1*
X1296332Y-309066D1*
X1290957Y-312483D1*
X1296332Y-315934D1*
X1299882Y-318732D1*
X1303201Y-321799D1*
X1306268Y-325118D1*
X1309066Y-328668D1*
X1311577Y-332425D1*
X1313786Y-336369D1*
X1315677Y-340474D1*
X1317241Y-344714D1*
X1318469Y-349063D1*
X1319236Y-352924D1*
X1319234Y-272224D1*
X1319236Y-372076D2*
X1318469Y-375937D1*
X1317241Y-380286D1*
X1315677Y-384526D1*
X1313786Y-388631D1*
X1311577Y-392575D1*
X1309066Y-396332D1*
X1306268Y-399882D1*
X1303201Y-403201D1*
X1299882Y-406268D1*
X1296332Y-409066D1*
X1290957Y-412483D1*
X1296332Y-415934D1*
X1299882Y-418732D1*
X1303201Y-421799D1*
X1306268Y-425118D1*
X1309066Y-428668D1*
X1311577Y-432425D1*
X1313786Y-436369D1*
X1315677Y-440474D1*
X1317241Y-444714D1*
X1318469Y-449063D1*
X1319236Y-452924D1*
X1319234Y-372202D1*
X1319236Y-472076D2*
X1318469Y-475937D1*
X1317241Y-480286D1*
X1315677Y-484526D1*
X1313786Y-488631D1*
X1311577Y-492575D1*
X1309066Y-496332D1*
X1306268Y-499882D1*
X1303201Y-503201D1*
X1299882Y-506268D1*
X1296332Y-509066D1*
X1290957Y-512483D1*
X1296332Y-515934D1*
X1299882Y-518732D1*
X1303201Y-521799D1*
X1306268Y-525118D1*
X1309066Y-528668D1*
X1311577Y-532425D1*
X1313786Y-536369D1*
X1315677Y-540474D1*
X1317241Y-544714D1*
X1318469Y-549063D1*
X1319234Y-552667D1*
Y-472227D1*
X1319236Y-572076D2*
X1318469Y-575937D1*
X1317241Y-580286D1*
X1315677Y-584526D1*
X1313786Y-588631D1*
X1311577Y-592575D1*
X1309066Y-596332D1*
X1306268Y-599882D1*
X1303201Y-603201D1*
X1299882Y-606268D1*
X1296332Y-609066D1*
X1290957Y-612483D1*
X1296332Y-615934D1*
X1299882Y-618732D1*
X1303201Y-621799D1*
X1306268Y-625118D1*
X1309066Y-628668D1*
X1311577Y-632425D1*
X1313786Y-636369D1*
X1315677Y-640474D1*
X1317241Y-644714D1*
X1318469Y-649063D1*
X1319236Y-652924D1*
X1319234Y-572206D1*
X1319236Y-672076D2*
X1318469Y-675937D1*
X1317241Y-680286D1*
X1315677Y-684526D1*
X1313786Y-688631D1*
X1311577Y-692575D1*
X1309066Y-696332D1*
X1306268Y-699882D1*
X1303201Y-703201D1*
X1299882Y-706268D1*
X1296332Y-709066D1*
X1290957Y-712483D1*
X1296332Y-715934D1*
X1299882Y-718732D1*
X1303201Y-721799D1*
X1306268Y-725118D1*
X1309066Y-728668D1*
X1311577Y-732425D1*
X1313786Y-736369D1*
X1315677Y-740474D1*
X1317241Y-744714D1*
X1318469Y-749063D1*
X1319236Y-752924D1*
X1319234Y-672230D1*
X1319236Y-772076D2*
X1318469Y-775937D1*
X1317241Y-780286D1*
X1315677Y-784526D1*
X1313786Y-788631D1*
X1311577Y-792575D1*
X1309066Y-796332D1*
X1306268Y-799882D1*
X1303201Y-803201D1*
X1299882Y-806268D1*
X1296332Y-809066D1*
X1290957Y-812483D1*
X1296332Y-815934D1*
X1299882Y-818732D1*
X1303201Y-821799D1*
X1306268Y-825118D1*
X1309066Y-828668D1*
X1311577Y-832425D1*
X1313786Y-836369D1*
X1315677Y-840474D1*
X1317241Y-844714D1*
X1318469Y-849063D1*
X1319236Y-852924D1*
X1319234Y-772209D1*
X1319236Y-872076D2*
X1318469Y-875937D1*
X1317241Y-880286D1*
X1315677Y-884526D1*
X1313786Y-888631D1*
X1311577Y-892575D1*
X1309066Y-896332D1*
X1306268Y-899882D1*
X1303201Y-903201D1*
X1299882Y-906268D1*
X1296332Y-909066D1*
X1290957Y-912483D1*
X1295108Y-915068D1*
X1299794Y-918656D1*
X1304088Y-922707D1*
X1307945Y-927176D1*
X1311324Y-932016D1*
X1314189Y-937176D1*
X1316510Y-942604D1*
X1318265Y-948240D1*
X1319234Y-952791D1*
Y-872234D1*
Y-972202D2*
X1318024Y-977673D1*
X1316177Y-983280D1*
X1313766Y-988668D1*
X1310818Y-993781D1*
X1307360Y-998566D1*
X1303429Y-1002970D1*
X1299070Y-1006949D1*
X1294324Y-1010461D1*
X1289245Y-1013469D1*
X1283885Y-1015940D1*
X1278299Y-1017848D1*
X1272387Y-1019202D1*
X1319213D1*
X1319234Y-972211D1*
X223063Y-588743D2*
X222664Y-593448D1*
X221736Y-598077D1*
X220293Y-602573D1*
X218350Y-606878D1*
X215937Y-610936D1*
X213080Y-614696D1*
X209818Y-618109D1*
X206192Y-621134D1*
X202247Y-623730D1*
X198035Y-625864D1*
X193609Y-627510D1*
X189026Y-628647D1*
X184344Y-629260D1*
X179623Y-629340D1*
X174923Y-628888D1*
X170303Y-627909D1*
X165824Y-626416D1*
X161542Y-624427D1*
X157510Y-621967D1*
X153783Y-619068D1*
X150406Y-615769D1*
X147423Y-612109D1*
X144870Y-608136D1*
X142782Y-603900D1*
X141186Y-599457D1*
X140100Y-594861D1*
X139539Y-590173D1*
X139512Y-585451D1*
X140016Y-580756D1*
X141046Y-576148D1*
X142589Y-571685D1*
X144626Y-567425D1*
X147130Y-563423D1*
X150070Y-559727D1*
X153407Y-556387D1*
X157100Y-553444D1*
X161101Y-550937D1*
X165360Y-548896D1*
X169820Y-547349D1*
X174428Y-546314D1*
X179122Y-545806D1*
X183844Y-545829D1*
X188533Y-546386D1*
X193129Y-547469D1*
X197575Y-549062D1*
X201811Y-551146D1*
X205786Y-553693D1*
X209449Y-556675D1*
X212752Y-560049D1*
X215654Y-563773D1*
X218117Y-567802D1*
X220109Y-572083D1*
X221608Y-576562D1*
X222591Y-581180D1*
X223046Y-585879D1*
X223063Y-588743D1*
X704364Y-763761D2*
X703965Y-768466D1*
X703037Y-773096D1*
X701593Y-777592D1*
X699651Y-781896D1*
X697238Y-785954D1*
X694381Y-789714D1*
X691118Y-793127D1*
X687492Y-796152D1*
X683547Y-798748D1*
X679336Y-800882D1*
X674909Y-802529D1*
X670327Y-803665D1*
X665644Y-804278D1*
X660924Y-804358D1*
X656223Y-803907D1*
X651604Y-802928D1*
X647125Y-801434D1*
X642843Y-799445D1*
X638811Y-796986D1*
X635084Y-794087D1*
X631706Y-790787D1*
X628723Y-787127D1*
X626171Y-783155D1*
X624083Y-778919D1*
X622487Y-774475D1*
X621400Y-769879D1*
X620840Y-765192D1*
X620812Y-760470D1*
X621316Y-755774D1*
X622346Y-751167D1*
X623890Y-746703D1*
X625927Y-742444D1*
X628430Y-738441D1*
X631370Y-734745D1*
X634707Y-731406D1*
X638400Y-728462D1*
X642402Y-725955D1*
X646660Y-723915D1*
X651121Y-722367D1*
X655728Y-721332D1*
X660423Y-720824D1*
X665144Y-720848D1*
X669833Y-721404D1*
X674429Y-722487D1*
X678875Y-724080D1*
X683112Y-726164D1*
X687087Y-728711D1*
X690749Y-731693D1*
X694052Y-735067D1*
X696954Y-738791D1*
X699417Y-742820D1*
X701409Y-747101D1*
X702908Y-751580D1*
X703891Y-756198D1*
X704346Y-760898D1*
X704364Y-763761D1*
X1185664Y-588743D2*
X1185265Y-593448D1*
X1184337Y-598077D1*
X1182894Y-602573D1*
X1180951Y-606878D1*
X1178538Y-610936D1*
X1175681Y-614696D1*
X1172419Y-618109D1*
X1168793Y-621134D1*
X1164848Y-623730D1*
X1160636Y-625864D1*
X1156210Y-627510D1*
X1151627Y-628647D1*
X1146945Y-629260D1*
X1142224Y-629340D1*
X1137524Y-628888D1*
X1132904Y-627909D1*
X1128425Y-626416D1*
X1124143Y-624427D1*
X1120112Y-621967D1*
X1116385Y-619068D1*
X1113007Y-615769D1*
X1110024Y-612109D1*
X1107471Y-608136D1*
X1105383Y-603900D1*
X1103787Y-599457D1*
X1102701Y-594861D1*
X1102140Y-590173D1*
X1102113Y-585451D1*
X1102617Y-580756D1*
X1103647Y-576148D1*
X1105190Y-571685D1*
X1107227Y-567425D1*
X1109731Y-563423D1*
X1112671Y-559727D1*
X1116008Y-556387D1*
X1119701Y-553444D1*
X1123702Y-550937D1*
X1127961Y-548896D1*
X1132421Y-547349D1*
X1137029Y-546314D1*
X1141723Y-545806D1*
X1146445Y-545829D1*
X1151134Y-546386D1*
X1155730Y-547469D1*
X1160176Y-549062D1*
X1164412Y-551146D1*
X1168387Y-553693D1*
X1172050Y-556675D1*
X1175353Y-560049D1*
X1178255Y-563773D1*
X1180718Y-567802D1*
X1182710Y-572083D1*
X1184209Y-576562D1*
X1185192Y-581180D1*
X1185647Y-585879D1*
X1185664Y-588743D1*
X218773Y-199919D2*
Y-243675D1*
X171080Y-199919D2*
X266466D1*
X662570Y-487541D2*
Y-545076D1*
X605034Y-487541D2*
X720105D1*
X1204965Y-962500D2*
X1262500D1*
X181269Y-545774D2*
Y-629349D1*
X139482Y-587562D2*
X223056D1*
X662570Y-720793D2*
Y-804367D1*
X620782Y-762580D2*
X704357D1*
X1143870Y-545774D2*
Y-629349D1*
X1102083Y-587562D2*
X1185657D1*
D18*
X218773Y-125115D3*
Y-199919D3*
D19*
X367224Y-893755D3*
D20*
X564075D3*
X760925D3*
X957776D3*
D21*
X662570Y-287541D3*
D22*
Y-387541D3*
D23*
Y-487541D3*
D24*
X1143748Y-762500D3*
D23*
Y-862500D3*
Y-962500D3*
D24*
X181252Y-762500D3*
D23*
Y-862500D3*
Y-962500D3*
D24*
X62500Y-62500D3*
D23*
Y-162500D3*
Y-262500D3*
Y-362500D3*
Y-462500D3*
Y-562500D3*
Y-662500D3*
Y-762500D3*
Y-862500D3*
Y-962500D3*
D24*
X1262500Y-62500D3*
D23*
Y-162500D3*
Y-262500D3*
Y-362500D3*
Y-462500D3*
Y-562500D3*
Y-662500D3*
Y-762500D3*
Y-862500D3*
Y-962500D3*
M02*
