M48
INCH
T01C0.0118
T02C0.0433
T03C0.0512
%
T03
X+003672Y-008938
X+005641Y-008938
X+007609Y-008938
X+009578Y-008938
T02
X+006626Y-002875
X+006626Y-003875
X+006626Y-004875
X+011437Y-007625
X+011437Y-008625
X+011437Y-009625
X+001813Y-007625
X+001813Y-008625
X+001813Y-009625
X+000625Y-000625
X+000625Y-001625
X+000625Y-002625
X+000625Y-003625
X+000625Y-004625
X+000625Y-005625
X+000625Y-006625
X+000625Y-007625
X+000625Y-008625
X+000625Y-009625
X+012625Y-000625
X+012625Y-001625
X+012625Y-002625
X+012625Y-003625
X+012625Y-004625
X+012625Y-005625
X+012625Y-006625
X+012625Y-007625
X+012625Y-008625
X+012625Y-009625
T01
X+001813Y-005876
X+003938Y-001625
X+006626Y-005876
X+009814Y-003875
X+009814Y-002188
X+001625Y-000625
X+006626Y-007626
X+011439Y-005876
T00
M30
