G04 DipTrace 3.1.0.1*
G04 Верхняямаркировка.gbr*
%MOIN*%
G04 #@! TF.FileFunction,Legend,Top*
G04 #@! TF.Part,Single*
%ADD10C,0.009843*%
%ADD16C,0.023616*%
%ADD53C,0.00772*%
%ADD54C,0.010936*%
%ADD55C,0.013123*%
%ADD56C,0.008749*%
%FSLAX26Y26*%
G04*
G70*
G90*
G75*
G01*
G04 TopSilk*
%LPD*%
X303419Y-247146D2*
D10*
X267986Y-247169D1*
X303419Y-247146D2*
Y-107448D1*
X273894Y-77889D2*
X303419Y-107448D1*
X273894Y-77889D2*
X267986Y-77865D1*
X169560Y-247169D2*
X134127Y-247146D1*
Y-107448D1*
X163652Y-77889D2*
X134127Y-107448D1*
X169560Y-77865D2*
X163652Y-77889D1*
D16*
X273903Y-56237D3*
X155698Y-312759D2*
D10*
X206840D1*
X245177Y-1023676D2*
X1079823D1*
Y-728400D1*
X245177D1*
Y-1023676D1*
G36*
X351511Y-988922D2*
X382977D1*
Y-1020428D1*
X351511D1*
Y-988922D1*
G37*
G36*
X548320D2*
X579787D1*
Y-1020428D1*
X548320D1*
Y-988922D1*
G37*
G36*
X745130D2*
X776596D1*
Y-1020428D1*
X745130D1*
Y-988922D1*
G37*
G36*
X942106D2*
X973572D1*
Y-1020428D1*
X942106D1*
Y-988922D1*
G37*
X712575Y-237560D2*
D10*
X612570D1*
Y-537522D1*
X712575D1*
Y-237560D1*
X1193753Y-712519D2*
X1093748D1*
Y-1012481D1*
X1193753D1*
Y-712519D1*
X231257D2*
X131252D1*
Y-1012481D1*
X231257D1*
Y-712519D1*
X111713Y-2657D2*
X13287D1*
Y-1022343D1*
X111713D1*
Y-2657D1*
X1311713D2*
X1213287D1*
Y-1022343D1*
X1311713D1*
Y-2657D1*
X567177Y-336362D2*
X370322D1*
X567177Y-438738D2*
X370322D1*
Y-336362D2*
Y-438738D1*
X567177Y-367855D2*
Y-336362D1*
Y-407244D2*
Y-438738D1*
Y-367855D2*
G03X567177Y-407244I9J-19694D01*
G01*
X954677Y-336362D2*
X757822D1*
X954677Y-438738D2*
X757822D1*
Y-336362D2*
Y-438738D1*
X954677Y-367855D2*
Y-336362D1*
Y-407244D2*
Y-438738D1*
Y-367855D2*
G03X954677Y-407244I9J-19694D01*
G01*
X329253Y-269668D2*
D53*
X326876Y-264915D1*
X322068Y-260106D1*
X317314Y-257730D1*
X307753D1*
X302944Y-260106D1*
X298191Y-264915D1*
X295759Y-269668D1*
X293383Y-276853D1*
Y-288846D1*
X295759Y-295976D1*
X298191Y-300785D1*
X302944Y-305538D1*
X307753Y-307970D1*
X317314D1*
X322068Y-305538D1*
X326876Y-300785D1*
X329253Y-295976D1*
X344692Y-267347D2*
X349500Y-264915D1*
X356685Y-257785D1*
Y-307970D1*
X153526Y-541621D2*
X203766D1*
Y-524874D1*
X201334Y-517689D1*
X196581Y-512881D1*
X191773Y-510504D1*
X184643Y-508128D1*
X172650D1*
X165465Y-510504D1*
X160711Y-512881D1*
X155903Y-517689D1*
X153526Y-524874D1*
Y-541621D1*
X165520Y-490257D2*
X163143D1*
X158335Y-487880D1*
X155958Y-485503D1*
X153582Y-480695D1*
Y-471133D1*
X155958Y-466380D1*
X158335Y-464004D1*
X163143Y-461572D1*
X167896D1*
X172705Y-464004D1*
X179835Y-468757D1*
X203766Y-492688D1*
Y-459195D1*
X650000Y-748937D2*
Y-787184D1*
X647623Y-794369D1*
X645191Y-796745D1*
X640438Y-799177D1*
X635629D1*
X630876Y-796745D1*
X628500Y-794369D1*
X626068Y-787184D1*
Y-782430D1*
X670247Y-748992D2*
X696500D1*
X682185Y-768116D1*
X689371D1*
X694124Y-770492D1*
X696500Y-772869D1*
X698932Y-780054D1*
Y-784807D1*
X696500Y-791992D1*
X691747Y-796800D1*
X684562Y-799177D1*
X677377D1*
X670247Y-796800D1*
X667871Y-794369D1*
X665439Y-789615D1*
X648883Y-164337D2*
Y-202583D1*
X646507Y-209768D1*
X644075Y-212145D1*
X639322Y-214577D1*
X634513D1*
X629760Y-212145D1*
X627384Y-209768D1*
X624952Y-202583D1*
Y-197830D1*
X688254Y-214577D2*
Y-164392D1*
X664323Y-197830D1*
X700193D1*
X1131250Y-639296D2*
Y-677542D1*
X1128874Y-684728D1*
X1126442Y-687104D1*
X1121689Y-689536D1*
X1116880D1*
X1112127Y-687104D1*
X1109750Y-684728D1*
X1107319Y-677542D1*
Y-672789D1*
X1175374Y-639351D2*
X1151498D1*
X1149121Y-660851D1*
X1151498Y-658474D1*
X1158683Y-656043D1*
X1165813D1*
X1172998Y-658474D1*
X1177806Y-663228D1*
X1180183Y-670413D1*
Y-675166D1*
X1177806Y-682351D1*
X1172998Y-687159D1*
X1165813Y-689536D1*
X1158683D1*
X1151498Y-687159D1*
X1149121Y-684728D1*
X1146689Y-679974D1*
X169970Y-639296D2*
Y-677542D1*
X167593Y-684728D1*
X165162Y-687104D1*
X160408Y-689536D1*
X155600D1*
X150847Y-687104D1*
X148470Y-684728D1*
X146038Y-677542D1*
Y-672789D1*
X214094Y-646481D2*
X211718Y-641728D1*
X204533Y-639351D1*
X199779D1*
X192594Y-641728D1*
X187786Y-648913D1*
X185409Y-660851D1*
Y-672789D1*
X187786Y-682351D1*
X192594Y-687159D1*
X199779Y-689536D1*
X202156D1*
X209286Y-687159D1*
X214094Y-682351D1*
X216471Y-675166D1*
Y-672789D1*
X214094Y-665604D1*
X209286Y-660851D1*
X202156Y-658474D1*
X199779D1*
X192594Y-660851D1*
X187786Y-665604D1*
X185409Y-672789D1*
X732037Y-583680D2*
X753537D1*
X760722Y-581248D1*
X763154Y-578871D1*
X765530Y-574118D1*
Y-569310D1*
X763154Y-564557D1*
X760722Y-562125D1*
X753537Y-559748D1*
X732037D1*
Y-609988D1*
X748784Y-583680D2*
X765530Y-609988D1*
X780970Y-569365D2*
X785778Y-566933D1*
X792963Y-559803D1*
Y-609988D1*
X840025Y-671189D2*
X861524D1*
X868709Y-668757D1*
X871141Y-666380D1*
X873518Y-661627D1*
Y-656819D1*
X871141Y-652066D1*
X868709Y-649634D1*
X861524Y-647257D1*
X840025D1*
Y-697497D1*
X856771Y-671189D2*
X873518Y-697497D1*
X891389Y-659251D2*
Y-656874D1*
X893766Y-652066D1*
X896142Y-649689D1*
X900951Y-647313D1*
X910512D1*
X915265Y-649689D1*
X917642Y-652066D1*
X920074Y-656874D1*
Y-661627D1*
X917642Y-666436D1*
X912889Y-673566D1*
X888957Y-697497D1*
X922450D1*
X840025Y-583689D2*
X861524D1*
X868709Y-581257D1*
X871141Y-578880D1*
X873518Y-574127D1*
Y-569319D1*
X871141Y-564566D1*
X868709Y-562134D1*
X861524Y-559757D1*
X840025D1*
Y-609997D1*
X856771Y-583689D2*
X873518Y-609997D1*
X893766Y-559813D2*
X920019D1*
X905704Y-578936D1*
X912889D1*
X917642Y-581312D1*
X920019Y-583689D1*
X922450Y-590874D1*
Y-595627D1*
X920019Y-602812D1*
X915265Y-607621D1*
X908080Y-609997D1*
X900895D1*
X893766Y-607621D1*
X891389Y-605189D1*
X888957Y-600436D1*
X407611Y-583689D2*
X429110D1*
X436295Y-581257D1*
X438727Y-578880D1*
X441104Y-574127D1*
Y-569319D1*
X438727Y-564566D1*
X436295Y-562134D1*
X429110Y-559757D1*
X407611D1*
Y-609997D1*
X424357Y-583689D2*
X441104Y-609997D1*
X480475D2*
Y-559813D1*
X456543Y-593251D1*
X492413D1*
X408799Y-671189D2*
X430299D1*
X437484Y-668757D1*
X439916Y-666380D1*
X442292Y-661627D1*
Y-656819D1*
X439916Y-652066D1*
X437484Y-649634D1*
X430299Y-647257D1*
X408799D1*
Y-697497D1*
X425546Y-671189D2*
X442292Y-697497D1*
X486416Y-647313D2*
X462540D1*
X460163Y-668812D1*
X462540Y-666436D1*
X469725Y-664004D1*
X476855D1*
X484040Y-666436D1*
X488848Y-671189D1*
X491225Y-678374D1*
Y-683127D1*
X488848Y-690312D1*
X484040Y-695121D1*
X476855Y-697497D1*
X469725D1*
X462540Y-695121D1*
X460163Y-692689D1*
X457731Y-687936D1*
X522503Y-583680D2*
X544003D1*
X551188Y-581248D1*
X553620Y-578871D1*
X555996Y-574118D1*
Y-569310D1*
X553620Y-564557D1*
X551188Y-562125D1*
X544003Y-559748D1*
X522503D1*
Y-609988D1*
X539250Y-583680D2*
X555996Y-609988D1*
X600120Y-566933D2*
X597744Y-562180D1*
X590559Y-559803D1*
X585806D1*
X578621Y-562180D1*
X573812Y-569365D1*
X571436Y-581303D1*
Y-593241D1*
X573812Y-602803D1*
X578621Y-607611D1*
X585806Y-609988D1*
X588182D1*
X595312Y-607611D1*
X600120Y-602803D1*
X602497Y-595618D1*
Y-593241D1*
X600120Y-586056D1*
X595312Y-581303D1*
X588182Y-578927D1*
X585806D1*
X578621Y-581303D1*
X573812Y-586056D1*
X571436Y-593241D1*
X258717Y-541265D2*
Y-519765D1*
X256285Y-512580D1*
X253908Y-510149D1*
X249155Y-507772D1*
X244346D1*
X239593Y-510149D1*
X237161Y-512580D1*
X234785Y-519765D1*
Y-541265D1*
X285025D1*
X258717Y-524519D2*
X285025Y-507772D1*
Y-482771D2*
X234840Y-458839D1*
Y-492333D1*
X438286Y-168658D2*
Y-204527D1*
X440663Y-211712D1*
X445471Y-216466D1*
X452656Y-218898D1*
X457410D1*
X464595Y-216466D1*
X469403Y-211712D1*
X471780Y-204527D1*
Y-168658D1*
X487219Y-178274D2*
X492027Y-175843D1*
X499212Y-168713D1*
Y-218898D1*
X815036Y-168658D2*
Y-204527D1*
X817413Y-211712D1*
X822221Y-216466D1*
X829406Y-218898D1*
X834160D1*
X841345Y-216466D1*
X846153Y-211712D1*
X848530Y-204527D1*
Y-168658D1*
X866401Y-180651D2*
Y-178274D1*
X868777Y-173466D1*
X871154Y-171089D1*
X875962Y-168713D1*
X885524D1*
X890277Y-171089D1*
X892654Y-173466D1*
X895086Y-178274D1*
Y-183028D1*
X892654Y-187836D1*
X887901Y-194966D1*
X863969Y-218898D1*
X897462D1*
X1153420Y-481985D2*
D54*
X1150988Y-478619D1*
X1143858Y-473589D1*
X1194043D1*
X1143858Y-454913D2*
Y-436536D1*
X1162982Y-446556D1*
Y-441526D1*
X1165358Y-438199D1*
X1167735Y-436536D1*
X1174920Y-434833D1*
X1179673D1*
X1186858Y-436536D1*
X1191667Y-439863D1*
X1194043Y-444892D1*
Y-449922D1*
X1191667Y-454913D1*
X1189235Y-456576D1*
X1184482Y-458279D1*
X1189235Y-417859D2*
X1191667Y-419523D1*
X1194043Y-417859D1*
X1191667Y-416157D1*
X1189235Y-417859D1*
X1153420Y-400846D2*
X1150988Y-397480D1*
X1143858Y-392451D1*
X1194043D1*
X1155797Y-375438D2*
X1153420D1*
X1148612Y-373774D1*
X1146235Y-372111D1*
X1143858Y-368745D1*
Y-362052D1*
X1146235Y-358724D1*
X1148612Y-357061D1*
X1153420Y-355358D1*
X1158173D1*
X1162982Y-357061D1*
X1170112Y-360388D1*
X1194043Y-377140D1*
Y-353695D1*
X1189235Y-336721D2*
X1191667Y-338384D1*
X1194043Y-336721D1*
X1191667Y-335018D1*
X1189235Y-336721D1*
X1155797Y-318005D2*
X1153420D1*
X1148612Y-316342D1*
X1146235Y-314678D1*
X1143858Y-311312D1*
Y-304619D1*
X1146235Y-301292D1*
X1148612Y-299628D1*
X1153420Y-297926D1*
X1158173D1*
X1162982Y-299628D1*
X1170111Y-302956D1*
X1194043Y-319708D1*
Y-296262D1*
X1143858Y-270893D2*
X1146235Y-275922D1*
X1153420Y-279288D1*
X1165358Y-280952D1*
X1172543D1*
X1184482Y-279288D1*
X1191667Y-275922D1*
X1194043Y-270893D1*
Y-267566D1*
X1191667Y-262536D1*
X1184482Y-259209D1*
X1172543Y-257507D1*
X1165358D1*
X1153420Y-259209D1*
X1146235Y-262536D1*
X1143858Y-267566D1*
Y-270893D1*
X1153420Y-259209D2*
X1184482Y-279288D1*
X1153420Y-242196D2*
X1150988Y-238830D1*
X1143858Y-233800D1*
X1194043D1*
Y-211797D2*
X1143858Y-195045D1*
Y-218490D1*
X315814Y-60219D2*
D55*
X341613D1*
X350236Y-57301D1*
X353154Y-54449D1*
X356006Y-48745D1*
Y-42975D1*
X353154Y-37271D1*
X350236Y-34353D1*
X341613Y-31501D1*
X315814D1*
Y-91789D1*
X335910Y-60219D2*
X356006Y-91789D1*
X422444Y-40123D2*
X416741Y-34353D1*
X408119Y-31501D1*
X396645D1*
X388023Y-34353D1*
X382252Y-40123D1*
Y-45827D1*
X385171Y-51597D1*
X388023Y-54449D1*
X393726Y-57301D1*
X410970Y-63071D1*
X416741Y-65923D1*
X419592Y-68841D1*
X422444Y-74545D1*
Y-83167D1*
X416741Y-88871D1*
X408119Y-91789D1*
X396645D1*
X388023Y-88871D1*
X382252Y-83167D1*
X477409Y-91789D2*
Y-31567D1*
X448691Y-71693D1*
X491735D1*
X532308Y-31567D2*
X523752Y-34419D1*
X520834Y-40123D1*
Y-45893D1*
X523752Y-51597D1*
X529456Y-54515D1*
X540930Y-57367D1*
X549552Y-60219D1*
X555256Y-65989D1*
X558107Y-71693D1*
Y-80315D1*
X555256Y-86019D1*
X552404Y-88937D1*
X543782Y-91789D1*
X532308D1*
X523752Y-88937D1*
X520834Y-86019D1*
X517982Y-80315D1*
Y-71693D1*
X520834Y-65989D1*
X526604Y-60219D1*
X535159Y-57367D1*
X546633Y-54515D1*
X552404Y-51597D1*
X555256Y-45893D1*
Y-40123D1*
X552404Y-34419D1*
X543782Y-31567D1*
X532308D1*
X618776D2*
X590124D1*
X587272Y-57367D1*
X590124Y-54515D1*
X598746Y-51597D1*
X607302D1*
X615924Y-54515D1*
X621694Y-60219D1*
X624546Y-68841D1*
Y-74545D1*
X621694Y-83167D1*
X615924Y-88937D1*
X607302Y-91789D1*
X598746D1*
X590124Y-88937D1*
X587272Y-86019D1*
X584354Y-80315D1*
X650793Y-91789D2*
X690985Y-31567D1*
X717232Y-60219D2*
X743031D1*
X751653Y-57301D1*
X754572Y-54449D1*
X757424Y-48745D1*
Y-42975D1*
X754572Y-37271D1*
X751653Y-34353D1*
X743031Y-31501D1*
X717232D1*
Y-91789D1*
X737328Y-60219D2*
X757424Y-91789D1*
X823862Y-40123D2*
X818158Y-34353D1*
X809536Y-31501D1*
X798062D1*
X789440Y-34353D1*
X783670Y-40123D1*
Y-45827D1*
X786589Y-51597D1*
X789440Y-54449D1*
X795144Y-57301D1*
X812388Y-63071D1*
X818158Y-65923D1*
X821010Y-68841D1*
X823862Y-74545D1*
Y-83167D1*
X818158Y-88871D1*
X809536Y-91789D1*
X798062D1*
X789440Y-88871D1*
X783670Y-83167D1*
X878827Y-91789D2*
Y-31567D1*
X850109Y-71693D1*
X893153D1*
X922318Y-45893D2*
Y-43041D1*
X925170Y-37271D1*
X928022Y-34419D1*
X933792Y-31567D1*
X945266D1*
X950970Y-34419D1*
X953822Y-37271D1*
X956740Y-43041D1*
Y-48745D1*
X953822Y-54515D1*
X948118Y-63071D1*
X919400Y-91789D1*
X959592D1*
X988757Y-45893D2*
Y-43041D1*
X991609Y-37271D1*
X994460Y-34419D1*
X1000231Y-31567D1*
X1011705D1*
X1017408Y-34419D1*
X1020260Y-37271D1*
X1023178Y-43041D1*
Y-48745D1*
X1020260Y-54515D1*
X1014556Y-63071D1*
X985838Y-91789D1*
X1026030D1*
X1112789Y-471437D2*
D54*
X1062549Y-482944D1*
X1112789Y-494418D1*
X1096042Y-490107D2*
Y-475748D1*
X1062549Y-458313D2*
X1112789Y-446839D1*
X1062549Y-435365D1*
X1086480Y-422242D2*
Y-409342D1*
X1084048Y-405031D1*
X1081672Y-403572D1*
X1076919Y-402146D1*
X1072110D1*
X1067357Y-403572D1*
X1064925Y-405031D1*
X1062549Y-409342D1*
Y-422242D1*
X1112789D1*
X1086480Y-412194D2*
X1112789Y-402146D1*
Y-366042D2*
X1062549Y-377549D1*
X1112789Y-389023D1*
X1096042Y-384712D2*
Y-370353D1*
X1069734Y-332822D2*
X1064925Y-335674D1*
X1062549Y-339985D1*
Y-345722D1*
X1064925Y-350033D1*
X1069734Y-352918D1*
X1074487D1*
X1079295Y-351459D1*
X1081672Y-350033D1*
X1084048Y-347181D1*
X1088857Y-338559D1*
X1091233Y-335674D1*
X1093665Y-334248D1*
X1098419Y-332822D1*
X1105604D1*
X1110357Y-335674D1*
X1112789Y-339985D1*
Y-345722D1*
X1110357Y-350033D1*
X1105604Y-352918D1*
X1112789Y-296751D2*
X1062549D1*
X1112789Y-308225D1*
X1062549Y-319699D1*
X1112789D1*
X1072166Y-283628D2*
X1069734Y-280743D1*
X1062604Y-276432D1*
X1112789D1*
X1074542Y-261849D2*
X1072166D1*
X1067357Y-260423D1*
X1064980Y-258997D1*
X1062604Y-256112D1*
Y-250375D1*
X1064980Y-247523D1*
X1067357Y-246097D1*
X1072166Y-244638D1*
X1076919D1*
X1081727Y-246097D1*
X1088857Y-248949D1*
X1112789Y-263308D1*
Y-243212D1*
X1062604Y-227204D2*
Y-211452D1*
X1081727Y-220041D1*
Y-215730D1*
X1084104Y-212878D1*
X1086480Y-211452D1*
X1093665Y-209993D1*
X1098419D1*
X1105604Y-211452D1*
X1110412Y-214304D1*
X1112789Y-218615D1*
Y-222926D1*
X1110412Y-227204D1*
X1107980Y-228630D1*
X1103227Y-230089D1*
X1112789Y-182510D2*
X1062604D1*
X1096042Y-196869D1*
Y-175347D1*
X990078Y-505329D2*
D56*
X1030270D1*
X990078D2*
X1030270Y-526765D1*
X990078D2*
X1030270D1*
X1003475Y-491331D2*
X1030270D1*
Y-481002D1*
X1028988Y-477535D1*
X1027706Y-476403D1*
X1025185Y-475272D1*
X1021338D1*
X1018774Y-476403D1*
X1017492Y-477535D1*
X1016254Y-481002D1*
X1014927Y-477535D1*
X1013689Y-476403D1*
X1011125Y-475272D1*
X1008560D1*
X1006040Y-476403D1*
X1004758Y-477535D1*
X1003475Y-481002D1*
Y-491331D1*
X1016254D2*
Y-481002D1*
X1003475Y-442915D2*
X1030270D1*
X1009223D2*
X1005377Y-445957D1*
X1003475Y-449034D1*
Y-453597D1*
X1005377Y-456675D1*
X1009223Y-459717D1*
X1014971Y-461273D1*
X1018774D1*
X1024522Y-459717D1*
X1028325Y-456675D1*
X1030270Y-453597D1*
Y-449034D1*
X1028325Y-445957D1*
X1024522Y-442915D1*
X1003475Y-428917D2*
X1030270D1*
X1003475Y-412858D2*
X1030270D1*
X1016254Y-428917D2*
Y-412858D1*
X1003475Y-382800D2*
X1030270D1*
X1003475D2*
X1030270Y-398859D1*
X1003475D2*
X1030270D1*
Y-368802D2*
X1003475D1*
Y-345845D2*
X1030270D1*
X1003475Y-357341D2*
X1030270D1*
Y-368802D2*
Y-345845D1*
X1003475Y-315788D2*
X1030270D1*
X1003475D2*
X1030270Y-331847D1*
X1003475D2*
X1030270D1*
X1003475Y-301790D2*
X1030270D1*
X1003475Y-285731D2*
X1030270D1*
X1016254Y-301790D2*
Y-285731D1*
X990078Y-236511D2*
X1030270D1*
Y-222715D1*
X1028324Y-218117D1*
X1026423Y-216596D1*
X1022621Y-215075D1*
X1016873D1*
X1013026Y-216596D1*
X1011125Y-218117D1*
X1009223Y-222715D1*
X1007278Y-218117D1*
X1005377Y-216596D1*
X1001574Y-215075D1*
X997727D1*
X993925Y-216596D1*
X991979Y-218117D1*
X990078Y-222715D1*
Y-236511D1*
X1009223D2*
Y-222715D1*
X1026423Y-199556D2*
X1028369Y-201077D1*
X1030270Y-199556D1*
X1028369Y-197999D1*
X1026423Y-199556D1*
X990078Y-184001D2*
X1030270D1*
Y-170206D1*
X1028324Y-165607D1*
X1026423Y-164086D1*
X1022621Y-162565D1*
X1016873D1*
X1013026Y-164086D1*
X1011125Y-165607D1*
X1009223Y-170206D1*
X1007278Y-165607D1*
X1005377Y-164086D1*
X1001574Y-162565D1*
X997727D1*
X993925Y-164086D1*
X991979Y-165607D1*
X990078Y-170206D1*
Y-184001D1*
X1009223D2*
Y-170206D1*
X1026423Y-147046D2*
X1028369Y-148567D1*
X1030270Y-147046D1*
X1028369Y-145489D1*
X1026423Y-147046D1*
M02*
