G04 DipTrace 3.1.0.1*
G04 Вехнийразмер.gbr*
%MOIN*%
G04 #@! TF.FileFunction,Drawing,Top*
G04 #@! TF.Part,Single*
%ADD13C,0.001378*%
%ADD57C,0.006176*%
%FSLAX26Y26*%
G04*
G70*
G90*
G75*
G01*
G04 TopDimension*
%LPD*%
D13*
X0Y150949D1*
X1325139Y0D2*
Y150949D1*
X662570Y131264D2*
X39370D1*
G36*
X0D2*
X39370Y139138D1*
Y123390D1*
X0Y131264D1*
G37*
X662570D2*
D13*
X1285769D1*
G36*
X1325139D2*
X1285769Y123390D1*
Y139138D1*
X1325139Y131264D1*
G37*
X0Y0D2*
D13*
X-213455D1*
X0Y-1025108D2*
X-213455D1*
X-193770Y-512554D2*
Y-39370D1*
G36*
Y0D2*
X-185896Y-39370D1*
X-201644D1*
X-193770Y0D1*
G37*
Y-512554D2*
D13*
Y-985738D1*
G36*
Y-1025108D2*
X-201644Y-985738D1*
X-185896D1*
X-193770Y-1025108D1*
G37*
X591234Y183622D2*
D57*
X612237D1*
X600785Y168324D1*
X606533D1*
X610335Y166422D1*
X612237Y164521D1*
X614182Y158773D1*
Y154971D1*
X612237Y149223D1*
X608434Y145376D1*
X602686Y143475D1*
X596938D1*
X591234Y145376D1*
X589333Y147321D1*
X587387Y151124D1*
X630380Y183622D2*
X651383D1*
X639931Y168324D1*
X645679D1*
X649481Y166422D1*
X651383Y164521D1*
X653328Y158773D1*
Y154971D1*
X651383Y149223D1*
X647580Y145376D1*
X641832Y143475D1*
X636084D1*
X630380Y145376D1*
X628479Y147321D1*
X626533Y151124D1*
X667581Y147321D2*
X665680Y145376D1*
X667581Y143475D1*
X669526Y145376D1*
X667581Y147321D1*
X704826Y177919D2*
X702924Y181721D1*
X697176Y183622D1*
X693374D1*
X687626Y181721D1*
X683779Y175973D1*
X681878Y166422D1*
Y156872D1*
X683779Y149223D1*
X687626Y145376D1*
X693374Y143475D1*
X695275D1*
X700979Y145376D1*
X704826Y149223D1*
X706727Y154971D1*
Y156872D1*
X704826Y162620D1*
X700979Y166422D1*
X695275Y168324D1*
X693374D1*
X687626Y166422D1*
X683779Y162620D1*
X681878Y156872D1*
X742026Y177919D2*
X740125Y181721D1*
X734377Y183622D1*
X730574D1*
X724826Y181721D1*
X720980Y175973D1*
X719078Y166422D1*
Y156872D1*
X720980Y149223D1*
X724826Y145376D1*
X730574Y143475D1*
X732476D1*
X738179Y145376D1*
X742026Y149223D1*
X743927Y154971D1*
Y156872D1*
X742026Y162620D1*
X738179Y166422D1*
X732476Y168324D1*
X730574D1*
X724826Y166422D1*
X720980Y162620D1*
X719078Y156872D1*
X-236578Y-587714D2*
X-238480D1*
X-242326Y-585813D1*
X-244228Y-583911D1*
X-246129Y-580065D1*
Y-572415D1*
X-244228Y-568613D1*
X-242326Y-566711D1*
X-238480Y-564766D1*
X-234677D1*
X-230830Y-566711D1*
X-225126Y-570514D1*
X-205981Y-589659D1*
Y-562865D1*
X-240425Y-527565D2*
X-244228Y-529467D1*
X-246129Y-535215D1*
Y-539017D1*
X-244228Y-544765D1*
X-238480Y-548612D1*
X-228929Y-550513D1*
X-219378D1*
X-211729Y-548612D1*
X-207882Y-544765D1*
X-205981Y-539017D1*
Y-537116D1*
X-207882Y-531412D1*
X-211729Y-527565D1*
X-217477Y-525664D1*
X-219378D1*
X-225126Y-527565D1*
X-228929Y-531412D1*
X-230830Y-537116D1*
Y-539017D1*
X-228929Y-544765D1*
X-225126Y-548612D1*
X-219378Y-550513D1*
X-209828Y-511411D2*
X-207882Y-513313D1*
X-205981Y-511411D1*
X-207882Y-509466D1*
X-209828Y-511411D1*
X-246129Y-485618D2*
X-244228Y-491367D1*
X-238480Y-495213D1*
X-228929Y-497115D1*
X-223181D1*
X-213630Y-495213D1*
X-207882Y-491367D1*
X-205981Y-485618D1*
Y-481816D1*
X-207882Y-476068D1*
X-213630Y-472265D1*
X-223181Y-470320D1*
X-228929D1*
X-238480Y-472265D1*
X-244228Y-476068D1*
X-246129Y-481816D1*
Y-485618D1*
X-238480Y-472265D2*
X-213630Y-495213D1*
X-205981Y-438823D2*
X-246129D1*
X-219378Y-457968D1*
Y-429273D1*
M02*
