G04 DipTrace 3.1.0.1*
G04 Верхняямаска.gbr*
%MOIN*%
G04 #@! TF.FileFunction,Soldermask,Top*
G04 #@! TF.Part,Single*
%ADD33R,0.031496X0.086614*%
%ADD35R,0.059055X0.066929*%
%ADD37R,0.086614X0.086614*%
%ADD39C,0.086614*%
%ADD41O,0.086614X0.074803*%
%ADD43R,0.086614X0.074803*%
%ADD45C,0.106299*%
%ADD47R,0.106299X0.106299*%
%ADD49R,0.066929X0.059055*%
%ADD51R,0.070866X0.108268*%
%FSLAX26Y26*%
G04*
G70*
G90*
G75*
G01*
G04 TopMask*
%LPD*%
D51*
X218773Y-93619D3*
Y-231415D3*
D49*
X181269Y-350139D3*
Y-424942D3*
D47*
X367224Y-893755D3*
D45*
X564075D3*
X760925D3*
X957776D3*
D43*
X662570Y-287541D3*
D41*
Y-387541D3*
D39*
Y-487541D3*
D37*
X1143748Y-762500D3*
D39*
Y-862500D3*
Y-962500D3*
D37*
X181252Y-762500D3*
D39*
Y-862500D3*
Y-962500D3*
D37*
X62500Y-62500D3*
D39*
Y-162500D3*
Y-262500D3*
Y-362500D3*
Y-462500D3*
Y-562500D3*
Y-662500D3*
Y-762500D3*
Y-862500D3*
Y-962500D3*
D37*
X1262500Y-62500D3*
D39*
Y-162500D3*
Y-262500D3*
Y-362500D3*
Y-462500D3*
Y-562500D3*
Y-662500D3*
Y-762500D3*
Y-862500D3*
Y-962500D3*
D35*
X725098Y-675000D3*
X799902D3*
X1031151D3*
X956348D3*
X1031151Y-587500D3*
X956348D3*
X293848D3*
X368651D3*
Y-675000D3*
X293848D3*
X599902D3*
X525098D3*
D49*
X256277Y-350139D3*
Y-424942D3*
D33*
X543749Y-281251D3*
X493749D3*
X443749D3*
X393749D3*
Y-493849D3*
X443749D3*
X493749D3*
X543749D3*
X931249Y-281251D3*
X881249D3*
X831249D3*
X781249D3*
Y-493849D3*
X831249D3*
X881249D3*
X931249D3*
M02*
